<svg id="Layer_1" data-name="Layer 1" xmlns="http://www.w3.org/2000/svg" viewBox="0 0 518.8 301.91"><defs><style>.cls-1{font-size:11.16px;}.cls-1,.cls-20,.cls-8{fill:#404041;}.cls-1,.cls-20,.cls-21,.cls-8{font-family:SourceSansPro-SemiBold, Source Sans Pro;font-weight:600;}.cls-2{letter-spacing:-0.05em;}.cls-3{letter-spacing:-0.01em;}.cls-4{letter-spacing:-0.01em;}.cls-5{letter-spacing:-0.05em;}.cls-6{letter-spacing:-0.01em;}.cls-7{letter-spacing:-0.01em;}.cls-8{font-size:10.31px;}.cls-9{letter-spacing:-0.02em;}.cls-10{letter-spacing:-0.01em;}.cls-11{letter-spacing:-0.02em;}.cls-12{letter-spacing:-0.02em;}.cls-13{letter-spacing:-0.02em;}.cls-14{letter-spacing:-0.02em;}.cls-15{letter-spacing:0em;}.cls-16{letter-spacing:0em;}.cls-17{fill:#ffd200;}.cls-18{fill:#003e7e;}.cls-19,.cls-22{fill:none;stroke-miterlimit:10;}.cls-19{stroke:#404041;stroke-width:0.94px;}.cls-20,.cls-21{font-size:12.02px;}.cls-22{stroke:#000;stroke-width:0.43px;}</style></defs><text class="cls-1" transform="translate(85.99 238.86)">1 <tspan class="cls-2" x="7.96" y="0">Y</tspan><tspan class="cls-3" x="13.02" y="0">e</tspan><tspan x="18.54" y="0">ar</tspan></text><text class="cls-1" transform="translate(208.19 238.86)">3 <tspan class="cls-2" x="7.96" y="0">Y</tspan><tspan class="cls-3" x="13.02" y="0">e</tspan><tspan x="18.54" y="0">a</tspan><tspan class="cls-4" x="24.3" y="0">r</tspan><tspan x="28.4" y="0">s</tspan></text><text class="cls-1" transform="translate(321.57 238.86)">5 <tspan class="cls-2" x="7.96" y="0">Y</tspan><tspan class="cls-3" x="13.02" y="0">e</tspan><tspan x="18.54" y="0">a</tspan><tspan class="cls-4" x="24.3" y="0">r</tspan><tspan x="28.4" y="0">s</tspan></text><text class="cls-1" transform="translate(445.4 238.86)">10 <tspan class="cls-5" x="13.69" y="0">Y</tspan><tspan class="cls-6" x="18.74" y="0">e</tspan><tspan x="24.27" y="0">a</tspan><tspan class="cls-7" x="30.03" y="0">r</tspan><tspan x="34.13" y="0">s</tspan></text><text class="cls-8" transform="translate(8.55 137.61) rotate(-90)"><tspan class="cls-9">P</tspan><tspan x="5.77" y="0">e</tspan><tspan class="cls-10" x="11" y="0">r</tspan><tspan class="cls-11" x="14.74" y="0">c</tspan><tspan x="19.25" y="0">en</tspan><tspan class="cls-12" x="30.25" y="0">t</tspan><tspan x="33.75" y="0">a</tspan><tspan class="cls-13" x="39.07" y="0">g</tspan><tspan x="44.26" y="0">e</tspan></text><text class="cls-8" transform="translate(217.51 283.46)">= <tspan class="cls-14" x="7.35" y="0">F</tspan><tspan class="cls-15" x="12.44" y="0">ound</tspan><tspan class="cls-14" x="35.41" y="0">a</tspan><tspan class="cls-16" x="40.56" y="0">tion</tspan></text><text class="cls-8" transform="translate(301 283.46)">= Benchmark</text><rect class="cls-17" x="204.27" y="275.68" width="9.45" height="9.45"/><rect class="cls-18" x="287.47" y="275.68" width="9.45" height="9.45"/><rect class="cls-19" x="189.01" y="257.64" width="183.87" height="43.8" rx="8"/><text class="cls-20" transform="translate(475.62 49.76)">7.1%</text><text class="cls-20" transform="translate(426.48 48.44)">7.2%</text><text class="cls-20" transform="translate(305.64 122.5)">3.1%</text><text class="cls-20" transform="translate(354.94 91.72)">4.8%</text><text class="cls-20" transform="translate(184.15 131.19)">2.7%</text><text class="cls-20" transform="translate(235.84 98.37)">4.5%</text><text class="cls-20" transform="translate(62.26 183.87)">-1.7%</text><text class="cls-21" transform="translate(113.52 183.73)">0.1%</text><line class="cls-22" x1="41.05" y1="190.94" x2="518.8" y2="190.94"/><text class="cls-20" transform="translate(21.47 241.65)">-2</text><text class="cls-20" transform="translate(25.34 183.73)">1</text><text class="cls-20" transform="translate(25.34 125.81)">4</text><text class="cls-20" transform="translate(25.34 67.9)">7</text><text class="cls-20" transform="translate(19.18 9.98)">10</text><line class="cls-22" x1="40.2" y1="233.5" x2="40.2" y2="1.83"/><line class="cls-22" x1="40.2" y1="233.5" x2="50.58" y2="233.5"/><line class="cls-22" x1="40.2" y1="175.58" x2="50.58" y2="175.58"/><line class="cls-22" x1="40.2" y1="117.67" x2="50.58" y2="117.67"/><line class="cls-22" x1="40.2" y1="59.75" x2="50.58" y2="59.75"/><line class="cls-22" x1="40.2" y1="1.83" x2="50.58" y2="1.83"/><rect class="cls-18" x="104.76" y="189.1" width="43.21" height="1.93"/><rect class="cls-18" x="224.79" y="104.16" width="43.21" height="86.88"/><rect class="cls-18" x="344.83" y="98.37" width="43.21" height="92.67"/><rect class="cls-18" x="464.87" y="53.97" width="43.21" height="137.07"/><rect class="cls-17" x="56.74" y="191.03" width="43.21" height="32.82"/><rect class="cls-17" x="176.78" y="138.91" width="43.21" height="52.13"/><rect class="cls-17" x="296.82" y="131.19" width="43.21" height="59.85"/><rect class="cls-17" x="416.85" y="52.03" width="43.21" height="139"/></svg>