<?xml version="1.0" encoding="utf-8"?>
<!-- Generator: Adobe Illustrator 25.0.0, SVG Export Plug-In . SVG Version: 6.00 Build 0)  -->
<svg version="1.1" id="Layer_1" xmlns="http://www.w3.org/2000/svg" xmlns:xlink="http://www.w3.org/1999/xlink" x="0px" y="0px"
	 viewBox="0 0 519.3 301.9" style="enable-background:new 0 0 519.3 301.9;" xml:space="preserve">
<style type="text/css">
	.st0{enable-background:new    ;}
	.st1{fill:#404041;}
	.st2{fill:#FFD200;}
	.st3{fill:#003E7E;}
	.st4{fill:none;stroke:#404041;stroke-width:0.94;stroke-miterlimit:10;}
	.st5{fill:none;stroke:#000000;stroke-miterlimit:10;}
</style>
<g class="st0">
	<path class="st1" d="M86.8,238.9v-1h1.6v-4.7h-1.3v-0.8c0.4-0.1,0.7-0.1,0.9-0.2c0.3-0.1,0.5-0.2,0.7-0.3h1v6h1.4v1H86.8z"/>
</g>
<g class="st0">
	<path class="st1" d="M96.1,238.9v-2.7l-2.2-4.6h1.4l0.8,1.9c0.1,0.3,0.2,0.5,0.3,0.8c0.1,0.3,0.2,0.5,0.3,0.8h0
		c0.1-0.3,0.2-0.6,0.3-0.8s0.2-0.5,0.3-0.8l0.8-1.9h1.4l-2.2,4.6v2.7H96.1z"/>
</g>
<g class="st0">
	<path class="st1" d="M102.2,239c-0.4,0-0.7-0.1-1.1-0.2c-0.3-0.1-0.6-0.3-0.9-0.6s-0.4-0.5-0.6-0.9s-0.2-0.8-0.2-1.2
		c0-0.4,0.1-0.8,0.2-1.2c0.1-0.4,0.3-0.7,0.6-0.9c0.2-0.2,0.5-0.4,0.8-0.6c0.3-0.1,0.6-0.2,0.9-0.2c0.4,0,0.7,0.1,1,0.2
		c0.3,0.1,0.5,0.3,0.7,0.5c0.2,0.2,0.3,0.5,0.4,0.8c0.1,0.3,0.1,0.7,0.1,1c0,0.1,0,0.2,0,0.4s0,0.2,0,0.3h-3.5
		c0.1,0.5,0.2,0.9,0.5,1.1c0.3,0.3,0.7,0.4,1.1,0.4c0.2,0,0.5,0,0.7-0.1c0.2-0.1,0.4-0.2,0.6-0.3l0.4,0.8c-0.3,0.2-0.6,0.3-0.9,0.4
		C102.9,238.9,102.5,239,102.2,239z M100.7,235.6h2.4c0-0.4-0.1-0.8-0.3-1c-0.2-0.2-0.5-0.4-0.8-0.4c-0.3,0-0.6,0.1-0.9,0.3
		S100.8,235.2,100.7,235.6z"/>
</g>
<g class="st0">
	<path class="st1" d="M106.7,239c-0.5,0-0.9-0.1-1.2-0.4c-0.3-0.3-0.4-0.7-0.4-1.2c0-0.3,0.1-0.5,0.2-0.8c0.1-0.2,0.3-0.4,0.6-0.6
		c0.3-0.2,0.6-0.3,1-0.4c0.4-0.1,0.9-0.2,1.5-0.3c0-0.1,0-0.3-0.1-0.4c0-0.1-0.1-0.2-0.2-0.3s-0.2-0.2-0.3-0.2s-0.3-0.1-0.5-0.1
		c-0.3,0-0.5,0.1-0.8,0.2c-0.3,0.1-0.5,0.2-0.8,0.4l-0.5-0.9c0.3-0.2,0.6-0.4,1-0.5s0.8-0.2,1.2-0.2c0.7,0,1.2,0.2,1.5,0.6
		c0.3,0.4,0.5,1,0.5,1.8v3.2h-1.1l-0.1-0.6h0c-0.2,0.2-0.5,0.4-0.8,0.5S107,239,106.7,239z M107.1,238c0.2,0,0.4-0.1,0.6-0.2
		c0.2-0.1,0.4-0.3,0.6-0.4v-1.2c-0.4,0-0.7,0.1-0.9,0.2c-0.3,0.1-0.5,0.2-0.6,0.3c-0.2,0.1-0.3,0.2-0.3,0.3s-0.1,0.2-0.1,0.4
		c0,0.2,0.1,0.4,0.2,0.5S106.9,238,107.1,238z"/>
	<path class="st1" d="M111.1,238.9v-5.5h1.1l0.1,1h0c0.2-0.4,0.4-0.6,0.7-0.8c0.3-0.2,0.6-0.3,0.8-0.3c0.3,0,0.5,0,0.6,0.1l-0.2,1.1
		c-0.1,0-0.2-0.1-0.3-0.1c-0.1,0-0.2,0-0.3,0c-0.2,0-0.4,0.1-0.7,0.3c-0.2,0.2-0.4,0.5-0.6,0.9v3.3H111.1z"/>
</g>
<g class="st0">
	<path class="st1" d="M210.9,239c-0.6,0-1.1-0.1-1.5-0.3s-0.7-0.4-1-0.7l0.6-0.8c0.2,0.2,0.5,0.4,0.7,0.6s0.6,0.2,0.9,0.2
		c0.4,0,0.7-0.1,0.9-0.3c0.2-0.2,0.4-0.5,0.4-0.8c0-0.2,0-0.4-0.1-0.5c-0.1-0.1-0.2-0.3-0.3-0.4s-0.4-0.2-0.6-0.2
		c-0.3-0.1-0.6-0.1-1-0.1v-0.9c0.3,0,0.6,0,0.9-0.1s0.4-0.1,0.6-0.2s0.2-0.2,0.3-0.4c0.1-0.1,0.1-0.3,0.1-0.5c0-0.3-0.1-0.5-0.3-0.7
		c-0.2-0.2-0.4-0.3-0.8-0.3c-0.3,0-0.5,0.1-0.8,0.2c-0.2,0.1-0.4,0.3-0.7,0.5l-0.7-0.8c0.3-0.3,0.6-0.5,1-0.6
		c0.3-0.2,0.7-0.2,1.2-0.2c0.3,0,0.7,0,0.9,0.1c0.3,0.1,0.5,0.2,0.7,0.4c0.2,0.2,0.4,0.4,0.5,0.6c0.1,0.2,0.2,0.5,0.2,0.8
		c0,0.4-0.1,0.7-0.3,1c-0.2,0.3-0.5,0.5-0.9,0.6v0c0.4,0.1,0.8,0.3,1.1,0.6c0.3,0.3,0.4,0.7,0.4,1.1c0,0.3-0.1,0.6-0.2,0.9
		s-0.3,0.5-0.5,0.6s-0.5,0.3-0.8,0.4S211.2,239,210.9,239z"/>
</g>
<g class="st0">
	<path class="st1" d="M218.3,238.9v-2.7l-2.2-4.6h1.4l0.8,1.9c0.1,0.3,0.2,0.5,0.3,0.8c0.1,0.3,0.2,0.5,0.3,0.8h0
		c0.1-0.3,0.2-0.6,0.3-0.8s0.2-0.5,0.3-0.8l0.8-1.9h1.4l-2.2,4.6v2.7H218.3z"/>
</g>
<g class="st0">
	<path class="st1" d="M224.4,239c-0.4,0-0.7-0.1-1.1-0.2c-0.3-0.1-0.6-0.3-0.9-0.6s-0.4-0.5-0.6-0.9s-0.2-0.8-0.2-1.2
		c0-0.4,0.1-0.8,0.2-1.2c0.1-0.4,0.3-0.7,0.6-0.9c0.2-0.2,0.5-0.4,0.8-0.6c0.3-0.1,0.6-0.2,0.9-0.2c0.4,0,0.7,0.1,1,0.2
		c0.3,0.1,0.5,0.3,0.7,0.5c0.2,0.2,0.3,0.5,0.4,0.8c0.1,0.3,0.1,0.7,0.1,1c0,0.1,0,0.2,0,0.4s0,0.2,0,0.3h-3.5
		c0.1,0.5,0.2,0.9,0.5,1.1c0.3,0.3,0.7,0.4,1.1,0.4c0.2,0,0.5,0,0.7-0.1c0.2-0.1,0.4-0.2,0.6-0.3l0.4,0.8c-0.3,0.2-0.6,0.3-0.9,0.4
		C225.1,238.9,224.7,239,224.4,239z M222.9,235.6h2.4c0-0.4-0.1-0.8-0.3-1c-0.2-0.2-0.5-0.4-0.8-0.4c-0.3,0-0.6,0.1-0.9,0.3
		S223,235.2,222.9,235.6z"/>
</g>
<g class="st0">
	<path class="st1" d="M228.9,239c-0.5,0-0.9-0.1-1.2-0.4c-0.3-0.3-0.4-0.7-0.4-1.2c0-0.3,0.1-0.5,0.2-0.8c0.1-0.2,0.3-0.4,0.6-0.6
		c0.3-0.2,0.6-0.3,1-0.4c0.4-0.1,0.9-0.2,1.5-0.3c0-0.1,0-0.3-0.1-0.4c0-0.1-0.1-0.2-0.2-0.3s-0.2-0.2-0.3-0.2s-0.3-0.1-0.5-0.1
		c-0.3,0-0.5,0.1-0.8,0.2c-0.3,0.1-0.5,0.2-0.8,0.4l-0.5-0.9c0.3-0.2,0.6-0.4,1-0.5s0.8-0.2,1.2-0.2c0.7,0,1.2,0.2,1.5,0.6
		c0.3,0.4,0.5,1,0.5,1.8v3.2h-1.1l-0.1-0.6h0c-0.2,0.2-0.5,0.4-0.8,0.5S229.2,239,228.9,239z M229.3,238c0.2,0,0.4-0.1,0.6-0.2
		c0.2-0.1,0.4-0.3,0.6-0.4v-1.2c-0.4,0-0.7,0.1-0.9,0.2c-0.3,0.1-0.5,0.2-0.6,0.3c-0.2,0.1-0.3,0.2-0.3,0.3s-0.1,0.2-0.1,0.4
		c0,0.2,0.1,0.4,0.2,0.5S229.1,238,229.3,238z"/>
</g>
<g class="st0">
	<path class="st1" d="M233.3,238.9v-5.5h1.1l0.1,1h0c0.2-0.4,0.4-0.6,0.7-0.8c0.3-0.2,0.6-0.3,0.8-0.3c0.3,0,0.5,0,0.6,0.1l-0.2,1.1
		c-0.1,0-0.2-0.1-0.3-0.1c-0.1,0-0.2,0-0.3,0c-0.2,0-0.4,0.1-0.7,0.3c-0.2,0.2-0.4,0.5-0.6,0.9v3.3H233.3z"/>
</g>
<g class="st0">
	<path class="st1" d="M238.9,239c-0.4,0-0.8-0.1-1.1-0.2c-0.4-0.1-0.7-0.3-1-0.5l0.6-0.8c0.2,0.2,0.5,0.3,0.7,0.5
		c0.2,0.1,0.5,0.2,0.8,0.2c0.3,0,0.5-0.1,0.7-0.2c0.1-0.1,0.2-0.3,0.2-0.5c0-0.1,0-0.2-0.1-0.3s-0.2-0.2-0.3-0.2
		c-0.1-0.1-0.2-0.1-0.4-0.2c-0.1-0.1-0.3-0.1-0.4-0.2c-0.2-0.1-0.4-0.1-0.5-0.2c-0.2-0.1-0.4-0.2-0.5-0.3c-0.1-0.1-0.3-0.3-0.4-0.4
		c-0.1-0.2-0.1-0.4-0.1-0.6c0-0.5,0.2-0.9,0.5-1.2c0.4-0.3,0.8-0.5,1.5-0.5c0.4,0,0.7,0.1,1,0.2c0.3,0.1,0.6,0.3,0.8,0.5l-0.6,0.8
		c-0.2-0.1-0.4-0.3-0.6-0.3c-0.2-0.1-0.4-0.1-0.6-0.1c-0.3,0-0.5,0.1-0.6,0.2s-0.2,0.3-0.2,0.4c0,0.1,0,0.2,0.1,0.3
		c0.1,0.1,0.1,0.1,0.3,0.2c0.1,0.1,0.2,0.1,0.4,0.2c0.1,0.1,0.3,0.1,0.4,0.2c0.2,0.1,0.4,0.1,0.6,0.2c0.2,0.1,0.4,0.2,0.5,0.3
		c0.2,0.1,0.3,0.3,0.4,0.5c0.1,0.2,0.1,0.4,0.1,0.7c0,0.2,0,0.5-0.1,0.7c-0.1,0.2-0.2,0.4-0.4,0.5c-0.2,0.2-0.4,0.3-0.7,0.4
		C239.6,238.9,239.3,239,238.9,239z"/>
</g>
<g class="st0">
	<path class="st1" d="M324.3,239c-0.6,0-1.1-0.1-1.4-0.3c-0.4-0.2-0.7-0.4-1-0.7l0.6-0.8c0.2,0.2,0.5,0.4,0.7,0.5
		c0.3,0.2,0.6,0.2,0.9,0.2c0.4,0,0.7-0.1,1-0.4s0.4-0.6,0.4-1c0-0.4-0.1-0.8-0.4-1s-0.6-0.3-0.9-0.3c-0.2,0-0.4,0-0.6,0.1
		s-0.3,0.2-0.6,0.3l-0.6-0.4l0.2-3.5h3.8v1.1h-2.7l-0.1,1.7c0.1-0.1,0.3-0.1,0.4-0.2c0.1,0,0.3-0.1,0.5-0.1c0.3,0,0.6,0,0.9,0.1
		c0.3,0.1,0.5,0.2,0.7,0.4c0.2,0.2,0.4,0.4,0.5,0.7s0.2,0.6,0.2,1c0,0.4-0.1,0.7-0.2,1c-0.1,0.3-0.3,0.6-0.6,0.8
		c-0.2,0.2-0.5,0.4-0.8,0.5C324.9,238.9,324.6,239,324.3,239z"/>
</g>
<g class="st0">
	<path class="st1" d="M331.7,238.9v-2.7l-2.2-4.6h1.4l0.8,1.9c0.1,0.3,0.2,0.5,0.3,0.8c0.1,0.3,0.2,0.5,0.3,0.8h0
		c0.1-0.3,0.2-0.6,0.3-0.8c0.1-0.3,0.2-0.5,0.3-0.8l0.8-1.9h1.4l-2.2,4.6v2.7H331.7z"/>
</g>
<g class="st0">
	<path class="st1" d="M337.7,239c-0.4,0-0.7-0.1-1.1-0.2c-0.3-0.1-0.6-0.3-0.9-0.6c-0.2-0.2-0.4-0.5-0.6-0.9s-0.2-0.8-0.2-1.2
		c0-0.4,0.1-0.8,0.2-1.2s0.3-0.7,0.6-0.9c0.2-0.2,0.5-0.4,0.8-0.6c0.3-0.1,0.6-0.2,0.9-0.2c0.4,0,0.7,0.1,1,0.2
		c0.3,0.1,0.5,0.3,0.7,0.5s0.3,0.5,0.4,0.8c0.1,0.3,0.1,0.7,0.1,1c0,0.1,0,0.2,0,0.4c0,0.1,0,0.2,0,0.3h-3.5
		c0.1,0.5,0.2,0.9,0.5,1.1c0.3,0.3,0.7,0.4,1.1,0.4c0.2,0,0.5,0,0.7-0.1c0.2-0.1,0.4-0.2,0.6-0.3l0.4,0.8c-0.3,0.2-0.6,0.3-0.9,0.4
		C338.4,238.9,338.1,239,337.7,239z M336.3,235.6h2.4c0-0.4-0.1-0.8-0.3-1c-0.2-0.2-0.5-0.4-0.8-0.4c-0.3,0-0.6,0.1-0.9,0.3
		C336.5,234.8,336.3,235.2,336.3,235.6z"/>
</g>
<g class="st0">
	<path class="st1" d="M342.3,239c-0.5,0-0.9-0.1-1.2-0.4s-0.4-0.7-0.4-1.2c0-0.3,0.1-0.5,0.2-0.8c0.1-0.2,0.3-0.4,0.6-0.6
		c0.3-0.2,0.6-0.3,1-0.4c0.4-0.1,0.9-0.2,1.5-0.3c0-0.1,0-0.3-0.1-0.4c0-0.1-0.1-0.2-0.2-0.3s-0.2-0.2-0.3-0.2
		c-0.1-0.1-0.3-0.1-0.5-0.1c-0.3,0-0.5,0.1-0.8,0.2c-0.3,0.1-0.5,0.2-0.8,0.4l-0.5-0.9c0.3-0.2,0.6-0.4,1-0.5
		c0.4-0.1,0.8-0.2,1.2-0.2c0.7,0,1.2,0.2,1.5,0.6c0.3,0.4,0.5,1,0.5,1.8v3.2h-1.1l-0.1-0.6h0c-0.2,0.2-0.5,0.4-0.8,0.5
		C342.9,238.9,342.6,239,342.3,239z M342.7,238c0.2,0,0.4-0.1,0.6-0.2c0.2-0.1,0.4-0.3,0.6-0.4v-1.2c-0.4,0-0.7,0.1-0.9,0.2
		c-0.3,0.1-0.5,0.2-0.6,0.3c-0.2,0.1-0.3,0.2-0.3,0.3c-0.1,0.1-0.1,0.2-0.1,0.4c0,0.2,0.1,0.4,0.2,0.5
		C342.2,237.9,342.4,238,342.7,238z"/>
</g>
<g class="st0">
	<path class="st1" d="M346.7,238.9v-5.5h1.1l0.1,1h0c0.2-0.4,0.4-0.6,0.7-0.8c0.3-0.2,0.6-0.3,0.8-0.3c0.3,0,0.5,0,0.6,0.1l-0.2,1.1
		c-0.1,0-0.2-0.1-0.3-0.1c-0.1,0-0.2,0-0.3,0c-0.2,0-0.4,0.1-0.7,0.3c-0.2,0.2-0.4,0.5-0.6,0.9v3.3H346.7z"/>
</g>
<g class="st0">
	<path class="st1" d="M352.3,239c-0.4,0-0.8-0.1-1.1-0.2c-0.4-0.1-0.7-0.3-1-0.5l0.6-0.8c0.2,0.2,0.5,0.3,0.7,0.5
		c0.2,0.1,0.5,0.2,0.8,0.2c0.3,0,0.5-0.1,0.7-0.2c0.1-0.1,0.2-0.3,0.2-0.5c0-0.1,0-0.2-0.1-0.3c-0.1-0.1-0.2-0.2-0.3-0.2
		c-0.1-0.1-0.2-0.1-0.4-0.2c-0.1-0.1-0.3-0.1-0.4-0.2c-0.2-0.1-0.4-0.1-0.5-0.2c-0.2-0.1-0.4-0.2-0.5-0.3c-0.1-0.1-0.3-0.3-0.4-0.4
		s-0.1-0.4-0.1-0.6c0-0.5,0.2-0.9,0.5-1.2c0.4-0.3,0.8-0.5,1.5-0.5c0.4,0,0.7,0.1,1,0.2c0.3,0.1,0.6,0.3,0.8,0.5l-0.6,0.8
		c-0.2-0.1-0.4-0.3-0.6-0.3c-0.2-0.1-0.4-0.1-0.6-0.1c-0.3,0-0.5,0.1-0.6,0.2c-0.1,0.1-0.2,0.3-0.2,0.4c0,0.1,0,0.2,0.1,0.3
		s0.1,0.1,0.3,0.2s0.2,0.1,0.4,0.2c0.1,0.1,0.3,0.1,0.4,0.2c0.2,0.1,0.4,0.1,0.6,0.2c0.2,0.1,0.4,0.2,0.5,0.3
		c0.2,0.1,0.3,0.3,0.4,0.5c0.1,0.2,0.1,0.4,0.1,0.7c0,0.2,0,0.5-0.1,0.7c-0.1,0.2-0.2,0.4-0.4,0.5s-0.4,0.3-0.7,0.4
		S352.7,239,352.3,239z"/>
</g>
<g class="st0">
	<path class="st1" d="M446.2,238.9v-1h1.6v-4.7h-1.3v-0.8c0.4-0.1,0.7-0.1,0.9-0.2c0.3-0.1,0.5-0.2,0.7-0.3h1v6h1.4v1H446.2z"/>
	<path class="st1" d="M454,239c-0.7,0-1.3-0.3-1.8-1s-0.6-1.6-0.6-2.8c0-1.2,0.2-2.1,0.6-2.7c0.4-0.6,1-0.9,1.8-0.9s1.3,0.3,1.8,0.9
		c0.4,0.6,0.6,1.5,0.6,2.7c0,1.2-0.2,2.1-0.6,2.8S454.7,239,454,239z M454,238c0.2,0,0.3,0,0.5-0.1c0.1-0.1,0.3-0.2,0.4-0.5
		c0.1-0.2,0.2-0.5,0.2-0.8c0.1-0.3,0.1-0.8,0.1-1.3c0-0.5,0-0.9-0.1-1.3s-0.1-0.6-0.2-0.8c-0.1-0.2-0.2-0.4-0.4-0.4
		c-0.1-0.1-0.3-0.1-0.5-0.1c-0.2,0-0.3,0-0.5,0.1c-0.1,0.1-0.3,0.2-0.4,0.4s-0.2,0.5-0.2,0.8s-0.1,0.8-0.1,1.3c0,0.5,0,0.9,0.1,1.3
		c0.1,0.3,0.1,0.6,0.2,0.8s0.2,0.4,0.4,0.5C453.7,237.9,453.8,238,454,238z"/>
</g>
<g class="st0">
	<path class="st1" d="M461.2,238.9v-2.7l-2.2-4.6h1.4l0.8,1.9c0.1,0.3,0.2,0.5,0.3,0.8s0.2,0.5,0.3,0.8h0c0.1-0.3,0.2-0.6,0.3-0.8
		c0.1-0.3,0.2-0.5,0.3-0.8l0.8-1.9h1.3l-2.2,4.6v2.7H461.2z"/>
</g>
<g class="st0">
	<path class="st1" d="M467.3,239c-0.4,0-0.7-0.1-1.1-0.2c-0.3-0.1-0.6-0.3-0.9-0.6c-0.2-0.2-0.4-0.5-0.6-0.9s-0.2-0.8-0.2-1.2
		c0-0.4,0.1-0.8,0.2-1.2s0.3-0.7,0.6-0.9c0.2-0.2,0.5-0.4,0.8-0.6c0.3-0.1,0.6-0.2,0.9-0.2c0.4,0,0.7,0.1,1,0.2
		c0.3,0.1,0.5,0.3,0.7,0.5s0.3,0.5,0.4,0.8c0.1,0.3,0.1,0.7,0.1,1c0,0.1,0,0.2,0,0.4c0,0.1,0,0.2,0,0.3h-3.5
		c0.1,0.5,0.2,0.9,0.5,1.1c0.3,0.3,0.7,0.4,1.1,0.4c0.2,0,0.5,0,0.7-0.1c0.2-0.1,0.4-0.2,0.6-0.3l0.4,0.8c-0.3,0.2-0.6,0.3-0.9,0.4
		C468,238.9,467.6,239,467.3,239z M465.8,235.6h2.4c0-0.4-0.1-0.8-0.3-1c-0.2-0.2-0.5-0.4-0.8-0.4c-0.3,0-0.6,0.1-0.9,0.3
		C466,234.8,465.9,235.2,465.8,235.6z"/>
</g>
<g class="st0">
	<path class="st1" d="M471.8,239c-0.5,0-0.9-0.1-1.2-0.4c-0.3-0.3-0.4-0.7-0.4-1.2c0-0.3,0.1-0.5,0.2-0.8c0.1-0.2,0.3-0.4,0.6-0.6
		c0.3-0.2,0.6-0.3,1-0.4c0.4-0.1,0.9-0.2,1.5-0.3c0-0.1,0-0.3-0.1-0.4c0-0.1-0.1-0.2-0.2-0.3s-0.2-0.2-0.3-0.2
		c-0.1-0.1-0.3-0.1-0.5-0.1c-0.3,0-0.5,0.1-0.8,0.2c-0.3,0.1-0.5,0.2-0.8,0.4l-0.5-0.9c0.3-0.2,0.6-0.4,1-0.5
		c0.4-0.1,0.8-0.2,1.2-0.2c0.7,0,1.2,0.2,1.5,0.6c0.3,0.4,0.5,1,0.5,1.8v3.2h-1.1l-0.1-0.6h0c-0.2,0.2-0.5,0.4-0.8,0.5
		C472.4,238.9,472.1,239,471.8,239z M472.2,238c0.2,0,0.4-0.1,0.6-0.2c0.2-0.1,0.4-0.3,0.6-0.4v-1.2c-0.4,0-0.7,0.1-0.9,0.2
		c-0.3,0.1-0.5,0.2-0.6,0.3c-0.2,0.1-0.3,0.2-0.3,0.3c-0.1,0.1-0.1,0.2-0.1,0.4c0,0.2,0.1,0.4,0.2,0.5
		C471.8,237.9,472,238,472.2,238z"/>
</g>
<g class="st0">
	<path class="st1" d="M476.2,238.9v-5.5h1.1l0.1,1h0c0.2-0.4,0.4-0.6,0.7-0.8s0.6-0.3,0.8-0.3c0.3,0,0.5,0,0.6,0.1l-0.2,1.1
		c-0.1,0-0.2-0.1-0.3-0.1c-0.1,0-0.2,0-0.3,0c-0.2,0-0.4,0.1-0.7,0.3c-0.2,0.2-0.4,0.5-0.6,0.9v3.3H476.2z"/>
</g>
<g class="st0">
	<path class="st1" d="M481.9,239c-0.4,0-0.8-0.1-1.1-0.2c-0.4-0.1-0.7-0.3-1-0.5l0.6-0.8c0.2,0.2,0.5,0.3,0.7,0.5
		c0.2,0.1,0.5,0.2,0.8,0.2c0.3,0,0.5-0.1,0.7-0.2c0.1-0.1,0.2-0.3,0.2-0.5c0-0.1,0-0.2-0.1-0.3c-0.1-0.1-0.2-0.2-0.3-0.2
		c-0.1-0.1-0.2-0.1-0.4-0.2s-0.3-0.1-0.4-0.2c-0.2-0.1-0.4-0.1-0.5-0.2c-0.2-0.1-0.4-0.2-0.5-0.3c-0.1-0.1-0.3-0.3-0.4-0.4
		c-0.1-0.2-0.1-0.4-0.1-0.6c0-0.5,0.2-0.9,0.5-1.2c0.4-0.3,0.8-0.5,1.5-0.5c0.4,0,0.7,0.1,1,0.2c0.3,0.1,0.6,0.3,0.8,0.5l-0.6,0.8
		c-0.2-0.1-0.4-0.3-0.6-0.3c-0.2-0.1-0.4-0.1-0.6-0.1c-0.3,0-0.5,0.1-0.6,0.2c-0.1,0.1-0.2,0.3-0.2,0.4c0,0.1,0,0.2,0.1,0.3
		c0.1,0.1,0.1,0.1,0.3,0.2c0.1,0.1,0.2,0.1,0.4,0.2c0.1,0.1,0.3,0.1,0.4,0.2c0.2,0.1,0.4,0.1,0.6,0.2c0.2,0.1,0.4,0.2,0.5,0.3
		c0.2,0.1,0.3,0.3,0.4,0.5c0.1,0.2,0.1,0.4,0.1,0.7c0,0.2,0,0.5-0.1,0.7c-0.1,0.2-0.2,0.4-0.4,0.5c-0.2,0.2-0.4,0.3-0.7,0.4
		C482.5,238.9,482.2,239,481.9,239z"/>
</g>
<g class="st0">
	<path class="st1" d="M8.5,136.8H1.8v-2.1c0-0.4,0-0.7,0.1-1c0.1-0.3,0.2-0.6,0.4-0.8c0.2-0.2,0.4-0.4,0.6-0.5s0.6-0.2,1-0.2
		c0.4,0,0.7,0.1,1,0.2c0.3,0.1,0.5,0.3,0.7,0.5c0.2,0.2,0.3,0.5,0.4,0.8c0.1,0.3,0.1,0.7,0.1,1v1h2.5V136.8z M5.1,135.6v-0.9
		c0-1-0.4-1.5-1.2-1.5c-0.4,0-0.7,0.1-0.9,0.4c-0.2,0.3-0.2,0.6-0.2,1.1v0.8H5.1z"/>
</g>
<g class="st0">
	<path class="st1" d="M8.7,128.9c0,0.4-0.1,0.7-0.2,1c-0.1,0.3-0.3,0.6-0.5,0.8c-0.2,0.2-0.5,0.4-0.8,0.5c-0.3,0.1-0.7,0.2-1.1,0.2
		c-0.4,0-0.8-0.1-1.1-0.2c-0.3-0.1-0.6-0.3-0.8-0.5c-0.2-0.2-0.4-0.5-0.5-0.7c-0.1-0.3-0.2-0.6-0.2-0.9c0-0.3,0.1-0.6,0.2-0.9
		s0.3-0.5,0.5-0.7s0.5-0.3,0.8-0.4c0.3-0.1,0.6-0.1,1-0.1c0.1,0,0.2,0,0.3,0c0.1,0,0.2,0,0.2,0v3.2c0.5-0.1,0.8-0.2,1-0.5
		c0.2-0.3,0.4-0.6,0.4-1c0-0.2,0-0.4-0.1-0.6c-0.1-0.2-0.2-0.4-0.3-0.6l0.7-0.4c0.2,0.2,0.3,0.5,0.4,0.8
		C8.6,128.3,8.7,128.6,8.7,128.9z M5.5,130.3V128c-0.4,0-0.7,0.1-0.9,0.3c-0.2,0.2-0.3,0.4-0.3,0.8c0,0.3,0.1,0.6,0.3,0.8
		C4.8,130.1,5.1,130.2,5.5,130.3z"/>
</g>
<g class="st0">
	<path class="st1" d="M8.5,125.9H3.5v-1l0.9-0.1v0c-0.3-0.2-0.6-0.4-0.8-0.6c-0.2-0.3-0.3-0.5-0.3-0.8c0-0.2,0-0.4,0.1-0.6l1,0.2
		c0,0.1,0,0.2-0.1,0.2s0,0.2,0,0.3c0,0.2,0.1,0.4,0.2,0.6c0.2,0.2,0.4,0.4,0.8,0.6h3.1V125.9z"/>
</g>
<g class="st0">
	<path class="st1" d="M8.7,120c0,0.3-0.1,0.7-0.2,1c-0.1,0.3-0.3,0.6-0.5,0.8c-0.2,0.2-0.5,0.4-0.8,0.5c-0.3,0.1-0.7,0.2-1.1,0.2
		c-0.4,0-0.8-0.1-1.1-0.2c-0.3-0.1-0.6-0.3-0.8-0.6c-0.2-0.2-0.4-0.5-0.5-0.8c-0.1-0.3-0.2-0.6-0.2-1c0-0.3,0.1-0.6,0.2-0.9
		c0.1-0.2,0.2-0.4,0.4-0.6l0.8,0.6c-0.1,0.1-0.2,0.3-0.3,0.4c-0.1,0.1-0.1,0.3-0.1,0.4c0,0.4,0.2,0.7,0.5,1c0.3,0.3,0.7,0.4,1.2,0.4
		c0.5,0,0.9-0.1,1.2-0.4c0.3-0.3,0.5-0.6,0.5-1c0-0.2,0-0.4-0.1-0.6s-0.2-0.3-0.3-0.5l0.8-0.5c0.2,0.2,0.4,0.5,0.5,0.8
		C8.6,119.4,8.7,119.7,8.7,120z"/>
</g>
<g class="st0">
	<path class="st1" d="M8.7,115.4c0,0.4-0.1,0.7-0.2,1c-0.1,0.3-0.3,0.6-0.5,0.8c-0.2,0.2-0.5,0.4-0.8,0.5c-0.3,0.1-0.7,0.2-1.1,0.2
		c-0.4,0-0.8-0.1-1.1-0.2c-0.3-0.1-0.6-0.3-0.8-0.5c-0.2-0.2-0.4-0.5-0.5-0.7c-0.1-0.3-0.2-0.6-0.2-0.9c0-0.3,0.1-0.6,0.2-0.9
		s0.3-0.5,0.5-0.7s0.5-0.3,0.8-0.4c0.3-0.1,0.6-0.1,1-0.1c0.1,0,0.2,0,0.3,0c0.1,0,0.2,0,0.2,0v3.2c0.5-0.1,0.8-0.2,1-0.5
		c0.2-0.3,0.4-0.6,0.4-1c0-0.2,0-0.4-0.1-0.6c-0.1-0.2-0.2-0.4-0.3-0.6l0.7-0.4c0.2,0.2,0.3,0.5,0.4,0.8
		C8.6,114.8,8.7,115.1,8.7,115.4z M5.5,116.8v-2.2c-0.4,0-0.7,0.1-0.9,0.3c-0.2,0.2-0.3,0.4-0.3,0.8c0,0.3,0.1,0.6,0.3,0.8
		C4.8,116.6,5.1,116.7,5.5,116.8z"/>
	<path class="st1" d="M8.5,112.4H3.5v-1l0.7-0.1v0c-0.2-0.2-0.4-0.5-0.6-0.7c-0.2-0.3-0.2-0.6-0.2-0.9c0-0.5,0.2-0.9,0.5-1.2
		c0.3-0.2,0.8-0.4,1.5-0.4h3.2v1.2h-3c-0.4,0-0.7,0.1-0.9,0.2c-0.2,0.1-0.3,0.3-0.3,0.6c0,0.2,0.1,0.4,0.2,0.6
		c0.1,0.2,0.3,0.4,0.5,0.6h3.5V112.4z"/>
</g>
<g class="st0">
	<path class="st1" d="M8.7,104.8c0,0.3,0,0.5-0.1,0.7c-0.1,0.2-0.2,0.4-0.4,0.5c-0.2,0.1-0.4,0.2-0.6,0.3c-0.2,0.1-0.5,0.1-0.7,0.1
		H4.4v0.7H3.5l-0.1-0.8l-1.4-0.1v-1h1.4v-1.3h0.9v1.3h2.4c0.6,0,0.9-0.2,0.9-0.7c0-0.1,0-0.2,0-0.3s0-0.2-0.1-0.3l0.9-0.2
		c0,0.1,0.1,0.3,0.1,0.5C8.7,104.4,8.7,104.6,8.7,104.8z"/>
</g>
<g class="st0">
	<path class="st1" d="M8.7,101.9c0,0.4-0.1,0.8-0.4,1.1s-0.6,0.4-1.1,0.4c-0.3,0-0.5-0.1-0.7-0.2c-0.2-0.1-0.4-0.3-0.5-0.5
		c-0.2-0.2-0.3-0.6-0.4-0.9c-0.1-0.4-0.2-0.8-0.2-1.3c-0.1,0-0.3,0-0.4,0.1c-0.1,0-0.2,0.1-0.3,0.2s-0.2,0.2-0.2,0.3
		c-0.1,0.1-0.1,0.3-0.1,0.4c0,0.2,0,0.5,0.1,0.7c0.1,0.2,0.2,0.5,0.4,0.7L4,103.2c-0.2-0.3-0.3-0.6-0.5-0.9
		c-0.1-0.4-0.2-0.7-0.2-1.1c0-0.6,0.2-1.1,0.6-1.4c0.4-0.3,0.9-0.5,1.6-0.5h3v1L8,100.3v0c0.2,0.2,0.4,0.5,0.5,0.7
		S8.7,101.6,8.7,101.9z M7.7,101.5c0-0.2,0-0.4-0.1-0.6c-0.1-0.2-0.2-0.3-0.4-0.5H6.1c0,0.3,0.1,0.6,0.2,0.9
		c0.1,0.2,0.1,0.4,0.2,0.6c0.1,0.1,0.2,0.2,0.3,0.3c0.1,0.1,0.2,0.1,0.4,0.1c0.2,0,0.4-0.1,0.5-0.2C7.7,101.9,7.7,101.7,7.7,101.5z"
		/>
</g>
<g class="st0">
	<path class="st1" d="M10.8,96c0,0.3,0,0.6-0.1,0.8c-0.1,0.3-0.1,0.5-0.2,0.7S10.2,97.9,10,98c-0.2,0.1-0.4,0.2-0.6,0.2
		c-0.2,0-0.4-0.1-0.6-0.2c-0.2-0.1-0.3-0.3-0.5-0.5h0c-0.1,0.1-0.2,0.2-0.3,0.3c-0.1,0.1-0.3,0.1-0.5,0.1c-0.2,0-0.4-0.1-0.5-0.2
		s-0.3-0.2-0.4-0.4h0c-0.1,0.2-0.3,0.3-0.5,0.5C5.7,97.9,5.5,98,5.2,98c-0.3,0-0.5-0.1-0.8-0.2S4,97.5,3.8,97.4
		c-0.2-0.2-0.3-0.4-0.4-0.6S3.4,96.2,3.4,96c0-0.1,0-0.3,0-0.4c0-0.1,0.1-0.2,0.1-0.3v-1.8h0.9v0.9c0.1-0.1,0.2-0.2,0.4-0.2
		C4.9,94.1,5,94,5.2,94c0.3,0,0.5,0,0.7,0.1s0.4,0.2,0.5,0.4s0.3,0.4,0.3,0.6c0.1,0.2,0.1,0.5,0.1,0.8c0,0.1,0,0.2,0,0.3
		c0,0.1-0.1,0.2-0.1,0.4c0.1,0.1,0.1,0.1,0.2,0.2c0.1,0,0.2,0.1,0.3,0.1c0.1,0,0.3-0.1,0.3-0.2c0.1-0.1,0.1-0.3,0.1-0.6v-0.9
		c0-0.6,0.1-1.1,0.3-1.4c0.2-0.3,0.5-0.5,1-0.5c0.2,0,0.5,0.1,0.7,0.2c0.2,0.1,0.4,0.3,0.6,0.5c0.2,0.2,0.3,0.5,0.4,0.9
		S10.8,95.6,10.8,96z M6.2,96c0-0.2-0.1-0.4-0.3-0.6c-0.2-0.2-0.4-0.3-0.8-0.3c-0.3,0-0.6,0.1-0.7,0.3c-0.2,0.2-0.3,0.4-0.3,0.6
		c0,0.2,0.1,0.5,0.3,0.6c0.2,0.2,0.4,0.3,0.7,0.3c0.3,0,0.6-0.1,0.8-0.3C6.1,96.4,6.2,96.2,6.2,96z M10,95.8c0-0.4-0.1-0.7-0.2-1
		c-0.2-0.3-0.4-0.4-0.6-0.4c-0.2,0-0.3,0.1-0.4,0.2c-0.1,0.2-0.1,0.4-0.1,0.7v0.7c0,0.3,0,0.5-0.1,0.7C8.8,97,9,97.1,9.3,97.1
		c0.2,0,0.4-0.1,0.5-0.3C10,96.6,10,96.2,10,95.8z"/>
</g>
<g class="st0">
	<path class="st1" d="M8.7,90.4c0,0.4-0.1,0.7-0.2,1C8.4,91.7,8.2,92,8,92.2c-0.2,0.2-0.5,0.4-0.8,0.5c-0.3,0.1-0.7,0.2-1.1,0.2
		c-0.4,0-0.8-0.1-1.1-0.2c-0.3-0.1-0.6-0.3-0.8-0.5c-0.2-0.2-0.4-0.5-0.5-0.7c-0.1-0.3-0.2-0.6-0.2-0.9c0-0.3,0.1-0.6,0.2-0.9
		S3.8,89.2,4,89s0.5-0.3,0.8-0.4c0.3-0.1,0.6-0.1,1-0.1c0.1,0,0.2,0,0.3,0c0.1,0,0.2,0,0.2,0v3.2c0.5-0.1,0.8-0.2,1-0.5
		c0.2-0.3,0.4-0.6,0.4-1c0-0.2,0-0.4-0.1-0.6c-0.1-0.2-0.2-0.4-0.3-0.6l0.7-0.4c0.2,0.2,0.3,0.5,0.4,0.8C8.6,89.8,8.7,90.1,8.7,90.4
		z M5.5,91.8v-2.2c-0.4,0-0.7,0.1-0.9,0.3c-0.2,0.2-0.3,0.4-0.3,0.8c0,0.3,0.1,0.6,0.3,0.8C4.8,91.6,5.1,91.7,5.5,91.8z"/>
</g>
<g class="st0">
	<path class="st1" d="M217.9,279.3v-0.9h4.6v0.9H217.9z M217.9,281.6v-0.9h4.6v0.9H217.9z"/>
</g>
<g class="st0">
	<path class="st1" d="M225.7,283.5v-6.7h4.1v1h-2.9v1.9h2.5v1h-2.5v2.8H225.7z"/>
</g>
<g class="st0">
	<path class="st1" d="M232.8,283.6c-0.3,0-0.6-0.1-0.9-0.2c-0.3-0.1-0.5-0.3-0.8-0.5c-0.2-0.2-0.4-0.5-0.5-0.8
		c-0.1-0.3-0.2-0.7-0.2-1.1c0-0.4,0.1-0.8,0.2-1.1c0.1-0.3,0.3-0.6,0.5-0.8c0.2-0.2,0.5-0.4,0.8-0.5c0.3-0.1,0.6-0.2,0.9-0.2
		c0.3,0,0.6,0.1,0.9,0.2c0.3,0.1,0.5,0.3,0.8,0.5c0.2,0.2,0.4,0.5,0.5,0.8c0.1,0.3,0.2,0.7,0.2,1.1c0,0.4-0.1,0.8-0.2,1.1
		c-0.1,0.3-0.3,0.6-0.5,0.8c-0.2,0.2-0.5,0.4-0.8,0.5C233.4,283.5,233.1,283.6,232.8,283.6z M232.8,282.6c0.4,0,0.7-0.2,0.9-0.5
		c0.2-0.3,0.3-0.7,0.3-1.2c0-0.5-0.1-0.9-0.3-1.2s-0.5-0.5-0.9-0.5c-0.4,0-0.7,0.2-0.9,0.5s-0.3,0.7-0.3,1.2c0,0.5,0.1,0.9,0.3,1.2
		C232.1,282.5,232.4,282.6,232.8,282.6z"/>
	<path class="st1" d="M237.9,283.6c-0.5,0-0.9-0.2-1.2-0.5c-0.2-0.3-0.4-0.8-0.4-1.5v-3.2h1.2v3c0,0.4,0.1,0.7,0.2,0.9
		s0.3,0.3,0.6,0.3c0.2,0,0.4-0.1,0.6-0.2c0.2-0.1,0.3-0.3,0.5-0.5v-3.5h1.2v5.1h-1l-0.1-0.7h0c-0.2,0.3-0.5,0.5-0.7,0.6
		S238.2,283.6,237.9,283.6z"/>
	<path class="st1" d="M242.1,283.5v-5.1h1l0.1,0.7h0c0.2-0.2,0.5-0.4,0.7-0.6c0.3-0.2,0.6-0.2,0.9-0.2c0.5,0,0.9,0.2,1.2,0.5
		c0.2,0.3,0.4,0.8,0.4,1.5v3.2h-1.2v-3c0-0.4-0.1-0.7-0.2-0.9c-0.1-0.2-0.3-0.3-0.6-0.3c-0.2,0-0.4,0.1-0.6,0.2
		c-0.2,0.1-0.4,0.3-0.6,0.5v3.5H242.1z"/>
	<path class="st1" d="M249.6,283.6c-0.6,0-1.1-0.2-1.5-0.7c-0.4-0.5-0.6-1.1-0.6-2c0-0.4,0.1-0.8,0.2-1.1c0.1-0.3,0.3-0.6,0.5-0.8
		s0.4-0.4,0.7-0.5c0.3-0.1,0.5-0.2,0.8-0.2c0.3,0,0.5,0,0.7,0.1s0.4,0.2,0.6,0.4l0-0.8v-1.8h1.2v7.3h-1l-0.1-0.5h0
		c-0.2,0.2-0.4,0.3-0.6,0.5S249.9,283.6,249.6,283.6z M249.9,282.6c0.4,0,0.7-0.2,1.1-0.6v-2.4c-0.2-0.2-0.4-0.3-0.5-0.3
		c-0.2-0.1-0.3-0.1-0.5-0.1c-0.3,0-0.6,0.1-0.8,0.4c-0.2,0.3-0.3,0.7-0.3,1.2c0,0.5,0.1,1,0.3,1.3
		C249.3,282.5,249.6,282.6,249.9,282.6z"/>
</g>
<g class="st0">
	<path class="st1" d="M254.9,283.6c-0.4,0-0.8-0.1-1.1-0.4s-0.4-0.6-0.4-1.1c0-0.3,0.1-0.5,0.2-0.7c0.1-0.2,0.3-0.4,0.5-0.5
		c0.2-0.2,0.6-0.3,0.9-0.4c0.4-0.1,0.8-0.2,1.3-0.2c0-0.1,0-0.3-0.1-0.4c0-0.1-0.1-0.2-0.2-0.3s-0.2-0.2-0.3-0.2
		c-0.1-0.1-0.3-0.1-0.4-0.1c-0.2,0-0.5,0-0.7,0.1c-0.2,0.1-0.5,0.2-0.7,0.4l-0.4-0.8c0.3-0.2,0.6-0.3,0.9-0.5
		c0.4-0.1,0.7-0.2,1.1-0.2c0.6,0,1.1,0.2,1.4,0.6c0.3,0.4,0.5,0.9,0.5,1.6v3h-1l-0.1-0.6h0c-0.2,0.2-0.5,0.4-0.7,0.5
		S255.2,283.6,254.9,283.6z M255.3,282.7c0.2,0,0.4,0,0.6-0.1c0.2-0.1,0.3-0.2,0.5-0.4V281c-0.3,0-0.6,0.1-0.9,0.2
		c-0.2,0.1-0.4,0.1-0.6,0.2c-0.1,0.1-0.2,0.2-0.3,0.3c-0.1,0.1-0.1,0.2-0.1,0.4c0,0.2,0.1,0.4,0.2,0.5
		C254.9,282.6,255.1,282.7,255.3,282.7z"/>
</g>
<g class="st0">
	<path class="st1" d="M260.6,283.6c-0.3,0-0.5,0-0.7-0.1c-0.2-0.1-0.4-0.2-0.5-0.4c-0.1-0.2-0.2-0.4-0.3-0.6
		c-0.1-0.2-0.1-0.5-0.1-0.7v-2.4h-0.7v-0.9l0.8-0.1l0.1-1.4h1v1.4h1.3v0.9h-1.3v2.4c0,0.6,0.2,0.9,0.7,0.9c0.1,0,0.2,0,0.3,0
		s0.2,0,0.3-0.1l0.2,0.9c-0.1,0-0.3,0.1-0.5,0.1C261,283.6,260.8,283.6,260.6,283.6z"/>
	<path class="st1" d="M263.1,277.5c-0.2,0-0.4-0.1-0.5-0.2c-0.1-0.1-0.2-0.3-0.2-0.5s0.1-0.4,0.2-0.5c0.1-0.1,0.3-0.2,0.5-0.2
		s0.4,0.1,0.5,0.2c0.1,0.1,0.2,0.3,0.2,0.5s-0.1,0.4-0.2,0.5C263.5,277.4,263.4,277.5,263.1,277.5z M262.5,283.5v-5.1h1.2v5.1H262.5
		z"/>
	<path class="st1" d="M267.3,283.6c-0.3,0-0.6-0.1-0.9-0.2c-0.3-0.1-0.5-0.3-0.8-0.5c-0.2-0.2-0.4-0.5-0.5-0.8s-0.2-0.7-0.2-1.1
		c0-0.4,0.1-0.8,0.2-1.1s0.3-0.6,0.5-0.8c0.2-0.2,0.5-0.4,0.8-0.5c0.3-0.1,0.6-0.2,0.9-0.2c0.3,0,0.6,0.1,0.9,0.2
		c0.3,0.1,0.5,0.3,0.8,0.5c0.2,0.2,0.4,0.5,0.5,0.8s0.2,0.7,0.2,1.1c0,0.4-0.1,0.8-0.2,1.1s-0.3,0.6-0.5,0.8
		c-0.2,0.2-0.5,0.4-0.8,0.5C267.9,283.5,267.6,283.6,267.3,283.6z M267.3,282.6c0.4,0,0.7-0.2,0.9-0.5c0.2-0.3,0.3-0.7,0.3-1.2
		c0-0.5-0.1-0.9-0.3-1.2s-0.5-0.5-0.9-0.5c-0.4,0-0.7,0.2-0.9,0.5c-0.2,0.3-0.3,0.7-0.3,1.2c0,0.5,0.1,0.9,0.3,1.2
		C266.7,282.5,266.9,282.6,267.3,282.6z"/>
	<path class="st1" d="M270.9,283.5v-5.1h1l0.1,0.7h0c0.2-0.2,0.5-0.4,0.7-0.6c0.3-0.2,0.6-0.2,0.9-0.2c0.5,0,0.9,0.2,1.2,0.5
		c0.2,0.3,0.4,0.8,0.4,1.5v3.2H274v-3c0-0.4-0.1-0.7-0.2-0.9s-0.3-0.3-0.6-0.3c-0.2,0-0.4,0.1-0.6,0.2c-0.2,0.1-0.4,0.3-0.6,0.5v3.5
		H270.9z"/>
</g>
<g class="st0">
	<path class="st1" d="M301.4,279.3v-0.9h4.6v0.9H301.4z M301.4,281.6v-0.9h4.6v0.9H301.4z"/>
	<path class="st1" d="M309.2,283.5v-6.7h2.2c0.3,0,0.7,0,1,0.1s0.5,0.2,0.8,0.3c0.2,0.1,0.4,0.3,0.5,0.5c0.1,0.2,0.2,0.5,0.2,0.8
		c0,0.3-0.1,0.6-0.2,0.9c-0.2,0.3-0.4,0.5-0.7,0.6v0c0.4,0.1,0.7,0.3,0.9,0.5s0.4,0.6,0.4,1.1c0,0.3-0.1,0.6-0.2,0.9
		c-0.1,0.2-0.3,0.5-0.5,0.6s-0.5,0.3-0.8,0.4c-0.3,0.1-0.7,0.1-1,0.1H309.2z M310.4,279.5h0.9c0.5,0,0.8-0.1,1-0.3
		c0.2-0.2,0.3-0.4,0.3-0.7c0-0.3-0.1-0.6-0.3-0.7s-0.5-0.2-1-0.2h-0.9V279.5z M310.4,282.5h1c0.5,0,0.9-0.1,1.1-0.3
		c0.3-0.2,0.4-0.5,0.4-0.8c0-0.4-0.1-0.6-0.4-0.8c-0.3-0.2-0.6-0.2-1.2-0.2h-1V282.5z"/>
	<path class="st1" d="M317.4,283.6c-0.4,0-0.7-0.1-1-0.2c-0.3-0.1-0.6-0.3-0.8-0.5s-0.4-0.5-0.5-0.8s-0.2-0.7-0.2-1.1
		c0-0.4,0.1-0.8,0.2-1.1c0.1-0.3,0.3-0.6,0.5-0.8c0.2-0.2,0.5-0.4,0.7-0.5c0.3-0.1,0.6-0.2,0.9-0.2c0.3,0,0.6,0.1,0.9,0.2
		s0.5,0.3,0.7,0.5c0.2,0.2,0.3,0.5,0.4,0.8c0.1,0.3,0.1,0.6,0.1,1c0,0.1,0,0.2,0,0.3c0,0.1,0,0.2,0,0.2h-3.2c0.1,0.5,0.2,0.8,0.5,1
		c0.3,0.2,0.6,0.4,1,0.4c0.2,0,0.4,0,0.6-0.1s0.4-0.2,0.6-0.3l0.4,0.7c-0.2,0.2-0.5,0.3-0.8,0.4
		C318.1,283.5,317.7,283.6,317.4,283.6z M316.1,280.4h2.2c0-0.4-0.1-0.7-0.3-0.9c-0.2-0.2-0.4-0.3-0.8-0.3c-0.3,0-0.6,0.1-0.8,0.3
		C316.3,279.7,316.1,280,316.1,280.4z"/>
	<path class="st1" d="M320.5,283.5v-5.1h1l0.1,0.7h0c0.2-0.2,0.5-0.4,0.7-0.6c0.3-0.2,0.6-0.2,0.9-0.2c0.5,0,0.9,0.2,1.2,0.5
		c0.2,0.3,0.4,0.8,0.4,1.5v3.2h-1.2v-3c0-0.4-0.1-0.7-0.2-0.9c-0.1-0.2-0.3-0.3-0.6-0.3c-0.2,0-0.4,0.1-0.6,0.2
		c-0.2,0.1-0.4,0.3-0.6,0.5v3.5H320.5z"/>
	<path class="st1" d="M328.4,283.6c-0.3,0-0.7-0.1-1-0.2c-0.3-0.1-0.6-0.3-0.8-0.5c-0.2-0.2-0.4-0.5-0.5-0.8
		c-0.1-0.3-0.2-0.7-0.2-1.1c0-0.4,0.1-0.8,0.2-1.1c0.1-0.3,0.3-0.6,0.6-0.8c0.2-0.2,0.5-0.4,0.8-0.5c0.3-0.1,0.6-0.2,1-0.2
		c0.3,0,0.6,0.1,0.9,0.2c0.2,0.1,0.4,0.2,0.6,0.4l-0.6,0.8c-0.1-0.1-0.3-0.2-0.4-0.3c-0.1-0.1-0.3-0.1-0.4-0.1c-0.4,0-0.7,0.2-1,0.5
		s-0.4,0.7-0.4,1.2c0,0.5,0.1,0.9,0.4,1.2c0.3,0.3,0.6,0.5,1,0.5c0.2,0,0.4,0,0.6-0.1c0.2-0.1,0.3-0.2,0.5-0.3l0.5,0.8
		c-0.2,0.2-0.5,0.4-0.8,0.5C328.9,283.5,328.7,283.6,328.4,283.6z"/>
	<path class="st1" d="M331,283.5v-7.3h1.2v1.9l0,1c0.2-0.2,0.4-0.4,0.7-0.5c0.3-0.2,0.6-0.2,0.9-0.2c0.5,0,0.9,0.2,1.2,0.5
		c0.2,0.3,0.4,0.8,0.4,1.5v3.2h-1.2v-3c0-0.4-0.1-0.7-0.2-0.9c-0.1-0.2-0.3-0.3-0.6-0.3c-0.2,0-0.4,0.1-0.6,0.2
		c-0.2,0.1-0.4,0.3-0.6,0.5v3.5H331z"/>
	<path class="st1" d="M336.8,283.5v-5.1h1l0.1,0.7h0c0.2-0.2,0.4-0.4,0.7-0.6c0.3-0.2,0.5-0.2,0.9-0.2c0.4,0,0.7,0.1,0.9,0.2
		c0.2,0.2,0.4,0.4,0.5,0.7c0.2-0.3,0.5-0.5,0.8-0.6c0.3-0.2,0.6-0.3,0.9-0.3c0.5,0,0.9,0.2,1.2,0.5c0.3,0.3,0.4,0.8,0.4,1.5v3.2
		h-1.2v-3c0-0.4-0.1-0.7-0.2-0.9s-0.3-0.3-0.6-0.3c-0.3,0-0.7,0.2-1.1,0.6v3.5h-1.2v-3c0-0.4-0.1-0.7-0.2-0.9s-0.3-0.3-0.6-0.3
		c-0.3,0-0.7,0.2-1.1,0.6v3.5H336.8z"/>
	<path class="st1" d="M346.7,283.6c-0.4,0-0.8-0.1-1.1-0.4s-0.4-0.6-0.4-1.1c0-0.3,0.1-0.5,0.2-0.7c0.1-0.2,0.3-0.4,0.5-0.5
		c0.2-0.2,0.6-0.3,0.9-0.4c0.4-0.1,0.8-0.2,1.3-0.2c0-0.1,0-0.3-0.1-0.4s-0.1-0.2-0.2-0.3s-0.2-0.2-0.3-0.2
		c-0.1-0.1-0.3-0.1-0.4-0.1c-0.2,0-0.5,0-0.7,0.1c-0.2,0.1-0.5,0.2-0.7,0.4l-0.4-0.8c0.3-0.2,0.6-0.3,0.9-0.5
		c0.4-0.1,0.7-0.2,1.1-0.2c0.6,0,1.1,0.2,1.4,0.6c0.3,0.4,0.5,0.9,0.5,1.6v3h-1l-0.1-0.6h0c-0.2,0.2-0.5,0.4-0.7,0.5
		S347,283.6,346.7,283.6z M347.1,282.7c0.2,0,0.4,0,0.6-0.1c0.2-0.1,0.3-0.2,0.5-0.4V281c-0.3,0-0.6,0.1-0.9,0.2s-0.4,0.1-0.6,0.2
		s-0.2,0.2-0.3,0.3c-0.1,0.1-0.1,0.2-0.1,0.4c0,0.2,0.1,0.4,0.2,0.5C346.7,282.6,346.9,282.7,347.1,282.7z"/>
	<path class="st1" d="M350.8,283.5v-5.1h1l0.1,0.9h0c0.2-0.3,0.4-0.6,0.7-0.8c0.3-0.2,0.5-0.3,0.8-0.3c0.2,0,0.4,0,0.6,0.1l-0.2,1
		c-0.1,0-0.2,0-0.2-0.1c-0.1,0-0.2,0-0.3,0c-0.2,0-0.4,0.1-0.6,0.2c-0.2,0.2-0.4,0.4-0.6,0.8v3.1H350.8z"/>
	<path class="st1" d="M354.6,283.5v-7.3h1.2v4.5h0l1.9-2.3h1.3l-1.7,2.1l1.9,3h-1.3l-1.3-2.2l-0.8,0.9v1.3H354.6z"/>
</g>
<rect x="204.3" y="275.7" class="st2" width="9.4" height="9.5"/>
<rect x="287.5" y="275.7" class="st3" width="9.5" height="9.5"/>
<path class="st4" d="M197,257.6h167.9c4.4,0,8,3.6,8,8v27.8c0,4.4-3.6,8-8,8H197c-4.4,0-8-3.6-8-8v-27.8
	C189,261.2,192.6,257.6,197,257.6z"/>
<g class="st0">
	<path class="st1" d="M477.6,49.8c0-0.7,0.1-1.3,0.2-1.9c0.1-0.6,0.2-1.1,0.4-1.6s0.4-1,0.6-1.5c0.3-0.5,0.6-1,0.9-1.5h-3.6v-1.2
		h5.1V43c-0.4,0.6-0.8,1.1-1.1,1.6s-0.5,1-0.7,1.5c-0.2,0.5-0.3,1.1-0.3,1.7c-0.1,0.6-0.1,1.3-0.2,2H477.6z"/>
	<path class="st1" d="M483.4,49.9c-0.3,0-0.5-0.1-0.6-0.3c-0.2-0.2-0.3-0.4-0.3-0.7s0.1-0.5,0.3-0.7c0.2-0.2,0.4-0.3,0.6-0.3
		c0.3,0,0.5,0.1,0.6,0.3c0.2,0.2,0.3,0.4,0.3,0.7s-0.1,0.5-0.3,0.7C483.9,49.8,483.7,49.9,483.4,49.9z"/>
	<path class="st1" d="M486,49.8v-1.1h1.7v-5h-1.4v-0.9c0.4-0.1,0.7-0.2,1-0.3c0.3-0.1,0.5-0.2,0.8-0.4h1v6.5h1.5v1.1H486z"/>
	<path class="st1" d="M493.5,46.7c-0.6,0-1-0.2-1.4-0.7c-0.3-0.4-0.5-1.1-0.5-1.8s0.2-1.4,0.5-1.8s0.8-0.6,1.4-0.6s1,0.2,1.4,0.6
		s0.5,1,0.5,1.8s-0.2,1.4-0.5,1.8C494.5,46.5,494,46.7,493.5,46.7z M493.5,45.9c0.3,0,0.5-0.1,0.6-0.4s0.2-0.7,0.2-1.3
		s-0.1-1-0.2-1.3c-0.2-0.3-0.4-0.4-0.6-0.4s-0.5,0.1-0.6,0.4c-0.2,0.3-0.2,0.7-0.2,1.3s0.1,1,0.2,1.3S493.2,45.9,493.5,45.9z
		 M493.7,49.9l4.3-8.1h0.8l-4.3,8.1H493.7z M499.1,49.9c-0.6,0-1-0.2-1.4-0.7s-0.5-1.1-0.5-1.8c0-0.8,0.2-1.4,0.5-1.8
		c0.3-0.4,0.8-0.6,1.4-0.6s1,0.2,1.4,0.6c0.3,0.4,0.5,1,0.5,1.8c0,0.8-0.2,1.4-0.5,1.8C500.1,49.7,499.7,49.9,499.1,49.9z
		 M499.1,49.1c0.3,0,0.5-0.1,0.6-0.4s0.2-0.7,0.2-1.3c0-0.6-0.1-1-0.2-1.3c-0.2-0.3-0.4-0.4-0.6-0.4c-0.3,0-0.5,0.1-0.6,0.4
		c-0.2,0.3-0.2,0.7-0.2,1.3c0,0.6,0.1,1,0.2,1.3C498.7,49,498.9,49.1,499.1,49.1z"/>
</g>
<g class="st0">
	<path class="st1" d="M428.5,48.4c0-0.7,0.1-1.3,0.2-1.9c0.1-0.6,0.2-1.1,0.4-1.6s0.4-1,0.6-1.5c0.3-0.5,0.6-1,0.9-1.5H427v-1.2h5.1
		v0.8c-0.4,0.6-0.8,1.1-1.1,1.6s-0.5,1-0.7,1.5c-0.2,0.5-0.3,1.1-0.3,1.7c-0.1,0.6-0.1,1.3-0.2,2H428.5z"/>
	<path class="st1" d="M434.3,48.6c-0.3,0-0.5-0.1-0.6-0.3c-0.2-0.2-0.3-0.4-0.3-0.7s0.1-0.5,0.3-0.7c0.2-0.2,0.4-0.3,0.6-0.3
		s0.5,0.1,0.6,0.3c0.2,0.2,0.3,0.4,0.3,0.7s-0.1,0.5-0.3,0.7S434.6,48.6,434.3,48.6z"/>
	<path class="st1" d="M436.4,48.4v-0.8c0.5-0.5,1-1,1.4-1.4s0.8-0.8,1.1-1.2c0.3-0.4,0.5-0.7,0.7-1c0.2-0.3,0.2-0.6,0.2-0.9
		c0-0.4-0.1-0.7-0.3-1c-0.2-0.2-0.5-0.4-0.9-0.4c-0.3,0-0.6,0.1-0.8,0.3c-0.2,0.2-0.5,0.4-0.7,0.6l-0.8-0.8c0.4-0.4,0.7-0.7,1.1-0.9
		c0.4-0.2,0.8-0.3,1.4-0.3c0.4,0,0.7,0.1,1,0.2c0.3,0.1,0.5,0.3,0.8,0.5c0.2,0.2,0.4,0.5,0.5,0.7c0.1,0.3,0.2,0.6,0.2,1
		c0,0.3-0.1,0.7-0.2,1s-0.3,0.7-0.6,1.1s-0.5,0.7-0.9,1.1c-0.3,0.4-0.7,0.8-1.1,1.2c0.2,0,0.4,0,0.6-0.1c0.2,0,0.4,0,0.6,0h1.9v1.2
		H436.4z"/>
	<path class="st1" d="M444.4,45.4c-0.6,0-1-0.2-1.4-0.7c-0.3-0.4-0.5-1.1-0.5-1.8s0.2-1.4,0.5-1.8s0.8-0.6,1.4-0.6s1,0.2,1.4,0.6
		c0.3,0.4,0.5,1,0.5,1.8s-0.2,1.4-0.5,1.8C445.4,45.2,444.9,45.4,444.4,45.4z M444.4,44.6c0.3,0,0.5-0.1,0.6-0.4s0.2-0.7,0.2-1.3
		s-0.1-1-0.2-1.3c-0.2-0.3-0.4-0.4-0.6-0.4c-0.3,0-0.5,0.1-0.6,0.4c-0.2,0.3-0.2,0.7-0.2,1.3s0.1,1,0.2,1.3S444.1,44.6,444.4,44.6z
		 M444.6,48.6l4.3-8.1h0.8l-4.3,8.1H444.6z M450,48.6c-0.6,0-1-0.2-1.4-0.7s-0.5-1.1-0.5-1.8c0-0.8,0.2-1.4,0.5-1.8
		c0.3-0.4,0.8-0.6,1.4-0.6s1,0.2,1.4,0.6c0.3,0.4,0.5,1,0.5,1.8c0,0.8-0.2,1.4-0.5,1.8C451,48.4,450.5,48.6,450,48.6z M450,47.8
		c0.3,0,0.5-0.1,0.6-0.4c0.2-0.3,0.2-0.7,0.2-1.3c0-0.6-0.1-1-0.2-1.3c-0.2-0.3-0.4-0.4-0.6-0.4c-0.3,0-0.5,0.1-0.6,0.4
		c-0.2,0.3-0.2,0.7-0.2,1.3c0,0.6,0.1,1,0.2,1.3S449.7,47.8,450,47.8z"/>
</g>
<g class="st0">
	<path class="st1" d="M308.5,122.6c-0.6,0-1.1-0.1-1.6-0.3c-0.4-0.2-0.8-0.5-1-0.8l0.7-0.9c0.2,0.2,0.5,0.4,0.8,0.6
		c0.3,0.2,0.6,0.2,1,0.2c0.4,0,0.8-0.1,1-0.3c0.3-0.2,0.4-0.5,0.4-0.8c0-0.2,0-0.4-0.1-0.5c-0.1-0.2-0.2-0.3-0.4-0.4
		s-0.4-0.2-0.7-0.3c-0.3-0.1-0.6-0.1-1.1-0.1v-1c0.4,0,0.7,0,0.9-0.1c0.3-0.1,0.5-0.1,0.6-0.3s0.3-0.2,0.3-0.4s0.1-0.3,0.1-0.5
		c0-0.3-0.1-0.6-0.3-0.8s-0.5-0.3-0.8-0.3c-0.3,0-0.6,0.1-0.8,0.2c-0.2,0.1-0.5,0.3-0.7,0.5l-0.7-0.9c0.3-0.3,0.7-0.5,1.1-0.7
		c0.4-0.2,0.8-0.3,1.2-0.3c0.4,0,0.7,0,1,0.1c0.3,0.1,0.6,0.2,0.8,0.4c0.2,0.2,0.4,0.4,0.5,0.6c0.1,0.3,0.2,0.5,0.2,0.9
		c0,0.4-0.1,0.8-0.4,1.1c-0.2,0.3-0.6,0.5-1,0.7v0c0.5,0.1,0.8,0.3,1.1,0.7c0.3,0.3,0.5,0.7,0.5,1.2c0,0.4-0.1,0.7-0.2,0.9
		c-0.1,0.3-0.3,0.5-0.6,0.7c-0.2,0.2-0.5,0.3-0.9,0.4C309.2,122.6,308.9,122.6,308.5,122.6z"/>
	<path class="st1" d="M313.5,122.6c-0.3,0-0.5-0.1-0.6-0.3c-0.2-0.2-0.3-0.4-0.3-0.7s0.1-0.5,0.3-0.7c0.2-0.2,0.4-0.3,0.6-0.3
		c0.3,0,0.5,0.1,0.6,0.3c0.2,0.2,0.3,0.4,0.3,0.7s-0.1,0.5-0.3,0.7S313.7,122.6,313.5,122.6z"/>
	<path class="st1" d="M316,122.5v-1.1h1.7v-5h-1.4v-0.9c0.4-0.1,0.7-0.2,1-0.3c0.3-0.1,0.5-0.2,0.8-0.4h1v6.5h1.5v1.1H316z"/>
	<path class="st1" d="M323.5,119.5c-0.6,0-1-0.2-1.4-0.7c-0.3-0.4-0.5-1.1-0.5-1.8s0.2-1.4,0.5-1.8s0.8-0.6,1.4-0.6
		c0.6,0,1,0.2,1.4,0.6s0.5,1,0.5,1.8s-0.2,1.4-0.5,1.8C324.5,119.3,324.1,119.5,323.5,119.5z M323.5,118.7c0.3,0,0.5-0.1,0.6-0.4
		s0.2-0.7,0.2-1.3s-0.1-1-0.2-1.3c-0.2-0.3-0.4-0.4-0.6-0.4c-0.3,0-0.5,0.1-0.6,0.4c-0.2,0.3-0.2,0.7-0.2,1.3s0.1,1,0.2,1.3
		C323,118.5,323.3,118.7,323.5,118.7z M323.8,122.6l4.3-8.1h0.8l-4.3,8.1H323.8z M329.2,122.6c-0.6,0-1-0.2-1.4-0.7
		s-0.5-1.1-0.5-1.8c0-0.8,0.2-1.4,0.5-1.8c0.3-0.4,0.8-0.6,1.4-0.6s1,0.2,1.4,0.6c0.3,0.4,0.5,1,0.5,1.8c0,0.8-0.2,1.4-0.5,1.8
		S329.7,122.6,329.2,122.6z M329.2,121.8c0.3,0,0.5-0.1,0.6-0.4c0.2-0.3,0.2-0.7,0.2-1.3c0-0.6-0.1-1-0.2-1.3
		c-0.2-0.3-0.4-0.4-0.6-0.4c-0.3,0-0.5,0.1-0.6,0.4c-0.2,0.3-0.2,0.7-0.2,1.3c0,0.6,0.1,1,0.2,1.3S328.9,121.8,329.2,121.8z"/>
</g>
<g class="st0">
	<path class="st1" d="M358.5,91.7v-2h-3.4v-0.9l3-4.7h1.6v4.6h1v1.1h-1v2H358.5z M356.5,88.7h2v-1.7c0-0.2,0-0.5,0-0.8
		c0-0.3,0-0.6,0-0.8h0c-0.1,0.2-0.2,0.4-0.3,0.6c-0.1,0.2-0.2,0.4-0.3,0.6L356.5,88.7z"/>
	<path class="st1" d="M362.8,91.9c-0.3,0-0.5-0.1-0.6-0.3c-0.2-0.2-0.3-0.4-0.3-0.7s0.1-0.5,0.3-0.7c0.2-0.2,0.4-0.3,0.6-0.3
		c0.3,0,0.5,0.1,0.6,0.3c0.2,0.2,0.3,0.4,0.3,0.7s-0.1,0.5-0.3,0.7C363.2,91.8,363,91.9,362.8,91.9z"/>
	<path class="st1" d="M367.5,91.9c-0.4,0-0.7-0.1-1-0.2c-0.3-0.1-0.6-0.2-0.8-0.4c-0.2-0.2-0.4-0.4-0.5-0.7
		c-0.1-0.3-0.2-0.5-0.2-0.9c0-0.2,0-0.5,0.1-0.7s0.2-0.4,0.3-0.5s0.3-0.3,0.4-0.4c0.2-0.1,0.3-0.2,0.5-0.3v0
		c-0.3-0.2-0.5-0.5-0.8-0.7c-0.2-0.3-0.3-0.6-0.3-1c0-0.3,0.1-0.6,0.2-0.8c0.1-0.2,0.3-0.5,0.5-0.6c0.2-0.2,0.4-0.3,0.7-0.4
		c0.3-0.1,0.6-0.1,0.9-0.1c0.3,0,0.7,0,0.9,0.2s0.5,0.2,0.7,0.4c0.2,0.2,0.3,0.4,0.5,0.6c0.1,0.3,0.2,0.5,0.2,0.8
		c0,0.2,0,0.4-0.1,0.5c-0.1,0.2-0.1,0.3-0.2,0.5c-0.1,0.1-0.2,0.3-0.3,0.4s-0.2,0.2-0.4,0.3v0c0.2,0.1,0.3,0.2,0.5,0.3
		s0.3,0.3,0.4,0.4s0.2,0.3,0.3,0.5c0.1,0.2,0.1,0.4,0.1,0.7c0,0.3-0.1,0.6-0.2,0.8c-0.1,0.3-0.3,0.5-0.5,0.7
		c-0.2,0.2-0.5,0.3-0.8,0.4C368.2,91.8,367.9,91.9,367.5,91.9z M367.5,90.9c0.4,0,0.7-0.1,0.9-0.3s0.4-0.5,0.4-0.8
		c0-0.2,0-0.4-0.1-0.5c-0.1-0.1-0.2-0.3-0.4-0.4s-0.4-0.2-0.6-0.3c-0.2-0.1-0.5-0.2-0.7-0.3c-0.2,0.2-0.4,0.4-0.6,0.6
		c-0.2,0.2-0.2,0.5-0.2,0.8c0,0.4,0.1,0.7,0.4,0.9C366.8,90.8,367.1,90.9,367.5,90.9z M368,87.4c0.2-0.2,0.4-0.4,0.5-0.6
		c0.1-0.2,0.2-0.4,0.2-0.7c0-0.3-0.1-0.6-0.3-0.8s-0.5-0.3-0.8-0.3c-0.3,0-0.5,0.1-0.7,0.3c-0.2,0.2-0.3,0.4-0.3,0.8
		c0,0.2,0,0.4,0.1,0.5c0.1,0.1,0.2,0.3,0.3,0.4s0.3,0.2,0.5,0.3C367.6,87.2,367.8,87.3,368,87.4z"/>
	<path class="st1" d="M372.8,88.7c-0.6,0-1-0.2-1.4-0.7c-0.3-0.4-0.5-1.1-0.5-1.8s0.2-1.4,0.5-1.8s0.8-0.6,1.4-0.6s1,0.2,1.4,0.6
		s0.5,1,0.5,1.8s-0.2,1.4-0.5,1.8C373.8,88.5,373.4,88.7,372.8,88.7z M372.8,87.9c0.3,0,0.5-0.1,0.6-0.4s0.2-0.7,0.2-1.3
		s-0.1-1-0.2-1.3c-0.2-0.3-0.4-0.4-0.6-0.4s-0.5,0.1-0.6,0.4c-0.2,0.3-0.2,0.7-0.2,1.3s0.1,1,0.2,1.3S372.6,87.9,372.8,87.9z
		 M373.1,91.9l4.3-8.1h0.8l-4.3,8.1H373.1z M378.5,91.9c-0.6,0-1-0.2-1.4-0.7s-0.5-1.1-0.5-1.8c0-0.8,0.2-1.4,0.5-1.8
		c0.3-0.4,0.8-0.6,1.4-0.6s1,0.2,1.4,0.6c0.3,0.4,0.5,1,0.5,1.8c0,0.8-0.2,1.4-0.5,1.8C379.5,91.6,379,91.9,378.5,91.9z M378.5,91.1
		c0.3,0,0.5-0.1,0.6-0.4s0.2-0.7,0.2-1.3c0-0.6-0.1-1-0.2-1.3c-0.2-0.3-0.4-0.4-0.6-0.4c-0.3,0-0.5,0.1-0.6,0.4
		c-0.2,0.3-0.2,0.7-0.2,1.3c0,0.6,0.1,1,0.2,1.3C378,90.9,378.2,91.1,378.5,91.1z"/>
</g>
<g class="st0">
	<path class="st1" d="M184.6,131.2v-0.8c0.5-0.5,1-1,1.4-1.4s0.8-0.8,1.1-1.2c0.3-0.4,0.5-0.7,0.7-1c0.2-0.3,0.2-0.6,0.2-0.9
		c0-0.4-0.1-0.7-0.3-1c-0.2-0.2-0.5-0.4-0.9-0.4c-0.3,0-0.6,0.1-0.8,0.3c-0.2,0.2-0.5,0.4-0.7,0.6l-0.8-0.8c0.4-0.4,0.7-0.7,1.1-0.9
		s0.8-0.3,1.4-0.3c0.4,0,0.7,0.1,1,0.2c0.3,0.1,0.5,0.3,0.8,0.5c0.2,0.2,0.4,0.5,0.5,0.7c0.1,0.3,0.2,0.6,0.2,1c0,0.3-0.1,0.7-0.2,1
		s-0.3,0.7-0.6,1.1s-0.5,0.7-0.9,1.1s-0.7,0.8-1.1,1.2c0.2,0,0.4,0,0.6-0.1c0.2,0,0.4,0,0.6,0h1.9v1.2H184.6z"/>
	<path class="st1" d="M192,131.3c-0.3,0-0.5-0.1-0.6-0.3s-0.3-0.4-0.3-0.7s0.1-0.5,0.3-0.7c0.2-0.2,0.4-0.3,0.6-0.3s0.5,0.1,0.6,0.3
		c0.2,0.2,0.3,0.4,0.3,0.7s-0.1,0.5-0.3,0.7C192.4,131.2,192.2,131.3,192,131.3z"/>
	<path class="st1" d="M195.6,131.2c0-0.7,0.1-1.3,0.2-1.9c0.1-0.6,0.2-1.1,0.4-1.6c0.2-0.5,0.4-1,0.6-1.5c0.3-0.5,0.6-1,0.9-1.5
		h-3.6v-1.2h5.1v0.8c-0.4,0.6-0.8,1.1-1.1,1.6s-0.5,1-0.7,1.5c-0.2,0.5-0.3,1.1-0.3,1.7c-0.1,0.6-0.1,1.3-0.2,2H195.6z"/>
	<path class="st1" d="M202,128.2c-0.6,0-1-0.2-1.4-0.7c-0.3-0.4-0.5-1.1-0.5-1.8s0.2-1.4,0.5-1.8s0.8-0.6,1.4-0.6
		c0.6,0,1,0.2,1.4,0.6s0.5,1,0.5,1.8s-0.2,1.4-0.5,1.8C203,127.9,202.6,128.2,202,128.2z M202,127.4c0.3,0,0.5-0.1,0.6-0.4
		s0.2-0.7,0.2-1.3s-0.1-1-0.2-1.3c-0.2-0.3-0.4-0.4-0.6-0.4c-0.3,0-0.5,0.1-0.6,0.4c-0.2,0.3-0.2,0.7-0.2,1.3s0.1,1,0.2,1.3
		C201.6,127.2,201.8,127.4,202,127.4z M202.3,131.3l4.3-8.1h0.8l-4.3,8.1H202.3z M207.7,131.3c-0.6,0-1-0.2-1.4-0.7
		s-0.5-1.1-0.5-1.8c0-0.8,0.2-1.4,0.5-1.8c0.3-0.4,0.8-0.6,1.4-0.6s1,0.2,1.4,0.6c0.3,0.4,0.5,1,0.5,1.8c0,0.8-0.2,1.4-0.5,1.8
		C208.7,131.1,208.2,131.3,207.7,131.3z M207.7,130.5c0.3,0,0.5-0.1,0.6-0.4c0.2-0.3,0.2-0.7,0.2-1.3c0-0.6-0.1-1-0.2-1.3
		c-0.2-0.3-0.4-0.4-0.6-0.4s-0.5,0.1-0.6,0.4c-0.2,0.3-0.2,0.7-0.2,1.3c0,0.6,0.1,1,0.2,1.3C207.2,130.4,207.4,130.5,207.7,130.5z"
		/>
</g>
<g class="st0">
	<path class="st1" d="M239.4,98.4v-2h-3.4v-0.9l3-4.7h1.6v4.6h1v1.1h-1v2H239.4z M237.4,95.3h2v-1.7c0-0.2,0-0.5,0-0.8
		c0-0.3,0-0.6,0-0.8h0c-0.1,0.2-0.2,0.4-0.3,0.6c-0.1,0.2-0.2,0.4-0.3,0.6L237.4,95.3z"/>
	<path class="st1" d="M243.7,98.5c-0.3,0-0.5-0.1-0.6-0.3s-0.3-0.4-0.3-0.7s0.1-0.5,0.3-0.7c0.2-0.2,0.4-0.3,0.6-0.3
		s0.5,0.1,0.6,0.3c0.2,0.2,0.3,0.4,0.3,0.7s-0.1,0.5-0.3,0.7C244.1,98.4,243.9,98.5,243.7,98.5z"/>
	<path class="st1" d="M248.2,98.5c-0.6,0-1.1-0.1-1.6-0.3c-0.4-0.2-0.8-0.5-1.1-0.7l0.6-0.9c0.2,0.2,0.5,0.4,0.8,0.6
		c0.3,0.2,0.6,0.2,1,0.2c0.4,0,0.8-0.1,1.1-0.4s0.4-0.6,0.4-1.1c0-0.5-0.1-0.8-0.4-1.1c-0.3-0.2-0.6-0.4-1-0.4c-0.2,0-0.5,0-0.6,0.1
		s-0.4,0.2-0.6,0.3l-0.7-0.4l0.2-3.8h4.1v1.2h-2.9l-0.2,1.9c0.2-0.1,0.3-0.1,0.5-0.2c0.2,0,0.3-0.1,0.5-0.1c0.3,0,0.6,0,0.9,0.1
		c0.3,0.1,0.5,0.2,0.8,0.4c0.2,0.2,0.4,0.4,0.5,0.7c0.1,0.3,0.2,0.7,0.2,1.1c0,0.4-0.1,0.8-0.2,1.1c-0.1,0.3-0.3,0.6-0.6,0.8
		c-0.2,0.2-0.5,0.4-0.9,0.5C248.9,98.5,248.6,98.5,248.2,98.5z"/>
	<path class="st1" d="M253.7,95.3c-0.6,0-1-0.2-1.4-0.7c-0.3-0.4-0.5-1.1-0.5-1.8s0.2-1.4,0.5-1.8s0.8-0.6,1.4-0.6
		c0.6,0,1,0.2,1.4,0.6s0.5,1,0.5,1.8s-0.2,1.4-0.5,1.8C254.7,95.1,254.3,95.3,253.7,95.3z M253.7,94.5c0.3,0,0.5-0.1,0.6-0.4
		s0.2-0.7,0.2-1.3s-0.1-1-0.2-1.3c-0.2-0.3-0.4-0.4-0.6-0.4c-0.3,0-0.5,0.1-0.6,0.4c-0.2,0.3-0.2,0.7-0.2,1.3s0.1,1,0.2,1.3
		C253.2,94.4,253.5,94.5,253.7,94.5z M254,98.5l4.3-8.1h0.8l-4.3,8.1H254z M259.4,98.5c-0.6,0-1-0.2-1.4-0.7s-0.5-1.1-0.5-1.8
		c0-0.8,0.2-1.4,0.5-1.8c0.3-0.4,0.8-0.6,1.4-0.6s1,0.2,1.4,0.6c0.3,0.4,0.5,1,0.5,1.8c0,0.8-0.2,1.4-0.5,1.8S259.9,98.5,259.4,98.5
		z M259.4,97.7c0.3,0,0.5-0.1,0.6-0.4c0.2-0.3,0.2-0.7,0.2-1.3c0-0.6-0.1-1-0.2-1.3c-0.2-0.3-0.4-0.4-0.6-0.4s-0.5,0.1-0.6,0.4
		c-0.2,0.3-0.2,0.7-0.2,1.3c0,0.6,0.1,1,0.2,1.3C258.9,97.6,259.1,97.7,259.4,97.7z"/>
</g>
<g class="st0">
	<path class="st1" d="M62.8,181.3v-1h2.9v1H62.8z"/>
	<path class="st1" d="M67,183.9v-1.1h1.7v-5h-1.4v-0.9c0.4-0.1,0.7-0.2,1-0.3c0.3-0.1,0.5-0.2,0.8-0.4h1v6.5h1.5v1.1H67z"/>
	<path class="st1" d="M74,184c-0.3,0-0.5-0.1-0.6-0.3s-0.3-0.4-0.3-0.7s0.1-0.5,0.3-0.7c0.2-0.2,0.4-0.3,0.6-0.3s0.5,0.1,0.6,0.3
		c0.2,0.2,0.3,0.4,0.3,0.7s-0.1,0.5-0.3,0.7C74.4,183.9,74.2,184,74,184z"/>
	<path class="st1" d="M77.6,183.9c0-0.7,0.1-1.3,0.2-1.9c0.1-0.6,0.2-1.1,0.4-1.6c0.2-0.5,0.4-1,0.6-1.5c0.3-0.5,0.6-1,0.9-1.5h-3.6
		v-1.2h5.1v0.8c-0.4,0.6-0.8,1.1-1.1,1.6s-0.5,1-0.7,1.5c-0.2,0.5-0.3,1.1-0.3,1.7c-0.1,0.6-0.1,1.3-0.2,2H77.6z"/>
	<path class="st1" d="M84,180.8c-0.6,0-1-0.2-1.4-0.7c-0.3-0.4-0.5-1.1-0.5-1.8s0.2-1.4,0.5-1.8s0.8-0.6,1.4-0.6
		c0.6,0,1,0.2,1.4,0.6s0.5,1,0.5,1.8s-0.2,1.4-0.5,1.8C85,180.6,84.6,180.8,84,180.8z M84,180c0.3,0,0.5-0.1,0.6-0.4
		s0.2-0.7,0.2-1.3s-0.1-1-0.2-1.3c-0.2-0.3-0.4-0.4-0.6-0.4c-0.3,0-0.5,0.1-0.6,0.4c-0.2,0.3-0.2,0.7-0.2,1.3s0.1,1,0.2,1.3
		C83.5,179.9,83.7,180,84,180z M84.2,184l4.3-8.1h0.8l-4.3,8.1H84.2z M89.6,184c-0.6,0-1-0.2-1.4-0.7s-0.5-1.1-0.5-1.8
		c0-0.8,0.2-1.4,0.5-1.8c0.3-0.4,0.8-0.6,1.4-0.6s1,0.2,1.4,0.6c0.3,0.4,0.5,1,0.5,1.8c0,0.8-0.2,1.4-0.5,1.8
		C90.6,183.8,90.2,184,89.6,184z M89.6,183.2c0.3,0,0.5-0.1,0.6-0.4c0.2-0.3,0.2-0.7,0.2-1.3c0-0.6-0.1-1-0.2-1.3
		c-0.2-0.3-0.4-0.4-0.6-0.4s-0.5,0.1-0.6,0.4c-0.2,0.3-0.2,0.7-0.2,1.3c0,0.6,0.1,1,0.2,1.3C89.2,183.1,89.4,183.2,89.6,183.2z"/>
</g>
<g class="st0">
	<path d="M116.6,183.9c-0.8,0-1.4-0.3-1.9-1c-0.5-0.7-0.7-1.7-0.7-3c0-1.3,0.2-2.3,0.7-2.9c0.5-0.7,1.1-1,1.9-1s1.4,0.3,1.9,1
		c0.5,0.7,0.7,1.6,0.7,2.9c0,1.3-0.2,2.3-0.7,3C118,183.5,117.4,183.9,116.6,183.9z M116.6,182.8c0.2,0,0.4-0.1,0.5-0.2
		s0.3-0.3,0.4-0.5c0.1-0.2,0.2-0.5,0.3-0.9c0.1-0.4,0.1-0.8,0.1-1.4c0-0.5,0-1-0.1-1.4c-0.1-0.4-0.2-0.7-0.3-0.9
		c-0.1-0.2-0.2-0.4-0.4-0.5c-0.2-0.1-0.3-0.1-0.5-0.1c-0.2,0-0.4,0-0.5,0.1c-0.2,0.1-0.3,0.3-0.4,0.5c-0.1,0.2-0.2,0.5-0.3,0.9
		c-0.1,0.4-0.1,0.8-0.1,1.4c0,0.5,0,1,0.1,1.4c0.1,0.4,0.2,0.7,0.3,0.9s0.2,0.4,0.4,0.5S116.4,182.8,116.6,182.8z"/>
	<path d="M121.3,183.9c-0.3,0-0.5-0.1-0.6-0.3s-0.3-0.4-0.3-0.7c0-0.3,0.1-0.5,0.3-0.7s0.4-0.3,0.6-0.3s0.5,0.1,0.6,0.3
		c0.2,0.2,0.3,0.4,0.3,0.7c0,0.3-0.1,0.5-0.3,0.7C121.8,183.8,121.6,183.9,121.3,183.9z"/>
	<path d="M123.9,183.7v-1.1h1.7v-5h-1.4v-0.9c0.4-0.1,0.7-0.2,1-0.3c0.3-0.1,0.5-0.2,0.8-0.4h1v6.5h1.5v1.1H123.9z"/>
	<path d="M131.4,180.7c-0.6,0-1-0.2-1.4-0.7c-0.3-0.4-0.5-1.1-0.5-1.8s0.2-1.4,0.5-1.8c0.3-0.4,0.8-0.6,1.4-0.6c0.6,0,1,0.2,1.4,0.6
		c0.3,0.4,0.5,1,0.5,1.8s-0.2,1.4-0.5,1.8C132.4,180.5,131.9,180.7,131.4,180.7z M131.4,179.9c0.3,0,0.5-0.1,0.6-0.4
		c0.2-0.3,0.2-0.7,0.2-1.3c0-0.6-0.1-1-0.2-1.3c-0.2-0.3-0.4-0.4-0.6-0.4c-0.3,0-0.5,0.1-0.6,0.4c-0.2,0.3-0.2,0.7-0.2,1.3
		c0,0.6,0.1,1,0.2,1.3C130.9,179.8,131.1,179.9,131.4,179.9z M131.6,183.9l4.3-8.2h0.8l-4.3,8.2H131.6z M137,183.9
		c-0.6,0-1-0.2-1.4-0.7c-0.3-0.4-0.5-1.1-0.5-1.8c0-0.8,0.2-1.4,0.5-1.8c0.3-0.4,0.8-0.6,1.4-0.6s1,0.2,1.4,0.6
		c0.3,0.4,0.5,1,0.5,1.8c0,0.8-0.2,1.4-0.5,1.8C138,183.7,137.6,183.9,137,183.9z M137,183.1c0.3,0,0.5-0.1,0.6-0.4
		c0.2-0.3,0.2-0.7,0.2-1.3c0-0.6-0.1-1-0.2-1.3c-0.2-0.3-0.4-0.4-0.6-0.4s-0.5,0.1-0.6,0.4c-0.2,0.3-0.2,0.7-0.2,1.3
		c0,0.6,0.1,1,0.2,1.3C136.6,182.9,136.8,183.1,137,183.1z"/>
</g>
<g class="st0">
	<path class="st1" d="M22,239.1v-1h2.9v1H22z"/>
	<path class="st1" d="M25.8,241.7v-0.8c0.5-0.5,1-1,1.4-1.4s0.8-0.8,1.1-1.2c0.3-0.4,0.5-0.7,0.7-1c0.2-0.3,0.2-0.6,0.2-0.9
		c0-0.4-0.1-0.7-0.3-1c-0.2-0.2-0.5-0.4-0.9-0.4c-0.3,0-0.6,0.1-0.8,0.3c-0.2,0.2-0.5,0.4-0.7,0.6l-0.8-0.8c0.4-0.4,0.7-0.7,1.1-0.9
		s0.8-0.3,1.4-0.3c0.4,0,0.7,0.1,1,0.2c0.3,0.1,0.5,0.3,0.8,0.5c0.2,0.2,0.4,0.5,0.5,0.7c0.1,0.3,0.2,0.6,0.2,1c0,0.3-0.1,0.7-0.2,1
		s-0.3,0.7-0.6,1.1s-0.5,0.7-0.9,1.1s-0.7,0.8-1.1,1.2c0.2,0,0.4,0,0.6-0.1c0.2,0,0.4,0,0.6,0H31v1.2H25.8z"/>
</g>
<g class="st0">
	<path class="st1" d="M26.2,183.7v-1.1h1.7v-5h-1.4v-0.9c0.4-0.1,0.7-0.2,1-0.3c0.3-0.1,0.5-0.2,0.8-0.4h1v6.5h1.5v1.1H26.2z"/>
</g>
<g class="st0">
	<path class="st1" d="M28.9,125.8v-2h-3.4v-0.9l3-4.7h1.6v4.6h1v1.1h-1v2H28.9z M26.9,122.8h2V121c0-0.2,0-0.5,0-0.8
		c0-0.3,0-0.6,0-0.8h0c-0.1,0.2-0.2,0.4-0.3,0.6c-0.1,0.2-0.2,0.4-0.3,0.6L26.9,122.8z"/>
</g>
<g class="st0">
	<path class="st1" d="M27.4,67.9c0-0.7,0.1-1.3,0.2-1.9c0.1-0.6,0.2-1.1,0.4-1.6c0.2-0.5,0.4-1,0.6-1.5c0.3-0.5,0.6-1,0.9-1.5h-3.6
		v-1.2H31v0.8c-0.4,0.6-0.8,1.1-1.1,1.6s-0.5,1-0.7,1.5c-0.2,0.5-0.3,1.1-0.3,1.7c-0.1,0.6-0.1,1.3-0.2,2H27.4z"/>
</g>
<g class="st0">
	<path class="st1" d="M20.1,10V8.9h1.7v-5h-1.4V3c0.4-0.1,0.7-0.2,1-0.3c0.3-0.1,0.5-0.2,0.8-0.4h1v6.5h1.5V10H20.1z"/>
	<path class="st1" d="M28.4,10.1c-0.8,0-1.4-0.3-1.9-1c-0.5-0.7-0.7-1.7-0.7-3s0.2-2.3,0.7-2.9s1.1-1,1.9-1s1.4,0.3,1.9,1
		S31,4.8,31,6.1c0,1.3-0.2,2.3-0.7,3C29.9,9.8,29.2,10.1,28.4,10.1z M28.4,9c0.2,0,0.4,0,0.5-0.2c0.2-0.1,0.3-0.3,0.4-0.5
		c0.1-0.2,0.2-0.5,0.3-0.9c0.1-0.4,0.1-0.8,0.1-1.4c0-0.5,0-1-0.1-1.4c-0.1-0.4-0.2-0.7-0.3-0.9c-0.1-0.2-0.2-0.4-0.4-0.5
		c-0.2-0.1-0.3-0.1-0.5-0.1c-0.2,0-0.4,0-0.5,0.1c-0.2,0.1-0.3,0.3-0.4,0.5c-0.1,0.2-0.2,0.5-0.3,0.9c-0.1,0.4-0.1,0.8-0.1,1.4
		c0,0.5,0,1,0.1,1.4c0.1,0.4,0.2,0.7,0.3,0.9s0.2,0.4,0.4,0.5C28.1,9,28.2,9,28.4,9z"/>
</g>
<line class="st5" x1="40.2" y1="233.5" x2="40.2" y2="1.8"/>
<line class="st5" x1="40.2" y1="233.5" x2="50.6" y2="233.5"/>
<line class="st5" x1="40.2" y1="175.6" x2="50.6" y2="175.6"/>
<line class="st5" x1="40.2" y1="117.7" x2="50.6" y2="117.7"/>
<line class="st5" x1="40.2" y1="59.8" x2="50.6" y2="59.8"/>
<line class="st5" x1="40.2" y1="1.8" x2="50.6" y2="1.8"/>
<rect x="104.8" y="189.1" class="st3" width="43.2" height="1.9"/>
<rect x="224.8" y="104.2" class="st3" width="43.2" height="86.9"/>
<rect x="344.8" y="98.4" class="st3" width="43.2" height="92.7"/>
<rect x="464.9" y="54" class="st3" width="43.2" height="137.1"/>
<rect x="56.7" y="191" class="st2" width="43.2" height="32.8"/>
<rect x="176.8" y="138.9" class="st2" width="43.2" height="52.1"/>
<rect x="296.8" y="131.2" class="st2" width="43.2" height="59.9"/>
<rect x="416.9" y="52" class="st2" width="43.2" height="139"/>
<polyline class="st5" points="518.8,181.6 518.8,190.9 41,190.9 "/>
</svg>
