<svg id="Layer_1" data-name="Layer 1" xmlns="http://www.w3.org/2000/svg" viewBox="0 0 717 358"><defs><style>.cls-1{font-size:10px;font-family:RobotoCondensed-Regular, Roboto Condensed;}.cls-1,.cls-2,.cls-3,.cls-5{fill:#404041;}.cls-2{font-size:13px;}.cls-2,.cls-3,.cls-5{font-family:RobotoCondensed-Bold, Roboto Condensed;font-weight:700;}.cls-3{font-size:11px;}.cls-4{fill:none;stroke:#000;stroke-miterlimit:10;stroke-width:0.5px;}.cls-5{font-size:14px;}.cls-6{fill:#ffd200;}.cls-7{fill:#003e7e;}</style></defs><title>assets-bar</title><text class="cls-1" transform="translate(26.67 232.55) rotate(-90)">Dollars (In millions)</text><text class="cls-2" transform="translate(419.25 343)">2015</text><text class="cls-2" transform="translate(248.22 343)">2012</text><text class="cls-2" transform="translate(305.23 343)">2013</text><text class="cls-2" transform="translate(362.24 343)">2014</text><text class="cls-2" transform="translate(191.21 343)">2011</text><text class="cls-2" transform="translate(134.2 343)">2010</text><text class="cls-3" transform="translate(356.41 174.91)">$284.3M</text><text class="cls-2" transform="translate(476.25 343)">2016</text><text class="cls-2" transform="translate(533.26 343)">2017</text><text class="cls-2" transform="translate(590.27 343)">2018</text><text class="cls-2" transform="translate(647.28 343)">2019</text><text class="cls-3" transform="translate(412.73 172.91)">$288.6M</text><text class="cls-3" transform="translate(470.05 75.74)">$472.9M</text><text class="cls-3" transform="translate(527.37 57.68)">$509.5M</text><text class="cls-3" transform="translate(584.03 28.23)">$566.3M</text><text class="cls-3" transform="translate(641.01 28.23)">$564.3M</text><text class="cls-3" transform="translate(299.08 195.7)">$242.6M</text><text class="cls-3" transform="translate(242.31 209.71)">$215.8M</text><text class="cls-3" transform="translate(128.12 232.55)">$171.8M</text><text class="cls-3" transform="translate(185.97 215.87)">$204.7M</text><line class="cls-4" x1="89" y1="328.25" x2="695" y2="328.25"/><line class="cls-4" x1="89" y1="328.25" x2="89" y2="320.48"/><line class="cls-4" x1="695" y1="328.25" x2="695" y2="320.48"/><text class="cls-5" transform="translate(54.75 338.9)">$0M</text><text class="cls-5" transform="translate(40.59 287.12)">$100M</text><text class="cls-5" transform="translate(40.59 235.34)">$200M</text><text class="cls-5" transform="translate(40.59 183.57)">$300M</text><text class="cls-5" transform="translate(40.59 131.79)">$400M</text><text class="cls-5" transform="translate(40.59 80.01)">$500M</text><text class="cls-5" transform="translate(40.59 28.23)">$600M</text><line class="cls-4" x1="89" y1="328.25" x2="89" y2="17.58"/><line class="cls-4" x1="89" y1="276.47" x2="104.15" y2="276.47"/><line class="cls-4" x1="89" y1="224.69" x2="104.15" y2="224.69"/><line class="cls-4" x1="89" y1="172.91" x2="104.15" y2="172.91"/><line class="cls-4" x1="89" y1="121.14" x2="104.15" y2="121.14"/><line class="cls-4" x1="89" y1="69.36" x2="104.15" y2="69.36"/><line class="cls-4" x1="89" y1="17.58" x2="104.15" y2="17.58"/><rect class="cls-6" x="641.01" y="35.43" width="36.36" height="292.18"/><rect class="cls-7" x="584.1" y="35.39" width="36.36" height="293.22"/><rect class="cls-7" x="527.19" y="64.8" width="36.36" height="263.81"/><rect class="cls-7" x="470.28" y="83.75" width="36.36" height="244.86"/><rect class="cls-7" x="413.37" y="179.18" width="36.36" height="149.43"/><rect class="cls-7" x="356.46" y="181.4" width="36.36" height="147.2"/><rect class="cls-7" x="299.55" y="203" width="36.36" height="125.61"/><rect class="cls-7" x="242.64" y="216.87" width="36.36" height="111.74"/><rect class="cls-7" x="185.73" y="222.62" width="36.36" height="105.99"/><rect class="cls-7" x="128.82" y="239.65" width="36.36" height="88.95"/></svg>