<svg id="Layer_1" data-name="Layer 1" xmlns="http://www.w3.org/2000/svg" viewBox="0 0 676.88 330.34"><defs><style>.cls-1{font-size:10px;font-family:SourceSansPro-Regular, Source Sans Pro;}.cls-1,.cls-3,.cls-4{fill:#404041;}.cls-2{letter-spacing:0em;}.cls-3{font-size:13px;}.cls-3,.cls-4{font-family:SourceSansPro-SemiBold, Source Sans Pro;font-weight:600;}.cls-4{font-size:14px;}.cls-5{fill:none;stroke:#000;stroke-miterlimit:10;stroke-width:0.5px;}.cls-6{fill:#003e7e;}</style></defs><text class="cls-1" transform="translate(8.3 215.94) rotate(-90)">Dolla<tspan class="cls-2" x="21.71" y="0">r</tspan><tspan x="25.14" y="0">s (In millions)</tspan></text><text class="cls-3" transform="translate(342.3 326.39)">2015</text><text class="cls-3" transform="translate(171.27 326.39)">2012</text><text class="cls-3" transform="translate(228.28 326.39)">2013</text><text class="cls-3" transform="translate(285.29 326.39)">2014</text><text class="cls-3" transform="translate(114.26 326.39)">2011</text><text class="cls-3" transform="translate(280.33 158.37)">$284.3M</text><text class="cls-3" transform="translate(401.31 326.39)">2016</text><text class="cls-3" transform="translate(458.32 326.39)">2017</text><text class="cls-3" transform="translate(515.32 326.39)">2018</text><text class="cls-3" transform="translate(572.33 326.39)">2019</text><text class="cls-3" transform="translate(630.08 326.39)">2020</text><text class="cls-3" transform="translate(337.55 155.16)">$288.6M</text><text class="cls-3" transform="translate(394.77 59.71)">$472.9M</text><text class="cls-3" transform="translate(451.99 42.35)">$509.5M</text><text class="cls-3" transform="translate(509.2 12.62)">$566.3M</text><text class="cls-3" transform="translate(566.42 14.62)">$564.3M</text><text class="cls-3" transform="translate(623.64 25.18)">$544.5M</text><text class="cls-3" transform="translate(223.11 179.09)">$242.6M</text><text class="cls-3" transform="translate(165.89 193.56)">$215.8M</text><text class="cls-3" transform="translate(108.67 199.26)">$204.7M</text><text class="cls-4" transform="translate(36.37 322.29)">$0M</text><text class="cls-4" transform="translate(22.01 270.51)">$100M</text><text class="cls-4" transform="translate(22.01 218.73)">$200M</text><text class="cls-4" transform="translate(22.01 166.95)">$300M</text><text class="cls-4" transform="translate(22.01 115.18)">$400M</text><text class="cls-4" transform="translate(22.01 63.4)">$500M</text><text class="cls-4" transform="translate(22.01 11.62)">$600M</text><line class="cls-5" x1="70.63" y1="311.63" x2="70.63" y2="0.97"/><line class="cls-5" x1="70.63" y1="259.86" x2="85.78" y2="259.86"/><line class="cls-5" x1="70.63" y1="208.08" x2="85.78" y2="208.08"/><line class="cls-5" x1="70.63" y1="156.3" x2="85.78" y2="156.3"/><line class="cls-5" x1="70.63" y1="104.52" x2="85.78" y2="104.52"/><line class="cls-5" x1="70.63" y1="52.75" x2="85.78" y2="52.75"/><line class="cls-5" x1="70.63" y1="0.97" x2="85.78" y2="0.97"/><rect class="cls-6" x="625.14" y="29.07" width="37.24" height="281.93"/><rect class="cls-6" x="567.77" y="18.81" width="37.24" height="292.18"/><rect class="cls-6" x="510.4" y="17.78" width="37.24" height="293.22"/><rect class="cls-6" x="453.02" y="47.19" width="37.24" height="263.81"/><rect class="cls-6" x="395.65" y="66.14" width="37.24" height="244.86"/><rect class="cls-6" x="338.28" y="161.57" width="37.24" height="149.43"/><rect class="cls-6" x="280.91" y="163.79" width="37.24" height="147.2"/><rect class="cls-6" x="223.54" y="185.38" width="37.24" height="125.61"/><rect class="cls-6" x="166.17" y="199.26" width="37.24" height="111.74"/><rect class="cls-6" x="108.8" y="205.01" width="37.24" height="105.99"/><line class="cls-5" x1="70.63" y1="311.63" x2="676.63" y2="311.63"/><line class="cls-5" x1="70.63" y1="311.63" x2="70.63" y2="303.87"/><line class="cls-5" x1="676.63" y1="311.63" x2="676.63" y2="303.87"/></svg>