<svg id="Layer_1" data-name="Layer 1" xmlns="http://www.w3.org/2000/svg" viewBox="0 0 439.72 264.78"><defs><style>.cls-1{font-size:14px;fill:#404041;font-family:SourceSansPro-SemiBold, Source Sans Pro;font-weight:600;}.cls-2{font-family:SourceSansPro-Regular, Source Sans Pro;font-weight:400;}.cls-3{letter-spacing:-0.01em;}.cls-4{letter-spacing:0em;}.cls-5{letter-spacing:-0.01em;}.cls-6{letter-spacing:-0.01em;}.cls-7{letter-spacing:-0.02em;}.cls-8{letter-spacing:0em;}.cls-9{letter-spacing:-0.02em;}.cls-10{letter-spacing:-0.01em;}.cls-11{letter-spacing:0.02em;}.cls-12{letter-spacing:0em;}.cls-13{letter-spacing:0em;}.cls-14{letter-spacing:0em;}.cls-15{letter-spacing:-0.02em;}.cls-16,.cls-17,.cls-18,.cls-19,.cls-20{fill:none;stroke-width:0.81px;}.cls-16{stroke:#fbcf0e;}.cls-16,.cls-17,.cls-18,.cls-19,.cls-20,.cls-21,.cls-22,.cls-23,.cls-24,.cls-25{stroke-miterlimit:10;}.cls-17{stroke:#134fc9;}.cls-18{stroke:#afd5e9;}.cls-19{stroke:#bdbbb5;}.cls-20{stroke:#2e3191;}.cls-21{fill:#bdbbb5;}.cls-21,.cls-22,.cls-23,.cls-24,.cls-25{stroke:#fff;stroke-width:0.41px;}.cls-22{fill:#afd5e9;}.cls-23{fill:#134fc9;}.cls-24{fill:#ffd200;}.cls-25{fill:#1e417c;}</style></defs><text class="cls-1" transform="translate(0 26.88)">64%<tspan class="cls-2"><tspan x="0" y="16.8">Glo</tspan><tspan class="cls-3" x="19.8" y="16.8">b</tspan><tspan class="cls-4" x="27.34" y="16.8">al </tspan><tspan class="cls-5" x="40.77" y="16.8">E</tspan><tspan x="48.01" y="16.8">quity</tspan></tspan></text><text class="cls-1" transform="translate(321.51 103.58)">18%<tspan class="cls-2"><tspan x="0" y="16.8">Glo</tspan><tspan class="cls-6" x="19.8" y="16.8">b</tspan><tspan x="27.34" y="16.8">al Fi</tspan><tspan class="cls-7" x="51.13" y="16.8">x</tspan><tspan class="cls-8" x="57.13" y="16.8">ed In</tspan><tspan class="cls-9" x="85.99" y="16.8">c</tspan><tspan x="92.08" y="16.8">ome</tspan></tspan></text><text class="cls-1" transform="translate(302.41 182.15)">6%<tspan class="cls-2"><tspan class="cls-10" x="0" y="16.8">R</tspan><tspan class="cls-3" x="7.83" y="16.8">e</tspan><tspan x="14.57" y="16.8">al </tspan><tspan class="cls-11" x="28" y="16.8">A</tspan><tspan x="35.94" y="16.8">ss</tspan><tspan class="cls-10" x="47.67" y="16.8">et</tspan><tspan class="cls-12" x="59.07" y="16.8">s</tspan></tspan></text><text class="cls-1" transform="translate(254.91 231.59)">8%<tspan class="cls-2"><tspan x="0" y="16.8">Di</tspan><tspan class="cls-13" x="12.05" y="16.8">v</tspan><tspan class="cls-8" x="18.54" y="16.8">e</tspan><tspan class="cls-14" x="25.48" y="16.8">r</tspan><tspan x="30.28" y="16.8">sifying </tspan><tspan class="cls-15" x="71.17" y="16.8">S</tspan><tspan x="78.31" y="16.8">t</tspan><tspan class="cls-15" x="83.05" y="16.8">r</tspan><tspan class="cls-3" x="87.57" y="16.8">at</tspan><tspan class="cls-10" x="98.96" y="16.8">e</tspan><tspan x="105.77" y="16.8">gies</tspan></tspan></text><text class="cls-1" transform="translate(200.56 243.89)">4%<tspan class="cls-2"><tspan x="0" y="16.8">Cash</tspan></tspan></text><line class="cls-16" x1="298.18" y1="103.58" x2="317.3" y2="103.58"/><line class="cls-17" x1="284.22" y1="160.36" x2="298" y2="172.16"/><line class="cls-18" x1="256.4" y1="195.97" x2="256.4" y2="215.89"/><line class="cls-19" x1="216.64" y1="217" x2="216.64" y2="232.87"/><line class="cls-20" x1="92.05" y1="67.22" x2="78.62" y2="53.79"/><path class="cls-21" d="M238.08,160.31l43,103.54a111.17,111.17,0,0,1-28.26,7.59Z" transform="translate(-48.03 -47.88)"/><path class="cls-22" d="M238.08,160.31,325.87,230a107.72,107.72,0,0,1-44.8,33.83Z" transform="translate(-48.03 -47.88)"/><path class="cls-23" d="M238.08,160.31,345,193.93A103.55,103.55,0,0,1,325.87,230Z" transform="translate(-48.03 -47.88)"/><path class="cls-24" d="M238.08,160.31,313.75,77.6c32.89,30.09,44.64,73.81,31.27,116.33Z" transform="translate(-48.03 -47.88)"/><path class="cls-25" d="M238.08,160.31l14.73,111.13A112.1,112.1,0,1,1,223.36,49.18c34.37-4.55,64.81,5,90.39,28.42Z" transform="translate(-48.03 -47.88)"/></svg>