<svg id="Layer_1" data-name="Layer 1" xmlns="http://www.w3.org/2000/svg" viewBox="0 0 389.65 234.65"><defs><style>.cls-1{font-size:12.41px;fill:#404041;font-family:SourceSansPro-SemiBold, Source Sans Pro;font-weight:600;}.cls-2{font-family:SourceSansPro-Regular, Source Sans Pro;font-weight:400;}.cls-3{letter-spacing:-0.01em;}.cls-4{letter-spacing:-0.01em;}.cls-5{letter-spacing:0em;}.cls-6{letter-spacing:-0.01em;}.cls-7{letter-spacing:0em;}.cls-8{letter-spacing:-0.02em;}.cls-9{letter-spacing:-0.02em;}.cls-10{letter-spacing:-0.01em;}.cls-11{letter-spacing:0.02em;}.cls-12{letter-spacing:0em;}.cls-13{letter-spacing:0em;}.cls-14{letter-spacing:-0.02em;}.cls-15,.cls-16,.cls-17,.cls-18,.cls-19{fill:none;stroke-width:0.81px;}.cls-15{stroke:#fbcf0e;}.cls-15,.cls-16,.cls-17,.cls-18,.cls-19,.cls-20,.cls-21,.cls-22,.cls-23,.cls-24{stroke-miterlimit:10;}.cls-16{stroke:#134fc9;}.cls-17{stroke:#afd5e9;}.cls-18{stroke:#bdbbb5;}.cls-19{stroke:#2e3191;}.cls-20{fill:#bdbbb5;}.cls-20,.cls-21,.cls-22,.cls-23,.cls-24{stroke:#fff;stroke-width:0.41px;}.cls-21{fill:#afd5e9;}.cls-22{fill:#134fc9;}.cls-23{fill:#ffd200;}.cls-24{fill:#1e417c;}</style></defs><text class="cls-1" transform="translate(0 23.84)">64%<tspan class="cls-2"><tspan x="0" y="14.89">Glo</tspan><tspan class="cls-3" x="17.54" y="14.89">b</tspan><tspan x="24.23" y="14.89">al </tspan><tspan class="cls-4" x="36.12" y="14.89">E</tspan><tspan class="cls-5" x="42.54" y="14.89">quity</tspan></tspan></text><text class="cls-1" transform="translate(284.9 91.81)">18%<tspan class="cls-2"><tspan x="0" y="14.89">Glo</tspan><tspan class="cls-6" x="17.54" y="14.89">b</tspan><tspan class="cls-7" x="24.23" y="14.89">al Fi</tspan><tspan class="cls-8" x="45.3" y="14.89">x</tspan><tspan x="50.63" y="14.89">ed In</tspan><tspan class="cls-9" x="76.2" y="14.89">c</tspan><tspan x="81.59" y="14.89">ome</tspan></tspan></text><text class="cls-1" transform="translate(267.97 161.43)">6%<tspan class="cls-2"><tspan class="cls-10" x="0" y="14.89">R</tspan><tspan class="cls-3" x="6.93" y="14.89">e</tspan><tspan x="12.91" y="14.89">al </tspan><tspan class="cls-11" x="24.81" y="14.89">A</tspan><tspan x="31.84" y="14.89">ss</tspan><tspan class="cls-10" x="42.24" y="14.89">et</tspan><tspan x="52.34" y="14.89">s</tspan></tspan></text><text class="cls-1" transform="translate(225.88 205.24)">8%<tspan class="cls-2"><tspan x="0" y="14.89">Di</tspan><tspan class="cls-12" x="10.68" y="14.89">v</tspan><tspan x="16.42" y="14.89">e</tspan><tspan class="cls-13" x="22.58" y="14.89">r</tspan><tspan x="26.83" y="14.89">sifying </tspan><tspan class="cls-14" x="63.07" y="14.89">S</tspan><tspan x="69.4" y="14.89">t</tspan><tspan class="cls-14" x="73.59" y="14.89">r</tspan><tspan class="cls-3" x="77.6" y="14.89">at</tspan><tspan class="cls-10" x="87.7" y="14.89">e</tspan><tspan class="cls-7" x="93.72" y="14.89">gies</tspan></tspan></text><text class="cls-1" transform="translate(177.73 216.14)">4%<tspan class="cls-2"><tspan x="0" y="14.89">Cash</tspan></tspan></text><line class="cls-15" x1="264.22" y1="91.81" x2="281.17" y2="91.81"/><line class="cls-16" x1="251.86" y1="142.12" x2="264.06" y2="152.58"/><line class="cls-17" x1="227.21" y1="173.68" x2="227.21" y2="191.33"/><line class="cls-18" x1="191.97" y1="192.31" x2="191.97" y2="206.38"/><line class="cls-19" x1="81.57" y1="59.59" x2="69.67" y2="47.69"/><path class="cls-20" d="M241,122l38.09,91.74a97.88,97.88,0,0,1-25,6.73Z" transform="translate(-72.58 -22.34)"/><path class="cls-21" d="M241,122l77.8,61.77a95.44,95.44,0,0,1-39.71,30Z" transform="translate(-72.58 -22.34)"/><path class="cls-22" d="M241,122l94.77,29.79a92.09,92.09,0,0,1-17,32Z" transform="translate(-72.58 -22.34)"/><path class="cls-23" d="M241,122,308,48.7c29.15,26.66,39.56,65.41,27.72,103.09Z" transform="translate(-72.58 -22.34)"/><path class="cls-24" d="M241,122l13,98.47a99.34,99.34,0,0,1-26.1-196.95c30.46-4,57.43,4.45,80.1,25.18Z" transform="translate(-72.58 -22.34)"/></svg>