<svg id="Layer_1" data-name="Layer 1" xmlns="http://www.w3.org/2000/svg" viewBox="0 0 481.09 318.82"><defs><style>.cls-1,.cls-2,.cls-21,.cls-3,.cls-4,.cls-5,.cls-6{fill:none;}.cls-1{stroke:#134fc9;}.cls-1,.cls-2,.cls-21,.cls-22,.cls-27,.cls-28,.cls-29,.cls-3,.cls-30,.cls-31,.cls-32,.cls-33,.cls-4,.cls-5,.cls-6{stroke-miterlimit:10;}.cls-1,.cls-2,.cls-21,.cls-22,.cls-3,.cls-4,.cls-5,.cls-6{stroke-width:1.03px;}.cls-2{stroke:#afd5e9;}.cls-3{stroke:#737571;}.cls-4{stroke:#3bb2f1;}.cls-5{stroke:#bdbbb5;}.cls-6{stroke:#ffd200;}.cls-7{font-size:14.43px;}.cls-22,.cls-7{fill:#404041;}.cls-23,.cls-7{font-family:SourceSansPro-SemiBold, Source Sans Pro;font-weight:600;}.cls-8{letter-spacing:-0.01em;}.cls-9{letter-spacing:-0.01em;}.cls-10{font-family:SourceSansPro-Regular, Source Sans Pro;font-weight:400;}.cls-11{letter-spacing:-0.03em;}.cls-12{letter-spacing:-0.02em;}.cls-13{letter-spacing:0em;}.cls-14{letter-spacing:-0.01em;}.cls-15{letter-spacing:-0.02em;}.cls-16{letter-spacing:0em;}.cls-17{letter-spacing:-0.02em;}.cls-18{letter-spacing:-0.01em;}.cls-19{letter-spacing:0em;}.cls-20{letter-spacing:-0.03em;}.cls-21{stroke:#003e7e;}.cls-22{stroke:#4a4a47;}.cls-23{font-size:13.4px;fill:#fff;}.cls-24{letter-spacing:-0.07em;}.cls-25{letter-spacing:-0.02em;}.cls-26{letter-spacing:-0.02em;}.cls-27{fill:#134fc9;}.cls-27,.cls-28,.cls-29,.cls-30,.cls-31,.cls-32,.cls-33{stroke:#fff;stroke-width:0.51px;}.cls-28{fill:#3bb2f1;}.cls-29{fill:#afd5e9;}.cls-30{fill:#bdbbb5;}.cls-31{fill:#737571;}.cls-32{fill:#ffd200;}.cls-33{fill:#003e7e;}</style></defs><line class="cls-1" x1="267.14" y1="242.73" x2="266.1" y2="267.75"/><line class="cls-2" x1="332.72" y1="167.51" x2="379.95" y2="184.87"/><line class="cls-3" x1="334.84" y1="115.78" x2="379.23" y2="114.86"/><line class="cls-4" x1="345.63" y1="218.47" x2="337.27" y2="184.75"/><line class="cls-5" x1="380.46" y1="138.23" x2="354.23" y2="133.05"/><line class="cls-6" x1="305.11" y1="39.95" x2="334.66" y2="33.76"/><text class="cls-7" transform="translate(387.73 194.58)">7%<tspan class="cls-8" x="0" y="17.31">R</tspan><tspan x="8.4" y="17.31">es</tspan><tspan class="cls-9" x="21.93" y="17.31">e</tspan><tspan x="29.07" y="17.31">a</tspan><tspan class="cls-8" x="36.51" y="17.31">r</tspan><tspan x="41.75" y="17.31">ch</tspan><tspan class="cls-10"><tspan x="0" y="34.62">$20.2 Million</tspan></tspan></text><text class="cls-7" transform="translate(330.89 240.09)">3%<tspan x="0" y="17.31">Gene</tspan><tspan class="cls-11" x="31.77" y="17.31">r</tspan><tspan x="36.77" y="17.31">al Support</tspan><tspan class="cls-10"><tspan x="0" y="34.62">$10.6 Million</tspan></tspan></text><text class="cls-7" transform="translate(386.11 138.76)">2%<tspan class="cls-12" x="0" y="17.31">A</tspan><tspan x="7.82" y="17.31">thl</tspan><tspan class="cls-8" x="24.99" y="17.31">e</tspan><tspan class="cls-13" x="32.16" y="17.31">tics</tspan><tspan class="cls-10"><tspan x="0" y="34.62">$6.9 Million</tspan></tspan></text><text class="cls-7" transform="translate(232.9 279.98)">16%<tspan x="0" y="17.31">Un</tspan><tspan class="cls-14" x="17.53" y="17.31">r</tspan><tspan x="22.77" y="17.31">e</tspan><tspan class="cls-15" x="30.08" y="17.31">s</tspan><tspan x="36.01" y="17.31">tri</tspan><tspan class="cls-8" x="50.38" y="17.31">c</tspan><tspan class="cls-12" x="56.9" y="17.31">t</tspan><tspan x="61.88" y="17.31">ed</tspan><tspan class="cls-10"><tspan x="0" y="34.62">$53 Million</tspan></tspan></text><text class="cls-7" transform="translate(102.35 229.14)">36%<tspan x="0" y="17.31">A</tspan><tspan class="cls-8" x="8.05" y="17.31">c</tspan><tspan class="cls-16" x="14.57" y="17.31">ademics</tspan><tspan class="cls-10"><tspan x="0" y="34.62">$116.5 Million</tspan></tspan></text><text class="cls-7" transform="translate(384.05 82.65)">3%<tspan x="0" y="17.31">Capi</tspan><tspan class="cls-17" x="27.67" y="17.31">t</tspan><tspan x="32.57" y="17.31">al P</tspan><tspan class="cls-18" x="55.21" y="17.31">r</tspan><tspan x="60.45" y="17.31">oje</tspan><tspan class="cls-8" x="79.48" y="17.31">ct</tspan><tspan class="cls-19" x="91.06" y="17.31">s</tspan><tspan class="cls-10"><tspan x="0" y="34.62">$10.8 Million</tspan></tspan></text><text class="cls-7" transform="translate(343.3 11.97)">33%<tspan class="cls-20" x="0" y="17.31">S</tspan><tspan x="7.49" y="17.31">tudent Aid</tspan><tspan class="cls-10"><tspan x="0" y="34.62">$107.6 Million</tspan></tspan></text><line class="cls-21" x1="158.66" y1="195.65" x2="139.82" y2="221.42"/><rect class="cls-22" x="0.51" y="154.72" width="98.39" height="44.81" rx="4"/><text class="cls-23" transform="translate(5.51 173.01)"><tspan class="cls-24">T</tspan><tspan class="cls-25" x="6.36" y="0">o</tspan><tspan class="cls-26" x="13.42" y="0">t</tspan><tspan x="17.98" y="0">al</tspan><tspan x="0" y="16.08">$325.6 Million</tspan></text><path class="cls-27" d="M274,136.74,366.17,205c-24.34,32.88-62.46,49.83-103.18,45.89Z" transform="translate(-30.56 -4.97)"/><path class="cls-28" d="M274,136.74,377.5,186.15A110.06,110.06,0,0,1,366.17,205Z" transform="translate(-30.56 -4.97)"/><path class="cls-29" d="M274,136.74l114.31,9a105.21,105.21,0,0,1-10.84,40.37Z" transform="translate(-30.56 -4.97)"/><path class="cls-30" d="M274,136.74l114.45-7a120.18,120.18,0,0,1-.14,16Z" transform="translate(-30.56 -4.97)"/><path class="cls-31" d="M274,136.74l111-28.66a109.83,109.83,0,0,1,3.42,21.71Z" transform="translate(-30.56 -4.97)"/><path class="cls-32" d="M274,136.74,193.7,54.92A114.66,114.66,0,0,1,355.85,56.4a109.77,109.77,0,0,1,29.21,51.68Z" transform="translate(-30.56 -4.97)"/><path class="cls-33" d="M274,136.74,263,250.87A114.67,114.67,0,0,1,159.9,125.7c2.77-28.62,13.28-50.64,33.8-70.78Z" transform="translate(-30.56 -4.97)"/></svg>