<svg id="Layer_1" data-name="Layer 1" xmlns="http://www.w3.org/2000/svg" viewBox="0 0 612 353"><defs><style>.cls-1,.cls-2,.cls-3,.cls-4,.cls-5,.cls-6,.cls-9{fill:none;}.cls-1{stroke:#134fc9;}.cls-1,.cls-10,.cls-12,.cls-13,.cls-14,.cls-15,.cls-16,.cls-17,.cls-18,.cls-2,.cls-3,.cls-4,.cls-5,.cls-6,.cls-9{stroke-miterlimit:10;}.cls-1,.cls-10,.cls-2,.cls-3,.cls-4,.cls-5,.cls-6,.cls-9{stroke-width:1.11px;}.cls-2{stroke:#afd5e9;}.cls-3{stroke:#737571;}.cls-4{stroke:#3bb2f1;}.cls-5{stroke:#bdbbb5;}.cls-6{stroke:#ffd200;}.cls-7{font-size:15.61px;}.cls-10,.cls-7{fill:#404041;}.cls-11,.cls-7{font-family:Helvetica-Bold, Helvetica;font-weight:700;}.cls-8{font-family:Helvetica;font-weight:400;}.cls-9{stroke:#003e7e;}.cls-10{stroke:#4a4a47;}.cls-11{font-size:14.5px;fill:#fff;}.cls-12{fill:#134fc9;}.cls-12,.cls-13,.cls-14,.cls-15,.cls-16,.cls-17,.cls-18{stroke:#fff;stroke-width:0.56px;}.cls-13{fill:#3bb2f1;}.cls-14{fill:#afd5e9;}.cls-15{fill:#bdbbb5;}.cls-16{fill:#737571;}.cls-17{fill:#ffd200;}.cls-18{fill:#003e7e;}</style></defs><title>designation-piechart</title><line class="cls-1" x1="303.7" y1="269.65" x2="302.57" y2="296.74"/><line class="cls-2" x1="368.67" y1="207.26" x2="419.79" y2="226.04"/><line class="cls-3" x1="383.96" y1="142.28" x2="432.01" y2="141.29"/><line class="cls-4" x1="390.65" y1="259.4" x2="381.6" y2="222.91"/><line class="cls-5" x1="433.33" y1="172.56" x2="404.96" y2="166.96"/><line class="cls-6" x1="337.79" y1="50.2" x2="369.78" y2="43.51"/><text class="cls-7" transform="translate(428.21 236.55)">6%<tspan x="0" y="18.74">Research</tspan><tspan class="cls-8"><tspan x="0" y="37.47">$20.6 Million</tspan></tspan></text><text class="cls-7" transform="translate(374.69 282.8)">2%<tspan x="0" y="18.74">General Support</tspan><tspan class="cls-8"><tspan x="0" y="37.47">$7 Million</tspan></tspan></text><text class="cls-7" transform="translate(444.45 173.14)">2%<tspan x="0" y="18.74">Athletics</tspan><tspan class="cls-8"><tspan x="0" y="37.47">$7.5 Million</tspan></tspan></text><text class="cls-7" transform="translate(266.65 309.97)">17%<tspan x="0" y="18.74">Unrestricted</tspan><tspan class="cls-8"><tspan x="0" y="37.47">$56.8 Million</tspan></tspan></text><text class="cls-7" transform="translate(125.36 254.96)">36%<tspan x="0" y="18.74">Academics</tspan><tspan class="cls-8"><tspan x="0" y="37.47">$118.6 Million</tspan></tspan></text><text class="cls-7" transform="translate(442.22 106.42)">4%<tspan x="0" y="18.74">Capital Projects</tspan><tspan class="cls-8"><tspan x="0" y="37.47">$11.6 Million</tspan></tspan></text><text class="cls-7" transform="translate(386.12 19.93)">33%<tspan x="0" y="18.74">Student Aid</tspan><tspan class="cls-8"><tspan x="0" y="37.47">$111.5 Million</tspan></tspan></text><line class="cls-9" x1="186.3" y1="218.71" x2="165.91" y2="246.59"/><rect class="cls-10" x="15.15" y="174.41" width="106.48" height="48.49" rx="4"/><text class="cls-11" transform="translate(20.56 194.21)">Total<tspan x="0" y="17.4">$333.6 Million</tspan></text><path class="cls-12" d="M287.68,154.72l94.49,79.62c-29.82,35.58-74.91,51.1-120.25,41.4Z"/><path class="cls-13" d="M287.68,154.72,391.15,222.2a106.59,106.59,0,0,1-9,12.14Z"/><path class="cls-14" d="M287.68,154.72l121.55,21.59a121.47,121.47,0,0,1-18.08,45.89Z"/><path class="cls-15" d="M287.68,154.72,411,159.15a113.64,113.64,0,0,1-1.81,17.16Z"/><path class="cls-16" d="M287.68,154.72l121.58-21.38A112.17,112.17,0,0,1,411,159.15Z"/><path class="cls-17" d="M287.68,154.72l-80.9-93.45A123.23,123.23,0,0,1,380.91,73.62a121.25,121.25,0,0,1,28.35,59.72Z"/><path class="cls-18" d="M287.68,154.72l-25.76,121c-66.67-14.27-109.18-80-95-146.84,6-28.08,18.19-48.82,39.81-67.63Z"/></svg>