<svg id="Layer_1" data-name="Layer 1" xmlns="http://www.w3.org/2000/svg" viewBox="0 0 332.92 228.78"><defs><style>.cls-1,.cls-2,.cls-21,.cls-3,.cls-4,.cls-5,.cls-6{fill:none;}.cls-1{stroke:#134fc9;}.cls-1,.cls-2,.cls-21,.cls-22,.cls-28,.cls-29,.cls-3,.cls-30,.cls-31,.cls-32,.cls-33,.cls-34,.cls-4,.cls-5,.cls-6{stroke-miterlimit:10;}.cls-1,.cls-2,.cls-21,.cls-22,.cls-3,.cls-4,.cls-5,.cls-6{stroke-width:1.03px;}.cls-2{stroke:#afd5e9;}.cls-3{stroke:#737571;}.cls-4{stroke:#3bb2f1;}.cls-5{stroke:#bdbbb5;}.cls-6{stroke:#ffd200;}.cls-7{font-size:10px;}.cls-22,.cls-7{fill:#404041;}.cls-23,.cls-7{font-family:SourceSansPro-SemiBold, Source Sans Pro;font-weight:600;}.cls-8{letter-spacing:-0.01em;}.cls-9{letter-spacing:-0.01em;}.cls-10{font-family:SourceSansPro-Regular, Source Sans Pro;font-weight:400;}.cls-11{letter-spacing:-0.03em;}.cls-12{letter-spacing:-0.02em;}.cls-13{letter-spacing:0em;}.cls-14{letter-spacing:-0.01em;}.cls-15{letter-spacing:-0.01em;}.cls-16{letter-spacing:0em;}.cls-17{letter-spacing:-0.02em;}.cls-18{letter-spacing:0em;}.cls-19{letter-spacing:-0.02em;}.cls-20{letter-spacing:-0.02em;}.cls-21{stroke:#003e7e;}.cls-22{stroke:#4a4a47;}.cls-23{font-size:9.35px;fill:#fff;}.cls-24{letter-spacing:-0.07em;}.cls-25{letter-spacing:-0.02em;}.cls-26{letter-spacing:-0.02em;}.cls-27{letter-spacing:0em;}.cls-28{fill:#134fc9;}.cls-28,.cls-29,.cls-30,.cls-31,.cls-32,.cls-33,.cls-34{stroke:#fff;stroke-width:0.51px;}.cls-29{fill:#3bb2f1;}.cls-30{fill:#afd5e9;}.cls-31{fill:#bdbbb5;}.cls-32{fill:#737571;}.cls-33{fill:#ffd200;}.cls-34{fill:#003e7e;}</style></defs><line class="cls-1" x1="178.58" y1="175.86" x2="177.85" y2="193.32"/><line class="cls-2" x1="232.32" y1="123.38" x2="265.28" y2="135.49"/><line class="cls-3" x1="235.01" y1="87.26" x2="263.57" y2="75.24"/><line class="cls-4" x1="238.94" y1="159.53" x2="233.11" y2="136"/><line class="cls-5" x1="265.63" y1="102.94" x2="247.33" y2="99.33"/><line class="cls-6" x1="206.51" y1="27.82" x2="227.13" y2="23.5"/><text class="cls-7" transform="translate(269.54 139.59)">7%<tspan class="cls-8" x="0" y="12">R</tspan><tspan x="5.82" y="12">es</tspan><tspan class="cls-9" x="15.2" y="12">e</tspan><tspan x="20.15" y="12">a</tspan><tspan class="cls-8" x="25.31" y="12">r</tspan><tspan x="28.94" y="12">ch</tspan><tspan class="cls-10"><tspan x="0" y="24">$20.2 Million</tspan></tspan></text><text class="cls-7" transform="translate(229.3 174.15)">3%<tspan x="0" y="12">Gene</tspan><tspan class="cls-11" x="22.02" y="12">r</tspan><tspan x="25.49" y="12">al Support</tspan><tspan class="cls-10"><tspan x="0" y="24">$10.6 Million</tspan></tspan></text><text class="cls-7" transform="translate(269.17 96.43)">2%<tspan class="cls-12"><tspan x="0" y="12">A</tspan><tspan class="cls-13" x="5.42" y="12">thl</tspan><tspan class="cls-14" x="17.32" y="12">e</tspan><tspan class="cls-13" x="22.29" y="12">tics</tspan></tspan><tspan class="cls-10"><tspan x="0" y="24">$6.9 Million</tspan></tspan></text><text class="cls-7" transform="translate(154.69 201.86)">16%<tspan x="0" y="12">Un</tspan><tspan class="cls-15" x="12.15" y="12">r</tspan><tspan class="cls-16" x="15.78" y="12">e</tspan><tspan class="cls-17" x="20.85" y="12">s</tspan><tspan class="cls-18" x="24.96" y="12">tri</tspan><tspan class="cls-15" x="34.92" y="12">c</tspan><tspan class="cls-19" x="39.44" y="12">t</tspan><tspan x="42.89" y="12">ed</tspan><tspan class="cls-10"><tspan x="0" y="24">$53 Million</tspan></tspan></text><text class="cls-7" transform="translate(71.57 166.38)">36%<tspan x="0" y="12">A</tspan><tspan class="cls-8" x="5.58" y="12">c</tspan><tspan x="10.1" y="12">ademics</tspan><tspan class="cls-10"><tspan x="0" y="24">$116.5 Million</tspan></tspan></text><text class="cls-7" transform="translate(265.66 52.67)">3%<tspan x="0" y="12">Capi</tspan><tspan class="cls-20" x="19.18" y="12">t</tspan><tspan x="22.58" y="12">al P</tspan><tspan class="cls-8" x="38.27" y="12">r</tspan><tspan x="41.9" y="12">oje</tspan><tspan class="cls-8" x="55.09" y="12">ct</tspan><tspan x="63.12" y="12">s</tspan><tspan class="cls-10"><tspan x="0" y="24">$10.8 Million</tspan></tspan></text><text class="cls-7" transform="translate(233.16 8.3)">33%<tspan class="cls-11" x="0" y="12">S</tspan><tspan x="5.19" y="12">tudent Aid</tspan><tspan class="cls-10"><tspan x="0" y="24">$107.6 Million</tspan></tspan></text><line class="cls-21" x1="110.87" y1="143.02" x2="97.72" y2="160.99"/><rect class="cls-22" x="0.51" y="114.45" width="68.65" height="31.27" rx="4"/><text class="cls-23" transform="translate(4 127.21)"><tspan class="cls-24">T<tspan class="cls-25" x="4.44" y="0">o</tspan><tspan class="cls-26" x="9.37" y="0">t</tspan><tspan class="cls-27" x="12.54" y="0">al</tspan></tspan><tspan x="0" y="11.22">$325.6 Million</tspan></text><path class="cls-28" d="M327,116.2l64.3,47.62a78.89,78.89,0,0,1-72,32Z" transform="translate(-156.91 -17.77)"/><path class="cls-29" d="M327,116.2l72.2,34.48a76.09,76.09,0,0,1-7.9,13.14Z" transform="translate(-156.91 -17.77)"/><path class="cls-30" d="M327,116.2l79.76,6.32a73.34,73.34,0,0,1-7.56,28.16Z" transform="translate(-156.91 -17.77)"/><path class="cls-31" d="M327,116.2l79.86-4.85a83.28,83.28,0,0,1-.1,11.17Z" transform="translate(-156.91 -17.77)"/><path class="cls-32" d="M327,116.2l77.47-20a76.25,76.25,0,0,1,2.39,15.15Z" transform="translate(-156.91 -17.77)"/><path class="cls-33" d="M327,116.2,270.9,59.11a80,80,0,0,1,113.15,1A76.52,76.52,0,0,1,404.43,96.2Z" transform="translate(-156.91 -17.77)"/><path class="cls-34" d="M327,116.2l-7.7,79.64a80,80,0,0,1-71.94-87.34c1.93-20,9.27-35.33,23.58-49.39Z" transform="translate(-156.91 -17.77)"/></svg>