<svg id="Layer_1" data-name="Layer 1" xmlns="http://www.w3.org/2000/svg" viewBox="0 0 520.64 345.03"><defs><style>.cls-1,.cls-2,.cls-20,.cls-3,.cls-4,.cls-5,.cls-6{fill:none;}.cls-1{stroke:#134fc9;}.cls-1,.cls-2,.cls-20,.cls-21,.cls-26,.cls-27,.cls-28,.cls-29,.cls-3,.cls-30,.cls-31,.cls-32,.cls-4,.cls-5,.cls-6{stroke-miterlimit:10;}.cls-1,.cls-2,.cls-20,.cls-21,.cls-3,.cls-4,.cls-5,.cls-6{stroke-width:1.11px;}.cls-2{stroke:#afd5e9;}.cls-3{stroke:#737571;}.cls-4{stroke:#3bb2f1;}.cls-5{stroke:#bdbbb5;}.cls-6{stroke:#ffd200;}.cls-7{font-size:15.61px;}.cls-21,.cls-7{fill:#404041;}.cls-22,.cls-7{font-family:SourceSansPro-SemiBold, Source Sans Pro;font-weight:600;}.cls-8{letter-spacing:-0.01em;}.cls-9{letter-spacing:0em;}.cls-10{letter-spacing:-0.01em;}.cls-11{font-family:SourceSansPro-Regular, Source Sans Pro;font-weight:400;}.cls-12{letter-spacing:-0.03em;}.cls-13{letter-spacing:-0.02em;}.cls-14{letter-spacing:-0.01em;}.cls-15{letter-spacing:-0.01em;}.cls-16{letter-spacing:-0.02em;}.cls-17{letter-spacing:-0.02em;}.cls-18{letter-spacing:0em;}.cls-19{letter-spacing:-0.03em;}.cls-20{stroke:#003e7e;}.cls-21{stroke:#4a4a47;}.cls-22{font-size:14.5px;fill:#fff;}.cls-23{letter-spacing:-0.07em;}.cls-24{letter-spacing:-0.02em;}.cls-25{letter-spacing:-0.02em;}.cls-26{fill:#134fc9;}.cls-26,.cls-27,.cls-28,.cls-29,.cls-30,.cls-31,.cls-32{stroke:#fff;stroke-width:0.56px;}.cls-27{fill:#3bb2f1;}.cls-28{fill:#afd5e9;}.cls-29{fill:#bdbbb5;}.cls-30{fill:#737571;}.cls-31{fill:#ffd200;}.cls-32{fill:#003e7e;}</style></defs><line class="cls-1" x1="289.1" y1="262.68" x2="287.97" y2="289.77"/><line class="cls-2" x1="360.07" y1="181.29" x2="411.19" y2="200.07"/><line class="cls-3" x1="362.37" y1="125.3" x2="410.41" y2="124.31"/><line class="cls-4" x1="374.05" y1="236.43" x2="365" y2="199.94"/><line class="cls-5" x1="411.74" y1="149.59" x2="383.36" y2="143.99"/><line class="cls-6" x1="330.2" y1="43.23" x2="362.18" y2="36.54"/><text class="cls-7" transform="translate(419.61 210.58)">6%<tspan class="cls-8" x="0" y="18.74">R</tspan><tspan class="cls-9" x="9.09" y="18.74">es</tspan><tspan class="cls-10" x="23.73" y="18.74">e</tspan><tspan x="31.46" y="18.74">a</tspan><tspan class="cls-8" x="39.52" y="18.74">r</tspan><tspan x="45.18" y="18.74">ch</tspan><tspan class="cls-11"><tspan x="0" y="37.47">$20.2 Million</tspan></tspan></text><text class="cls-7" transform="translate(358.09 259.83)">3%<tspan x="0" y="18.74">Gene</tspan><tspan class="cls-12" x="34.38" y="18.74">r</tspan><tspan x="39.8" y="18.74">al Support</tspan><tspan class="cls-11"><tspan x="0" y="37.47">$10.6 Million</tspan></tspan></text><text class="cls-7" transform="translate(417.85 150.17)">2%<tspan class="cls-13" x="0" y="18.74">A</tspan><tspan x="8.46" y="18.74">thl</tspan><tspan class="cls-14" x="27.04" y="18.74">e</tspan><tspan x="34.8" y="18.74">tics</tspan><tspan class="cls-11"><tspan x="0" y="37.47">$6.9 Million</tspan></tspan></text><text class="cls-7" transform="translate(252.05 303)">16%<tspan x="0" y="18.74">Un</tspan><tspan class="cls-15" x="18.97" y="18.74">r</tspan><tspan x="24.64" y="18.74">e</tspan><tspan class="cls-16" x="32.55" y="18.74">s</tspan><tspan x="38.97" y="18.74">tri</tspan><tspan class="cls-8" x="54.52" y="18.74">c</tspan><tspan class="cls-13" x="61.58" y="18.74">t</tspan><tspan class="cls-9" x="66.96" y="18.74">ed</tspan><tspan class="cls-11"><tspan x="0" y="37.47">$53 Million</tspan></tspan></text><text class="cls-7" transform="translate(110.77 247.99)">36%<tspan x="0" y="18.74">A</tspan><tspan class="cls-15" x="8.71" y="18.74">c</tspan><tspan x="15.77" y="18.74">ademics</tspan><tspan class="cls-11"><tspan x="0" y="37.47">$116.5 Million</tspan></tspan></text><text class="cls-7" transform="translate(415.63 89.44)">3%<tspan x="0" y="18.74">Capi</tspan><tspan class="cls-17" x="29.95" y="18.74">t</tspan><tspan x="35.25" y="18.74">al P</tspan><tspan class="cls-8" x="59.75" y="18.74">r</tspan><tspan class="cls-18" x="65.42" y="18.74">oje</tspan><tspan class="cls-14" x="86.01" y="18.74">ct</tspan><tspan x="98.55" y="18.74">s</tspan><tspan class="cls-11"><tspan x="0" y="37.47">$10.8 Million</tspan></tspan></text><text class="cls-7" transform="translate(371.53 12.96)">33%<tspan class="cls-19" x="0" y="18.74">S</tspan><tspan x="8.1" y="18.74">tudent Aid</tspan><tspan class="cls-11"><tspan x="0" y="37.47">$107.6 Million</tspan></tspan></text><line class="cls-20" x1="171.71" y1="211.74" x2="151.31" y2="239.62"/><rect class="cls-21" x="0.56" y="167.44" width="106.48" height="48.49" rx="4"/><text class="cls-22" transform="translate(5.97 187.23)"><tspan class="cls-23">T</tspan><tspan class="cls-24" x="6.89" y="0">o</tspan><tspan class="cls-25" x="14.53" y="0">t</tspan><tspan x="19.46" y="0">al</tspan><tspan x="0" y="17.4">$325.6 Million</tspan></text><path class="cls-26" d="M278.09,149.57l99.72,73.85c-26.35,35.58-67.6,53.93-111.67,49.66Z" transform="translate(-14.6 -6.97)"/><path class="cls-27" d="M278.09,149.57l112,53.47a119,119,0,0,1-12.26,20.38Z" transform="translate(-14.6 -6.97)"/><path class="cls-28" d="M278.09,149.57l123.7,9.79A113.74,113.74,0,0,1,390.07,203Z" transform="translate(-14.6 -6.97)"/><path class="cls-29" d="M278.09,149.57,402,142.05a129.87,129.87,0,0,1-.16,17.31Z" transform="translate(-14.6 -6.97)"/><path class="cls-30" d="M278.09,149.57l120.15-31a119,119,0,0,1,3.71,23.5Z" transform="translate(-14.6 -6.97)"/><path class="cls-31" d="M278.09,149.57,191.15,61a124.1,124.1,0,0,1,175.49,1.61,118.63,118.63,0,0,1,31.6,55.92Z" transform="translate(-14.6 -6.97)"/><path class="cls-32" d="M278.09,149.57,266.14,273.08A124.08,124.08,0,0,1,154.57,137.62c3-31,14.38-54.8,36.58-76.6Z" transform="translate(-14.6 -6.97)"/></svg>