<svg id="Layer_1" data-name="Layer 1" xmlns="http://www.w3.org/2000/svg" viewBox="0 0 695.46 383"><defs><style>.cls-1{font-size:13.24px;}.cls-1,.cls-2,.cls-3,.cls-7{fill:#404041;}.cls-1,.cls-3,.cls-7{font-family:Helvetica-Bold, Helvetica;font-weight:700;}.cls-2{font-size:10.18px;font-family:Helvetica;}.cls-3{font-size:12.22px;}.cls-4,.cls-8{fill:none;stroke:#000;stroke-miterlimit:10;}.cls-4{stroke-width:0.51px;}.cls-5{fill:#ffd200;}.cls-6{fill:#003e7e;}.cls-7{font-size:14.26px;}.cls-8{stroke-width:0.36px;}</style></defs><title>foundation-support-bar</title><text class="cls-1" transform="translate(113.71 344.32)">2010</text><text class="cls-1" transform="translate(172.05 344.32)">2011</text><text class="cls-1" transform="translate(229.39 344.32)">2012</text><text class="cls-1" transform="translate(288.73 344.32)">2013</text><text class="cls-1" transform="translate(345.06 344.32)">2014</text><text class="cls-2" transform="translate(18.86 224.81) rotate(-90)">Dollars (in millions)</text><text class="cls-3" transform="translate(344.05 162.72)">$13.3M</text><text class="cls-1" transform="translate(406.4 344.32)">2015</text><text class="cls-3" transform="translate(400.68 128.26)">$16.4M</text><text class="cls-1" transform="translate(463.74 344.32)">2016</text><text class="cls-1" transform="translate(521.08 344.32)">2017</text><text class="cls-1" transform="translate(578.42 344.32)">2018</text><text class="cls-1" transform="translate(635.76 344.32)">2019</text><text class="cls-3" transform="translate(459.32 121.51)">$17.0M</text><text class="cls-3" transform="translate(285.42 160.89)">$13.5M</text><text class="cls-3" transform="translate(227.78 160.9)">$13.5M</text><text class="cls-3" transform="translate(172.31 177.1)">$12M</text><text class="cls-3" transform="translate(112.52 183.46)">$11.5M</text><text class="cls-3" transform="translate(516.95 123.93)">$16.8M</text><text class="cls-3" transform="translate(574.58 105.09)">$18.3M</text><text class="cls-3" transform="translate(632.21 58.07)">$22.6M</text><line class="cls-4" x1="76.98" y1="319.69" x2="686.03" y2="319.69"/><line class="cls-4" x1="686.03" y1="319.69" x2="686.03" y2="312.66"/><rect class="cls-5" x="632.21" y="65.29" width="36.54" height="254.11"/><rect class="cls-6" x="574.47" y="113.64" width="36.54" height="205.76"/><rect class="cls-6" x="516.73" y="130.51" width="36.54" height="188.9"/><rect class="cls-6" x="458.98" y="128.26" width="36.54" height="191.15"/><rect class="cls-6" x="401.24" y="135" width="36.54" height="184.4"/><rect class="cls-6" x="343.49" y="169.86" width="36.54" height="149.54"/><rect class="cls-6" x="285.75" y="167.61" width="36.54" height="151.79"/><rect class="cls-6" x="228.01" y="167.61" width="36.54" height="151.79"/><rect class="cls-6" x="170.26" y="184.48" width="36.54" height="134.93"/><rect class="cls-6" x="112.52" y="190.1" width="36.54" height="129.31"/><text class="cls-7" transform="translate(39.66 329.97)">$0M</text><text class="cls-7" transform="translate(39.66 273.75)">$5M</text><text class="cls-7" transform="translate(31.73 217.53)">$10M</text><text class="cls-7" transform="translate(31.73 161.31)">$15M</text><text class="cls-7" transform="translate(31.73 105.09)">$20M</text><text class="cls-7" transform="translate(31.73 48.87)">$25M</text><line class="cls-4" x1="76.92" y1="320.08" x2="76.92" y2="38.99"/><line class="cls-8" x1="76.92" y1="263.86" x2="84.53" y2="263.86"/><line class="cls-8" x1="76.92" y1="207.65" x2="84.53" y2="207.65"/><line class="cls-8" x1="76.92" y1="151.43" x2="84.53" y2="151.43"/><line class="cls-8" x1="76.92" y1="95.21" x2="84.53" y2="95.21"/><line class="cls-8" x1="76.92" y1="38.99" x2="84.53" y2="38.99"/></svg>