<svg id="Layer_1" data-name="Layer 1" xmlns="http://www.w3.org/2000/svg" viewBox="0 0 675.72 306.34"><defs><style>.cls-1{font-size:13px;}.cls-1,.cls-2,.cls-4,.cls-5,.cls-6,.cls-7{fill:#404041;}.cls-1,.cls-4,.cls-5{font-family:SourceSansPro-SemiBold, Source Sans Pro;font-weight:600;}.cls-2{font-size:10px;font-family:SourceSansPro-Regular, Source Sans Pro;}.cls-3{letter-spacing:0em;}.cls-4{font-size:12px;}.cls-5{font-size:14px;}.cls-6,.cls-7{stroke:#231f20;}.cls-6,.cls-7,.cls-9{stroke-miterlimit:10;}.cls-6{stroke-width:0.5px;}.cls-7{stroke-width:0.47px;}.cls-8{fill:#003e7e;}.cls-9{fill:none;stroke:#000;stroke-width:0.51px;}</style></defs><text class="cls-1" transform="translate(105.21 302.39)">2011</text><text class="cls-1" transform="translate(162.55 302.39)">2012</text><text class="cls-1" transform="translate(221.89 302.39)">2013</text><text class="cls-1" transform="translate(278.23 302.39)">2014</text><text class="cls-2" transform="translate(8.3 182.88) rotate(-90)">Dolla<tspan class="cls-3" x="21.71" y="0">r</tspan><tspan x="25.14" y="0">s (in millions)</tspan></text><text class="cls-4" transform="translate(273.9 149.57)">$13.3M</text><text class="cls-1" transform="translate(339.57 302.39)">2015</text><text class="cls-4" transform="translate(331.86 120.64)">$16.4M</text><text class="cls-1" transform="translate(396.91 302.38)">2016</text><text class="cls-1" transform="translate(454.25 302.38)">2017</text><text class="cls-1" transform="translate(511.58 302.38)">2018</text><text class="cls-1" transform="translate(568.92 302.38)">2019</text><text class="cls-1" transform="translate(626.86 302.38)">2020</text><text class="cls-4" transform="translate(389.82 116.06)">$17.0M</text><text class="cls-4" transform="translate(215.94 146.09)">$13.5M</text><text class="cls-4" transform="translate(157.99 146.09)">$13.5M</text><text class="cls-4" transform="translate(102.47 162.04)">$12M</text><text class="cls-4" transform="translate(447.78 117.41)">$16.8M</text><text class="cls-4" transform="translate(502.73 101.52)">$18.3M</text><text class="cls-4" transform="translate(563.69 17.27)">$27.7M</text><text class="cls-4" transform="translate(622.2 41.51)">$25.0M</text><text class="cls-5" transform="translate(31.97 287.62)">$0M</text><text class="cls-5" transform="translate(31.97 241.62)">$5M</text><text class="cls-5" transform="translate(24.79 195.62)">$10M</text><text class="cls-5" transform="translate(24.79 149.62)">$15M</text><text class="cls-5" transform="translate(24.79 103.62)">$20M</text><text class="cls-5" transform="translate(24.79 57.62)">$25M</text><text class="cls-5" transform="translate(24.79 11.62)">$30M</text><line class="cls-6" x1="66.11" y1="277.92" x2="66.11" y2="1.92"/><line class="cls-7" x1="66.11" y1="231.92" x2="76.08" y2="231.92"/><line class="cls-7" x1="66.11" y1="185.92" x2="76.08" y2="185.92"/><line class="cls-7" x1="66.11" y1="139.92" x2="76.08" y2="139.92"/><line class="cls-7" x1="66.11" y1="93.92" x2="76.08" y2="93.92"/><line class="cls-7" x1="66.11" y1="47.92" x2="76.08" y2="47.92"/><line class="cls-7" x1="66.11" y1="1.92" x2="76.08" y2="1.92"/><rect class="cls-8" x="621.65" y="47.04" width="37.09" height="230"/><rect class="cls-8" x="563.69" y="22.2" width="37.09" height="254.84"/><rect class="cls-8" x="505.73" y="108.68" width="37.09" height="168.36"/><rect class="cls-8" x="447.78" y="122.48" width="37.09" height="154.56"/><rect class="cls-8" x="389.82" y="120.64" width="37.09" height="156.4"/><rect class="cls-8" x="331.86" y="126.16" width="37.09" height="150.88"/><rect class="cls-8" x="273.9" y="154.68" width="37.09" height="122.36"/><rect class="cls-8" x="215.94" y="152.84" width="37.09" height="124.2"/><rect class="cls-8" x="157.99" y="152.84" width="37.09" height="124.2"/><rect class="cls-8" x="100.03" y="166.64" width="37.09" height="110.4"/><line class="cls-9" x1="66.42" y1="277.75" x2="675.47" y2="277.75"/><line class="cls-9" x1="675.47" y1="277.75" x2="675.47" y2="270.72"/></svg>