<svg id="Layer_1" data-name="Layer 1" xmlns="http://www.w3.org/2000/svg" viewBox="0 0 675.88 306.63"><defs><style>.cls-1{font-size:13.24px;}.cls-1,.cls-2,.cls-4,.cls-6,.cls-7,.cls-8{fill:#404041;}.cls-1,.cls-4,.cls-6{font-family:SourceSansPro-SemiBold, Source Sans Pro;font-weight:600;}.cls-2{font-size:10.18px;font-family:SourceSansPro-Regular, Source Sans Pro;}.cls-3{letter-spacing:0em;}.cls-4{font-size:12.22px;}.cls-5{fill:none;stroke:#000;stroke-width:0.51px;}.cls-5,.cls-7,.cls-8{stroke-miterlimit:10;}.cls-6{font-size:14.26px;}.cls-7,.cls-8{stroke:#231f20;}.cls-7{stroke-width:0.5px;}.cls-8{stroke-width:0.47px;}.cls-9{fill:#ffd200;}.cls-10{fill:#003e7e;}</style></defs><text class="cls-1" transform="translate(105.12 302.6)">2011</text><text class="cls-1" transform="translate(162.46 302.6)">2012</text><text class="cls-1" transform="translate(221.8 302.6)">2013</text><text class="cls-1" transform="translate(278.14 302.6)">2014</text><text class="cls-2" transform="translate(8.45 183.1) rotate(-90)">Dolla<tspan class="cls-3" x="22.11" y="0">r</tspan><tspan x="25.6" y="0">s (in millions)</tspan></text><text class="cls-4" transform="translate(274.06 149.78)">$13.3M</text><text class="cls-1" transform="translate(339.48 302.6)">2015</text><text class="cls-4" transform="translate(332.01 120.85)">$16.4M</text><text class="cls-1" transform="translate(396.81 302.6)">2016</text><text class="cls-1" transform="translate(454.15 302.6)">2017</text><text class="cls-1" transform="translate(511.49 302.6)">2018</text><text class="cls-1" transform="translate(568.83 302.6)">2019</text><text class="cls-1" transform="translate(626.77 302.6)">2020</text><text class="cls-4" transform="translate(389.97 116.28)">$17.0M</text><text class="cls-4" transform="translate(216.1 146.31)">$13.5M</text><text class="cls-4" transform="translate(158.14 146.31)">$13.5M</text><text class="cls-4" transform="translate(102.63 162.25)">$12M</text><text class="cls-4" transform="translate(447.93 117.62)">$16.8M</text><text class="cls-4" transform="translate(502.88 101.73)">$18.3M</text><text class="cls-4" transform="translate(563.85 17.49)">$27.7M</text><text class="cls-4" transform="translate(622.35 41.73)">$25.0M</text><line class="cls-5" x1="66.58" y1="277.97" x2="675.62" y2="277.97"/><line class="cls-5" x1="675.62" y1="277.97" x2="675.62" y2="270.94"/><text class="cls-6" transform="translate(31.67 287.83)">$0M</text><text class="cls-6" transform="translate(31.67 241.83)">$5M</text><text class="cls-6" transform="translate(24.35 195.83)">$10M</text><text class="cls-6" transform="translate(24.35 149.83)">$15M</text><text class="cls-6" transform="translate(24.35 103.83)">$20M</text><text class="cls-6" transform="translate(24.35 57.83)">$25M</text><text class="cls-6" transform="translate(24.35 11.83)">$30M</text><line class="cls-7" x1="66.26" y1="278.13" x2="66.26" y2="2.13"/><line class="cls-8" x1="66.26" y1="232.13" x2="76.23" y2="232.13"/><line class="cls-8" x1="66.26" y1="186.13" x2="76.23" y2="186.13"/><line class="cls-8" x1="66.26" y1="140.13" x2="76.23" y2="140.13"/><line class="cls-8" x1="66.26" y1="94.13" x2="76.23" y2="94.13"/><line class="cls-8" x1="66.26" y1="48.13" x2="76.23" y2="48.13"/><line class="cls-8" x1="66.26" y1="2.13" x2="76.23" y2="2.13"/><rect class="cls-9" x="621.8" y="47.25" width="37.09" height="230"/><rect class="cls-10" x="563.85" y="22.41" width="37.09" height="254.84"/><rect class="cls-10" x="505.89" y="108.89" width="37.09" height="168.36"/><rect class="cls-10" x="447.93" y="122.69" width="37.09" height="154.56"/><rect class="cls-10" x="389.97" y="120.85" width="37.09" height="156.4"/><rect class="cls-10" x="332.01" y="126.37" width="37.09" height="150.88"/><rect class="cls-10" x="274.06" y="154.89" width="37.09" height="122.36"/><rect class="cls-10" x="216.1" y="153.05" width="37.09" height="124.2"/><rect class="cls-10" x="158.14" y="153.05" width="37.09" height="124.2"/><rect class="cls-10" x="100.18" y="166.85" width="37.09" height="110.4"/></svg>