<svg id="Layer_1" data-name="Layer 1" xmlns="http://www.w3.org/2000/svg" viewBox="0 0 471.74 389.79"><defs><style>.cls-1,.cls-19,.cls-20,.cls-21,.cls-22,.cls-23,.cls-24{fill:none;}.cls-1{stroke:#737572;}.cls-1,.cls-19,.cls-20,.cls-21,.cls-22,.cls-23,.cls-24,.cls-25,.cls-26,.cls-27,.cls-28,.cls-29,.cls-30,.cls-31,.cls-32,.cls-33{stroke-miterlimit:10;}.cls-2{font-size:14px;fill:#404041;}.cls-15,.cls-2{font-family:SourceSansPro-SemiBold, Source Sans Pro;font-weight:600;}.cls-3{letter-spacing:-0.03em;}.cls-4{font-family:SourceSansPro-Regular, Source Sans Pro;font-weight:400;}.cls-5{letter-spacing:-0.01em;}.cls-6{letter-spacing:0em;}.cls-7{letter-spacing:-0.02em;}.cls-8{letter-spacing:-0.01em;}.cls-9{letter-spacing:-0.02em;}.cls-10{letter-spacing:-0.02em;}.cls-11{letter-spacing:-0.01em;}.cls-12{letter-spacing:-0.02em;}.cls-13{letter-spacing:0.02em;}.cls-14{fill:#4b4a48;}.cls-15{font-size:15px;fill:#fff;}.cls-16{letter-spacing:-0.07em;}.cls-17{letter-spacing:-0.02em;}.cls-18{letter-spacing:-0.02em;}.cls-19{stroke:#1e417c;}.cls-20{stroke:#fed206;}.cls-21{stroke:#bdbbb5;}.cls-22{stroke:#b0d5e9;}.cls-23{stroke:#49afe3;}.cls-24{stroke:#3458a8;}.cls-25{fill:#606060;stroke:#d0d2d3;}.cls-26{fill:#d5d5d5;stroke-width:0.5px;}.cls-26,.cls-27,.cls-28,.cls-29,.cls-30,.cls-31,.cls-32,.cls-33{stroke:#fff;}.cls-27{fill:#3458a8;}.cls-27,.cls-28,.cls-29,.cls-30,.cls-31,.cls-32,.cls-33{stroke-width:0.56px;}.cls-28{fill:#49afe3;}.cls-29{fill:#b0d5e9;}.cls-30{fill:#bdbbb5;}.cls-31{fill:#737572;}.cls-32{fill:#fed206;}.cls-33{fill:#1e417c;}</style></defs><line class="cls-1" x1="358.08" y1="66.02" x2="330.83" y2="92.61"/><text class="cls-2" transform="translate(133.01 11.62)">20%<tspan class="cls-3" x="0" y="16.8">S</tspan><tspan x="7.27" y="16.8">tudent Aid</tspan><tspan class="cls-4"><tspan x="0" y="33.6">$5 Milllion</tspan></tspan></text><text class="cls-2" transform="translate(30.92 100.28)">22%<tspan x="0" y="16.8">A</tspan><tspan class="cls-5" x="7.81" y="16.8">c</tspan><tspan class="cls-6" x="14.14" y="16.8">ademics</tspan><tspan class="cls-4"><tspan x="0" y="33.6">$5.6 Milllion</tspan></tspan></text><text class="cls-2" transform="translate(90.18 279.63)">4%<tspan x="0" y="16.8">Other Support</tspan><tspan class="cls-4"><tspan x="0" y="33.6">$1 Milllion</tspan></tspan></text><text class="cls-2" transform="translate(370.42 31.84)">1%<tspan x="0" y="16.8">Capi</tspan><tspan class="cls-7" x="26.85" y="16.8">t</tspan><tspan x="31.61" y="16.8">al P</tspan><tspan class="cls-5" x="53.58" y="16.8">r</tspan><tspan x="58.66" y="16.8">oje</tspan><tspan class="cls-8" x="77.13" y="16.8">ct</tspan><tspan x="88.37" y="16.8">s</tspan><tspan class="cls-4"><tspan x="0" y="33.6">$0.4 Milllion</tspan></tspan></text><text class="cls-2" transform="translate(349.44 298.09)">17%<tspan x="0" y="16.8">Book</tspan><tspan class="cls-9" x="31.04" y="16.8">s</tspan><tspan class="cls-10" x="36.79" y="16.8">t</tspan><tspan x="41.62" y="16.8">o</tspan><tspan class="cls-5" x="49.31" y="16.8">r</tspan><tspan x="54.39" y="16.8">e</tspan><tspan class="cls-4"><tspan x="0" y="33.6">$4.2 Milllion</tspan></tspan></text><text class="cls-2" transform="translate(405.13 211.78)">1%<tspan class="cls-5" x="0" y="16.8">R</tspan><tspan x="8.15" y="16.8">es</tspan><tspan class="cls-11" x="21.28" y="16.8">e</tspan><tspan x="28.21" y="16.8">a</tspan><tspan class="cls-5" x="35.43" y="16.8">r</tspan><tspan x="40.52" y="16.8">ch</tspan><tspan class="cls-4"><tspan x="0" y="33.6">$0.3 Million</tspan></tspan></text><text class="cls-2" transform="translate(187.52 335.3)">17%<tspan x="0" y="16.8">Ad</tspan><tspan class="cls-9" x="15.71" y="16.8">v</tspan><tspan x="22.36" y="16.8">an</tspan><tspan class="cls-12" x="37.42" y="16.8">c</tspan><tspan x="43.55" y="16.8">ement Se</tspan><tspan class="cls-13" x="99.97" y="16.8">r</tspan><tspan x="105.42" y="16.8">vi</tspan><tspan class="cls-12" x="116.02" y="16.8">c</tspan><tspan x="122.15" y="16.8">es</tspan><tspan x="0" y="33.6">and Other</tspan><tspan class="cls-4"><tspan x="0" y="50.4">$4.3 Million</tspan></tspan></text><text class="cls-2" transform="translate(404.4 132.85)">17%<tspan class="cls-10" x="0" y="16.8">A</tspan><tspan x="7.59" y="16.8">thl</tspan><tspan class="cls-5" x="24.25" y="16.8">e</tspan><tspan x="31.21" y="16.8">tics</tspan><tspan class="cls-4"><tspan x="0" y="33.6">$4.4 Million</tspan></tspan></text><rect class="cls-14" y="205.62" width="97.72" height="43.48" rx="4"/><text class="cls-15" transform="translate(3.86 222.37)"><tspan class="cls-16">T</tspan><tspan class="cls-17" x="7.13" y="0">o</tspan><tspan class="cls-18" x="15.03" y="0">t</tspan><tspan x="20.14" y="0">al</tspan><tspan x="0" y="18.01">$25 Million</tspan></text><line class="cls-19" x1="141.86" y1="138.54" x2="113.95" y2="127.16"/><line class="cls-20" x1="238.22" y1="50.11" x2="210.32" y2="38.73"/><line class="cls-21" x1="365.94" y1="152.38" x2="399.94" y2="144.38"/><line class="cls-22" x1="379.89" y1="211.78" x2="395.39" y2="223.79"/><line class="cls-23" x1="324.83" y1="253.89" x2="361.1" y2="279.63"/><line class="cls-24" x1="224.67" y1="292.89" x2="206.17" y2="317.07"/><line class="cls-25" x1="154.09" y1="234.83" x2="135.59" y2="259"/><path class="cls-26" d="M306,210.88,202.91,288.57a126.64,126.64,0,0,1-16.59-29.32Z" transform="translate(-47.07 -37.39)"/><path class="cls-27" d="M306,210.88l20.21,127.47c-48.29,7.66-93.84-10.73-123.27-49.78Z" transform="translate(-47.07 -37.39)"/><path class="cls-28" d="M306,210.88l122,42c-15.91,46.23-53.53,77.81-101.83,85.46Z" transform="translate(-47.07 -37.39)"/><path class="cls-29" d="M306,210.88,430,246.44c-.78,2.74-1.1,3.75-2,6.45Z" transform="translate(-47.07 -37.39)"/><path class="cls-30" d="M306,210.88,395.61,118c35.18,34,47.9,81.41,34.43,128.41Z" transform="translate(-47.07 -37.39)"/><path class="cls-31" d="M306,210.88,388.92,112c2.18,1.84,4.64,4,6.69,6Z" transform="translate(-47.07 -37.39)"/><path class="cls-32" d="M306,210.88,237.56,101.44C286.4,70.92,344.79,75,388.92,112Z" transform="translate(-47.07 -37.39)"/><path class="cls-33" d="M306,210.88,186.32,259.25C162.6,200.57,183.89,135,237.56,101.44Z" transform="translate(-47.07 -37.39)"/></svg>