<svg id="Layer_1" data-name="Layer 1" xmlns="http://www.w3.org/2000/svg" viewBox="0 0 396.62 328.42"><defs><style>.cls-1,.cls-23,.cls-24,.cls-25,.cls-26,.cls-27,.cls-28{fill:none;}.cls-1{stroke:#737572;}.cls-1,.cls-23,.cls-24,.cls-25,.cls-26,.cls-27,.cls-28,.cls-29,.cls-30,.cls-31,.cls-32,.cls-33,.cls-34,.cls-35,.cls-36,.cls-37{stroke-miterlimit:10;}.cls-2{font-size:12px;fill:#404041;}.cls-2,.cls-20{font-family:SourceSansPro-SemiBold, Source Sans Pro;font-weight:600;}.cls-3{letter-spacing:-0.03em;}.cls-4{font-family:SourceSansPro-Regular, Source Sans Pro;font-weight:400;}.cls-5{letter-spacing:-0.01em;}.cls-6{letter-spacing:-0.02em;}.cls-7{letter-spacing:0em;}.cls-8{letter-spacing:-0.01em;}.cls-9{letter-spacing:-0.01em;}.cls-10{letter-spacing:0em;}.cls-11{letter-spacing:-0.02em;}.cls-12{letter-spacing:-0.02em;}.cls-13{letter-spacing:-0.01em;}.cls-14{letter-spacing:-0.02em;}.cls-15{letter-spacing:-0.02em;}.cls-16{letter-spacing:0em;}.cls-17{letter-spacing:0.02em;}.cls-18{letter-spacing:-0.02em;}.cls-19{fill:#4b4a48;}.cls-20{font-size:13px;fill:#fff;}.cls-21{letter-spacing:-0.07em;}.cls-22{letter-spacing:-0.02em;}.cls-23{stroke:#1e417c;}.cls-24{stroke:#fed206;}.cls-25{stroke:#bdbbb5;}.cls-26{stroke:#b0d5e9;}.cls-27{stroke:#49afe3;}.cls-28{stroke:#3458a8;}.cls-29{fill:#606060;stroke:#d0d2d3;}.cls-30{fill:#d5d5d5;stroke-width:0.5px;}.cls-30,.cls-31,.cls-32,.cls-33,.cls-34,.cls-35,.cls-36,.cls-37{stroke:#fff;}.cls-31{fill:#3458a8;}.cls-31,.cls-32,.cls-33,.cls-34,.cls-35,.cls-36,.cls-37{stroke-width:0.56px;}.cls-32{fill:#49afe3;}.cls-33{fill:#b0d5e9;}.cls-34{fill:#bdbbb5;}.cls-35{fill:#737572;}.cls-36{fill:#fed206;}.cls-37{fill:#1e417c;}</style></defs><line class="cls-1" x1="300.64" y1="55.63" x2="277.76" y2="77.95"/><text class="cls-2" transform="translate(111.67 9.96)">20%<tspan class="cls-3" x="0" y="14.4">S</tspan><tspan x="6.23" y="14.4">tudent Aid</tspan><tspan class="cls-4"><tspan x="0" y="28.8">$5 Milllion</tspan></tspan></text><text class="cls-2" transform="translate(25.96 84.39)">21%<tspan x="0" y="14.4">A</tspan><tspan class="cls-5" x="6.7" y="14.4">c</tspan><tspan x="12.12" y="14.4">ademics</tspan><tspan class="cls-4"><tspan x="0" y="28.8">$5.6 Milllion</tspan></tspan></text><text class="cls-2" transform="translate(72.36 224.9)">4%<tspan x="0" y="14.4">Other Support</tspan><tspan class="cls-4"><tspan x="0" y="28.8">$1 Milllion</tspan></tspan></text><text class="cls-2" transform="translate(311 26.93)">1%<tspan x="0" y="14.4">Capi</tspan><tspan class="cls-6" x="23.02" y="14.4">t</tspan><tspan class="cls-7" x="27.1" y="14.4">al P</tspan><tspan class="cls-8" x="45.92" y="14.4">r</tspan><tspan x="50.28" y="14.4">oje</tspan><tspan class="cls-9" x="66.11" y="14.4">ct</tspan><tspan class="cls-10" x="75.74" y="14.4">s</tspan><tspan class="cls-4"><tspan x="0" y="28.8">$0.3 Milllion</tspan></tspan></text><text class="cls-2" transform="translate(293.38 250.48)">17%<tspan x="0" y="14.4">Book</tspan><tspan class="cls-11" x="26.6" y="14.4">s</tspan><tspan class="cls-12" x="31.54" y="14.4">t</tspan><tspan x="35.68" y="14.4">o</tspan><tspan class="cls-9" x="42.26" y="14.4">r</tspan><tspan x="46.62" y="14.4">e</tspan><tspan class="cls-4"><tspan x="0" y="28.8">$4.2 Milllion</tspan></tspan></text><text class="cls-2" transform="translate(333.42 186.4)">1%<tspan class="cls-8" x="0" y="14.4">R</tspan><tspan x="6.98" y="14.4">es</tspan><tspan class="cls-13" x="18.24" y="14.4">e</tspan><tspan class="cls-10" x="24.18" y="14.4">a</tspan><tspan class="cls-9" x="30.37" y="14.4">r</tspan><tspan x="34.73" y="14.4">ch</tspan><tspan class="cls-4"><tspan x="0" y="28.8">$0.3 Million</tspan></tspan></text><text class="cls-2" transform="translate(157.44 281.72)">18%<tspan x="0" y="14.4">Ad</tspan><tspan class="cls-14" x="13.46" y="14.4">v</tspan><tspan x="19.16" y="14.4">an</tspan><tspan class="cls-15" x="32.08" y="14.4">c</tspan><tspan class="cls-16" x="37.33" y="14.4">ement Se</tspan><tspan class="cls-17" x="85.69" y="14.4">r</tspan><tspan x="90.36" y="14.4">vi</tspan><tspan class="cls-18" x="99.44" y="14.4">c</tspan><tspan x="104.7" y="14.4">es</tspan><tspan x="0" y="28.8">and Other</tspan><tspan class="cls-4"><tspan x="0" y="43.2">$4.3 Million</tspan></tspan></text><text class="cls-2" transform="translate(339.53 111.74)">18%<tspan class="cls-12" x="0" y="14.4">A</tspan><tspan x="6.5" y="14.4">thl</tspan><tspan class="cls-9" x="20.78" y="14.4">e</tspan><tspan x="26.75" y="14.4">tics</tspan><tspan class="cls-4"><tspan x="0" y="28.8">$4.3 Million</tspan></tspan></text><rect class="cls-19" y="153.53" width="82.04" height="36.51" rx="4"/><text class="cls-20" transform="translate(3.24 167.59)"><tspan class="cls-21">T</tspan><tspan class="cls-22" x="6.17" y="0">o</tspan><tspan class="cls-6" x="13.03" y="0">t</tspan><tspan x="17.45" y="0">al</tspan><tspan x="0" y="15.6">$25 Million</tspan></text><line class="cls-23" x1="119.1" y1="116.52" x2="95.67" y2="106.96"/><line class="cls-24" x1="200.01" y1="42.27" x2="176.58" y2="32.72"/><line class="cls-25" x1="307.24" y1="128.14" x2="335.79" y2="121.42"/><line class="cls-26" x1="312.23" y1="186.4" x2="325.25" y2="196.49"/><line class="cls-27" x1="272.72" y1="213.36" x2="303.18" y2="234.98"/><line class="cls-28" x1="188.63" y1="246.11" x2="173.1" y2="266.41"/><line class="cls-29" x1="122.99" y1="191.24" x2="107.46" y2="211.54"/><path class="cls-30" d="M313.06,164.63l-93.33,55.06a107.61,107.61,0,0,1-11.07-26Z" transform="translate(-98.94 -18.94)"/><path class="cls-31" d="M313.06,164.63l10.46,107.85c-42.89,4.16-81.89-15.68-103.79-52.79Z" transform="translate(-98.94 -18.94)"/><path class="cls-32" d="M313.06,164.63l99.4,43.15c-16.2,37.33-48.44,60.78-88.94,64.7Z" transform="translate(-98.94 -18.94)"/><path class="cls-33" d="M313.06,164.63l101.52,37.88c-.83,2.25-1.16,3.07-2.12,5.27Z" transform="translate(-98.94 -18.94)"/><path class="cls-34" d="M313.06,164.63l77.24-76c30.22,30.72,39.35,73.52,24.28,113.88Z" transform="translate(-98.94 -18.94)"/><path class="cls-35" d="M313.06,164.63l71.75-81.2c1.8,1.58,3.81,3.5,5.49,5.2Z" transform="translate(-98.94 -18.94)"/><path class="cls-36" d="M313.06,164.63,258,71.3C299.24,47,348.94,51.73,384.81,83.43Z" transform="translate(-98.94 -18.94)"/><path class="cls-37" d="M313.06,164.63l-104.4,29C195.2,145.22,214.71,96.84,258,71.3Z" transform="translate(-98.94 -18.94)"/></svg>