<svg id="Layer_1" data-name="Layer 1" xmlns="http://www.w3.org/2000/svg" viewBox="0 0 193 34"><defs><style>.cls-1{fill:#fff;}.cls-2{fill:none;stroke:#000;stroke-linecap:round;stroke-linejoin:round;stroke-width:2px;}</style></defs><path d="M162.55,303c-5.46,0-6.18-.27-8.64-3.26-1.49,1.35-3,2.78-5.39,3.34l-2.73-3.49v-5.95a14.28,14.28,0,0,1-5.23,6.08c-1.2.81-2.26,1.74-3.4,2.59a8.58,8.58,0,0,1-2.41,1.39c-.87.28-1.38-1-2.47-.75-2,.4-1.62-1.76-2.13-2.63-.63-1.08-.15-2.8-.15-4.64,3,1.05,2.43,4.36,4.74,5.32,3.82-.16,1-4.38,3.26-5.58-.09-2.4.74-5.07-3.59-6.46,3.88-1,4.22-3.35,5.2-5.13s.35-3.55.3-5.32c0-.58-1-1.14-1.82-1.93-1.45,1.33-2.73,2.28-3.39,4.13-.89,2.47-3.26,4.21-3.8,6.91-.5,2.47-3,4.09-2.9,6.79-3.11,2.52-3,7.3-6.61,9.5-1.3-2,.22-3.52,1.09-4.77A62.52,62.52,0,0,0,129,286.32c.17-.42,0-1,.5-1.29,2.83-1.86,3.13-5.5,5.49-7.74,1.2-1.15,2.72-2.46,3.57-2.26,1,.24,3.37,2.81,3.45,4,.16,2.41.09,4.75-1.35,6.93-1.16,1.76-2.41,3.46-.75,6,1.07,1.64-.3,3.9-1.21,6.42,4.69-1.47,5.08-5.79,7.62-8.12,2.14,1.7,1.63,4.11,1.72,6.37.06,1.6-.53,3.43,1.55,4.27.81-1.05,2.71-.79,3.41-2.4v-5.16c.36-.3.88-.71,1.38-1.14,1.6-1.37,2.69-1.53,3.76-.54a3.49,3.49,0,0,1,.35,4.4c-.39.53-1,.92-1.39,1.44s-1.18.71-1,1.88c1.3,2.86,4.15,1.22,6.07,1.69,4.61-2.6,5.61-8,9.3-11.36,1.18,2.17.13,4.23.81,6.06a1.47,1.47,0,0,0,2.35-.88c.54-2.1,2.86-2.83,2.94-5.23,2,.87,1.59,2.06,1.31,3.05-.63,2.2-.68,2.19-.15,4.55a8.64,8.64,0,0,0,4.26-3.91,7.06,7.06,0,0,1,7.63-4.27c1.36-2.48,2.16-5,3.91-7.1s2.35-4.68,5.09-5.82l1.39,1.3c-1.44,1.64-1.42,4-2.66,5.68-2.11,2.79-3.92,5.79-6.21,8.47-1.65,1.94-3.37,4.17-3,7.19,3.1.74,4.76-.26,6.11-3.18.88-1.9,1.51-4.13,3.33-5.66a3.43,3.43,0,0,1,3.11-.82c1.69,2-1.49,3.49-.56,5.44l2.44,2.43c1.85.31,4.06-.79,5.41,1.42-4.83,1.2-6.18.83-8.66-2.38-1.23-.13-1,.88-1.35,1.51s-1.12,1.92-2.31,1.46c-2.42-.93-3.09,2.06-5.18,2.1s-3.49-1.37-5.59-1.2c-1.8.14-2.25,1.79-3.88,2.19-1.61-.2-.77-2.73-2.46-3l-1.82,1.82a3,3,0,0,1-1.7-2.43c-.23-1.32,1.79-1.71,1-3.05-.12-.12-.22-.3-.36-.33s-.24.15-.35.26L170.52,301c-.78-.68-.61-1.27,0-2,.89-1.12.46-2.43.33-3.64a1.29,1.29,0,0,0-2.1.5C167.36,298.7,164.77,300.52,162.55,303Zm18.73-4.28c4.46,0,6.06-1.62,6.36-5.81C184.26,293.49,184.58,297.4,181.28,298.72ZM155.52,297c1.83-2.48,2-3.44.77-4-.93.7-1.06.87-2,2.8Z" transform="translate(-120.5 -270.5)"/><path d="M283.6,285.07c1,1-.08,2.5.78,3.93,3.83.13,7.55-1.06,11.46-2.17v-4.2c1.49-1.29,2.37-3.2,4.67-2.61.92.49.17,2,1.38,2.37-.82,1.64-2.22,3.06-1.8,5.61,3.83,0,7.76,0,11.69,0,1.17,0,1.36.6,1.07,2-3.48,0-7.08,0-10.68,0a1.39,1.39,0,0,1-.89-.24c-2.86-2.61-5.59-1.23-8.58-.1a13.27,13.27,0,0,1-5.84.3,16.54,16.54,0,0,0-9.57,2.25c-2.18,1.14-4.12,2.78-6.81,2.93-.57,0-1.06,1.47-1.49,2.11-2.85-1.72-1.7-3.95-2.05-5.83-1-.88-2.2-.2-3.66-.49-1.19,1.23-2.53,2.62-3.87,4l-1.21-1.21c3.64-5.28,7.69-10.36,10.09-16.45.56-1.43,1.62-2.59,1.79-4.27.12-1.3,1-2.42,3.09-1.65-2.75,5.95-5.35,11.83-9.17,17.27,1.93.86,4.52.55,5.49,3.28.47,1.36,1.95,1.44,3.33.81,3.39-1.55,7.07-2.69,8.68-6.63A1.61,1.61,0,0,1,283.6,285.07Zm15.12-.26c.5-.72,1.7-1.14,1.2-2.33a1.3,1.3,0,0,0-1.19-.44c-1.28.72-.88,1.78-.37,2.8C298.37,284.87,298.57,284.82,298.72,284.81Z" transform="translate(-120.5 -270.5)"/><path d="M231.65,289.61c-4.1,4.26-7.75,8.55-12.92,10.78l-.71-.94L224.2,295c.51-.38,1.21-.69,1.46-1.21,1.45-3,4.46-4.42,6.71-6.57s3.57-5,5.88-7.12a14.65,14.65,0,0,0,3.49-5.48c.62-1.63,1.83-2.41,2.69-3.59a1.18,1.18,0,0,1,.55,1.47c-.26,2.06-1.51,3.75-2.53,5.41s.41,3.82-1.23,5.54c-.95,1-.92,2.89-1.51,4.31-1.29,3.12-2.7,6.19-4.22,9.64-1.14-2.75-4-4.21-3.84-7.79,1,.55,2-.07,2.35,1.15.21.8-.59,2.07,1.52,2.32,1.48-3.85,3-7.81,4.54-11.76C236.76,283.62,235.19,287.31,231.65,289.61Z" transform="translate(-120.5 -270.5)"/><path d="M243,295c.06.95-.54,1.11-1.23,1a.83.83,0,0,1-.79-1c0-.92.57-1.07,1.25-1C242.73,294.07,243.12,294.37,243,295Z" transform="translate(-120.5 -270.5)"/><path class="cls-1" d="M181.28,298.72c3.3-1.32,3-5.23,6.36-5.81C187.34,297.1,185.74,298.76,181.28,298.72Z" transform="translate(-120.5 -270.5)"/><path class="cls-1" d="M155.52,297l-1.22-1.22c.93-1.93,1.06-2.1,2-2.8C157.51,293.58,157.35,294.54,155.52,297Z" transform="translate(-120.5 -270.5)"/><path class="cls-1" d="M298.72,284.81c-.15,0-.35.06-.36,0-.51-1-.91-2.08.37-2.8a1.3,1.3,0,0,1,1.19.44C300.42,283.67,299.22,284.09,298.72,284.81Z" transform="translate(-120.5 -270.5)"/><path class="cls-1" d="M231.21,289.79c4-2.48,5.55-6.17,8.85-8.47-1.53,3.95-3.06,7.91-4.54,11.76-2.11-.25-1.31-1.52-1.52-2.32C233.69,289.54,232.7,290.16,231.21,289.79Z" transform="translate(-120.5 -270.5)"/><path class="cls-2" d="M138,288.5c1.38-2.35,3-4.51,3.06-7.5a4.92,4.92,0,0,0-3.43-5.17c-1,1.59-2.63,2.67-3.79,4.57-2.12,3.46-4,7-5.84,10.6q-3.25,6.24-6.5,12.5" transform="translate(-120.5 -270.5)"/><path class="cls-2" d="M240,280c-2.09,1.13-3.08,3.27-4.59,4.92A118.13,118.13,0,0,1,220.48,299a5.5,5.5,0,0,1-2,.53" transform="translate(-120.5 -270.5)"/><path class="cls-2" d="M170.5,293c.07,1.07-1.15.45-1.65,1.42a24.69,24.69,0,0,1-6.43,7.57c-2.68,0-5.7.68-7.42-2.49" transform="translate(-120.5 -270.5)"/><path class="cls-2" d="M272,272c-1.33,2.83-2.63,5.69-4,8.49-1.45,3-3.83,5.38-5,8.51" transform="translate(-120.5 -270.5)"/><path class="cls-2" d="M280,290c-2.33,1.17-4.76,2.18-7,3.56-1.08.68-2.05.19-3,.44" transform="translate(-120.5 -270.5)"/><path class="cls-2" d="M268,292a2.62,2.62,0,0,0-2.5-2c-.68-.09-1.5.32-2-.5" transform="translate(-120.5 -270.5)"/><path class="cls-2" d="M244.5,271.5l-3,6" transform="translate(-120.5 -270.5)"/><path class="cls-2" d="M241,281c-.14,2.58-2.11,4.47-2.56,7a12.29,12.29,0,0,1-3,6.46c-.95,1,.24,1.38.05,2.05" transform="translate(-120.5 -270.5)"/><path class="cls-2" d="M195,298c-1.65.7-2.7,2.77-5,2.05-.7-.21-1-.72-1.48-1.05" transform="translate(-120.5 -270.5)"/><path class="cls-2" d="M178,298.5c-1,.09-.38-.66-.48-1-.3-1,.52-2.14-.52-3" transform="translate(-120.5 -270.5)"/><path class="cls-2" d="M155,298c1.25-.14,1.76-1.27,2.46-2a2.6,2.6,0,0,0,0-3.47,1.08,1.08,0,0,0-1-.53c-1.42,0-1.88,1-2.55,2-1.09,1.65.25,2.72.55,4" transform="translate(-120.5 -270.5)"/><path class="cls-2" d="M299,287.5c1.2,1.41,2.82,1.52,4.5,1.51,3,0,6,0,9,0" transform="translate(-120.5 -270.5)"/><path class="cls-2" d="M296.5,287a17.13,17.13,0,0,1-13,2" transform="translate(-120.5 -270.5)"/><path class="cls-2" d="M189,292c1.4,1,.2,2.55-.12,2.89-.75.8-.61,1.94-1.38,2.61" transform="translate(-120.5 -270.5)"/><path class="cls-2" d="M187.5,298c-1.34,1.49-3.55,1.22-5,2.5" transform="translate(-120.5 -270.5)"/><path class="cls-2" d="M178,290.5c.1,2.64-2.15,3.84-3.56,5.44s-3.14,2.59-3.94,4.56" transform="translate(-120.5 -270.5)"/><path class="cls-2" d="M136.5,289c3.14,1.63,3.13,4.34,1.9,6.95-.61,1.28,0,2.05.1,3.05" transform="translate(-120.5 -270.5)"/><path class="cls-2" d="M299,285.5c1.16-.67,1.38-2,2-3-.86-.23-.7-1.81-2-1.47a2.28,2.28,0,0,0-2,2c-.05.82-.47,1.82.46,2.5" transform="translate(-120.5 -270.5)"/><path class="cls-2" d="M146.5,290.5c-.28,3.19.89,6.29.6,9.51,0,.6,1.23,1.32,1.9,2,1.61-.84,3.36-1.45,4.5-3" transform="translate(-120.5 -270.5)"/><path class="cls-2" d="M200.5,295c1.56,2.31,3.62,3.5,6.51,3,.46-.07,1,.3,1.49.47" transform="translate(-120.5 -270.5)"/><path class="cls-2" d="M146,293c-2.42,1.14-2.74,4.16-5,5.56a4.31,4.31,0,0,1-2,.44" transform="translate(-120.5 -270.5)"/><path class="cls-2" d="M136,302c-.56,0-1.15-.11-1.5.5" transform="translate(-120.5 -270.5)"/><path class="cls-2" d="M233,290.5a3.25,3.25,0,0,0,1.5,3.5" transform="translate(-120.5 -270.5)"/></svg>