<?xml version="1.0" encoding="utf-8"?>
<!-- Generator: Adobe Illustrator 24.3.0, SVG Export Plug-In . SVG Version: 6.00 Build 0)  -->
<svg version="1.1" id="Layer_1" xmlns="http://www.w3.org/2000/svg" xmlns:xlink="http://www.w3.org/1999/xlink" x="0px" y="0px"
	 viewBox="0 0 250.3 118.7" style="enable-background:new 0 0 250.3 118.7;" xml:space="preserve">
<style type="text/css">
	.st0{fill:#010101;}
</style>
<g id="Layer_2_1_">
	<g id="Layer_1-2">
		<path class="st0" d="M43.2,103.6c-0.1,2.6-1.3,5.1-3.3,6.8c-0.4,0.4-1.6,0.7-1.9,0.5c-0.7-0.6-2-1.2-1-2.5
			c1.4-1.9,2.8-3.8,4.2-5.7l1.5-2l-0.3-0.4c-0.3,0.1-0.5,0.3-0.8,0.5c-2,2.1-3.9,4.3-6,6.4c-1.6,1.6-3.5,0.9-4.5-1.1
			c-1-1.9-1.3-4.2-0.9-6.3c0.7-2.8,1.8-5.5,2.7-8.2l1.3-3.7l-0.7-0.3c-1.6,3.7-3.1,7.4-4.8,11c-1.6,3.5-3.2,6.9-5,10.3
			c-0.5,0.7-1.2,1.1-2,1.2c-0.8-0.3-1.4-0.9-1.7-1.7c-1.3-3.8-1.7-7.8-1.2-11.7c0.5-3.8,0.7-7.5,1.1-11.3c0.1-0.8,0.3-1.5,0.4-2.2
			c0.1-0.5-0.1-1.1-0.5-1.4c-0.8,2.5-1.5,5-2.5,7.5c-1,2.6-2.1,5.1-3.2,7.7c-1.5,3.5-2.9,7.1-4.4,10.6c-0.6,1.4-1.5,2.8-2.2,4.2
			c-1,2-2,4-3.2,5.8c-0.4,0.6-1.3,0.9-2,1.3c-0.4-0.6-0.7-1.3-1-2c-1.8-6.1-1.2-12.5-1.1-18.8c0.2-3.6,0.7-7.1,1.4-10.6
			C2.5,82.1,3.4,77,4.4,71.8c0.9-4.6,2.1-9.2,3.1-13.8c0.9-4,1.8-8,2.7-11.9c0.9-3.6,1.8-7.3,2.8-10.8c0.3-0.7,0.6-1.5,1-2.2
			c-1.1-0.8,0-1.5,0.7-2c0.2-0.2,0.9,0.2,1.3,0.3l-1,1.8c0.1,0.6,0.1,1.1,0,1.7c-0.2,0.9-0.6,1.7-0.9,2.6
			c-1.4,5.9-2.9,11.8-4.3,17.8C8.3,62,6.7,68.8,5.4,75.6c-0.9,4.9-1.3,9.8-2.4,14.7c-1.4,6.4-0.9,12.8-1,19.3c0,2.3,0.3,4.6,0.8,6.8
			c0.8-1.5,1.8-3,2.5-4.5c2.6-5.5,5.1-11.1,7.6-16.7c1.6-3.6,3.2-7.3,4.5-11c1.4-3.9,2.7-7.8,3.9-11.7c0.3-1.2,0.5-2.5,0.6-3.8
			c0.3-3,0.2-6.1,0.7-9.1c1-5.7,1.1-11.6,3.1-17.2c0.5-1.5,0.7-3.1,1.1-4.7c0.1-0.4,0.3-0.7,0.6-1c0.6-0.4,1.3-0.7,1.9-1
			c0.3,0.7,0.5,1.4,0.5,2.1c-0.5,2.8-1.2,5.6-1.7,8.4c-0.5,3.1-0.9,6.1-1.5,9.2c-0.6,3.4-1.4,6.9-1.9,10.3
			c-0.8,5.1-1.5,10.3-2.4,15.5c-0.5,3.5-1.4,7-1.7,10.5c-0.3,3.5-0.3,7.1-0.1,10.6c0.2,1.9,0.6,3.8,1.1,5.7h0.5
			c0.9-1.4,1.8-2.8,2.6-4.3c2.3-5,4.5-10,6.8-14.9c0.8-1.8,1.8-3.5,2.9-5.1c0.3-0.5,1.1-0.6,1.7-0.9c0.2,0.6,0.3,1.1,0.2,1.7
			c-1.2,4.1-2.7,8.1-3.7,12.2c-0.9,3.3-1.3,6.8,1.3,10.6c1.1-1.3,1.9-2.5,2.9-3.5c2.8-2.8,5.7-5.6,8.7-8.2c0.9-0.7,2-1.1,3.1-1.3
			c0.8-0.1,1.3,0.7,0.8,1.5c-1,1.6-0.7,3.8-2.7,5.2c-1.1,0.8-1.3,2.9-1.7,4.5c3.9-3.3,5.1-8.6,8.7-12.1c0.8,0.9,0.2,3-0.9,3.6
			c-0.8,0.4-2.2,0.6-0.6,2c0.5,0.5,0.1,2.1,0.1,3.6c0.8,0,1.5-0.1,2.2-0.4c2.3-1.3,4.2-3.3,5.4-5.6c2-3.3,2.5-7,3.4-10.6
			c0.6-1.9,1.4-3.8,2.3-5.6c2.4-5.4,4.8-10.8,7.4-16.2c0.9-1.5,2-2.8,3.4-3.9c1-0.9,1.8-0.3,1.6,0.9c-0.3,2.2-0.7,4.5-1.4,6.6
			c-1,3.3-2.3,6.6-3.7,9.7c-2.2,4.5-4.7,8.9-7.1,13.4c-1.6,3-3.9,5.8-3.5,9.5c0,1.1-0.1,2.1-0.3,3.2c1.6-2,2.9-3.7,4.4-5.3
			s3-3.4,4.6-5c0.3-0.3,1.1-0.3,1.6-0.2c0.2,0,0.4,0.8,0.3,1.2c-0.5,1.7-1.3,3.3-1.7,5c-0.5,1.8-0.8,3.8-0.9,5.7
			c0,1.9,1.4,2.2,3.1,1.1c2.1-1.3,4.3-2.5,6.5-3.4c-1.4,2.7-3.9,4-6.3,5.4s-4.9,0.5-5.4-2.3c-0.2-1.3,0.4-2.8,0.8-4.2
			c0.5-1.7,1.1-3.3,1.6-5c0-0.1-0.1-0.2-0.3-0.7l-3.8,4.1c-2.1,2.3-3.7,5-4.9,7.9c-0.2,0.4-0.8,0.7-1.2,1c-0.2-0.5-0.6-1-0.6-1.5
			c0.2-2.5,0.6-5,0.9-7.5c0-0.3-0.1-0.7-0.2-1c-1.1,1.1-2.1,2.1-3.2,3c-1.2,0.9-2.6,1.8-3.9,2.6c-1,0.6-2.9-1.2-3-2.7
			c0-0.5,0-1,0-1.8c-0.8,1.6-1.4,3-2.1,4.2c-0.7,1.1-1.4,2.1-2.3,3c-0.5,0.4-1,0.6-1.6,0.5c-0.3,0-0.5-0.8-0.6-1.3
			C43.5,105.4,43.3,104.5,43.2,103.6c0.2-0.7,0.4-1.5,0.6-2.3l-0.4-0.1l-4.9,7.5l0.6,0.4c0.6-0.9,1.2-1.7,1.8-2.6
			S42.4,104.6,43.2,103.6z M76.3,61.8c-5.1,8.8-8.4,18.5-12,27.9C69.8,81.1,74.3,71.9,76.3,61.8z M28.6,37.5
			c-2.6,6.5-3.4,13.3-4.2,20.1l0.7,0.1L28.6,37.5z"/>
		<path class="st0" d="M161.4,92.2c-1.3,0.3-2.7,0.5-4,0.7c-3.5,0.2-6.9,0.1-9.8-2.3c-1.8-1.4-2.7-3.5-2.7-5.7
			c0.2-1.6,0.1-4.2,3-4.7c0,0.5-0.1,1.1-0.3,1.6c-1.5,2.1-1.3,4.9,0.4,6.7c2.6,2.4,6.2,3.4,9.6,2.5c0.9-0.2,1.9,0,2.8-0.3
			c0.6-0.2,1.5-0.8,1.6-1.4c1.1-5.8,3-11.4,5.7-16.7c1.6-3.2,2.9-6.6,4.7-9.7c2-3.4,4.1-6.8,6.4-9.9c1.7-2.4,3.8-4.5,5.7-6.8
			c1.2-1.4,2.8-1.6,4.5-1.6c1.1,0,2.2,0.7,2.4,1.9c1.2,3.6,1.5,7.4,0.7,11.1c-0.5,2.3-0.7,4.7-1.4,7c-1.4,4.6-3.6,8.9-6.6,12.7
			c-0.4,0.5-0.9,1-1.3,1.4l16.5-1.8c1.5-6.4,4.4-12.4,8.5-17.6l-0.5-0.2c1.3-0.3,2.6-0.9,3.8-0.7c0.9,0.5,1.6,1.4,1.7,2.5
			c-0.1,1.7-0.3,3.4-0.8,5c-0.7,2.8-1.4,5.7-2.1,8.5c-0.1,0.5-0.2,1-0.3,1.8l18-0.9c0.8,0,1.6,0,2.3,0c5.2-0.1,10.4-0.3,15.5-0.3
			c1.2,0,2.5,0.1,3.7,0.4c0.5,0.1,0.8,0.7,1.2,1.1c-0.5,0.5-1,1-1.6,1.3c-0.9,0.4-1.9,0.6-2.9,0.6c-0.8-0.4-1.6-0.7-2.5-0.8
			c-4.1-0.1-8.2-0.1-12.3,0c-4.7,0.1-9.3,0.4-14,0.7c-2.4,0.1-4.8,0.2-7.2,0.4c-0.8,0.1-1.5,0.6-1.9,1.3c-1.6,3.9-3.7,7.6-6.2,11
			c-1.6,2.1-1.2,6.5,0.9,8c0.3,0.2,0.6,0.2,0.9,0.1c3.9-1.5,7.9-1.7,11.9-1.8c4.6-0.1,9.1-0.5,13.6-0.5c6.3,0,12.6,0.3,19,0.6
			c0.7,0.1,1.2,0.6,1.5,1.2c0.2,1.2-0.8,1-1.6,1c-4.6-0.1-9.1-0.2-13.7-0.4c-1.8-0.1-3.6-0.5-5.4-0.6c-1.2-0.1-2.4,0.2-3.7,0.3
			c-5.2,0.3-10.4,0.4-15.6,0.8c-2,0.2-4,1-6.1,1.5c-0.7,0.2-1.4,0-2-0.4c-0.9-1.3-1.6-2.6-2.3-4c-0.3-0.6-0.5-1.1-0.8-1.7
			c-0.5,0.3-0.9,0.7-1.3,1.1c-3.4,3.1-6.6,6.4-10.9,8.4c-2.4,1.1-6.4-0.8-7.5-3.8c-0.5,1.2-1.1,2.3-1.8,3.4c-1,1.2-2.3,2.3-3.7,3
			c-2,0.9-4.2-1.7-3.6-4.3c0.3-0.9,0.5-1.8,0.6-2.7c-0.3,0.2-0.7,0.4-0.8,0.7c-1.5,2.8-3,5.6-4.5,8.4c-0.6,1.1-1.6,1.2-2.3,0
			c-0.3-0.5-0.5-1.1-0.6-1.6c-0.4-2.7-0.8-5.5-0.9-8.2c0-1.9,0.2-3.8,0.5-5.8C161.4,92.9,161.4,92.6,161.4,92.2z M172.4,92.1
			c2.1,1.6,0.8,3,0.5,4.4c-0.4,2-1,4-1.4,6.1c0,0.8,0.2,1.6,0.6,2.3c0.9-0.4,1.7-0.8,2.6-1.3c0.1-0.1,0.2-0.1,0.3-0.3
			c1.3-1.9,2.6-3.8,4-5.7c0.3-0.4,1-0.6,1.5-0.9c0.2,0.5,0.4,1,0.4,1.6c-0.4,3,0.4,4.1,3.6,4.1c1.6-0.1,3.1-0.7,4.3-1.6
			c2.2-1.5,4.2-3.2,6.2-5c2-1.7,3.6-3.5,3.2-6.6c-0.3-2.6,0.2-5.3,0.4-7.9c0.1-0.7,0.2-1.4,0.4-2.3c-1.2,0.2-2,0.4-2.9,0.5
			c-4.7,0.5-9.5,1-14.2,1.5c-1.1,0.1-2,0.6-1.8,1.9c-0.8,0.2-1.7,0.5-2.4,1c-3.8,3.1-7.6,5.8-12.5,7.1c-0.7,0.2-1.3,0.7-1.6,1.3
			c-1.4,3.7-0.7,7.6-0.6,11.4c0.1,1.1,0.3,2.1,0.6,3.2C166.7,101.8,169.5,97.1,172.4,92.1L172.4,92.1z M179.7,79.1l0.1,0.5
			c1.5-1.9,3-3.8,4.5-5.8c2.5-3.3,4.3-7.1,5.2-11.2c0.6-2.5,1-5.1,1.1-7.6c0-2.5-0.2-5-0.7-7.4c-0.4-1.8-1.5-1.9-2.9-0.7
			c-0.4,0.3-0.9,0.5-1.3,0.9c-0.9,0.6-1.8,1.3-2.5,2.1c-2.4,3.4-4.9,6.9-7,10.5c-2.9,4.9-5.6,9.9-7.9,15.1
			c-1.6,3.6-2.5,7.6-3.7,11.4c-0.3,0.9-0.6,1.8-1,3c4.5-1.5,10.3-4.4,13.1-7.4c-0.1-1.2-0.4-2.6-0.1-2.8
			C177.6,79.3,178.7,79,179.7,79.1L179.7,79.1z M201,77c1.5-0.4,3.1-0.6,4.7-0.7c1.2,0.2,2.3-0.5,2.5-1.7c0-0.1,0-0.2,0-0.3
			c0.9-3.7,1.9-7.4,2.7-11.2c0.1-1.2,0.1-2.3,0-3.5l-0.7-0.1C204.5,63.7,203.5,70.4,201,77z M199.8,89.5l0.9,0.3
			c1.8-3.1,3.6-6.3,5.3-9.4c0.2-0.5,0.3-1.1,0.3-1.6c-0.5,0-1.1,0-1.6,0c-0.7,0-1.4,0-2.1,0.1c-0.6,0.2-1.6,0.7-1.7,1.1
			C200.4,83.2,200.1,86.4,199.8,89.5L199.8,89.5z"/>
		<path class="st0" d="M106.4,74.7c-4.1,12.8-6.9,26.1-15.7,37.2c-0.1-0.2-0.7-0.5-0.6-0.7c0.2-1,0.6-1.9,1-2.7
			c1.8-3.3,3.9-6.3,5.3-9.7c2.3-5.6,4.5-11.3,6.3-17.1c1.3-4.2,2-8.6,2.8-13c0.3-1.4,0.4-2.9,0.8-4.3c0.1-0.5,0.8-0.9,1.2-1.4
			c0.3,0.5,0.8,1.1,0.8,1.6c-0.6,3.5-0.6,7.1,0.2,10.5c0.9,3.7,2.4,7.2,4.3,10.5c2.6,4.4,6,8.3,7.4,13.4c0.7,2.3,1.6,4.7,1.7,7.1
			c0.1,3.3-1.7,6-5.8,5.8c-4.1-0.3-8.2-0.9-12.2-2c-0.4-0.1-0.7-0.4-1-0.7c-0.4-0.5-1-1.3-0.8-1.6c0.5-0.7,1-0.3,1.8,0
			c2.4,1,4.8,2.3,7.7,1.4c1.3-0.4,2.7-0.2,3.9,0.4c2.8,1.3,3.9,0.7,4.5-2.2c0.2-1,0.2-2,0-3c-0.7-2.6-1.6-5.1-2.7-7.5
			c-1.7-3.4-3.9-6.5-5.7-9.8c-2-3.6-4.3-7-4.5-11.3c0-0.2-0.1-0.5-0.2-0.7C106.7,74.8,106.6,74.8,106.4,74.7z"/>
		<path class="st0" d="M129.4,109.3c-1.4,0.9-2.8,1.8-4.3,2.5c-0.3,0.1-1-0.7-1.6-1.2C125.2,108.5,127.5,108,129.4,109.3z"/>
	</g>
</g>
</svg>
