<svg xmlns="http://www.w3.org/2000/svg" viewBox="0 0 250.3 87.68"><defs><style>.cls-1{fill:#010101;}</style></defs><g id="Layer_2" data-name="Layer 2"><g id="Layer_1-2" data-name="Layer 1"><path class="cls-1" d="M43.16,72.59a9.41,9.41,0,0,1-3.34,6.83c-.42.41-1.6.72-1.87.47-.65-.6-2-1.2-1-2.54,1.41-1.89,2.79-3.8,4.18-5.7l1.47-2-.31-.36a3.74,3.74,0,0,0-.79.49c-2,2.14-3.91,4.35-6,6.44-1.62,1.64-3.53.94-4.48-1.13a9.52,9.52,0,0,1-.86-6.33c.7-2.8,1.8-5.5,2.72-8.24l1.25-3.69-.69-.25c-1.58,3.69-3.1,7.4-4.75,11-1.58,3.47-3.24,6.9-5,10.26A2.6,2.6,0,0,1,21.67,79,2.7,2.7,0,0,1,20,77.34,27.58,27.58,0,0,1,18.77,65.6c.49-3.76.73-7.55,1.11-11.33.08-.75.32-1.48.41-2.22a1.67,1.67,0,0,0-.49-1.44c-.81,2.5-1.53,5-2.45,7.47-1,2.6-2.14,5.13-3.21,7.7-1.47,3.52-2.89,7.07-4.41,10.56-.63,1.44-1.49,2.77-2.24,4.15-1,2-2,4-3.2,5.85-.4.63-1.35.9-2,1.34a9.87,9.87,0,0,1-1-2C-.54,79.53.09,73.18.21,66.91A73.3,73.3,0,0,1,1.66,56.33C2.52,51.14,3.39,46,4.41,40.81,5.33,36.17,6.46,31.58,7.5,27c.91-4,1.8-8,2.74-11.93Q11.54,9.61,13,4.23a14.9,14.9,0,0,1,1-2.16c-1.06-.85,0-1.48.71-2,.22-.18.85.18,1.29.29l-1,1.83a7,7,0,0,1,0,1.71c-.2.9-.65,1.74-.87,2.63-1.44,5.92-2.91,11.84-4.26,17.79C8.25,31,6.74,37.78,5.42,44.56c-.94,4.86-1.35,9.82-2.37,14.67-1.35,6.39-.93,12.83-1,19.26a29.88,29.88,0,0,0,.84,6.8c.84-1.51,1.78-3,2.5-4.54Q9.25,72.44,13,64.07c1.59-3.63,3.17-7.27,4.55-11,1.43-3.86,2.67-7.79,3.89-11.73A18.09,18.09,0,0,0,22,37.53c.25-3,.17-6.09.67-9.07.95-5.74,1.06-11.63,3.08-17.18.54-1.5.74-3.12,1.15-4.68a1.75,1.75,0,0,1,.57-.95,18.07,18.07,0,0,1,1.91-1,5.86,5.86,0,0,1,.49,2.12c-.5,2.82-1.21,5.6-1.73,8.42-.55,3.06-.94,6.14-1.48,9.2-.6,3.44-1.37,6.86-1.94,10.3-.84,5.15-1.55,10.32-2.35,15.47-.55,3.51-1.38,7-1.7,10.53a81.81,81.81,0,0,0-.15,10.62A36.64,36.64,0,0,0,21.62,77l.47,0A46.07,46.07,0,0,0,24.7,72.7c2.31-5,4.46-10,6.77-14.94a41.53,41.53,0,0,1,2.89-5.12c.31-.47,1.1-.62,1.67-.92a4.81,4.81,0,0,1,.23,1.71c-1.21,4.08-2.65,8.1-3.72,12.22-.87,3.34-1.33,6.78,1.28,10.55,1.09-1.32,1.91-2.51,2.92-3.51,2.85-2.78,5.73-5.55,8.72-8.18a6.23,6.23,0,0,1,3.09-1.25c.82-.12,1.27.73.8,1.47-1,1.62-.73,3.76-2.67,5.15-1.1.78-1.25,2.91-1.68,4.52,3.94-3.26,5.09-8.55,8.7-12.06.85.94.24,3-.92,3.62-.85.43-2.19.59-.6,2,.55.51.08,2.14.08,3.56a7.64,7.64,0,0,0,2.23-.38,14.36,14.36,0,0,0,5.42-5.57c2-3.28,2.49-7,3.42-10.61a38.37,38.37,0,0,1,2.26-5.64C68,43.93,70.35,38.47,73,33.14a14,14,0,0,1,3.4-3.87c1-.87,1.8-.33,1.63.88a39.89,39.89,0,0,1-1.37,6.62,75.73,75.73,0,0,1-3.71,9.7c-2.19,4.54-4.71,8.94-7.12,13.38-1.63,3-3.86,5.77-3.49,9.54a16.5,16.5,0,0,1-.35,3.16c1.61-2,2.94-3.7,4.36-5.35s3-3.39,4.6-5c.31-.31,1.1-.27,1.61-.15.2,0,.44.81.34,1.15-.52,1.69-1.27,3.32-1.69,5a23.54,23.54,0,0,0-.91,5.68c0,1.87,1.42,2.2,3.13,1.11a49.42,49.42,0,0,1,6.52-3.45C78.51,74.26,76,75.5,73.62,76.9s-4.9.49-5.37-2.34c-.22-1.34.37-2.85.75-4.23.46-1.7,1.09-3.34,1.63-5,0-.08-.09-.2-.3-.65l-3.8,4.07a27.49,27.49,0,0,0-4.89,7.93c-.2.43-.77.69-1.17,1-.21-.5-.64-1-.59-1.52.24-2.5.61-5,.9-7.5a3.51,3.51,0,0,0-.22-1c-1.14,1.08-2.07,2.12-3.16,3a33.18,33.18,0,0,1-3.93,2.57c-1,.56-2.92-1.19-3-2.65,0-.49,0-1,0-1.82-.8,1.64-1.36,3-2.09,4.19A18.61,18.61,0,0,1,46.07,76a2.16,2.16,0,0,1-1.64.52c-.26,0-.49-.81-.64-1.28-.26-.86-.46-1.74-.69-2.61.23-.76.45-1.53.67-2.29l-.37-.12-4.92,7.48.59.41c.61-.86,1.2-1.74,1.83-2.59S42.41,73.57,43.16,72.59ZM76.29,30.78c-5.13,8.84-8.43,18.45-12,27.92C69.85,50.07,74.26,40.92,76.29,30.78ZM28.6,6.45c-2.63,6.47-3.44,13.28-4.17,20.1l.73.14Z"/><path class="cls-1" d="M161.37,61.24a40.44,40.44,0,0,1-4,.67c-3.48.22-6.93.11-9.77-2.31a6.94,6.94,0,0,1-2.68-5.69c.16-1.62.12-4.19,3-4.7a4.42,4.42,0,0,1-.3,1.59,5.25,5.25,0,0,0,.45,6.71A10.33,10.33,0,0,0,157.68,60c.92-.2,1.94,0,2.81-.26.65-.21,1.53-.84,1.64-1.41a64.94,64.94,0,0,1,5.67-16.66c1.63-3.21,2.9-6.61,4.66-9.74a107.58,107.58,0,0,1,6.44-9.95c1.72-2.38,3.81-4.49,5.68-6.77,1.19-1.44,2.8-1.58,4.46-1.64a2.33,2.33,0,0,1,2.38,1.86,21,21,0,0,1,.73,11.1c-.54,2.32-.74,4.74-1.45,7a37.06,37.06,0,0,1-6.62,12.71c-.41.5-.88,1-1.33,1.42l16.49-1.81a44.61,44.61,0,0,1,8.53-17.6l-.54-.24c1.29-.29,2.64-.94,3.84-.73a3.22,3.22,0,0,1,1.69,2.5,20.05,20.05,0,0,1-.8,5c-.66,2.85-1.41,5.69-2.12,8.54-.12.49-.17,1-.31,1.81l18-.86c.78,0,1.55,0,2.32,0,5.18-.12,10.36-.27,15.54-.33a16.09,16.09,0,0,1,3.66.39c.46.09.81.7,1.21,1.07a7,7,0,0,1-1.6,1.32,7.18,7.18,0,0,1-2.95.57,8.75,8.75,0,0,0-2.46-.84c-4.1-.09-8.2-.13-12.3,0-4.66.13-9.31.44-14,.67-2.4.12-4.8.16-7.18.44a2.71,2.71,0,0,0-1.93,1.33,45.08,45.08,0,0,1-6.24,11c-1.59,2.14-1.23,6.49.88,8a1.2,1.2,0,0,0,.95.09c3.85-1.49,7.86-1.72,11.92-1.82,4.55-.11,9.1-.54,13.65-.52,6.33,0,12.65.33,19,.6a2,2,0,0,1,1.46,1.19c.19,1.15-.83,1-1.6,1-4.57-.11-9.13-.18-13.7-.37-1.81-.08-3.6-.51-5.41-.61-1.22-.06-2.45.21-3.67.27-5.21.25-10.43.36-15.63.78-2,.16-4,1-6.08,1.46a2.4,2.4,0,0,1-2-.4,30.25,30.25,0,0,1-2.29-4c-.3-.55-.52-1.14-.78-1.71A16.22,16.22,0,0,0,197,64.91c-3.39,3.11-6.63,6.4-10.92,8.36-2.4,1.1-6.41-.78-7.49-3.85a15.92,15.92,0,0,1-1.8,3.37,12.19,12.19,0,0,1-3.72,3c-2,.92-4.24-1.74-3.65-4.26a13.44,13.44,0,0,0,.59-2.72c-.29.23-.68.42-.84.72-1.52,2.79-3,5.63-4.53,8.39-.62,1.1-1.57,1.24-2.3,0a4.65,4.65,0,0,1-.57-1.64c-.35-2.74-.78-5.48-.89-8.22a43.06,43.06,0,0,1,.5-5.75C161.39,61.94,161.37,61.57,161.37,61.24Zm11-.19c2.05,1.61.79,3,.5,4.36-.44,2-1,4-1.36,6.06a6.38,6.38,0,0,0,.58,2.35c.85-.42,1.71-.83,2.55-1.26a.75.75,0,0,0,.25-.25c1.32-1.9,2.6-3.82,4-5.68.31-.42,1-.6,1.47-.88a4.33,4.33,0,0,1,.42,1.57c-.42,3,.44,4.06,3.63,4.1a8.22,8.22,0,0,0,4.34-1.64,68.13,68.13,0,0,0,6.22-5c2-1.72,3.57-3.51,3.23-6.59-.29-2.6.22-5.29.4-7.93.05-.7.22-1.39.37-2.29-1.17.22-2,.43-2.86.52-4.72.53-9.46,1-14.18,1.55-1.14.13-2,.62-1.75,1.89a8.24,8.24,0,0,0-2.39,1C174,56,170.14,58.75,165.28,60a2.57,2.57,0,0,0-1.59,1.32c-1.38,3.72-.73,7.59-.6,11.4a18.74,18.74,0,0,0,.64,3.15C166.66,70.83,169.46,66.06,172.39,61.05Zm7.36-13,.13.52c1.49-1.94,3-3.84,4.47-5.81a30,30,0,0,0,5.2-11.18,42,42,0,0,0,1.14-7.62,32.29,32.29,0,0,0-.73-7.39c-.37-1.78-1.53-1.92-2.85-.69-.38.35-.88.55-1.29.86a11.48,11.48,0,0,0-2.53,2.07c-2.42,3.44-4.89,6.86-7,10.49a168,168,0,0,0-7.94,15.08c-1.62,3.61-2.46,7.58-3.66,11.39-.29.92-.61,1.83-1,3,4.49-1.47,10.32-4.45,13.08-7.38-.09-1.21-.43-2.65-.15-2.78A10.85,10.85,0,0,1,179.75,48ZM201,46a24,24,0,0,1,4.69-.72,2.14,2.14,0,0,0,2.55-2c.89-3.73,1.87-7.44,2.68-11.18a17,17,0,0,0,0-3.5l-.69-.12C204.49,32.68,203.47,39.38,201,46Zm-1.2,12.54.87.25c1.78-3.14,3.57-6.27,5.31-9.43a5.55,5.55,0,0,0,.32-1.61c-.53,0-1.05,0-1.58,0a7.84,7.84,0,0,0-2.12.14c-.64.21-1.63.66-1.7,1.12C200.4,52.19,200.12,55.39,199.78,58.57Z"/><path class="cls-1" d="M106.41,43.72C102.29,56.51,99.5,69.83,90.69,80.9c-.13-.15-.67-.5-.61-.71a11.51,11.51,0,0,1,1-2.74c1.75-3.25,3.87-6.34,5.29-9.72,2.34-5.6,4.47-11.32,6.27-17.12,1.3-4.22,2-8.63,2.85-13,.3-1.43.39-2.91.76-4.33.13-.52.76-.92,1.17-1.37.27.53.84,1.1.77,1.59A26.16,26.16,0,0,0,108.4,44a40.27,40.27,0,0,0,4.35,10.5c2.62,4.38,6,8.35,7.38,13.41.65,2.35,1.61,4.72,1.66,7.1.07,3.29-1.69,6-5.77,5.78a62.85,62.85,0,0,1-12.18-2,1.92,1.92,0,0,1-1-.68c-.36-.48-1-1.32-.79-1.55.48-.72,1-.31,1.84,0,2.4,1,4.85,2.32,7.65,1.4a5.07,5.07,0,0,1,3.91.45c2.75,1.27,3.89.69,4.48-2.22a6.55,6.55,0,0,0,0-3,45.15,45.15,0,0,0-2.7-7.49c-1.71-3.38-3.9-6.51-5.73-9.83-2-3.56-4.35-7-4.53-11.26a1.77,1.77,0,0,0-.19-.67C106.73,43.84,106.57,43.81,106.41,43.72Z"/><path class="cls-1" d="M129.43,78.3a44.17,44.17,0,0,1-4.3,2.51c-.29.13-1-.74-1.56-1.15C125.21,77.5,127.49,77,129.43,78.3Z"/></g></g></svg>