<svg id="Layer_1" data-name="Layer 1" xmlns="http://www.w3.org/2000/svg" viewBox="0 0 264.37 42.1"><defs><style>.cls-1{fill:#0f0f0f;}.cls-2{fill:#0e0e0e;}.cls-3{fill:#171717;}.cls-4{fill:#111;}.cls-5{fill:#191919;}.cls-6{fill:#131313;}</style></defs><path class="cls-1" d="M252.59,403.44c-5.22-.8-9.62,3.12-14.81,1.63-.52-.15-1.19.2-1.79.33-2,.43-4,1.77-5.87-.19s-1.68-4.11.45-6.74a7.79,7.79,0,0,0-4.91,3c-4.43,5.62-10.77,5.56-17.07,5.49a3.35,3.35,0,0,1-2.57-1.19c-1.49-3.11-3-2.11-5.29-.76a79.49,79.49,0,0,1-20.21,8.28,5.19,5.19,0,0,1-1.45.25c-1.88-.09-5.11.85-5.2-1.07-.1-2.32,3-.85,4.64-1.21a72.34,72.34,0,0,0,27.26-12.14c1.79-1.29,3.37-2.89,5.14-4.23a3.28,3.28,0,0,0,1.5-3.75c-.64-2.84,2-4.41,3.07-6.59.36-.72,1.83-.72,2.79-.31a1.24,1.24,0,0,1,.57,2.08c-.67,1,.11,1.15.79,1.47,4.8,2.26,5.71,4.23,4.36,9.48,1.82.62,3-.76,4.44-1.34s3.11-2.15,4.64-.26a3.58,3.58,0,0,1-.07,5,7.66,7.66,0,0,0-.84,1.72c2.36.58,4,.34,4.82-2.09a3.11,3.11,0,0,1,1.24-1.77c1.53-.72,2.35-3.52,4.62-2,2.12,1.42.48,3.25-.1,5.06a4.14,4.14,0,0,0,3.95-1.5c1.58-2,4-1.78,6-2.46a1.73,1.73,0,0,1,2.33,1.68,4.67,4.67,0,0,0,1.06,3.26c1.33-2.71,4.27-3.27,6.53-4.33,1.76-.82,4.61.38,6.88,1,1.22.33,2.37,1,3.55.32,3-1.59,4.9-.23,6.6,2,.67.88,1.41,1.71,2.08,2.58,4.79,6.19,3,10.71-4.61,12.55-1.56.37-2.17-.08-2.48-1.16-.34-1.24.2-1.87,1.73-2.09,6.07-.86,6.86-2.76,3.21-7.49-1.88-2.42-3.84-4.84-7.59-2.94a3.59,3.59,0,0,1-2.49-.36,3.19,3.19,0,0,0-4.43,1.46c-1.37,2.24-2.91,2.8-4.3.16-1-1.83-1.78-.64-2.52-.06a20.35,20.35,0,0,0-4.94,6.3c-.54,1-1.09,2.56-2.75,1.5-1.34-.86-.78-2-.36-3.26C250.87,406.91,253.68,406,252.59,403.44ZM207.53,401c.53,1,1.65,1,2.52,1.37,6.06,2.24,11.27-1,11.84-7.35.1-1.1.82-3.66-1.91-2.56A30.58,30.58,0,0,0,207.53,401Z" transform="translate(-173.87 -374.73)"/><path class="cls-2" d="M379.58,395.63c-5.72,6.45-9.72,7.15-16.77,2.85-1.33-.81-1.46.14-2,.62-2.55,2.36-5.31,2.74-8.87,2.33s-7.25-.24-10.54,1.59c-2.05,1.13-4.26,1.77-6.36.67a3.71,3.71,0,0,1-1.5-4.56,6.66,6.66,0,0,1,5.1-4.8,31.33,31.33,0,0,0,3.24-.55c2.63-.8,3.71.33,3.62,2.93,0,.74-1,1.86.25,2.2a4.42,4.42,0,0,0,4.15-1.07,1.82,1.82,0,0,0,.51-2.6c-2.58-3.67-1-3.73,2.57-3.57,2.2.09,5.29.56,6.73-2.51.48-1,1.74-.61,2.09.21.76,1.78,2.26,1.76,3.7,1.72,3.67-.11,5.34,1.81,5.44,5.15.08,2.41,1.2,1.88,2.59,1.17a6.72,6.72,0,0,0,3.7-8.17c-.52-2-1.16-4-1.57-6-.22-1.12-.71-2.67.82-3.18,1.82-.61,1.82,1.09,2.19,2.18,1.81,5.41,2.26,11.19,4.75,16.43a1.72,1.72,0,0,1-1.53,2.66c-1.63.2-1.39-.94-1.22-1.94C380.92,398.08,380,397.1,379.58,395.63Zm-15.94-2.49c.51,1.9.85,4,3.14,4,1.11,0,.94-1.59.88-2.49C367.46,391.57,364.87,394.11,363.64,393.14Zm-5.22,4c1.39-1.21,1.78-2.47.9-3.72-.46-.65-1.81,0-1.95.25C356.67,395.11,358.3,395.82,358.42,397.18Zm-18.38,3c-1-.31-.92-2.95-2.78-1.44-.49.4-1,1.56-.84,1.81C337.53,401.88,338.69,400.76,340,400.15Z" transform="translate(-173.87 -374.73)"/><path class="cls-3" d="M318.11,400.89c-6.29-3.87-11.39-8.39-10.64-16.78.61-6.81,7-11.15,13.52-8.67a20.2,20.2,0,0,1,10.95,9.48c2.13,4,1.31,6.45-2.86,8.12-2.64,1-5.38,1.86-8.07,2.77-.59.2-1.34.51-1.68-.13s.08-1.4.73-1.87a16.06,16.06,0,0,1,6.15-2.39c4.79-1.1,5.5-2.65,2.67-6.51-3-4.14-6.46-7.84-12.41-7.38a6,6,0,0,0-5.49,3.65,12.51,12.51,0,0,0,2.76,14.07c1.75,1.59,3.54,3.13,5.32,4.7Z" transform="translate(-173.87 -374.73)"/><path class="cls-4" d="M412.2,396.82c-.32,1.28.78,1.64,1.08,2.39s.46,1.39-.33,1.93-1.42.8-2.28,0a37,37,0,0,0-4-3.24c-.74-.52-1.57-1.61-2.56-.95-.8.54-.79,1.71-.68,2.69a14.79,14.79,0,0,1,.34,1.79c0,1.05-.32,1.93-1.68,1.94-1.54,0-1.47-1.05-1.39-2,.1-1.45.3-2.89.52-4.33.54-3.42,2.95-4.54,5.87-2.58,1.25.83,1.7,1.61,3.39.05,3.23-3,10.45,0,11.28,4.37.18.91.44,2.24-.58,2.65-1.26.51-1.52-.79-1.88-1.67C417.91,396.44,415.33,396,412.2,396.82Z" transform="translate(-173.87 -374.73)"/><path class="cls-4" d="M438.24,396.75c0,3.25-3.35,6.28-7.06,6.34-3,0-7.72-6.06-6.61-9.93.44-1.56,4-2.46,6.55-2.54C435.4,390.48,438.21,392.93,438.24,396.75Zm-6.56,2.84c2.09,0,3.93-.83,4-2.95.08-2.47-2.07-3-4.13-3.15-1.88-.17-3.45.53-3.19,2.48C428.58,397.63,429.21,399.63,431.68,399.59Z" transform="translate(-173.87 -374.73)"/><path class="cls-5" d="M301,404.58c-4.25,2.64-9.3.54-10.31-3.87-.74-3.22,1.64-8.31,4.61-9.77,2-1,3.36-.17,4.24,1.6.55,1.09.49,1.87-1.15,1.5-3.74-.83-4.07,2.12-4.8,4.41-.85,2.65.76,4.16,3,5.05A32,32,0,0,0,301,404.58Z" transform="translate(-173.87 -374.73)"/><path class="cls-3" d="M327.67,404.32c-.28,1.44-.94,2.43-2.26,1.54-1-.71-3.11-1.18-2.73-2.54.51-1.83-2.47-2.85-.72-4.59a.88.88,0,0,1,1.31.08C324.91,400.56,327,402,327.67,404.32Z" transform="translate(-173.87 -374.73)"/><path class="cls-5" d="M391.32,398.78c-.21,3.13-1.3,5.64.24,8,.14.22-.22.94-.54,1.21-.66.56-1-.05-1.46-.51C387.12,404.89,387.48,402.42,391.32,398.78Z" transform="translate(-173.87 -374.73)"/><path class="cls-6" d="M310.27,403.22c-.5.88-.32,2.39-1.87,2.29-1.08-.07-1.1-1.11-1.17-2-.09-1,0-2.17,1.21-2.24A1.91,1.91,0,0,1,310.27,403.22Z" transform="translate(-173.87 -374.73)"/></svg>