<svg xmlns="http://www.w3.org/2000/svg" viewBox="0 0 446.33 257.52"><defs><style>.cls-1{fill:#fff;}</style></defs><g id="_1-Color" data-name="1-Color"><path class="cls-1" d="M357.82,95.66C315.17,104.92,288,83.16,288,83.16s-27.18,21.76-69.84,12.5c0,34.83-1,98.16,69.86,147C358.86,193.82,357.82,130.49,357.82,95.66Zm-14.89,62.76c-13.25,47.21-53.93,73.65-54.34,73.91l-.7.44-.69-.44c-.41-.26-40.92-26.7-54.17-73.91-8.54-30.42-7.22-52.37-7.2-52.58l.08-1.33,1.33.13c.18,0,18,1.77,31.9-1.15a116.91,116.91,0,0,0,28.12-10l.61-.33.61.32a120.12,120.12,0,0,0,28.34,10c13.92,2.93,31.72,1.17,31.9,1.15l1.33-.13.09,1.33C350.15,106.05,351.47,128,342.93,158.42Z" transform="translate(-64.83 -83.16)"/><path class="cls-1" d="M346.53,108.34c-4.42.36-18.78,1.23-30.76-1.29a122.42,122.42,0,0,1-27.89-9.73,118.52,118.52,0,0,1-27.69,9.73c-12,2.52-26.34,1.65-30.76,1.29-.13,5-.06,24.19,7,49.48,11.82,42.11,46.17,67,51.44,70.66,5.29-3.62,39.79-28.58,51.6-70.66C346.6,132.51,346.66,113.35,346.53,108.34ZM262.74,171c-7.79,0-13.19-2.61-16.05-7.76-1.53-2.74-2.31-7.36-2.31-11.77V129.91c0-2.92-.54-3.85-.86-4.14s-1.39-.88-4.51-1.12l-.86-.07V121.5H259.6v3.09l-.88.06c-3.18.21-4.24.78-4.59,1.09s-.87,1.22-.87,4.17V152c0,3.45.47,7.16,1.39,9,1.68,3.37,4.83,5,9.64,5,5.3,0,8.75-1.68,10.52-5.15,1-2,1.52-6.11,1.52-10.34v-18c0-4.58-.69-6-1.1-6.42s-1.7-1.24-4.53-1.51l-1.84-.09V121.5H288.7v3l-1.83.1c-3,.32-4.17,1-4.62,1.6s-1,1.9-1,6.33v18c0,4.9-.78,9.8-2.3,12.6C276.06,168.36,270.62,171,262.74,171Zm14.37,31.6a11.44,11.44,0,0,1-4.73-7.51,15.18,15.18,0,0,1,8.87,2.26c3.57,2.37,5.53,7.18,5.53,7.18S280.9,205.1,277.11,202.61Zm7.12-10.07c0-5.16,3.75-10.41,3.75-10.41s3.75,5.25,3.75,10.41c0,4.85-3.75,9.93-3.75,9.93S284.23,197.39,284.23,192.54Zm14.41,10.07c-3.78,2.49-9.67,1.93-9.67,1.93s2-4.81,5.53-7.18a15.19,15.19,0,0,1,8.87-2.26A11.39,11.39,0,0,1,298.64,202.61Zm27.94-57.15-.16-.74c-.95-4.32-2-6-2.79-6.69s-2.58-1.43-7.25-1.43h-2.9V172c0,3.18.61,4,.88,4.2s1.53.82,4.95,1.06l.87.07v3.08h-22v-3.08l.87-.07c3.63-.27,4.61-.9,4.86-1.16s.81-1.23.81-4.91V136.6h-2.94c-4.46,0-6.39.78-7.22,1.44s-2,2.34-2.78,6.66l-.14.76h-3.43v-13.6H330v13.6Z" transform="translate(-64.83 -83.16)"/><rect class="cls-1" y="205.74" width="446.33" height="2"/><path class="cls-1" d="M367.08,260.48h0v0c-.34,0-1.68.07-3.51.07h-5.46c-1.27,0-2.57,0-3.68-.07a.43.43,0,0,0-.23.39.62.62,0,0,0,.19.59l.52.08c1.15.23,1.3.4,1.3,2.79V274c0,2.4-.15,2.56-1.3,2.74l-.87.14a.76.76,0,0,0,0,1c1.61-.06,2.89-.08,4.05-.08s2.52,0,4.14.08h0a.7.7,0,0,0,.15-.49.66.66,0,0,0-.17-.49l-1-.13c-1.15-.18-1.29-.34-1.29-2.74v-3.51c0-.69,0-.75.69-.75h2c1.36,0,1.6.19,1.89,1.43l.14.64a.62.62,0,0,0,.49.18.69.69,0,0,0,.56-.23c0-.76-.08-1.72-.08-2.7s0-2,.07-2.81a.7.7,0,0,0-.55-.2.63.63,0,0,0-.5.19l-.13.63c-.28,1.25-.51,1.42-1.89,1.42h-2c-.68,0-.69,0-.69-.74v-4.71c0-1,0-1,.82-1h2a3.08,3.08,0,0,1,2.52.85,6.94,6.94,0,0,1,.76,2,.93.93,0,0,0,.51.15.52.52,0,0,0,.53-.28c-.05-1.67-.05-3.43-.09-4Z" transform="translate(-64.83 -83.16)"/><path class="cls-1" d="M354,278l0,0a.72.72,0,0,1-.25-.6.79.79,0,0,1,.22-.58l.06,0,.87-.14c1-.16,1.19-.19,1.19-2.62V264.3c0-2.43-.16-2.46-1.2-2.67l-.56-.1a.76.76,0,0,1-.25-.71.55.55,0,0,1,.32-.49h.05c1.12.05,2.43.08,3.67.08h5.46c1.82,0,3.16,0,3.49-.08h.13l0,.22c0,.29,0,.9,0,1.66s0,1.54.05,2.34v.05a.64.64,0,0,1-.65.36,1.09,1.09,0,0,1-.58-.16l0,0v0a7.34,7.34,0,0,0-.74-2,3,3,0,0,0-2.42-.79h-2c-.7,0-.7,0-.7.9v4.71c0,.62,0,.62.57.62h2c1.32,0,1.5-.14,1.77-1.33l.15-.67a.71.71,0,0,1,.6-.25.81.81,0,0,1,.66.26l0,0v0c-.05.89-.08,1.85-.08,2.8s0,1.94.08,2.69v0l0,0a.78.78,0,0,1-.66.29.75.75,0,0,1-.59-.22l0-.05-.13-.64c-.27-1.18-.47-1.33-1.77-1.33h-2c-.57,0-.57,0-.57.62V274c0,2.43.16,2.46,1.19,2.62l1,.13,0,0a.78.78,0,0,1,.21.58.82.82,0,0,1-.19.58l0,0h-.06c-1.72,0-3-.08-4.15-.08s-2.44,0-4.05.08Zm4.09-.33c1.19,0,2.41,0,4.1.08a.75.75,0,0,0,.08-.37.61.61,0,0,0-.09-.37l-.92-.12c-1.26-.2-1.41-.49-1.41-2.87v-3.51c0-.75.06-.87.82-.87h2c1.41,0,1.71.23,2,1.52l.13.61a.57.57,0,0,0,.38.11.62.62,0,0,0,.43-.14c-.05-.75-.08-1.69-.08-2.66s0-1.89.07-2.76a.66.66,0,0,0-.42-.13.51.51,0,0,0-.38.13l-.13.59c-.29,1.31-.58,1.53-2,1.53h-2c-.76,0-.82-.12-.82-.87v-4.71c0-1,0-1.15.95-1.15h2a3.17,3.17,0,0,1,2.61.89,6.86,6.86,0,0,1,.78,2,.85.85,0,0,0,.4.1.44.44,0,0,0,.41-.18c0-.79,0-1.61-.05-2.31s0-1.31,0-1.61c-.49,0-1.74.06-3.39.06h-5.46c-1.24,0-2.53,0-3.65-.08a.39.39,0,0,0-.14.28.58.58,0,0,0,.12.46l.49.07c1.27.26,1.4.53,1.4,2.92V274c0,2.38-.14,2.67-1.4,2.87l-.84.13a.57.57,0,0,0-.1.36.56.56,0,0,0,.11.37C355.69,277.66,357,277.63,358.11,277.63Z" transform="translate(-64.83 -83.16)"/><path class="cls-1" d="M97.73,259.87a.64.64,0,0,0-.37.1c-.23.53-.63.55-2.31.55H85.38c-2,0-2-.11-2.16-.53a.61.61,0,0,0-.39-.12.62.62,0,0,0-.4.16c0,.27-.09.57-.14.91a23.71,23.71,0,0,1-.71,3.54.65.65,0,0,0,.62.33.86.86,0,0,0,.41-.1c.76-1.86,1.29-2.92,3.19-2.92h1.61c.59,0,.59.1.59.72V274c0,2.4-.15,2.56-1.3,2.74l-1.18.14a.76.76,0,0,0,0,1c1.82-.06,3.17-.08,4.42-.08s2.47,0,4.16.08h0a.7.7,0,0,0,.15-.49.66.66,0,0,0-.17-.49l-1-.13c-1.15-.18-1.29-.34-1.29-2.74V262.51c0-.65.06-.72.66-.72H94c2,0,2.3,1.26,2.73,2.87.08.13.32.15.42.15s.52-.07.61-.25a19.36,19.36,0,0,1,.38-4.49A.6.6,0,0,0,97.73,259.87Z" transform="translate(-64.83 -83.16)"/><path class="cls-1" d="M85.5,278l0,0a.72.72,0,0,1-.25-.6.79.79,0,0,1,.22-.58l0,0,1.22-.14c1-.16,1.18-.19,1.18-2.62V262.51c0-.59,0-.59-.46-.59H85.8c-1.83,0-2.31,1-3.08,2.84v0l0,0a.94.94,0,0,1-.47.12.77.77,0,0,1-.74-.41l0,0,0-.05a23.66,23.66,0,0,0,.71-3.51c0-.35.09-.65.14-.92v0l0,0a.76.76,0,0,1,.94-.05l0,0v0c.11.35.14.45,2,.45h9.67c1.69,0,2,0,2.2-.47v0l0,0a.74.74,0,0,1,1,.13l0,.05,0,.06a19,19,0,0,0-.38,4.45v.06a.81.81,0,0,1-.72.31c-.15,0-.42,0-.53-.2v0c-.43-1.61-.74-2.77-2.61-2.77H92.45c-.52,0-.54,0-.54.59V274c0,2.43.16,2.46,1.19,2.62l1.07.13,0,0a.78.78,0,0,1,.21.58.82.82,0,0,1-.19.58l0,0h-.06c-1.78,0-3.06-.08-4.17-.08s-2.49,0-4.42.08Zm4.46-.33c1.1,0,2.37,0,4.12.08a.75.75,0,0,0,.08-.37.61.61,0,0,0-.09-.37l-1-.12c-1.26-.2-1.41-.49-1.41-2.87V262.51c0-.72.12-.84.79-.84H94c2,0,2.42,1.36,2.84,2.94a.56.56,0,0,0,.31.07.65.65,0,0,0,.48-.15,20.38,20.38,0,0,1,.37-4.42.5.5,0,0,0-.28-.11.54.54,0,0,0-.27.06c-.28.59-.83.59-2.41.59H85.38c-1.89,0-2.1-.08-2.27-.59a.52.52,0,0,0-.56,0c0,.25-.09.54-.13.85a23.41,23.41,0,0,1-.71,3.51.54.54,0,0,0,.49.23.67.67,0,0,0,.31-.07c.75-1.83,1.33-2.95,3.29-2.95h1.61c.68,0,.71.19.71.84V274c0,2.38-.14,2.67-1.4,2.87l-1.15.13a.59.59,0,0,0-.1.36.56.56,0,0,0,.11.37C87.48,277.66,88.79,277.63,90,277.63Z" transform="translate(-64.83 -83.16)"/><path class="cls-1" d="M119.52,276.75c-1.17-.2-1.32-.37-1.32-2.77V264.3c0-2.39.15-2.56,1.32-2.79l.54-.09a.61.61,0,0,0,.17-.48.58.58,0,0,0-.19-.49c-1.22.05-2.42.07-3.67.07s-2.48,0-4-.07a.63.63,0,0,0-.17.49.59.59,0,0,0,.19.49l.7.1c1.15.2,1.29.32,1.29,2.77v3c0,.74,0,.74-1,.74H108c-1.06,0-1.06,0-1.06-.74v-3c0-2.39.14-2.56,1.25-2.79l.56-.09a.64.64,0,0,0,.17-.48.61.61,0,0,0-.19-.49c-1.12.05-2.4.07-3.62.07s-2.61,0-3.89-.07a.63.63,0,0,0-.17.49.61.61,0,0,0,.18.49l.63.08c1.15.23,1.29.4,1.29,2.79V274c0,2.39-.14,2.57-1.29,2.8l-.64.08a.76.76,0,0,0,0,1c1.33-.06,2.63-.08,3.87-.08s2.45,0,4,.07a.67.67,0,0,0,.17-.49.62.62,0,0,0-.19-.49l-.83-.1c-1.15-.21-1.3-.37-1.3-2.77v-3.75c0-.7,0-.72,1.06-.72h5.41c1,0,1,0,1,.72V274c0,2.45-.14,2.57-1.29,2.8l-.59.08a.76.76,0,0,0,0,1c1.25-.06,2.54-.08,3.82-.08s2.47,0,3.77.08h0a.63.63,0,0,0,.17-.49.61.61,0,0,0-.18-.49Z" transform="translate(-64.83 -83.16)"/><path class="cls-1" d="M112.52,278l0,0a.75.75,0,0,1-.25-.6.79.79,0,0,1,.22-.58l0,0,.62-.09c1.05-.2,1.19-.23,1.19-2.67v-3.75c0-.59,0-.59-.93-.59H108c-.93,0-.93,0-.93.59V274c0,2.43.16,2.46,1.19,2.65l.88.12a.73.73,0,0,1,.24.59.77.77,0,0,1-.22.59l0,0h0c-1.62-.05-2.88-.07-4-.07-1.24,0-2.54,0-3.87.08h0l0,0a.75.75,0,0,1-.25-.6.79.79,0,0,1,.22-.58l0,0,.67-.09c1-.2,1.19-.24,1.19-2.67V264.3c0-2.43-.16-2.46-1.2-2.67l-.67-.1a.73.73,0,0,1-.24-.59.81.81,0,0,1,.22-.59l0,0h0c1.37.05,2.68.07,3.89.07s2.5,0,3.61-.08h0l0,0a.74.74,0,0,1,.24.6.75.75,0,0,1-.22.58l0,0-.57.08c-1,.21-1.13.24-1.13,2.67v3c0,.62,0,.62.93.62h5.41c.93,0,.93,0,.93-.62v-3c0-2.44-.14-2.46-1.19-2.64l-.76-.13a.76.76,0,0,1-.24-.59.81.81,0,0,1,.22-.59l0,0h0c1.6.05,2.82.07,4,.07s2.45,0,3.66-.08h0l0,0a.75.75,0,0,1,.25.6.79.79,0,0,1-.22.58l-.06,0-.54.08c-1.05.21-1.21.24-1.21,2.67V274c0,2.43.16,2.46,1.21,2.65l.68.12a.74.74,0,0,1,.24.59.81.81,0,0,1-.22.59l0,0h0c-1.32,0-2.58-.08-3.78-.08s-2.56,0-3.81.08Zm3.85-.33c1.19,0,2.45,0,3.74.08a.65.65,0,0,0,.1-.37.56.56,0,0,0-.11-.37l-.6-.1c-1.28-.22-1.42-.52-1.42-2.89V264.3c0-2.37.14-2.67,1.42-2.92l.5-.08a.5.5,0,0,0,.11-.36.58.58,0,0,0-.11-.37c-1.2.05-2.39.08-3.63.08s-2.35,0-3.92-.07a.57.57,0,0,0-.1.36.52.52,0,0,0,.12.37l.67.1c1.27.22,1.4.49,1.4,2.89v3c0,.85-.1.87-1.18.87H108c-1.07,0-1.18,0-1.18-.87v-3c0-2.39.12-2.66,1.34-2.92l.53-.08a.57.57,0,0,0,.1-.36.56.56,0,0,0-.11-.37c-1.1.05-2.37.08-3.57.08s-2.49,0-3.85-.07a.68.68,0,0,0-.09.36.56.56,0,0,0,.11.37l.59.07c1.28.26,1.41.53,1.41,2.92V274c0,2.37-.15,2.67-1.4,2.92l-.61.08a.57.57,0,0,0-.1.36.56.56,0,0,0,.11.37c1.32,0,2.61-.08,3.83-.08s2.33,0,3.93.07a.65.65,0,0,0,.09-.36A.56.56,0,0,0,109,277l-.8-.1c-1.26-.22-1.4-.52-1.4-2.89v-3.75c0-.81.11-.84,1.18-.84h5.41c1.08,0,1.18,0,1.18.84V274c0,2.4-.13,2.67-1.4,2.92l-.56.08a.57.57,0,0,0-.1.36.56.56,0,0,0,.11.37C113.83,277.66,115.1,277.63,116.37,277.63Z" transform="translate(-64.83 -83.16)"/><path class="cls-1" d="M137.94,273.3a.54.54,0,0,0-.44.19c-1.45,3-2.36,3-4.54,3-1.89,0-2.38-.21-2.7-.66a4.65,4.65,0,0,1-.41-2.45v-3.1c0-.77,0-.77.69-.77h1.8c1.34,0,1.6.21,1.89,1.43l.13.67a.64.64,0,0,0,.5.17.6.6,0,0,0,.53-.22c0-.84-.08-1.76-.08-2.76s0-1.92.07-2.77c-.08-.15-.31-.2-.51-.2a.71.71,0,0,0-.51.18l-.13.65c-.28,1.22-.53,1.4-1.89,1.4h-1.8c-.67,0-.69,0-.69-.74v-4.55c0-1,0-1,.82-1h2.08a3.37,3.37,0,0,1,2.52.8,6,6,0,0,1,1,2.05.75.75,0,0,0,.48.16.58.58,0,0,0,.55-.29c-.08-1-.18-2.11-.25-2.91a8.84,8.84,0,0,0-.13-1.15c-.31,0-1.68.07-3.48.07h-5.51c-1.26,0-2.52,0-3.77-.07a.63.63,0,0,0-.23.51.56.56,0,0,0,.19.47l.65.13c1.15.2,1.3.37,1.3,2.72V274c0,2.38-.15,2.54-1.29,2.69l-1.24.19a.53.53,0,0,0-.17.43.66.66,0,0,0,.19.55c2-.06,3.22-.08,4.47-.08h3.38c2.39,0,4.74,0,6,.08h0v0a14.52,14.52,0,0,0,1.09-4.19A.62.62,0,0,0,137.94,273.3Z" transform="translate(-64.83 -83.16)"/><path class="cls-1" d="M123.51,278l0,0a.8.8,0,0,1-.25-.66.66.66,0,0,1,.23-.53l.05,0,1.24-.18c1-.14,1.19-.16,1.19-2.57v-9.7c0-2.39-.16-2.41-1.2-2.6l-.69-.15a.6.6,0,0,1-.25-.57.75.75,0,0,1,.29-.62h.07c1.29.05,2.56.07,3.76.07h5.51c1.8,0,3.16,0,3.46-.08H137l0,.11a9.39,9.39,0,0,1,.14,1.17c.07.81.17,1.88.24,2.91v.05a.68.68,0,0,1-.67.38.84.84,0,0,1-.56-.19l0,0v0a6,6,0,0,0-1-2,3.32,3.32,0,0,0-2.43-.75h-2.08c-.69,0-.69,0-.69.85v4.55c0,.62,0,.62.56.62h1.8c1.3,0,1.5-.15,1.76-1.31l.16-.7a.84.84,0,0,1,.61-.22c.12,0,.49,0,.62.26l0,0v0c0,.88-.07,1.81-.07,2.76s0,1.92.07,2.75v0l0,0c-.14.28-.53.3-.64.3a.73.73,0,0,1-.6-.23l0-.05-.14-.66c-.26-1.17-.48-1.33-1.76-1.33h-1.8c-.56,0-.56,0-.56.64v3.1a4.52,4.52,0,0,0,.38,2.38c.3.41.76.6,2.6.6,2.19,0,3,0,4.43-2.92a.65.65,0,0,1,.55-.26.73.73,0,0,1,.71.41v.05a15.11,15.11,0,0,1-1.11,4.23l0,.07-.09,0c-1.28,0-3.64-.08-6-.08H128c-1.28,0-2.6,0-4.47.08Zm.07-1a.46.46,0,0,0-.1.31.65.65,0,0,0,.11.42c1.84,0,3.16-.08,4.43-.08h3.38c2.35,0,4.67,0,5.95.08a14.8,14.8,0,0,0,1.06-4.06.54.54,0,0,0-.47-.22.38.38,0,0,0-.33.14c-1.49,3-2.48,3-4.65,3-1.94,0-2.45-.23-2.8-.71a4.67,4.67,0,0,1-.43-2.52v-3.1c0-.82.06-.89.81-.89h1.8c1.39,0,1.71.24,2,1.52l.13.64a.56.56,0,0,0,.38.11.52.52,0,0,0,.4-.14c0-.82-.07-1.74-.07-2.72s0-1.86.07-2.73a.55.55,0,0,0-.39-.11.67.67,0,0,0-.4.11l-.12.62c-.29,1.28-.6,1.5-2,1.5h-1.8c-.74,0-.81-.08-.81-.87v-4.55c0-1,0-1.1.94-1.1h2.08a3.53,3.53,0,0,1,2.61.83,6,6,0,0,1,1,2.07.6.6,0,0,0,.37.11.46.46,0,0,0,.42-.19c-.08-1-.17-2.08-.24-2.86,0-.44-.07-.82-.11-1.05-.46,0-1.72.07-3.38.07h-5.51c-1.19,0-2.45,0-3.73-.07a.53.53,0,0,0-.14.38.43.43,0,0,0,.11.35l.63.13c1.25.22,1.4.51,1.4,2.84V274c0,2.36-.15,2.65-1.41,2.82Z" transform="translate(-64.83 -83.16)"/><path class="cls-1" d="M165.38,260.52c-1.06,0-2.08,0-3.51-.06a.8.8,0,0,0,0,.94l.7.13c.68.13,1.25.27,1.48.81a17.28,17.28,0,0,1,.39,4.75v3.14c0,4.28-1.45,6.44-4.3,6.44-3.93,0-4.26-3.28-4.26-6.36v-6c0-2.39.15-2.56,1.3-2.79l.64-.11a.66.66,0,0,0,.17-.48.57.57,0,0,0-.2-.47c-1.25.05-2.52.07-3.79.07s-2.56,0-3.81-.07a.5.5,0,0,0-.23.43.58.58,0,0,0,.18.52l.66.13c1.14.21,1.29.37,1.29,2.77v6.5c0,2.94.62,4.82,1.94,5.91a7.74,7.74,0,0,0,5.17,1.46,7,7,0,0,0,5.17-1.88c1.48-1.63,1.68-4,1.68-6.29v-2.91a17.28,17.28,0,0,1,.39-4.75c.22-.53.71-.68,1.37-.83l.49-.12a.66.66,0,0,0,.15-.45.63.63,0,0,0-.18-.49C167.29,260.5,166.34,260.52,165.38,260.52Z" transform="translate(-64.83 -83.16)"/><path class="cls-1" d="M159.22,278.3a7.87,7.87,0,0,1-5.25-1.49c-1.35-1.12-2-3-2-6v-6.5c0-2.43-.16-2.46-1.2-2.64l-.7-.16a.71.71,0,0,1-.24-.63.64.64,0,0,1,.3-.53l0,0h0c1.29,0,2.6.07,3.81.07s2.54,0,3.79-.08h0l0,0a.69.69,0,0,1,.25.58.75.75,0,0,1-.22.58l0,0-.64.11c-1,.21-1.19.24-1.19,2.67v6c0,3,.32,6.24,4.13,6.24,2.77,0,4.18-2.13,4.18-6.32v-3.14a17.41,17.41,0,0,0-.38-4.7c-.21-.48-.75-.62-1.39-.74l-.74-.13,0,0a.78.78,0,0,1-.2-.55.86.86,0,0,1,.18-.57l0,0h.06c1.41,0,2.42.07,3.5.07s1.91,0,2.91-.08h.05l0,0a.9.9,0,0,1,0,1.13l0,0-.52.12c-.64.15-1.08.28-1.29.76a17.41,17.41,0,0,0-.38,4.7V270c0,2.33-.2,4.71-1.7,6.37A7.17,7.17,0,0,1,159.22,278.3Zm-9-17,.62.13c1.25.22,1.4.52,1.4,2.89v6.5c0,2.9.6,4.75,1.89,5.81a7.58,7.58,0,0,0,5.09,1.44,6.89,6.89,0,0,0,5.08-1.85c1.44-1.6,1.64-3.92,1.64-6.2v-2.91a17.17,17.17,0,0,1,.4-4.8c.25-.58.79-.75,1.47-.91l.44-.1a.62.62,0,0,0,.09-.34.65.65,0,0,0-.1-.37c-1,.05-1.92.08-2.86.08s-2.06,0-3.45-.07a.83.83,0,0,0-.08.36.58.58,0,0,0,.1.35l.67.12c.71.13,1.31.29,1.57.88a17.17,17.17,0,0,1,.4,4.8v3.14c0,4.36-1.49,6.57-4.43,6.57-4,0-4.38-3.35-4.38-6.49v-6c0-2.37.14-2.67,1.39-2.92l.61-.1a.57.57,0,0,0,.1-.36.54.54,0,0,0-.11-.35c-1.24.05-2.5.08-3.75.08s-2.5,0-3.78-.07a.4.4,0,0,0-.14.31A.51.51,0,0,0,150.22,261.28Z" transform="translate(-64.83 -83.16)"/><path class="cls-1" d="M186.86,260.52c-1.07,0-2.08,0-3.51-.06a.83.83,0,0,0,0,1l.7.1c.67.13,1.25.27,1.48.81a17.54,17.54,0,0,1,.39,4.75v3.59a10.18,10.18,0,0,1,0,1l0,.1c-.39-.39-.83-.91-1.43-1.62l-1-1.22L181,266.08c-2.19-2.61-3.78-4.49-4.06-5.63-.54.05-1.3.07-2.19.07-1.1,0-2.41,0-3.59-.07a.37.37,0,0,0-.22.27.81.81,0,0,0,.12.71l.72.1c.87.17,1.27.42,1.46.87a5.35,5.35,0,0,1,.18,2.19v6.6a19.28,19.28,0,0,1-.36,4.75c-.23.54-.73.68-1.4.84l-.47.08a.86.86,0,0,0,0,1c1-.06,2-.08,2.91-.08s2.08,0,3.51.06a.83.83,0,0,0,0-1l-.73-.1c-.67-.13-1.25-.28-1.48-.81a17.65,17.65,0,0,1-.38-4.75v-5a10.44,10.44,0,0,1,0-1.53.38.38,0,0,1,0-.1,32.29,32.29,0,0,1,2.81,3.32l6,7.43c.88,1.09,1.57,2.08,1.9,2.55.21.3.21.3.24.3a2,2,0,0,0,1.57-.64c-.06-.85-.06-2.47-.06-4.18v-6.21a17.54,17.54,0,0,1,.39-4.75c.23-.53.72-.68,1.38-.83l.48-.09a.64.64,0,0,0,.15-.5.61.61,0,0,0-.17-.47C188.72,260.5,187.8,260.52,186.86,260.52Z" transform="translate(-64.83 -83.16)"/><path class="cls-1" d="M186,278.25c-.1,0-.1,0-.34-.36s-1-1.43-1.9-2.54l-6-7.43a39.49,39.49,0,0,0-2.65-3.16c0,.28,0,.7,0,1.39v5a17.18,17.18,0,0,0,.38,4.7c.2.47.75.61,1.39.74l.76.11,0,0a.79.79,0,0,1,.2.57.87.87,0,0,1-.18.58l0,0h-.05c-1.33,0-2.44-.07-3.51-.07s-1.91,0-2.9.08h-.06l0,0a.92.92,0,0,1-.22-.6.77.77,0,0,1,.19-.55l0,0,.5-.1c.66-.14,1.11-.28,1.31-.76a18.9,18.9,0,0,0,.35-4.7v-6.6a5.63,5.63,0,0,0-.16-2.14c-.17-.41-.55-.63-1.37-.8l-.76-.1,0,0a.91.91,0,0,1-.15-.83.47.47,0,0,1,.3-.35h0c1.19.05,2.5.08,3.59.08.89,0,1.64,0,2.17-.08H177l0,.11c.28,1.11,1.85,3,4,5.58l2.45,2.88,1,1.22c.52.61.91,1.07,1.26,1.44,0-.23,0-.53,0-.86v-3.59a17.23,17.23,0,0,0-.38-4.7c-.2-.48-.75-.62-1.38-.74l-.74-.1,0,0a.79.79,0,0,1-.2-.57.87.87,0,0,1,.18-.58l0,0h0c1.42,0,2.43.07,3.51.07s1.86,0,2.9-.08h.05l0,0a.78.78,0,0,1,.22.56.8.8,0,0,1-.19.6l0,0-.53.1c-.64.15-1.08.28-1.28.76a17.23,17.23,0,0,0-.38,4.7v6.21c0,1.71,0,3.32.05,4.18v.07A2.16,2.16,0,0,1,186,278.25Zm-11-13.93.13.11a32.22,32.22,0,0,1,2.83,3.33l6,7.44c.9,1.1,1.6,2.12,1.9,2.55l.18.25a2,2,0,0,0,1.4-.55c-.05-.87-.05-2.46-.05-4.15v-6.21a17.86,17.86,0,0,1,.39-4.79c.26-.59.79-.76,1.47-.92l.45-.08a.75.75,0,0,0,0-.73c-1,.06-1.94.08-2.86.08-1.07,0-2.07,0-3.45-.07a.73.73,0,0,0-.08.37.62.62,0,0,0,.1.36l.66.1c.71.13,1.32.29,1.58.88a18,18,0,0,1,.39,4.8v3.59a10.19,10.19,0,0,1,0,1l0,.14-.07.18-.14-.14c-.4-.4-.83-.91-1.44-1.63l-1-1.22-2.45-2.88c-2.14-2.54-3.7-4.4-4.06-5.58-.53.05-1.25.07-2.09.07-1.08,0-2.39,0-3.57-.08a.32.32,0,0,0-.12.18.77.77,0,0,0,.06.56l.68.1c.92.18,1.35.44,1.56.94a5.66,5.66,0,0,1,.18,2.24v6.6a18.93,18.93,0,0,1-.37,4.79c-.25.6-.8.76-1.49.92l-.42.08a.56.56,0,0,0-.09.35.87.87,0,0,0,.1.38c1,0,1.92-.08,2.86-.08s2.15,0,3.45.07a.85.85,0,0,0,.08-.37.62.62,0,0,0-.1-.36l-.68-.1c-.72-.13-1.33-.3-1.58-.88a17.37,17.37,0,0,1-.4-4.8v-5a10.94,10.94,0,0,1,0-1.55v0l0-.08Z" transform="translate(-64.83 -83.16)"/><path class="cls-1" d="M200,261.56l.75-.14a.74.74,0,0,0,0-1c-1.43.05-2.71.07-3.93.07s-2.52,0-4-.07a.63.63,0,0,0-.17.49.61.61,0,0,0,.18.49l.73.13c1.17.2,1.32.37,1.32,2.8v9.57c0,2.42-.15,2.59-1.32,2.79l-.74.14a.76.76,0,0,0,0,1c1.43-.06,2.72-.08,4-.08s2.47,0,3.9.08h0a.69.69,0,0,0,.19-.52.53.53,0,0,0-.18-.46l-.73-.13c-1.17-.2-1.32-.37-1.32-2.79v-9.57C198.72,261.93,198.87,261.76,200,261.56Z" transform="translate(-64.83 -83.16)"/><path class="cls-1" d="M192.85,278l0,0a.75.75,0,0,1-.25-.6.79.79,0,0,1,.22-.58l.05,0,.75-.14c1.06-.18,1.22-.21,1.22-2.67v-9.57c0-2.47-.16-2.49-1.22-2.68l-.78-.15a.73.73,0,0,1-.24-.59.81.81,0,0,1,.22-.59l0,0h0c1.54.05,2.8.07,4,.07s2.5,0,3.92-.08h0l0,0a.78.78,0,0,1,.25.6.76.76,0,0,1-.23.58l-.05,0-.74.14c-1.06.19-1.22.21-1.22,2.68v9.57c0,2.46.16,2.49,1.22,2.67l.78.15a.67.67,0,0,1,.22.56.81.81,0,0,1-.23.62l0,0h-.05c-1.44,0-2.71-.08-3.91-.08s-2.52,0-4,.08Zm4-.33c1.19,0,2.46,0,3.87.08a.65.65,0,0,0,.11-.4.51.51,0,0,0-.1-.34l-.7-.12c-1.27-.23-1.42-.53-1.42-2.92v-9.57c0-2.4.15-2.7,1.42-2.92l.71-.14a.55.55,0,0,0,.11-.36.63.63,0,0,0-.12-.37c-1.4.05-2.67.08-3.88.08s-2.41,0-3.92-.07a.57.57,0,0,0-.1.36.52.52,0,0,0,.12.37l.69.13c1.28.22,1.43.52,1.43,2.92v9.57c0,2.39-.15,2.69-1.43,2.92l-.71.13a.57.57,0,0,0-.1.36.56.56,0,0,0,.11.37C194.34,277.66,195.62,277.63,196.84,277.63Z" transform="translate(-64.83 -83.16)"/><path class="cls-1" d="M221.56,260.45c-.76.05-1.55.07-2.41.07s-1.9,0-3.21-.07a.44.44,0,0,0-.26.35.67.67,0,0,0,.16.6l.75.18c.63.13.68.26.68.41a3.37,3.37,0,0,1-.26.92c-.33.94-1.39,3.83-2,5.44l-1,2.44c-.25.64-.51,1.23-.67,1.66,0,.08-.07.16-.11.23l-.11-.28c-.17-.41-.39-.94-.68-1.69l-2.29-5.85a23.62,23.62,0,0,1-1-2.84c0-.15.07-.34.62-.46l.8-.17c.17-.26.19-.77-.06-.94-1.58.05-2.7.07-3.9.07-.83,0-1.48,0-2.17,0l-1.38,0a.49.49,0,0,0-.22.35.68.68,0,0,0,.13.6l.86.22c1.08.26,1.08.26,2.1,2.78L210.09,275c.2.47.42,1.09.62,1.67s.34,1,.49,1.31a1.12,1.12,0,0,0,.72.21,1.66,1.66,0,0,0,.94-.23c.22-.53.46-1.15.73-1.88.48-1.24,1.06-2.79,1.9-4.77l1.9-4.5a30.29,30.29,0,0,1,2.15-4.36,1.85,1.85,0,0,1,1.41-.9l.69-.14a.74.74,0,0,0,.13-.57C221.74,260.63,221.68,260.5,221.56,260.45Z" transform="translate(-64.83 -83.16)"/><path class="cls-1" d="M211.92,278.3a1.23,1.23,0,0,1-.8-.25l0,0c-.14-.34-.3-.8-.48-1.29v0c-.21-.59-.42-1.2-.61-1.66l-4.22-10.59c-1-2.45-1-2.45-2-2.7l-.91-.23,0,0a.85.85,0,0,1-.16-.71.68.68,0,0,1,.29-.43H203c.53,0,1,0,1.38,0,.69,0,1.33,0,2.17,0,1.26,0,2.42,0,3.9-.08h0l0,0a.91.91,0,0,1,.09,1.12l0,0-.86.18c-.52.12-.52.28-.52.34,0,.23.75,2.09,1,2.8l2.29,5.85c.29.76.51,1.29.67,1.68v0c.09-.25.22-.57.37-.91l.29-.71,1-2.45c.66-1.61,1.72-4.5,2-5.43a3.65,3.65,0,0,0,.25-.88c0-.07,0-.17-.57-.28l-.79-.19,0,0a.76.76,0,0,1-.19-.71.59.59,0,0,1,.33-.45h.05c1.35.06,2.28.08,3.21.08s1.65,0,2.41-.08h.06a.56.56,0,0,1,.27.48.82.82,0,0,1-.17.68l0,0-.73.14a1.72,1.72,0,0,0-1.32.84,29,29,0,0,0-2.15,4.35l-1.89,4.5c-.84,2-1.43,3.52-1.9,4.77l0,.09c-.26.68-.49,1.27-.7,1.79l0,0,0,0A1.86,1.86,0,0,1,211.92,278.3Zm-.62-.42a1,1,0,0,0,.62.17,1.68,1.68,0,0,0,.84-.19c.21-.51.43-1.08.68-1.75l0-.09c.47-1.25,1.06-2.79,1.9-4.78l1.89-4.5a30.3,30.3,0,0,1,2.17-4.38,2,2,0,0,1,1.48-.95l.66-.13a.66.66,0,0,0,.06-.44.4.4,0,0,0-.1-.27c-.76.05-1.54.08-2.39.08s-1.87,0-3.19-.07a.36.36,0,0,0-.16.25.59.59,0,0,0,.1.46l.72.17c.58.12.77.26.77.53a3.63,3.63,0,0,1-.26,1c-.33.93-1.39,3.82-2.06,5.44l-1,2.44-.29.71c-.15.36-.28.68-.38.95l-.23.49-.23-.54c-.16-.39-.39-.93-.68-1.69L210,264.91A17.94,17.94,0,0,1,209,262c0-.29.23-.48.72-.58l.75-.16a.71.71,0,0,0,0-.71c-1.46.05-2.61.08-3.86.08-.84,0-1.49,0-2.17,0-.41,0-.84,0-1.34,0a.34.34,0,0,0-.14.24.59.59,0,0,0,.08.47l.82.21c1.14.28,1.16.33,2.19,2.85l4.21,10.58c.19.48.41,1.08.61,1.67l0,0C211,277.11,211.16,277.55,211.3,277.88Z" transform="translate(-64.83 -83.16)"/><path class="cls-1" d="M237.16,273.3a.52.52,0,0,0-.44.19c-1.46,3-2.36,3-4.55,3-1.89,0-2.37-.21-2.7-.66a4.67,4.67,0,0,1-.4-2.45v-3.1c0-.77,0-.77.69-.77h1.79c1.34,0,1.61.21,1.89,1.43l.14.67a.62.62,0,0,0,.49.17.6.6,0,0,0,.53-.22c0-.82-.07-1.75-.07-2.76s0-1.93.07-2.77c-.08-.15-.32-.2-.51-.2a.72.72,0,0,0-.52.18l-.13.65c-.28,1.22-.53,1.4-1.89,1.4h-1.79c-.68,0-.69,0-.69-.74v-4.55c0-1,0-1,.82-1H232a3.4,3.4,0,0,1,2.52.8,6.15,6.15,0,0,1,1,2.05.7.7,0,0,0,.47.16.56.56,0,0,0,.55-.29c-.08-1.05-.17-2.15-.25-2.95a8.44,8.44,0,0,0-.13-1.11c-.31,0-1.67.07-3.48.07h-5.51c-1.26,0-2.52,0-3.76-.07a.58.58,0,0,0-.23.51.51.51,0,0,0,.19.47l.65.13c1.15.2,1.29.37,1.29,2.72V274c0,2.38-.14,2.54-1.29,2.69l-1.24.19a.53.53,0,0,0-.17.43.66.66,0,0,0,.19.55c2-.06,3.23-.08,4.48-.08h3.38c2.38,0,4.74,0,6,.08h0v0a14.82,14.82,0,0,0,1.1-4.19A.62.62,0,0,0,237.16,273.3Z" transform="translate(-64.83 -83.16)"/><path class="cls-1" d="M222.73,278l0,0a.79.79,0,0,1-.24-.66.63.63,0,0,1,.23-.53l0,0,1.24-.18c1-.14,1.19-.16,1.19-2.57v-9.7c0-2.39-.16-2.41-1.19-2.6l-.7-.15A.65.65,0,0,1,223,261a.75.75,0,0,1,.29-.62h.07c1.3.05,2.56.07,3.76.07h5.51c1.8,0,3.16,0,3.46-.08h.11l0,.11a8,8,0,0,1,.14,1.13c.07.8.17,1.9.25,2.95v.05a.68.68,0,0,1-.67.38.86.86,0,0,1-.56-.19l0,0v0a6.24,6.24,0,0,0-1-2,3.35,3.35,0,0,0-2.43-.75h-2.08c-.7,0-.7,0-.7.85v4.55c0,.62,0,.62.57.62h1.79c1.3,0,1.5-.15,1.77-1.31l.15-.7a.85.85,0,0,1,.62-.22c.11,0,.48,0,.62.26l0,0v0c-.05.86-.07,1.79-.07,2.76s0,1.93.08,2.75v0l0,0a.85.85,0,0,1-1.23.07l0-.05-.14-.66c-.27-1.17-.48-1.33-1.77-1.33h-1.79c-.57,0-.57,0-.57.64v3.1a4.49,4.49,0,0,0,.39,2.38c.29.41.76.6,2.59.6,2.19,0,3,0,4.44-2.92a.64.64,0,0,1,.55-.26.75.75,0,0,1,.71.41v.05a14.54,14.54,0,0,1-1.11,4.23l0,.07-.09,0c-1.29,0-3.64-.08-6-.08h-3.38c-1.28,0-2.61,0-4.47.08Zm.06-1a.47.47,0,0,0-.09.31.59.59,0,0,0,.11.42c1.84,0,3.16-.08,4.43-.08h3.38c2.34,0,4.67,0,5.95.08a14.92,14.92,0,0,0,1.05-4.06.52.52,0,0,0-.46-.22.4.4,0,0,0-.34.14c-1.48,3-2.47,3-4.65,3-1.94,0-2.45-.23-2.8-.71a4.67,4.67,0,0,1-.43-2.52v-3.1c0-.82.06-.89.82-.89h1.79c1.4,0,1.72.24,2,1.52l.13.64a.57.57,0,0,0,.38.11.54.54,0,0,0,.41-.14c0-.81-.08-1.72-.08-2.72s0-1.88.07-2.74a.6.6,0,0,0-.38-.1.65.65,0,0,0-.4.11l-.13.62c-.29,1.28-.59,1.5-2,1.5h-1.79c-.74,0-.82-.08-.82-.87v-4.55c0-1,0-1.1.95-1.1H232a3.54,3.54,0,0,1,2.61.83,6.16,6.16,0,0,1,1,2.07.57.57,0,0,0,.36.11.46.46,0,0,0,.42-.19c-.07-1-.17-2.13-.24-2.92,0-.42-.07-.77-.11-1-.46,0-1.71.07-3.38.07h-5.51c-1.19,0-2.44,0-3.72-.07a.53.53,0,0,0-.15.38.43.43,0,0,0,.12.35l.62.13c1.26.22,1.4.51,1.4,2.84V274c0,2.36-.15,2.65-1.4,2.82Z" transform="translate(-64.83 -83.16)"/><path class="cls-1" d="M257.66,276.93a3.07,3.07,0,0,1-1.72-.72c-1.22-1-2.27-2.92-4-6.49-.14-.29-.11-.41.11-.52a4.28,4.28,0,0,0,.47-7.81,10.86,10.86,0,0,0-5.12-.94c-2.59,0-4.71.11-6.46.23a.55.55,0,0,0-.26.49.49.49,0,0,0,.22.49l.7.11c1,.14,1.11.34,1.11,3V274c0,2.37-.14,2.54-1.29,2.74l-.72.14a.53.53,0,0,0-.17.43.66.66,0,0,0,.19.55c1.43-.06,2.57-.08,3.8-.08s2.38,0,3.84.07a.74.74,0,0,0,.15-.55.55.55,0,0,0-.16-.43l-.7-.13c-1.15-.2-1.3-.37-1.3-2.74v-3.2c0-.49,0-.54.92-.54a1.29,1.29,0,0,1,1.35.89,33.9,33.9,0,0,0,2,4,5.33,5.33,0,0,0,5.08,2.74,6.07,6.07,0,0,0,2.08-.24.56.56,0,0,0,.08-.43A.39.39,0,0,0,257.66,276.93ZM246.33,263c0-1.23,0-1.28,1.08-1.28,2,0,3.37,1.54,3.37,3.82a3.77,3.77,0,0,1-.92,2.78,2.46,2.46,0,0,1-2,.72c-1.54,0-1.58-.08-1.58-1Z" transform="translate(-64.83 -83.16)"/><path class="cls-1" d="M255.71,278a5.45,5.45,0,0,1-5.19-2.81,32.55,32.55,0,0,1-2-4.05,1.18,1.18,0,0,0-1.24-.81c-.8,0-.8,0-.8.41V274c0,2.41.16,2.44,1.2,2.62l.75.15a.64.64,0,0,1,.22.52.87.87,0,0,1-.19.65l0,0h0c-1.56-.05-2.71-.07-3.84-.07s-2.36,0-3.79.08h0l0,0a.79.79,0,0,1-.24-.66.63.63,0,0,1,.23-.53h0l.71-.14c1-.18,1.2-.21,1.2-2.62v-9.21c0-2.66-.09-2.75-1-2.88l-.73-.12a.62.62,0,0,1-.29-.61.63.63,0,0,1,.34-.59h0c1.73-.12,3.85-.24,6.47-.24a11,11,0,0,1,5.18,1,4.4,4.4,0,0,1,2.37,4,4.34,4.34,0,0,1-2.85,4c-.12.07-.17.09-.05.36,1.75,3.55,2.79,5.43,4,6.45a3,3,0,0,0,1.65.69h0a.55.55,0,0,1,.29.4.68.68,0,0,1-.12.53l0,0A6,6,0,0,1,255.71,278Zm-8.46-7.92a1.41,1.41,0,0,1,1.46,1,35.32,35.32,0,0,0,2,4,5.21,5.21,0,0,0,5,2.69,6,6,0,0,0,2-.23.46.46,0,0,0,0-.3.33.33,0,0,0-.13-.21,3.21,3.21,0,0,1-1.76-.74c-1.23-1.05-2.29-2.94-4.06-6.53-.14-.31-.16-.53.17-.69a4.16,4.16,0,0,0,.47-7.59,10.72,10.72,0,0,0-5.06-.93c-2.6,0-4.71.12-6.43.24a.42.42,0,0,0-.16.36.39.39,0,0,0,.13.37l.68.1c1.17.17,1.22.51,1.22,3.13V274c0,2.35-.14,2.64-1.4,2.87l-.69.13a.47.47,0,0,0-.09.31.59.59,0,0,0,.11.42c1.41,0,2.53-.08,3.75-.08s2.25,0,3.79.07a.8.8,0,0,0,.08-.42.44.44,0,0,0-.1-.31l-.67-.12c-1.25-.23-1.4-.52-1.4-2.87v-3.2C246.2,270.17,246.36,270.12,247.25,270.12Zm.66-1c-1.56,0-1.71-.09-1.71-1.08V263c.06-1.28.09-1.4,1.21-1.4,2.09,0,3.5,1.58,3.5,3.94a3.86,3.86,0,0,1-1,2.87A2.56,2.56,0,0,1,247.91,269.15ZM246.45,263v5.07c0,.8,0,.83,1.46.83a2.35,2.35,0,0,0,1.86-.68,3.64,3.64,0,0,0,.89-2.69c0-2.21-1.31-3.69-3.25-3.69C246.5,261.84,246.5,261.84,246.45,263Z" transform="translate(-64.83 -83.16)"/><path class="cls-1" d="M267.79,267.6l-1.72-.91c-1.47-.76-2.35-1.86-2.35-2.93a2.37,2.37,0,0,1,2.62-2.38c1.72,0,2.88,1.65,3.4,3.21a.7.7,0,0,0,.52.19.57.57,0,0,0,.56-.29,11.8,11.8,0,0,0-.5-3.76,6.45,6.45,0,0,1-.88-.2,10.38,10.38,0,0,0-3-.42c-3.69,0-6.07,2-6.07,5,0,2.09,1.35,3.8,4,5.1,1.51.76,3.51,2,3.51,4.1a2.53,2.53,0,0,1-2.77,2.59c-2.2,0-3.92-2.37-4.44-4.06a.61.61,0,0,0-.49-.21.62.62,0,0,0-.57.31c0,1.86.37,3.68.85,4.24a9.07,9.07,0,0,0,4.44,1c3.94,0,6.59-2.13,6.59-5.31C271.47,270.64,270.27,268.92,267.79,267.6Z" transform="translate(-64.83 -83.16)"/><path class="cls-1" d="M264.88,278.3a9.2,9.2,0,0,1-4.5-1l0,0c-.51-.59-.88-2.4-.88-4.32v-.06a.75.75,0,0,1,.68-.38.73.73,0,0,1,.59.26l0,0c.51,1.65,2.19,4,4.32,4a2.43,2.43,0,0,0,2.65-2.47c0-2-2-3.24-3.45-4-2.64-1.32-4-3.07-4-5.21,0-3.11,2.43-5.13,6.19-5.13a10.69,10.69,0,0,1,3,.43,8.26,8.26,0,0,0,.86.2h.07l0,.07a12,12,0,0,1,.51,3.8v0a.69.69,0,0,1-.68.37.81.81,0,0,1-.61-.23l0,0c-.51-1.51-1.64-3.13-3.29-3.13a2.25,2.25,0,0,0-2.49,2.26c0,1,.85,2.08,2.28,2.82l1.71.91c2.53,1.34,3.76,3.1,3.76,5.37C271.6,276.11,268.9,278.3,264.88,278.3Zm-4.35-1.22a8.89,8.89,0,0,0,4.35,1c3.87,0,6.47-2.09,6.47-5.19,0-2.17-1.19-3.85-3.62-5.15L266,266.8c-1.51-.79-2.41-1.92-2.41-3a2.49,2.49,0,0,1,2.74-2.51c1.77,0,3,1.69,3.51,3.27a.63.63,0,0,0,.41.13.49.49,0,0,0,.44-.19,12.43,12.43,0,0,0-.47-3.62,6.07,6.07,0,0,1-.82-.19,10.2,10.2,0,0,0-2.94-.42c-3.61,0-5.94,1.92-5.94,4.88,0,2,1.32,3.71,3.87,5,1.54.77,3.59,2,3.59,4.21a2.66,2.66,0,0,1-2.9,2.72c-2.25,0-4-2.41-4.55-4.13a.51.51,0,0,0-.38-.15.49.49,0,0,0-.44.22A8.23,8.23,0,0,0,260.53,277.08Z" transform="translate(-64.83 -83.16)"/><path class="cls-1" d="M282.23,261.56l.75-.14a.64.64,0,0,0,.17-.48.58.58,0,0,0-.2-.49c-1.42.05-2.71.07-3.92.07s-2.53,0-4-.07a.67.67,0,0,0-.17.49.62.62,0,0,0,.19.49l.73.13c1.17.2,1.32.37,1.32,2.8v9.57c0,2.42-.15,2.59-1.32,2.79l-.75.14a.64.64,0,0,0-.17.48.62.62,0,0,0,.2.5c1.42-.06,2.71-.08,3.95-.08s2.47,0,3.9.08h0a.72.72,0,0,0,.18-.52.56.56,0,0,0-.17-.46l-.73-.13c-1.17-.2-1.32-.37-1.32-2.79v-9.57C280.91,261.93,281.06,261.76,282.23,261.56Z" transform="translate(-64.83 -83.16)"/><path class="cls-1" d="M275,278l0,0a.72.72,0,0,1-.25-.6.75.75,0,0,1,.22-.58l0,0,.75-.14c1.05-.18,1.21-.21,1.21-2.67v-9.57c0-2.47-.16-2.49-1.21-2.68l-.78-.15a.73.73,0,0,1-.24-.59.81.81,0,0,1,.22-.59l0,0h.05c1.54.05,2.8.07,4,.07s2.5,0,3.92-.08h0l0,0a.72.72,0,0,1,.25.6.75.75,0,0,1-.22.58l-.05,0-.75.14c-1.05.19-1.21.21-1.21,2.68v9.57c0,2.46.16,2.49,1.21,2.67l.78.15a.64.64,0,0,1,.23.56.79.79,0,0,1-.24.62l0,0h-.06c-1.43,0-2.7-.08-3.9-.08s-2.53,0-3.95.08Zm4-.33c1.19,0,2.45,0,3.86.08a.65.65,0,0,0,.12-.4.51.51,0,0,0-.1-.34l-.7-.12c-1.28-.23-1.42-.53-1.42-2.92v-9.57c0-2.4.14-2.7,1.42-2.92l.71-.14a.55.55,0,0,0,.1-.36.56.56,0,0,0-.11-.37c-1.4.05-2.68.08-3.88.08s-2.41,0-3.93-.07a.58.58,0,0,0-.09.36.56.56,0,0,0,.11.37l.7.13c1.28.22,1.42.52,1.42,2.92v9.57c0,2.39-.14,2.69-1.42,2.92l-.71.13a.57.57,0,0,0-.1.36.56.56,0,0,0,.11.37C276.52,277.66,277.8,277.63,279,277.63Z" transform="translate(-64.83 -83.16)"/><path class="cls-1" d="M302.17,259.87a.62.62,0,0,0-.37.1c-.23.53-.63.55-2.31.55h-9.67c-2,0-2-.11-2.17-.53a.56.56,0,0,0-.38-.12.62.62,0,0,0-.4.16c-.05.27-.09.58-.14.92a24,24,0,0,1-.72,3.53.65.65,0,0,0,.63.33.85.85,0,0,0,.4-.1c.77-1.86,1.29-2.92,3.19-2.92h1.61c.59,0,.59.1.59.72V274c0,2.4-.14,2.56-1.29,2.74l-1.19.14a.76.76,0,0,0,0,1c1.82-.06,3.18-.08,4.42-.08s2.47,0,4.16.08h0a.7.7,0,0,0,.15-.49.66.66,0,0,0-.17-.49l-1-.13c-1.15-.18-1.3-.34-1.3-2.74V262.51c0-.65.07-.72.67-.72h1.56c2,0,2.3,1.26,2.72,2.87.09.13.33.15.42.15.24,0,.52-.07.61-.25a18.82,18.82,0,0,1,.39-4.49A.6.6,0,0,0,302.17,259.87Z" transform="translate(-64.83 -83.16)"/><path class="cls-1" d="M289.94,278l0,0a.74.74,0,0,1-.24-.6.75.75,0,0,1,.22-.58l0,0,1.23-.14c1-.16,1.18-.19,1.18-2.62V262.51c0-.59,0-.59-.47-.59h-1.61c-1.82,0-2.31,1-3.07,2.84l0,0,0,0a.9.9,0,0,1-.46.12.76.76,0,0,1-.74-.41l0,0v0a23.21,23.21,0,0,0,.71-3.49c0-.36.1-.67.15-.94v0l0,0a.76.76,0,0,1,.94-.05l0,0v0c.11.35.14.45,2.05.45h9.67c1.69,0,2,0,2.19-.47l0,0,0,0a.76.76,0,0,1,.44-.12.72.72,0,0,1,.52.25l0,.05v.06a18.62,18.62,0,0,0-.38,4.45v0l0,0a.81.81,0,0,1-.72.31.61.61,0,0,1-.52-.2l0,0c-.43-1.61-.74-2.77-2.6-2.77h-1.56c-.52,0-.54,0-.54.59V274c0,2.43.16,2.46,1.19,2.62l1.07.13,0,0a.78.78,0,0,1,.21.58.82.82,0,0,1-.19.58l0,0h-.06c-1.77,0-3.06-.08-4.17-.08s-2.49,0-4.41.08Zm4.45-.33c1.11,0,2.38,0,4.12.08a.65.65,0,0,0,.09-.37.61.61,0,0,0-.1-.37l-1-.12c-1.26-.2-1.4-.49-1.4-2.87V262.51c0-.72.12-.84.79-.84h1.56c2.06,0,2.42,1.37,2.84,2.95a.53.53,0,0,0,.3.06.7.7,0,0,0,.49-.15,19.19,19.19,0,0,1,.37-4.42.5.5,0,0,0-.28-.11.58.58,0,0,0-.28.06c-.27.59-.82.59-2.4.59h-9.67c-1.9,0-2.11-.08-2.27-.59a.52.52,0,0,0-.56,0c-.05.26-.09.55-.14.87a23.57,23.57,0,0,1-.7,3.49.53.53,0,0,0,.49.23.6.6,0,0,0,.3-.07c.76-1.83,1.33-2.95,3.29-2.95h1.61c.69,0,.72.19.72.84V274c0,2.38-.15,2.67-1.4,2.87L290,277a.68.68,0,0,0-.09.36.56.56,0,0,0,.11.37C291.92,277.66,293.23,277.63,294.39,277.63Z" transform="translate(-64.83 -83.16)"/><path class="cls-1" d="M321.3,260.45c-.78.05-1.59.07-2.55.07s-1.84,0-2.93-.07a.49.49,0,0,0-.2.44.62.62,0,0,0,.19.54l.6.1c.59.1.85.2.85.33a11.61,11.61,0,0,1-1.35,3c-.22.42-.45.86-.67,1.3-.41.79-.82,1.58-1.2,2.33l-.26.46c-.31-.65-.8-1.68-1.18-2.53l-1.23-2.78a6.64,6.64,0,0,1-.67-1.79,1.34,1.34,0,0,1,.6-.21l.9-.22a.7.7,0,0,0,.15-.6.44.44,0,0,0-.23-.37c-.87.05-2.19.07-3.8.07s-2.54,0-3.67-.07a.37.37,0,0,0-.26.31.69.69,0,0,0,.16.67l.88.15c.9.18,1.12.56,1.64,1.62l3.09,6.4a5.3,5.3,0,0,1,.7,3.08V274c0,2.4-.14,2.56-1.29,2.74l-.9.14a.76.76,0,0,0,0,1c1.58-.06,2.88-.08,4.08-.08s2.52,0,4.21.08h0a.7.7,0,0,0,.15-.49.66.66,0,0,0-.17-.49l-1-.13c-1.15-.18-1.3-.34-1.3-2.74v-1.82a5.7,5.7,0,0,1,.93-3.34l1.64-3a30,30,0,0,1,2.29-3.69,2.1,2.1,0,0,1,1.22-.61l.7-.14a.69.69,0,0,0,.14-.62A.41.41,0,0,0,321.3,260.45Z" transform="translate(-64.83 -83.16)"/><path class="cls-1" d="M308.65,278l0,0a.75.75,0,0,1-.25-.6.79.79,0,0,1,.22-.58l.06,0,.9-.14c1-.16,1.19-.19,1.19-2.62v-1.3a5.21,5.21,0,0,0-.69-3L307,263.26c-.51-1.05-.71-1.39-1.55-1.55l-.92-.16,0,0a.81.81,0,0,1-.21-.79.51.51,0,0,1,.36-.4h0c1.12.05,2.08.08,3.66.08s2.92,0,3.79-.08h.06a.57.57,0,0,1,.3.47.78.78,0,0,1-.19.71l0,0-.9.22a2.18,2.18,0,0,0-.5.15,10.67,10.67,0,0,0,.66,1.68l1.22,2.78c.39.86.85,1.83,1.08,2.31l.06-.11.08-.14,1.06-2.06.15-.3c.22-.43.44-.86.66-1.27a15,15,0,0,0,1.33-2.94s-.09-.1-.75-.2l-.64-.12a.76.76,0,0,1-.25-.66.59.59,0,0,1,.28-.54l0,0h0c1.13.05,2,.07,2.92.07s1.76,0,2.54-.08h0a.52.52,0,0,1,.36.44.82.82,0,0,1-.18.74l0,0-.72.14a1.94,1.94,0,0,0-1.15.57,28.82,28.82,0,0,0-2.28,3.67l-1.64,3a5.6,5.6,0,0,0-.91,3.28V274c0,2.43.16,2.46,1.19,2.62l1.07.13,0,0a.78.78,0,0,1,.21.58.82.82,0,0,1-.19.58l0,0H317c-1.82-.06-3-.08-4.22-.08s-2.5,0-4.08.08Zm4.12-.33c1.17,0,2.38,0,4.17.08a.65.65,0,0,0,.09-.37.61.61,0,0,0-.1-.37l-1-.12c-1.26-.2-1.4-.49-1.4-2.87v-1.82a5.83,5.83,0,0,1,.94-3.4l1.64-3a29.17,29.17,0,0,1,2.3-3.71,2.19,2.19,0,0,1,1.3-.65l.65-.14a.55.55,0,0,0,.08-.48.31.31,0,0,0-.16-.25c-.77.06-1.58.08-2.53.08s-1.78,0-2.89-.07a.43.43,0,0,0-.12.32.53.53,0,0,0,.12.41l.57.1c.7.12.95.23.95.45s-.15.8-1.36,3.06c-.22.41-.43.83-.66,1.27l-.15.3-1.06,2.06-.08.15-.18.31-.12.2-.1-.21c-.16-.33-.72-1.51-1.19-2.53l-1.22-2.78a6.89,6.89,0,0,1-.69-1.84v0l0,0a1.48,1.48,0,0,1,.67-.26l.86-.2a.64.64,0,0,0,.1-.47.41.41,0,0,0-.14-.27c-.87.05-2.17.08-3.77.08s-2.53,0-3.65-.08a.3.3,0,0,0-.16.22.59.59,0,0,0,.1.52l.84.15c1,.19,1.22.63,1.73,1.69l3.1,6.39a5.42,5.42,0,0,1,.71,3.14V274c0,2.38-.15,2.67-1.4,2.87l-.87.13a.57.57,0,0,0-.1.36.56.56,0,0,0,.11.37C310.29,277.66,311.58,277.63,312.77,277.63Z" transform="translate(-64.83 -83.16)"/><path class="cls-1" d="M341.11,260.11a8.94,8.94,0,0,0-9.32,9.16c0,5.33,3.64,8.9,9.06,8.9,5.72,0,9.42-3.57,9.42-9.11C350.27,263.79,346.5,260.11,341.11,260.11Zm.23,16.79c-3.92,0-5.32-4.43-5.32-8.23,0-4.57,1.83-7.29,4.88-7.29s5.14,3.3,5.14,8C346,272.2,345.43,276.9,341.34,276.9Z" transform="translate(-64.83 -83.16)"/><path class="cls-1" d="M340.85,278.3c-5.49,0-9.18-3.63-9.18-9a9.06,9.06,0,0,1,9.44-9.29c5.47,0,9.29,3.74,9.29,9.08C350.4,274.67,346.65,278.3,340.85,278.3Zm.26-18.07a8.81,8.81,0,0,0-9.19,9c0,5.25,3.59,8.78,8.93,8.78,5.65,0,9.3-3.53,9.3-9C350.15,263.86,346.43,260.23,341.11,260.23Zm.23,16.8c-4,0-5.44-4.5-5.44-8.36,0-4.64,1.87-7.42,5-7.42s5.26,3.35,5.26,8.15C346.16,272.25,345.54,277,341.34,277Zm-.44-15.53c-3,0-4.75,2.68-4.75,7.17,0,3.74,1.36,8.11,5.19,8.11,4,0,4.57-4.62,4.57-7.38C345.91,264.75,343.85,261.5,340.9,261.5Z" transform="translate(-64.83 -83.16)"/><path class="cls-1" d="M393.68,259.87a.66.66,0,0,0-.37.1c-.22.53-.63.55-2.3.55h-9.68c-2,0-2-.11-2.16-.53a.58.58,0,0,0-.38-.12.62.62,0,0,0-.4.16c-.05.27-.1.58-.14.92a24,24,0,0,1-.72,3.53.65.65,0,0,0,.62.33.86.86,0,0,0,.41-.1c.77-1.86,1.29-2.92,3.19-2.92h1.61c.59,0,.59.1.59.72V274c0,2.4-.15,2.56-1.29,2.74l-1.19.14a.76.76,0,0,0,0,1c1.82-.06,3.17-.08,4.42-.08s2.47,0,4.16.08h0a.7.7,0,0,0,.15-.49.69.69,0,0,0-.16-.49l-1-.13c-1.15-.18-1.3-.34-1.3-2.74V262.51c0-.65.06-.72.67-.72H390c2,0,2.29,1.26,2.72,2.87a.55.55,0,0,0,.42.15c.23,0,.52-.07.61-.25a18.82,18.82,0,0,1,.39-4.49A.62.62,0,0,0,393.68,259.87Z" transform="translate(-64.83 -83.16)"/><path class="cls-1" d="M381.45,278l0,0a.75.75,0,0,1-.25-.6.79.79,0,0,1,.22-.58l0,0,1.22-.14c1-.16,1.19-.19,1.19-2.62V262.51c0-.59,0-.59-.47-.59h-1.61c-1.82,0-2.31,1-3.08,2.84v0l0,0a.94.94,0,0,1-.47.12.76.76,0,0,1-.73-.41l0,0v0a23.21,23.21,0,0,0,.71-3.49c.05-.36.1-.67.14-.94v0l0,0a.76.76,0,0,1,.94-.05l0,0v0c.11.35.14.45,2,.45H391c1.69,0,2,0,2.19-.47v0l0,0a.74.74,0,0,1,1,.13l0,.05v.06a18.12,18.12,0,0,0-.38,4.45v0l0,0a.81.81,0,0,1-.72.31.6.6,0,0,1-.52-.2l0,0c-.43-1.61-.74-2.77-2.6-2.77h-1.56c-.52,0-.54,0-.54.59V274c0,2.43.15,2.46,1.19,2.62l1.07.13,0,0a.75.75,0,0,1,.22.58.87.87,0,0,1-.19.58l0,0h-.06c-1.78,0-3.06-.08-4.17-.08s-2.49,0-4.41.08Zm4.46-.33c1.11,0,2.38,0,4.12.08a.65.65,0,0,0,.09-.37.61.61,0,0,0-.1-.37l-1-.12c-1.26-.2-1.4-.49-1.4-2.87V262.51c0-.72.11-.84.79-.84H390c2,0,2.42,1.37,2.84,2.95a.53.53,0,0,0,.3.06.65.65,0,0,0,.48-.15,19.71,19.71,0,0,1,.38-4.42.51.51,0,0,0-.29-.11.57.57,0,0,0-.27.06c-.27.59-.83.59-2.4.59h-9.67c-1.9,0-2.11-.08-2.27-.59a.54.54,0,0,0-.57,0c0,.26-.08.55-.13.87a23.57,23.57,0,0,1-.7,3.49.52.52,0,0,0,.48.23.64.64,0,0,0,.31-.07c.76-1.83,1.33-2.95,3.29-2.95h1.61c.68,0,.72.19.72.84V274c0,2.38-.15,2.67-1.4,2.87l-1.16.13a.59.59,0,0,0-.1.36.56.56,0,0,0,.11.37C383.44,277.66,384.75,277.63,385.91,277.63Z" transform="translate(-64.83 -83.16)"/><path class="cls-1" d="M405.52,260.11a8.94,8.94,0,0,0-9.32,9.16c0,5.33,3.64,8.9,9.06,8.9,5.72,0,9.42-3.57,9.42-9.11C414.68,263.79,410.91,260.11,405.52,260.11Zm.23,16.79c-3.92,0-5.32-4.43-5.32-8.23,0-4.57,1.82-7.29,4.88-7.29s5.14,3.3,5.14,8C410.45,272.2,409.84,276.9,405.75,276.9Z" transform="translate(-64.83 -83.16)"/><path class="cls-1" d="M405.26,278.3c-5.5,0-9.19-3.63-9.19-9a9.07,9.07,0,0,1,9.45-9.29c5.47,0,9.28,3.74,9.28,9.08C414.8,274.67,411.06,278.3,405.26,278.3Zm.26-18.07a8.82,8.82,0,0,0-9.2,9c0,5.25,3.59,8.78,8.94,8.78,5.65,0,9.29-3.53,9.29-9C414.55,263.86,410.84,260.23,405.52,260.23Zm.23,16.8c-4,0-5.44-4.5-5.44-8.36,0-4.64,1.87-7.42,5-7.42s5.26,3.35,5.26,8.15C410.57,272.25,410,277,405.75,277Zm-.44-15.53c-3,0-4.75,2.68-4.75,7.17,0,3.74,1.36,8.11,5.19,8.11,4,0,4.57-4.62,4.57-7.38C410.32,264.75,408.26,261.5,405.31,261.5Z" transform="translate(-64.83 -83.16)"/><path class="cls-1" d="M432.52,273.25a.5.5,0,0,0-.41.16c-1.5,3-2.19,3.08-4.6,3.08-1.87,0-2.34-.2-2.67-.64a4.1,4.1,0,0,1-.44-2.45v-9.1c0-2.4.15-2.56,1.3-2.77l.69-.11a.61.61,0,0,0,.17-.48.58.58,0,0,0-.19-.49c-1.3.05-2.6.07-3.85.07s-2.54,0-3.91-.07a.52.52,0,0,0-.26.48.55.55,0,0,0,.21.5l.76.1c1.15.21,1.29.37,1.29,2.77V274c0,2.4-.14,2.56-1.29,2.74l-1,.14a.52.52,0,0,0-.14.43.69.69,0,0,0,.24.55c1.62-.06,2.92-.08,4.11-.08H426c2.38,0,4.74,0,6,.08h0v0a15.71,15.71,0,0,0,1.12-4.25A.75.75,0,0,0,432.52,273.25Z" transform="translate(-64.83 -83.16)"/><path class="cls-1" d="M418.38,278l0,0a.79.79,0,0,1-.31-.65.65.65,0,0,1,.2-.53l0,0,1-.14c1-.16,1.19-.19,1.19-2.62V264.3c0-2.43-.16-2.46-1.19-2.64l-.8-.12a.74.74,0,0,1,.05-1.2l0,0h0c1.41,0,2.73.07,3.91.07s2.54,0,3.84-.08h.05l0,0a.75.75,0,0,1,.25.6.79.79,0,0,1-.22.58l-.06,0-.69.11c-1,.18-1.19.21-1.19,2.64v9.1a4.16,4.16,0,0,0,.4,2.37c.32.41.76.59,2.58.59,2.4,0,3-.11,4.49-3a.62.62,0,0,1,.52-.24.88.88,0,0,1,.75.39l0,0v0a16.12,16.12,0,0,1-1.13,4.29l0,.07-.09,0c-1.29,0-3.64-.08-6-.08h-3.49c-1.15,0-2.42,0-4.1.08Zm0-1a.53.53,0,0,0-.08.31.66.66,0,0,0,.16.42c1.67,0,2.92-.08,4.07-.08H426c2.34,0,4.67,0,5.95.08A16.36,16.36,0,0,0,433,273.6a.68.68,0,0,0-.51-.23.38.38,0,0,0-.31.12c-1.52,3-2.28,3.12-4.7,3.12-1.92,0-2.41-.21-2.77-.68a4.29,4.29,0,0,1-.46-2.53v-9.1c0-2.37.14-2.67,1.4-2.89l.66-.11a.55.55,0,0,0,.1-.36.56.56,0,0,0-.11-.37c-1.29.05-2.57.08-3.81.08s-2.48,0-3.88-.07a.43.43,0,0,0-.17.36.44.44,0,0,0,.14.37l.72.1c1.26.22,1.41.52,1.41,2.89V274c0,2.38-.15,2.67-1.4,2.87Z" transform="translate(-64.83 -83.16)"/><path class="cls-1" d="M449.71,273.3a.52.52,0,0,0-.44.19c-1.46,3-2.36,3-4.55,3-1.89,0-2.37-.21-2.7-.66a4.67,4.67,0,0,1-.4-2.45v-3.1c0-.77,0-.77.69-.77h1.79c1.34,0,1.61.21,1.89,1.43l.14.67a.62.62,0,0,0,.49.17.6.6,0,0,0,.53-.22c0-.84-.07-1.76-.07-2.76s0-1.92.07-2.77c-.08-.15-.32-.2-.51-.2a.72.72,0,0,0-.52.18l-.13.65c-.28,1.22-.53,1.4-1.89,1.4h-1.79c-.68,0-.69,0-.69-.74v-4.55c0-1,0-1,.82-1h2.08a3.4,3.4,0,0,1,2.52.8,6.15,6.15,0,0,1,1,2.05.7.7,0,0,0,.47.16.56.56,0,0,0,.55-.29c-.08-1.05-.17-2.15-.25-2.95a8.44,8.44,0,0,0-.13-1.11c-.31,0-1.67.07-3.48.07h-5.51c-1.26,0-2.52,0-3.76-.07a.58.58,0,0,0-.23.51.51.51,0,0,0,.19.47l.65.13c1.15.2,1.29.37,1.29,2.72V274c0,2.38-.14,2.54-1.29,2.69l-1.24.19a.53.53,0,0,0-.17.43.66.66,0,0,0,.19.55c1.95-.06,3.23-.08,4.47-.08h3.39c2.38,0,4.74,0,6,.08h0v0a14.82,14.82,0,0,0,1.1-4.19A.62.62,0,0,0,449.71,273.3Z" transform="translate(-64.83 -83.16)"/><path class="cls-1" d="M435.28,278l0,0a.79.79,0,0,1-.24-.66.63.63,0,0,1,.23-.53l0,0,1.24-.18c1-.14,1.19-.16,1.19-2.57v-9.7c0-2.39-.16-2.41-1.19-2.6l-.7-.15a.65.65,0,0,1-.25-.57.75.75,0,0,1,.29-.62h.07c1.29.05,2.56.07,3.76.07h5.51c1.8,0,3.16,0,3.46-.08h.11l0,.11a8,8,0,0,1,.14,1.13c.07.8.17,1.9.25,2.95v.05a.68.68,0,0,1-.67.38.81.81,0,0,1-.55-.19l0,0v0a6.24,6.24,0,0,0-1-2,3.35,3.35,0,0,0-2.43-.75h-2.08c-.7,0-.7,0-.7.85v4.55c0,.62,0,.62.57.62h1.79c1.3,0,1.5-.15,1.77-1.31l.15-.7a.85.85,0,0,1,.62-.22c.11,0,.48,0,.62.26l0,0v0c0,.88-.07,1.81-.07,2.76s0,1.92.08,2.75v0l0,0a.85.85,0,0,1-1.23.07l0-.05-.13-.66c-.27-1.17-.48-1.33-1.77-1.33h-1.79c-.57,0-.57,0-.57.64v3.1a4.49,4.49,0,0,0,.39,2.38c.29.41.76.6,2.59.6,2.19,0,3,0,4.44-2.92a.64.64,0,0,1,.55-.26.75.75,0,0,1,.71.41v.05a14.54,14.54,0,0,1-1.11,4.23l0,.07-.09,0c-1.29,0-3.65-.08-6-.08h-3.39c-1.27,0-2.6,0-4.46.08Zm.06-1a.47.47,0,0,0-.09.31.59.59,0,0,0,.11.42c1.84,0,3.16-.08,4.42-.08h3.39c2.34,0,4.67,0,5.95.08a14.92,14.92,0,0,0,1.05-4.06.52.52,0,0,0-.46-.22.4.4,0,0,0-.34.14c-1.48,3-2.47,3-4.65,3-1.94,0-2.45-.23-2.8-.71a4.67,4.67,0,0,1-.43-2.52v-3.1c0-.82.06-.89.82-.89h1.79c1.4,0,1.72.24,2,1.52l.13.64a.57.57,0,0,0,.38.11.54.54,0,0,0,.41-.14c0-.82-.08-1.74-.08-2.72s0-1.86.07-2.73a.54.54,0,0,0-.38-.11.65.65,0,0,0-.4.11l-.13.62c-.29,1.28-.59,1.5-2,1.5h-1.79c-.74,0-.82-.08-.82-.87v-4.55c0-1,0-1.1.95-1.1h2.08a3.54,3.54,0,0,1,2.61.83,6.16,6.16,0,0,1,1,2.07.59.59,0,0,0,.36.11.46.46,0,0,0,.42-.19c-.07-1-.17-2.13-.24-2.92,0-.42-.07-.77-.11-1-.46,0-1.71.07-3.38.07h-5.51c-1.19,0-2.44,0-3.72-.07a.53.53,0,0,0-.15.38.43.43,0,0,0,.12.35l.62.13c1.26.22,1.4.51,1.4,2.84V274c0,2.36-.15,2.65-1.4,2.82Z" transform="translate(-64.83 -83.16)"/><path class="cls-1" d="M466.63,261.31a17.88,17.88,0,0,0-6.07-.86c-2.81,0-4.9.11-7,.23-.13,0-.22.13-.26.32a.64.64,0,0,0,.2.66l.5,0c1.17.13,1.21.65,1.21,3.06V274c0,2.37-.14,2.54-1.29,2.74l-.82.14a.53.53,0,0,0-.17.43.66.66,0,0,0,.19.55c1.51-.06,2.83-.08,4.05-.08.44,0,1,0,1.51.07s1.3.08,2,.08a14.67,14.67,0,0,0,6.6-1.22,8.37,8.37,0,0,0,4.67-7.81A8,8,0,0,0,466.63,261.31Zm-4.95,15.33a2.71,2.71,0,0,1-2.13-.74c-.48-.55-.51-1.54-.51-2.89v-9.49a3.11,3.11,0,0,1,.17-1.48c.15-.21.65-.33,1.32-.33,4.61,0,7.14,2.64,7.14,7.43C467.67,272.77,466.1,276.64,461.68,276.64Z" transform="translate(-64.83 -83.16)"/><path class="cls-1" d="M460.66,278c-.65,0-1.32-.05-2-.09s-1.05-.07-1.5-.07c-1.22,0-2.55,0-4.05.08h0l0,0a.8.8,0,0,1-.25-.66.66.66,0,0,1,.23-.53l.05,0,.82-.13c1-.18,1.19-.21,1.19-2.62v-9.21c0-2.46-.07-2.82-1.11-2.93l-.53-.07c-.25-.11-.33-.5-.27-.8s.18-.4.37-.41c2.07-.13,4.16-.24,7-.24a18.11,18.11,0,0,1,6.11.87h0a8.07,8.07,0,0,1,5.39,7.69,8.49,8.49,0,0,1-4.75,7.92A14.71,14.71,0,0,1,460.66,278Zm-3.46-.41c.45,0,1,0,1.51.07s1.3.09,2,.09a14.36,14.36,0,0,0,6.54-1.22,8.24,8.24,0,0,0,4.61-7.69,7.84,7.84,0,0,0-5.22-7.46h0a18,18,0,0,0-6-.85c-2.82,0-4.9.11-7,.24-.1,0-.14.16-.15.21a.59.59,0,0,0,.12.52l.47,0c1.33.15,1.33.85,1.33,3.18V274c0,2.35-.14,2.64-1.4,2.87l-.79.13a.46.46,0,0,0-.1.31.65.65,0,0,0,.11.42C454.68,277.66,456,277.63,457.2,277.63Zm4.48-.86a2.88,2.88,0,0,1-2.23-.78c-.5-.59-.54-1.6-.54-3v-9.49a3.12,3.12,0,0,1,.2-1.56c.24-.32,1-.37,1.42-.37,4.69,0,7.27,2.68,7.27,7.55C467.8,272.83,466.19,276.77,461.68,276.77Zm-1.15-14.93c-.75,0-1.13.15-1.22.27a3.52,3.52,0,0,0-.15,1.41V273c0,1.32,0,2.29.48,2.81a2.65,2.65,0,0,0,2,.7c4.33,0,5.87-3.81,5.87-7.38C467.55,264.43,465.06,261.84,460.53,261.84Z" transform="translate(-64.83 -83.16)"/><path class="cls-1" d="M485.26,260.11a8.94,8.94,0,0,0-9.32,9.16c0,5.33,3.64,8.9,9.06,8.9,5.72,0,9.42-3.57,9.42-9.11C494.42,263.79,490.65,260.11,485.26,260.11Zm.23,16.79c-3.92,0-5.32-4.43-5.32-8.23,0-4.57,1.83-7.29,4.88-7.29s5.14,3.3,5.14,8C490.19,272.2,489.58,276.9,485.49,276.9Z" transform="translate(-64.83 -83.16)"/><path class="cls-1" d="M485,278.3c-5.49,0-9.18-3.63-9.18-9a9.06,9.06,0,0,1,9.44-9.29c5.47,0,9.29,3.74,9.29,9.08C494.55,274.67,490.8,278.3,485,278.3Zm.26-18.07a8.81,8.81,0,0,0-9.19,9c0,5.25,3.59,8.78,8.93,8.78,5.65,0,9.3-3.53,9.3-9C494.3,263.86,490.58,260.23,485.26,260.23Zm.23,16.8c-4,0-5.44-4.5-5.44-8.36,0-4.64,1.87-7.42,5-7.42s5.26,3.35,5.26,8.15C490.31,272.25,489.69,277,485.49,277Zm-.44-15.53c-3,0-4.75,2.68-4.75,7.17,0,3.74,1.36,8.11,5.19,8.11,4,0,4.57-4.62,4.57-7.38C490.06,264.75,488,261.5,485.05,261.5Z" transform="translate(-64.83 -83.16)"/><path class="cls-1" d="M151.53,302.83h22v7.9H161.2v6.34h11.54v7.6H161.2V340h-9.67Z" transform="translate(-64.83 -83.16)"/><path class="cls-1" d="M190,302.1c9.88,0,13.26,5.41,13.26,19.29s-3.38,19.29-13.26,19.29-13.26-5.41-13.26-19.29S180.13,302.1,190,302.1Zm0,32c3,0,3.27-2.7,3.27-12.74S193,308.65,190,308.65s-3.28,2.7-3.28,12.74S187,334.13,190,334.13Z" transform="translate(-64.83 -83.16)"/><path class="cls-1" d="M217.31,302.83v26.78c0,3.58,1.09,4.52,2.91,4.52s2.91-.94,2.91-4.52V302.83h9.67v24.33c0,10.4-4.47,13.52-12.58,13.52s-12.58-3.12-12.58-13.52V302.83Z" transform="translate(-64.83 -83.16)"/><path class="cls-1" d="M238.26,302.83h10.82l6.24,22.88h.1V302.83h9.05V340H253.86L247.42,317h-.11V340h-9.05Z" transform="translate(-64.83 -83.16)"/><path class="cls-1" d="M270.35,302.83h14c11.18,0,11.75,8.84,11.75,18.56S295.57,340,284.39,340h-14ZM280,333h1.92c3.75,0,4.22-1.56,4.22-11.6s-.47-11.6-4.22-11.6H280Z" transform="translate(-64.83 -83.16)"/><path class="cls-1" d="M306.64,302.83h12.17L327.86,340h-10.3l-1-6.51h-7.7l-1,6.51H297.6Zm6.14,7.59h-.1L310,326.17h5.41Z" transform="translate(-64.83 -83.16)"/><path class="cls-1" d="M332.8,311h-7.28v-8.21h24.23V311h-7.28V340H332.8Z" transform="translate(-64.83 -83.16)"/><path class="cls-1" d="M352.87,302.83h9.67V340h-9.67Z" transform="translate(-64.83 -83.16)"/><path class="cls-1" d="M380.22,302.1c9.88,0,13.26,5.41,13.26,19.29s-3.38,19.29-13.26,19.29S367,335.27,367,321.39,370.34,302.1,380.22,302.1Zm0,32c3,0,3.28-2.7,3.28-12.74s-.31-12.74-3.28-12.74-3.27,2.7-3.27,12.74S377.26,334.13,380.22,334.13Z" transform="translate(-64.83 -83.16)"/><path class="cls-1" d="M398.27,302.83h10.81l6.24,22.88h.11V302.83h9.05V340H413.87L407.42,317h-.1V340h-9.05Z" transform="translate(-64.83 -83.16)"/><path class="cls-1" d="M287.91,231.53l-.67-.43c-.4-.26-40.19-26.22-53.2-72.57-8.38-29.88-7.08-51.42-7.07-51.64l.09-1.3,1.29.13c.18,0,17.67,1.74,31.33-1.14A114.58,114.58,0,0,0,287.3,94.8l.59-.33.6.32a118.11,118.11,0,0,0,27.83,9.79c13.67,2.88,31.15,1.16,31.33,1.14l1.29-.13.09,1.3c0,.22,1.31,21.76-7.07,51.64-13,46.35-53,72.31-53.36,72.57ZM229.44,108.35c-.13,5-.07,24.2,7,49.5,11.82,42.11,46.17,67.05,51.45,70.67,5.29-3.62,39.8-28.58,51.61-70.67,7.11-25.33,7.17-44.49,7-49.5-4.42.35-18.79,1.23-30.77-1.3a122.57,122.57,0,0,1-27.9-9.73,118.18,118.18,0,0,1-27.7,9.73C248.22,109.57,233.86,108.7,229.44,108.35Z" transform="translate(-64.83 -83.16)"/></g></svg>