<svg xmlns="http://www.w3.org/2000/svg" viewBox="0 0 591.41 159.52"><defs><style>.cls-1{fill:#fff;}</style></defs><g id="_1-Color" data-name="1-Color"><path class="cls-1" d="M227.23,69.11c-42.66,9.26-69.84-12.5-69.84-12.5S130.2,78.37,87.55,69.11c0,34.84-1,98.17,69.86,147C228.27,167.28,227.23,104,227.23,69.11Zm-14.89,62.77c-13.25,47.21-53.94,73.64-54.35,73.9l-.69.45-.69-.45c-.41-.26-40.92-26.69-54.17-73.9-8.54-30.43-7.22-52.37-7.21-52.59L95.32,78l1.32.14c.18,0,18,1.77,31.9-1.16a115.9,115.9,0,0,0,28.13-10l.61-.33.61.33a120.15,120.15,0,0,0,28.34,10c13.92,2.93,31.72,1.18,31.9,1.16l1.32-.14.09,1.33C219.56,79.51,220.88,101.45,212.34,131.88Z" transform="translate(-87.55 -56.61)"/><path class="cls-1" d="M215.94,81.8c-4.42.35-18.78,1.22-30.76-1.3a122.42,122.42,0,0,1-27.89-9.73,118,118,0,0,1-27.7,9.73c-12,2.52-26.33,1.65-30.75,1.3-.13,5-.07,24.19,7,49.48,11.82,42.11,46.16,67,51.44,70.65,5.28-3.62,39.78-28.57,51.59-70.65C216,106,216.07,86.81,215.94,81.8Zm-83.79,62.66c-7.79,0-13.19-2.61-16.05-7.76-1.54-2.73-2.31-7.35-2.31-11.76V103.37c0-2.92-.54-3.85-.86-4.14s-1.39-.88-4.51-1.13l-.87-.06V95H129V98l-.87.06c-3.18.22-4.24.78-4.59,1.1s-.87,1.22-.87,4.17v22.07c0,3.46.46,7.17,1.39,9.05,1.68,3.36,4.83,5,9.64,5,5.3,0,8.74-1.68,10.52-5.15,1-2,1.51-6.11,1.51-10.35V106c0-4.57-.68-6-1.09-6.42s-1.7-1.23-4.53-1.51L138.26,98V95h19.85V98l-1.84.09c-3,.33-4.16,1.05-4.61,1.6s-1,1.9-1,6.33v18c0,4.9-.78,9.8-2.31,12.61C145.47,141.82,140,144.46,132.15,144.46Zm14.37,31.61a11.39,11.39,0,0,1-4.73-7.51,15.1,15.1,0,0,1,8.87,2.26c3.56,2.36,5.53,7.18,5.53,7.18S150.3,178.56,146.52,176.07ZM153.64,166c0-5.16,3.75-10.41,3.75-10.41s3.75,5.25,3.75,10.41c0,4.85-3.75,9.92-3.75,9.92S153.64,170.85,153.64,166Zm14.41,10.07c-3.79,2.49-9.67,1.93-9.67,1.93s2-4.82,5.53-7.18a15.09,15.09,0,0,1,8.87-2.26A11.44,11.44,0,0,1,168.05,176.07ZM196,118.92l-.16-.74c-1-4.32-2-6-2.79-6.7s-2.59-1.43-7.25-1.43h-2.91v35.38c0,3.18.62,4,.89,4.2s1.53.82,4.95,1.07l.87.06v3.09h-22v-3.09l.87-.06c3.63-.28,4.6-.91,4.85-1.16s.82-1.23.82-4.92V110.05H171.2c-4.46,0-6.39.79-7.22,1.45s-2,2.34-2.78,6.65l-.14.77h-3.43v-13.6h41.73v13.6Z" transform="translate(-87.55 -56.61)"/><rect class="cls-1" x="145.07" y="80.58" width="446.33" height="2"/><path class="cls-1" d="M534.87,108.78h0v0c-.34.05-1.68.08-3.51.08H525.9c-1.27,0-2.57,0-3.68-.07a.44.44,0,0,0-.24.39.62.62,0,0,0,.2.58l.52.08c1.15.23,1.29.4,1.29,2.8v9.67c0,2.41-.14,2.57-1.29,2.75l-.88.14a.64.64,0,0,0-.17.48.6.6,0,0,0,.2.49c1.6,0,2.89-.08,4-.08s2.52,0,4.14.08h0a.68.68,0,0,0,.15-.48.64.64,0,0,0-.17-.49l-1-.13c-1.15-.18-1.3-.34-1.3-2.75v-3.51c0-.69,0-.74.7-.74h2c1.35,0,1.6.19,1.89,1.43l.13.64a.81.81,0,0,0,1.06-.06c-.06-.75-.08-1.71-.08-2.7s0-2,.07-2.8a.7.7,0,0,0-.55-.2.59.59,0,0,0-.5.19l-.13.62c-.29,1.26-.51,1.43-1.89,1.43h-2c-.68,0-.7,0-.7-.75v-4.7c0-1,0-1,.83-1h2a3.07,3.07,0,0,1,2.52.84,6.81,6.81,0,0,1,.77,2,.93.93,0,0,0,.51.14c.27,0,.47-.1.53-.28-.05-1.66-.05-3.43-.09-4Z" transform="translate(-87.55 -56.61)"/><path class="cls-1" d="M521.81,126.26l0,0a.7.7,0,0,1-.25-.59.74.74,0,0,1,.22-.58l0,0,.88-.13c1-.16,1.19-.19,1.19-2.63V112.6c0-2.44-.16-2.47-1.2-2.68l-.56-.09a.74.74,0,0,1-.25-.71.55.55,0,0,1,.32-.49h.05c1.12,0,2.43.08,3.67.08h5.46c1.82,0,3.16,0,3.49-.08l.13,0,0,.23c0,.29,0,.9,0,1.66s0,1.54.05,2.34v0a.63.63,0,0,1-.65.37,1,1,0,0,1-.58-.17l0,0v0a6.84,6.84,0,0,0-.75-2,2.94,2.94,0,0,0-2.42-.8h-2c-.7,0-.7,0-.7.91v4.7c0,.62,0,.62.57.62h2c1.31,0,1.5-.13,1.77-1.33l.15-.67a.73.73,0,0,1,.6-.24.79.79,0,0,1,.65.26l0,0v0c0,.88-.07,1.85-.07,2.79s0,2,.08,2.7v0l0,0a.78.78,0,0,1-.66.29.74.74,0,0,1-.59-.23l0,0-.13-.64c-.28-1.18-.47-1.33-1.77-1.33h-2c-.57,0-.57,0-.57.62v3.51c0,2.44.16,2.47,1.19,2.63l1,.13,0,0a.8.8,0,0,1,.21.59.83.83,0,0,1-.19.58l0,0H530c-1.71-.06-2.95-.08-4.14-.08s-2.44,0-4,.08Zm4.09-.33c1.18,0,2.41,0,4.1.08a.75.75,0,0,0,.08-.37.55.55,0,0,0-.1-.37l-.92-.13c-1.26-.19-1.4-.49-1.4-2.87v-3.51c0-.75.05-.87.82-.87h2c1.41,0,1.71.23,2,1.53l.13.61a.64.64,0,0,0,.38.11.62.62,0,0,0,.43-.14c0-.75-.08-1.69-.08-2.67s0-1.88.07-2.76a.66.66,0,0,0-.42-.12.6.6,0,0,0-.39.12l-.12.6c-.3,1.31-.58,1.52-2,1.52h-2c-.77,0-.82-.12-.82-.87v-4.7c0-1,0-1.16,1-1.16h2a3.21,3.21,0,0,1,2.62.89,6.74,6.74,0,0,1,.77,2,.89.89,0,0,0,.41.1.42.42,0,0,0,.4-.18c0-.8,0-1.62,0-2.32s0-1.3,0-1.61c-.49,0-1.74.07-3.39.07H525.9c-1.24,0-2.53,0-3.65-.08a.37.37,0,0,0-.14.28.55.55,0,0,0,.12.46l.48.07c1.28.25,1.41.53,1.41,2.92v9.67c0,2.38-.15,2.68-1.4,2.87l-.84.13a.61.61,0,0,0-.1.37.58.58,0,0,0,.11.37C523.48,126,524.75,125.93,525.9,125.93Z" transform="translate(-87.55 -56.61)"/><path class="cls-1" d="M265.52,108.17a.64.64,0,0,0-.37.1c-.23.53-.63.55-2.31.55h-9.67c-2,0-2-.11-2.16-.54a.67.67,0,0,0-.39-.11.62.62,0,0,0-.4.16c-.05.26-.09.57-.14.91a23.86,23.86,0,0,1-.71,3.53.64.64,0,0,0,.62.34.73.73,0,0,0,.4-.11c.77-1.86,1.3-2.91,3.19-2.91h1.62c.59,0,.59.09.59.72v11.46c0,2.41-.15,2.57-1.3,2.75l-1.19.14a.64.64,0,0,0-.17.48.6.6,0,0,0,.2.49c1.82,0,3.17-.08,4.42-.08s2.46,0,4.15.08h0a.68.68,0,0,0,.15-.48.64.64,0,0,0-.17-.49l-1-.13c-1.15-.18-1.29-.34-1.29-2.75V110.81c0-.65.06-.72.66-.72h1.56c2,0,2.3,1.26,2.73,2.87.08.13.32.15.42.15a.74.74,0,0,0,.61-.25,18.77,18.77,0,0,1,.38-4.49A.6.6,0,0,0,265.52,108.17Z" transform="translate(-87.55 -56.61)"/><path class="cls-1" d="M253.29,126.26l0,0a.7.7,0,0,1-.25-.59.74.74,0,0,1,.22-.58l0,0,1.22-.14c1-.16,1.18-.19,1.18-2.63V110.81c0-.6,0-.6-.46-.6h-1.61c-1.83,0-2.31,1-3.08,2.84l0,0,0,0a1,1,0,0,1-.47.13.78.78,0,0,1-.74-.42l0,0,0,0a23.76,23.76,0,0,0,.71-3.52c0-.35.09-.65.14-.91v0l0,0a.77.77,0,0,1,.94,0l0,0,0,0c.11.36.14.46,2,.46h9.67c1.69,0,2,0,2.19-.48l0,0,0,0a.71.71,0,0,1,.43-.11.69.69,0,0,1,.52.25l0,0,0,.05a19.19,19.19,0,0,0-.38,4.46v.06a.81.81,0,0,1-.72.31.63.63,0,0,1-.53-.21v0c-.43-1.61-.74-2.78-2.61-2.78h-1.56c-.52,0-.54,0-.54.6v11.46c0,2.44.16,2.47,1.19,2.63L262,125l0,0a.8.8,0,0,1,.21.59.83.83,0,0,1-.19.58l0,0h-.06c-1.77-.06-3.05-.08-4.16-.08s-2.5,0-4.42.08Zm4.46-.33c1.1,0,2.37,0,4.12.08a.75.75,0,0,0,.08-.37.55.55,0,0,0-.1-.37l-1-.13c-1.27-.19-1.41-.49-1.41-2.87V110.81c0-.72.12-.85.79-.85h1.56c2.05,0,2.42,1.36,2.84,2.94a.44.44,0,0,0,.31.08.67.67,0,0,0,.48-.15,19.28,19.28,0,0,1,.37-4.43.5.5,0,0,0-.28-.1.45.45,0,0,0-.27.06c-.28.59-.83.59-2.41.59h-9.67c-1.9,0-2.1-.09-2.27-.59a.51.51,0,0,0-.56,0c-.05.25-.09.53-.13.85a24.75,24.75,0,0,1-.71,3.51.57.57,0,0,0,.49.23.82.82,0,0,0,.31-.07c.75-1.84,1.32-3,3.29-3h1.61c.68,0,.71.19.71.85v11.46c0,2.38-.14,2.68-1.4,2.87l-1.15.14a.55.55,0,0,0-.1.36.56.56,0,0,0,.11.37C255.27,126,256.58,125.93,257.75,125.93Z" transform="translate(-87.55 -56.61)"/><path class="cls-1" d="M287.31,125.05c-1.17-.21-1.32-.38-1.32-2.78V112.6c0-2.4.15-2.57,1.32-2.8l.54-.08a.67.67,0,0,0,.17-.49.62.62,0,0,0-.19-.49c-1.22.06-2.42.08-3.67.08s-2.48,0-4-.07a.76.76,0,0,0,0,1l.71.11c1.14.2,1.29.32,1.29,2.77v3c0,.74,0,.74-1.06.74h-5.4c-1.06,0-1.06,0-1.06-.74v-3c0-2.4.14-2.57,1.24-2.8l.57-.08a.67.67,0,0,0,.17-.49.6.6,0,0,0-.2-.49c-1.11.05-2.39.08-3.61.08s-2.61,0-3.89-.07a.73.73,0,0,0,0,1l.62.08c1.15.23,1.3.4,1.3,2.8v9.67c0,2.4-.15,2.57-1.29,2.8l-.64.09a.61.61,0,0,0-.18.48.6.6,0,0,0,.2.49c1.33,0,2.63-.08,3.87-.08s2.45,0,4,.07a.61.61,0,0,0,.17-.48.61.61,0,0,0-.18-.49l-.83-.1c-1.15-.21-1.3-.38-1.3-2.78v-3.74c0-.71,0-.72,1.06-.72h5.4c1.06,0,1.06,0,1.06.72v3.74c0,2.45-.15,2.58-1.29,2.8l-.59.09a.61.61,0,0,0-.17.48.59.59,0,0,0,.19.49c1.25,0,2.54-.08,3.82-.08s2.47,0,3.77.08h0a.61.61,0,0,0,.17-.48.61.61,0,0,0-.18-.49Z" transform="translate(-87.55 -56.61)"/><path class="cls-1" d="M280.3,126.26l0,0a.76.76,0,0,1-.25-.6.78.78,0,0,1,.22-.58l0,0,.62-.09c1.05-.21,1.19-.24,1.19-2.68v-3.74c0-.59,0-.59-.94-.59h-5.4c-.93,0-.93,0-.93.59v3.74c0,2.44.15,2.47,1.19,2.65l.88.13a.72.72,0,0,1,.24.59.78.78,0,0,1-.22.58l0,0h0c-1.62,0-2.88-.07-4-.07-1.24,0-2.54,0-3.87.08h0l0,0a.73.73,0,0,1-.25-.6.78.78,0,0,1,.22-.58l0,0,.67-.09c1-.21,1.19-.24,1.19-2.68V112.6c0-2.44-.16-2.47-1.2-2.68l-.67-.09a.75.75,0,0,1-.24-.6.78.78,0,0,1,.22-.58l0,0h0c1.37,0,2.68.07,3.89.07s2.49,0,3.61-.08h0l0,0a.7.7,0,0,1,.25.59.77.77,0,0,1-.22.59l-.06,0-.56.09c-1,.2-1.13.23-1.13,2.67v3c0,.62,0,.62.93.62h5.4c.94,0,.94,0,.94-.62v-3c0-2.44-.14-2.46-1.2-2.65l-.75-.12a.87.87,0,0,1,0-1.18l0,0h0c1.6,0,2.82.07,4,.07s2.45,0,3.66-.08h0l0,0a.72.72,0,0,1,.24.59.77.77,0,0,1-.22.59l-.05,0-.54.09c-1.05.2-1.21.23-1.21,2.67v9.67c0,2.44.16,2.47,1.21,2.65l.68.13a.75.75,0,0,1,.24.59.78.78,0,0,1-.22.58l0,0h-.05c-1.32-.06-2.58-.08-3.78-.08s-2.56,0-3.81.08Zm3.86-.33c1.19,0,2.44,0,3.74.08a.65.65,0,0,0,.1-.37.52.52,0,0,0-.12-.37l-.59-.1c-1.28-.22-1.42-.52-1.42-2.9V112.6c0-2.37.14-2.67,1.42-2.92l.5-.08a.61.61,0,0,0,.1-.37.52.52,0,0,0-.11-.36c-1.19,0-2.38.08-3.62.08s-2.35,0-3.92-.07a.66.66,0,0,0,0,.73l.66.09c1.27.23,1.41.5,1.41,2.9v3c0,.84-.1.87-1.19.87h-5.4c-1.07,0-1.18,0-1.18-.87v-3c0-2.39.12-2.66,1.34-2.92l.53-.08a.61.61,0,0,0,.1-.37.55.55,0,0,0-.11-.36c-1.1,0-2.37.08-3.57.08s-2.5,0-3.85-.07a.64.64,0,0,0-.09.35.59.59,0,0,0,.11.38l.59.07c1.28.25,1.41.53,1.41,2.92v9.67c0,2.37-.15,2.67-1.4,2.92l-.61.09a.55.55,0,0,0-.1.36.53.53,0,0,0,.11.36c1.32,0,2.6-.07,3.83-.07,1.08,0,2.32,0,3.93.07a.68.68,0,0,0,.09-.36.56.56,0,0,0-.11-.37l-.8-.1c-1.26-.22-1.4-.52-1.4-2.9v-3.74c0-.82.11-.84,1.18-.84h5.4c1.09,0,1.19,0,1.19.84v3.74c0,2.4-.13,2.68-1.4,2.92l-.56.08a.61.61,0,0,0-.1.37.53.53,0,0,0,.11.36C281.62,126,282.89,125.93,284.16,125.93Z" transform="translate(-87.55 -56.61)"/><path class="cls-1" d="M305.73,121.6a.54.54,0,0,0-.44.19c-1.46,3-2.36,3-4.54,3-1.89,0-2.38-.21-2.7-.66a4.5,4.5,0,0,1-.41-2.44v-3.1c0-.77,0-.77.69-.77h1.79c1.35,0,1.61.2,1.89,1.43l.14.66a.64.64,0,0,0,.5.18.58.58,0,0,0,.53-.23c-.06-.83-.08-1.76-.08-2.75s0-1.92.07-2.78a.6.6,0,0,0-.51-.19.69.69,0,0,0-.52.18L302,115c-.28,1.22-.52,1.4-1.89,1.4h-1.79c-.67,0-.69,0-.69-.74v-4.55c0-1,0-1,.82-1h2.08a3.43,3.43,0,0,1,2.52.79,6.13,6.13,0,0,1,1,2.06.73.73,0,0,0,.48.16.58.58,0,0,0,.55-.29c-.08-1-.18-2.12-.25-2.91-.05-.54-.08-1-.13-1.16-.31.05-1.68.08-3.48.08H295.7c-1.25,0-2.51,0-3.76-.07a.63.63,0,0,0-.23.51.51.51,0,0,0,.19.46l.65.13c1.15.21,1.3.37,1.3,2.72v9.7c0,2.38-.15,2.54-1.3,2.7l-1.23.18a.56.56,0,0,0-.18.43.68.68,0,0,0,.2.55c2,0,3.22-.08,4.47-.08h3.38c2.38,0,4.74,0,6,.08h0v0a14.76,14.76,0,0,0,1.09-4.19A.61.61,0,0,0,305.73,121.6Z" transform="translate(-87.55 -56.61)"/><path class="cls-1" d="M291.3,126.26l0,0a.76.76,0,0,1-.25-.65.65.65,0,0,1,.23-.53l.05,0,1.24-.19c1-.13,1.18-.15,1.18-2.57v-9.7c0-2.38-.16-2.41-1.19-2.59l-.7-.15a.63.63,0,0,1-.24-.58.71.71,0,0,1,.29-.61l0,0h0c1.29,0,2.55.08,3.75.08h5.52c1.8,0,3.16,0,3.46-.08l.11,0,0,.11c.05.21.08.58.14,1.18.07.81.16,1.88.24,2.91v0a.68.68,0,0,1-.66.37A.84.84,0,0,1,304,113l0,0v0a5.84,5.84,0,0,0-1-2,3.29,3.29,0,0,0-2.43-.76h-2.08c-.7,0-.7,0-.7.86v4.55c0,.62,0,.62.57.62h1.8c1.3,0,1.5-.15,1.76-1.31l.16-.7a.84.84,0,0,1,.61-.23c.11,0,.49,0,.62.26l0,0v0c-.05.88-.08,1.81-.08,2.77s0,1.91.08,2.74v.07a.75.75,0,0,1-.64.3.76.76,0,0,1-.6-.23l0,0-.14-.67c-.27-1.16-.48-1.32-1.76-1.32h-1.8c-.57,0-.57,0-.57.64v3.1a4.47,4.47,0,0,0,.39,2.37c.3.41.76.61,2.6.61,2.19,0,3,0,4.43-2.92a.63.63,0,0,1,.55-.26.72.72,0,0,1,.71.4v.05a15.19,15.19,0,0,1-1.11,4.24l0,.07-.09,0c-1.29-.05-3.64-.08-6-.08h-3.38c-1.28,0-2.61,0-4.47.08Zm.07-1a.52.52,0,0,0-.1.32.61.61,0,0,0,.11.42c1.84-.05,3.16-.08,4.43-.08h3.38c2.35,0,4.67,0,5.95.07a14.73,14.73,0,0,0,1.05-4.06.54.54,0,0,0-.46-.21.44.44,0,0,0-.34.13c-1.48,3-2.47,3-4.64,3-1.95,0-2.46-.23-2.8-.71a4.67,4.67,0,0,1-.44-2.52v-3.1c0-.83.07-.89.82-.89h1.8c1.39,0,1.71.24,2,1.52l.13.63a.65.65,0,0,0,.78,0c-.05-.83-.08-1.74-.08-2.72s0-1.87.07-2.74a.72.72,0,0,0-.78,0l-.12.61c-.3,1.28-.6,1.51-2,1.51h-1.8c-.74,0-.82-.08-.82-.87v-4.55c0-1,0-1.11.95-1.11h2.08a3.53,3.53,0,0,1,2.61.84,6,6,0,0,1,1,2.07.67.67,0,0,0,.37.1.48.48,0,0,0,.42-.18c-.08-1-.17-2.08-.24-2.86,0-.44-.07-.82-.11-1.05-.46,0-1.72.07-3.38.07H295.7c-1.19,0-2.44,0-3.72-.08a.54.54,0,0,0-.14.39.43.43,0,0,0,.11.35l.63.12c1.25.22,1.39.52,1.39,2.84v9.7c0,2.36-.14,2.65-1.4,2.82Z" transform="translate(-87.55 -56.61)"/><path class="cls-1" d="M333.17,108.82c-1.07,0-2.08,0-3.51-.07a.81.81,0,0,0,0,1l.7.13c.68.12,1.25.27,1.48.81a17.19,17.19,0,0,1,.39,4.74v3.15c0,4.27-1.45,6.44-4.31,6.44-3.92,0-4.25-3.29-4.25-6.36v-6c0-2.4.15-2.57,1.3-2.8l.63-.11a.59.59,0,0,0,.18-.47.61.61,0,0,0-.2-.48c-1.25.05-2.52.08-3.79.08s-2.56,0-3.82-.07a.48.48,0,0,0-.22.42.61.61,0,0,0,.18.53l.65.13c1.15.2,1.3.37,1.3,2.77v6.5c0,2.94.61,4.81,1.94,5.91a7.72,7.72,0,0,0,5.17,1.46,7.08,7.08,0,0,0,5.17-1.88c1.47-1.64,1.68-4,1.68-6.3v-2.91a17.35,17.35,0,0,1,.38-4.74c.23-.54.72-.69,1.38-.84l.49-.11a.6.6,0,0,0,.14-.45.66.66,0,0,0-.17-.5C335.08,108.8,334.12,108.82,333.17,108.82Z" transform="translate(-87.55 -56.61)"/><path class="cls-1" d="M327,126.59a7.85,7.85,0,0,1-5.25-1.49c-1.36-1.12-2-3-2-6v-6.5c0-2.44-.15-2.46-1.19-2.65l-.7-.15a.71.71,0,0,1-.24-.64.64.64,0,0,1,.29-.52l0,0h0c1.28,0,2.6.08,3.81.08s2.54,0,3.79-.08h0l0,0a.71.71,0,0,1,.25.58.73.73,0,0,1-.22.57l-.05,0-.64.12c-1,.2-1.2.23-1.2,2.67v6c0,3,.32,6.23,4.13,6.23,2.78,0,4.19-2.12,4.19-6.31v-3.15a17.31,17.31,0,0,0-.38-4.69c-.21-.48-.75-.62-1.39-.74l-.74-.14,0,0a.74.74,0,0,1-.2-.55.84.84,0,0,1,.18-.57l0,0h.05c1.42,0,2.43.07,3.51.07s1.91,0,2.9-.08h.05l0,0a.75.75,0,0,1,.22.59.79.79,0,0,1-.18.54l0,0-.52.12c-.65.15-1.09.29-1.29.77a17.31,17.31,0,0,0-.38,4.69v2.91c0,2.33-.21,4.72-1.7,6.38A7.21,7.21,0,0,1,327,126.59Zm-9-17,.62.13c1.25.22,1.39.52,1.39,2.89v6.5c0,2.9.61,4.74,1.9,5.81a7.61,7.61,0,0,0,5.09,1.43,6.94,6.94,0,0,0,5.08-1.84c1.44-1.6,1.64-3.93,1.64-6.21v-2.91a17.13,17.13,0,0,1,.4-4.79c.25-.59.79-.75,1.46-.91l.45-.1a.62.62,0,0,0,.09-.34.65.65,0,0,0-.1-.37c-1,0-1.92.08-2.86.08s-2.06,0-3.45-.07a.8.8,0,0,0-.08.36.57.57,0,0,0,.1.34l.66.12c.71.14,1.32.29,1.58.89a17.54,17.54,0,0,1,.4,4.79v3.15c0,4.35-1.5,6.56-4.44,6.56-4,0-4.38-3.35-4.38-6.48v-6c0-2.37.15-2.67,1.4-2.92l.61-.11a.64.64,0,0,0,0-.7c-1.24,0-2.5.08-3.75.08s-2.51,0-3.78-.08a.41.41,0,0,0-.14.31A.52.52,0,0,0,318,109.58Z" transform="translate(-87.55 -56.61)"/><path class="cls-1" d="M354.65,108.82c-1.07,0-2.08,0-3.51-.07a.83.83,0,0,0,0,1l.7.11c.67.12,1.25.27,1.48.81a17.45,17.45,0,0,1,.39,4.74V119c0,.4,0,.77,0,1l0,.11c-.39-.39-.83-.91-1.44-1.62l-1-1.22-2.44-2.89c-2.2-2.6-3.78-4.48-4.07-5.63-.53.05-1.29.08-2.18.08-1.1,0-2.41,0-3.6-.08a.38.38,0,0,0-.21.27.8.8,0,0,0,.12.71l.72.11c.86.17,1.27.41,1.46.86a5.44,5.44,0,0,1,.18,2.2v6.6a19.28,19.28,0,0,1-.36,4.75c-.23.53-.73.68-1.41.83l-.46.09a.82.82,0,0,0,0,1c1,0,1.95-.08,2.91-.08s2.08,0,3.51.07a.84.84,0,0,0,0-1l-.73-.1c-.67-.13-1.25-.29-1.48-.81a17.54,17.54,0,0,1-.39-4.75v-5a12,12,0,0,1,.05-1.53l0-.1a29.19,29.19,0,0,1,2.82,3.31l6,7.44c.88,1.09,1.57,2.07,1.9,2.55.21.3.21.3.23.3a2,2,0,0,0,1.57-.64c-.05-.86-.05-2.47-.05-4.18v-6.22a17.45,17.45,0,0,1,.39-4.74c.23-.54.71-.69,1.38-.84l.48-.09a.67.67,0,0,0,.15-.5.69.69,0,0,0-.17-.47C356.51,108.8,355.59,108.82,354.65,108.82Z" transform="translate(-87.55 -56.61)"/><path class="cls-1" d="M353.81,126.54c-.09,0-.09,0-.33-.35s-1-1.44-1.9-2.54l-6-7.44a40.69,40.69,0,0,0-2.65-3.15c0,.27,0,.69,0,1.39v5a17.23,17.23,0,0,0,.38,4.7c.2.47.74.61,1.39.73l.76.11,0,0a.79.79,0,0,1,.2.56.88.88,0,0,1-.18.59l0,0h-.06c-1.33,0-2.43-.07-3.5-.07s-1.91,0-2.9.08h-.06l0,0a.87.87,0,0,1-.21-.59.83.83,0,0,1,.18-.56l0,0,.5-.09c.66-.15,1.1-.28,1.31-.76a19.49,19.49,0,0,0,.35-4.7v-6.6a5.63,5.63,0,0,0-.16-2.14c-.17-.42-.56-.64-1.37-.8l-.76-.11,0,0a.91.91,0,0,1-.15-.83.51.51,0,0,1,.3-.36h0c1.19,0,2.5.08,3.59.08.89,0,1.64,0,2.17-.08h.11l0,.1c.28,1.12,1.85,3,4,5.58l2.44,2.89c.4.45.74.86,1.05,1.22.51.61.91,1.07,1.26,1.44,0-.23,0-.53,0-.87v-3.59a17.14,17.14,0,0,0-.38-4.69c-.2-.48-.75-.62-1.39-.74l-.73-.11,0,0a.75.75,0,0,1-.2-.56.78.78,0,0,1,.18-.58l0,0h.05c1.42,0,2.43.07,3.51.07s1.86,0,2.9-.08h.05l0,0a.76.76,0,0,1,.22.56.81.81,0,0,1-.19.59l0,0-.52.1c-.64.14-1.08.28-1.29.76a17.74,17.74,0,0,0-.37,4.69v6.22c0,1.71,0,3.32.05,4.17v0l0,0A2.14,2.14,0,0,1,353.81,126.54Zm-11-13.92.13.11a29.6,29.6,0,0,1,2.84,3.33l6,7.43c.9,1.11,1.6,2.12,1.9,2.56a2.46,2.46,0,0,1,.17.24,2,2,0,0,0,1.41-.54c-.05-.87-.05-2.47-.05-4.15v-6.22a17.91,17.91,0,0,1,.39-4.79c.26-.59.79-.75,1.47-.91l.45-.08a.67.67,0,0,0,.09-.38.73.73,0,0,0-.1-.35c-1,0-1.94.08-2.86.08s-2.07,0-3.45-.07a.62.62,0,0,0-.08.37.55.55,0,0,0,.1.36l.66.09c.71.14,1.32.29,1.57.89a17.33,17.33,0,0,1,.4,4.79V119a10.3,10.3,0,0,1,0,1l0,.13-.07.19-.14-.14c-.4-.4-.84-.92-1.44-1.63-.31-.36-.65-.77-1.05-1.22l-2.44-2.88c-2.14-2.55-3.7-4.4-4.06-5.58-.53,0-1.25.07-2.09.07-1.08,0-2.39,0-3.58-.08a.33.33,0,0,0-.11.18.72.72,0,0,0,.06.56l.68.09c.92.19,1.35.45,1.55.94a5.44,5.44,0,0,1,.19,2.25v6.6a19,19,0,0,1-.37,4.79c-.25.6-.8.76-1.49.91l-.42.08a.61.61,0,0,0-.09.35.69.69,0,0,0,.1.38c1,0,1.92-.07,2.86-.07s2.14,0,3.45.06a.8.8,0,0,0,.08-.36.59.59,0,0,0-.1-.36l-.68-.1c-.72-.14-1.33-.3-1.59-.88a18,18,0,0,1-.39-4.8v-5a11.11,11.11,0,0,1,.05-1.56v0l0-.09Z" transform="translate(-87.55 -56.61)"/><path class="cls-1" d="M367.83,109.85l.75-.13a.67.67,0,0,0,.17-.49.6.6,0,0,0-.2-.49c-1.42.06-2.71.08-3.92.08s-2.53,0-4-.07a.65.65,0,0,0-.18.48.61.61,0,0,0,.19.49l.73.13c1.17.21,1.32.38,1.32,2.8v9.57c0,2.43-.15,2.6-1.32,2.8l-.74.14a.61.61,0,0,0-.18.48.6.6,0,0,0,.2.49c1.42,0,2.72-.08,3.95-.08s2.47,0,3.9.08h0a.67.67,0,0,0,.19-.52.53.53,0,0,0-.18-.45l-.73-.13c-1.17-.2-1.32-.37-1.32-2.8v-9.57C366.51,110.23,366.66,110.06,367.83,109.85Z" transform="translate(-87.55 -56.61)"/><path class="cls-1" d="M360.64,126.26l0,0a.7.7,0,0,1-.25-.59.78.78,0,0,1,.22-.58l.05,0,.75-.13c1.05-.19,1.22-.22,1.22-2.68v-9.57c0-2.46-.17-2.49-1.22-2.67l-.78-.15a.75.75,0,0,1-.24-.6.78.78,0,0,1,.22-.58l0,0h0c1.54,0,2.8.07,4,.07s2.5,0,3.92-.08h0l0,0a.72.72,0,0,1,.24.59.77.77,0,0,1-.22.59l0,0-.75.14c-1.05.18-1.21.21-1.21,2.67v9.57c0,2.46.16,2.49,1.21,2.68l.78.15a.63.63,0,0,1,.23.55.8.8,0,0,1-.23.62l0,0h0c-1.44-.06-2.71-.08-3.91-.08s-2.53,0-3.95.08Zm4-.33c1.19,0,2.46,0,3.86.08a.66.66,0,0,0,.12-.41.48.48,0,0,0-.1-.33l-.7-.13c-1.28-.22-1.42-.52-1.42-2.92v-9.57c0-2.4.14-2.7,1.42-2.92l.71-.13a.58.58,0,0,0,.1-.37.55.55,0,0,0-.11-.36c-1.4,0-2.67.08-3.88.08s-2.41,0-3.93-.07a.61.61,0,0,0-.09.35.59.59,0,0,0,.11.38l.7.12c1.28.22,1.43.52,1.43,2.92v9.57c0,2.4-.15,2.7-1.43,2.92l-.71.13a.61.61,0,0,0-.1.37.58.58,0,0,0,.11.37C362.13,126,363.4,125.93,364.63,125.93Z" transform="translate(-87.55 -56.61)"/><path class="cls-1" d="M389.35,108.74c-.76.06-1.55.08-2.41.08s-1.91,0-3.21-.07a.43.43,0,0,0-.26.35.64.64,0,0,0,.16.6l.75.18c.62.13.67.26.67.41a3.21,3.21,0,0,1-.25.92c-.33.93-1.39,3.83-2.06,5.43l-1,2.45c-.26.64-.51,1.22-.67,1.66,0,.08-.07.16-.11.23l-.12-.28c-.17-.41-.39-.94-.67-1.69l-2.29-5.85a23.65,23.65,0,0,1-1-2.85c0-.15.08-.33.63-.46l.8-.17a.78.78,0,0,0-.06-.94c-1.58.05-2.7.08-3.9.08-.83,0-1.48,0-2.17,0-.42,0-.86,0-1.38,0a.51.51,0,0,0-.23.34.77.77,0,0,0,.13.61l.87.21c1.08.27,1.08.27,2.1,2.78l4.21,10.59c.2.47.41,1.08.62,1.66s.34,1,.48,1.31a1.15,1.15,0,0,0,.73.22,1.68,1.68,0,0,0,.94-.23c.22-.54.46-1.16.73-1.88.47-1.24,1.06-2.79,1.9-4.78l1.9-4.49a29.51,29.51,0,0,1,2.15-4.37,1.83,1.83,0,0,1,1.41-.89l.69-.14a.74.74,0,0,0,.13-.57A.47.47,0,0,0,389.35,108.74Z" transform="translate(-87.55 -56.61)"/><path class="cls-1" d="M379.71,126.59a1.28,1.28,0,0,1-.81-.24l0,0c-.14-.33-.31-.79-.48-1.28v0c-.21-.59-.42-1.19-.61-1.66l-4.22-10.58c-1-2.45-1-2.45-2-2.71l-.91-.22,0,0a.86.86,0,0,1-.16-.71.66.66,0,0,1,.29-.43l0,0h0l1.38,0c.69,0,1.33,0,2.17,0,1.25,0,2.42,0,3.9-.08h0l0,0a.87.87,0,0,1,.09,1.11l0,0-.85.19c-.52.11-.52.27-.52.33a29,29,0,0,0,1,2.8l2.29,5.85c.29.77.51,1.3.67,1.69v0c.09-.26.22-.57.37-.92l.29-.71,1-2.44c.66-1.61,1.72-4.5,2.05-5.43a3.65,3.65,0,0,0,.25-.88c0-.07,0-.17-.57-.29l-.8-.19,0,0a.79.79,0,0,1-.2-.71.6.6,0,0,1,.34-.45h.05c1.35,0,2.28.08,3.21.08s1.65,0,2.4-.08h.06a.54.54,0,0,1,.28.47.8.8,0,0,1-.17.68l0,0-.73.14a1.7,1.7,0,0,0-1.32.84,29,29,0,0,0-2.15,4.35l-1.9,4.49c-.83,2-1.42,3.53-1.89,4.77l0,.09c-.26.69-.49,1.28-.7,1.8l0,0,0,0A1.78,1.78,0,0,1,379.71,126.59Zm-.62-.41a1,1,0,0,0,.62.16,1.58,1.58,0,0,0,.84-.19c.21-.5.43-1.08.68-1.75l0-.09c.47-1.24,1.06-2.79,1.89-4.78l1.9-4.49a31.16,31.16,0,0,1,2.17-4.39,1.94,1.94,0,0,1,1.48-.94l.66-.13a.66.66,0,0,0,.06-.44.36.36,0,0,0-.11-.27c-.75,0-1.53.08-2.38.08s-1.87,0-3.19-.08a.35.35,0,0,0-.16.25.61.61,0,0,0,.1.47l.72.17c.57.12.77.25.77.53a3.29,3.29,0,0,1-.27,1c-.32.94-1.38,3.83-2.05,5.44l-1,2.44-.29.72c-.15.35-.28.68-.38.94l-.23.5-.23-.55c-.16-.39-.39-.92-.68-1.69l-2.28-5.85a17.94,17.94,0,0,1-1.05-2.89c0-.29.23-.47.72-.58l.75-.16a.72.72,0,0,0,0-.7c-1.46,0-2.62.08-3.86.08-.85,0-1.49,0-2.17,0l-1.34,0a.39.39,0,0,0-.14.25.59.59,0,0,0,.08.47l.82.2c1.14.28,1.16.33,2.19,2.85L378,123.23c.19.47.41,1.08.61,1.66l0,0C378.79,125.41,379,125.85,379.09,126.18Z" transform="translate(-87.55 -56.61)"/><path class="cls-1" d="M404.94,121.6a.5.5,0,0,0-.43.19c-1.46,3-2.36,3-4.55,3-1.89,0-2.37-.21-2.7-.66a4.6,4.6,0,0,1-.41-2.44v-3.1c0-.77,0-.77.69-.77h1.8c1.34,0,1.61.2,1.89,1.43l.14.66a.62.62,0,0,0,.49.18.58.58,0,0,0,.53-.23c-.05-.81-.08-1.74-.08-2.75s0-1.94.08-2.78c-.08-.14-.32-.19-.51-.19a.68.68,0,0,0-.52.18l-.13.65c-.28,1.22-.53,1.4-1.89,1.4h-1.8c-.67,0-.69,0-.69-.74v-4.55c0-1,0-1,.82-1h2.08a3.46,3.46,0,0,1,2.53.79,6.33,6.33,0,0,1,1,2.06.7.7,0,0,0,.47.16.57.57,0,0,0,.55-.29c-.08-1.06-.18-2.15-.25-3a8.42,8.42,0,0,0-.13-1.12c-.31.05-1.67.08-3.48.08h-5.51c-1.26,0-2.52,0-3.76-.07a.58.58,0,0,0-.23.51.49.49,0,0,0,.19.46l.65.13c1.15.21,1.29.37,1.29,2.72v9.7c0,2.39-.14,2.54-1.29,2.7l-1.24.18a.56.56,0,0,0-.17.43.64.64,0,0,0,.19.55c1.95,0,3.23-.08,4.47-.08h3.38c2.39,0,4.74,0,6,.08h0v0a14.73,14.73,0,0,0,1.1-4.19A.64.64,0,0,0,404.94,121.6Z" transform="translate(-87.55 -56.61)"/><path class="cls-1" d="M390.51,126.26l0,0a.79.79,0,0,1-.25-.65.68.68,0,0,1,.23-.53l.05,0,1.24-.19c1-.13,1.19-.15,1.19-2.57v-9.7c0-2.38-.16-2.41-1.19-2.59l-.7-.15a.65.65,0,0,1-.25-.58.73.73,0,0,1,.29-.61l0,0h0c1.29,0,2.56.08,3.76.08h5.51c1.8,0,3.16,0,3.46-.08l.11,0,0,.11a10.51,10.51,0,0,1,.14,1.13c.07.8.17,1.9.24,3v0a.69.69,0,0,1-.67.37.86.86,0,0,1-.56-.19l0,0v0a6,6,0,0,0-1-2,3.28,3.28,0,0,0-2.43-.76h-2.08c-.69,0-.69,0-.69.86v4.55c0,.62,0,.62.56.62h1.8c1.3,0,1.5-.15,1.77-1.31l.15-.7a.86.86,0,0,1,.62-.23c.11,0,.48,0,.62.26v.07c-.05.87-.07,1.8-.07,2.77s0,1.93.08,2.74v0l0,0a.85.85,0,0,1-1.23.07l0,0-.13-.67c-.27-1.16-.49-1.32-1.77-1.32h-1.8c-.56,0-.56,0-.56.64v3.1a4.47,4.47,0,0,0,.39,2.37c.29.41.76.61,2.59.61,2.19,0,3,0,4.43-2.92a.64.64,0,0,1,.55-.26.72.72,0,0,1,.71.4v.05a14.53,14.53,0,0,1-1.11,4.24l0,.07-.09,0c-1.29-.05-3.65-.08-6-.08H395c-1.27,0-2.6,0-4.47.08Zm.07-1a.59.59,0,0,0-.1.32.66.66,0,0,0,.11.42c1.85-.05,3.16-.08,4.43-.08h3.38c2.35,0,4.67,0,6,.07a14.7,14.7,0,0,0,1.06-4.06.54.54,0,0,0-.47-.21.41.41,0,0,0-.33.13c-1.48,3-2.47,3-4.65,3-1.94,0-2.45-.23-2.8-.71a4.7,4.7,0,0,1-.43-2.52v-3.1c0-.83.06-.89.81-.89h1.8c1.4,0,1.72.24,2,1.52l.13.63a.57.57,0,0,0,.38.12.54.54,0,0,0,.4-.14c-.05-.81-.07-1.73-.07-2.72s0-1.88.07-2.74a.59.59,0,0,0-.38-.11.62.62,0,0,0-.41.12l-.12.61c-.29,1.28-.59,1.51-2,1.51h-1.8c-.74,0-.81-.08-.81-.87v-4.55c0-1,0-1.11.94-1.11h2.08a3.55,3.55,0,0,1,2.62.84,6,6,0,0,1,1,2.07.7.7,0,0,0,.37.1.48.48,0,0,0,.42-.18c-.08-1.05-.17-2.13-.24-2.92,0-.43-.07-.78-.11-1-.46,0-1.71.07-3.38.07h-5.51c-1.19,0-2.45,0-3.73-.08a.58.58,0,0,0-.14.39.43.43,0,0,0,.12.35l.62.12c1.25.22,1.4.52,1.4,2.84v9.7c0,2.36-.15,2.65-1.41,2.82Z" transform="translate(-87.55 -56.61)"/><path class="cls-1" d="M425.45,125.23a3.2,3.2,0,0,1-1.73-.72c-1.21-1-2.26-2.92-4-6.49-.13-.3-.11-.41.12-.53a4.22,4.22,0,0,0,2.77-3.93,4.29,4.29,0,0,0-2.3-3.88,11,11,0,0,0-5.12-.94c-2.59,0-4.71.12-6.46.24a.55.55,0,0,0-.26.49.49.49,0,0,0,.22.49l.7.1c1,.15,1.11.35,1.11,3v9.2c0,2.38-.14,2.55-1.29,2.75l-.72.14a.52.52,0,0,0-.17.42.64.64,0,0,0,.19.55c1.43,0,2.57-.08,3.8-.08s2.38,0,3.84.07a.72.72,0,0,0,.15-.55.57.57,0,0,0-.16-.42l-.71-.13c-1.15-.2-1.29-.37-1.29-2.75v-3.2c0-.49,0-.53.92-.53a1.3,1.3,0,0,1,1.35.89,33.09,33.09,0,0,0,2,4,5.3,5.3,0,0,0,5.07,2.75,5.73,5.73,0,0,0,2.08-.25.5.5,0,0,0,.09-.42A.44.44,0,0,0,425.45,125.23Zm-11.33-13.94c.05-1.23.05-1.28,1.08-1.28,2,0,3.37,1.53,3.37,3.81a3.75,3.75,0,0,1-.93,2.79,2.46,2.46,0,0,1-1.95.71c-1.53,0-1.57-.08-1.57-.95Z" transform="translate(-87.55 -56.61)"/><path class="cls-1" d="M423.49,126.33a5.44,5.44,0,0,1-5.18-2.8,34.16,34.16,0,0,1-2-4,1.16,1.16,0,0,0-1.23-.82c-.8,0-.8,0-.8.41v3.2c0,2.41.16,2.44,1.19,2.63l.76.15a.65.65,0,0,1,.22.52.86.86,0,0,1-.2.65l0,0h-.05c-1.57,0-2.71-.07-3.84-.07s-2.36,0-3.79.08h-.05l0,0a.79.79,0,0,1-.25-.65.68.68,0,0,1,.23-.53l.05,0,.71-.13c1-.19,1.2-.22,1.2-2.63v-9.2c0-2.66-.09-2.75-1-2.88l-.74-.12a.62.62,0,0,1-.29-.61.66.66,0,0,1,.34-.6h0c1.73-.11,3.85-.23,6.47-.23a11,11,0,0,1,5.18,1,4.41,4.41,0,0,1-.48,8c-.13.06-.18.09-.05.36,1.75,3.55,2.79,5.42,4,6.44a2.92,2.92,0,0,0,1.64.69l.05,0a.51.51,0,0,1,.28.39.63.63,0,0,1-.11.53l0,0A6,6,0,0,1,423.49,126.33ZM415,118.41a1.41,1.41,0,0,1,1.46,1,32.31,32.31,0,0,0,2,4,5.2,5.2,0,0,0,5,2.68,6,6,0,0,0,2-.22.45.45,0,0,0,.05-.3.29.29,0,0,0-.13-.21,3.19,3.19,0,0,1-1.76-.75c-1.24-1-2.29-2.94-4.06-6.52-.14-.31-.16-.53.17-.7a4.16,4.16,0,0,0,.46-7.59,10.73,10.73,0,0,0-5.05-.92c-2.6,0-4.71.12-6.43.23a.48.48,0,0,0-.17.37.44.44,0,0,0,.14.37l.68.1c1.17.17,1.22.51,1.22,3.13v9.2c0,2.35-.15,2.65-1.4,2.87l-.69.13a.56.56,0,0,0-.1.32.68.68,0,0,0,.11.41c1.42,0,2.54-.07,3.76-.07s2.25,0,3.79.07a.92.92,0,0,0,.08-.42.44.44,0,0,0-.1-.31l-.67-.13c-1.25-.22-1.4-.52-1.4-2.87v-3.2C414,118.46,414.15,118.41,415,118.41Zm.65-1c-1.55,0-1.7-.09-1.7-1.08v-5.08c.06-1.29.09-1.4,1.21-1.4,2.09,0,3.49,1.58,3.49,3.93a3.85,3.85,0,0,1-1,2.87A2.54,2.54,0,0,1,415.69,117.45Zm-1.45-6.16v5.08c0,.8,0,.83,1.45.83a2.33,2.33,0,0,0,1.86-.68,3.63,3.63,0,0,0,.89-2.7c0-2.2-1.3-3.68-3.24-3.68C414.29,110.14,414.29,110.14,414.24,111.29Z" transform="translate(-87.55 -56.61)"/><path class="cls-1" d="M435.57,115.9l-1.71-.91c-1.47-.77-2.35-1.86-2.35-2.94a2.37,2.37,0,0,1,2.62-2.38c1.72,0,2.88,1.66,3.4,3.22a.74.74,0,0,0,.52.18.55.55,0,0,0,.56-.29,12,12,0,0,0-.5-3.75,5.31,5.31,0,0,1-.88-.21,10.68,10.68,0,0,0-3-.41c-3.69,0-6.07,2-6.07,5,0,2.08,1.35,3.8,3.94,5.1,1.51.75,3.52,2,3.52,4.1a2.54,2.54,0,0,1-2.77,2.59c-2.2,0-3.92-2.37-4.44-4.07a.68.68,0,0,0-1.06.1c0,1.86.36,3.68.85,4.25a9.12,9.12,0,0,0,4.44,1c3.94,0,6.59-2.14,6.59-5.31C439.26,118.94,438.05,117.22,435.57,115.9Z" transform="translate(-87.55 -56.61)"/><path class="cls-1" d="M432.67,126.59a9.09,9.09,0,0,1-4.5-1l0,0c-.51-.59-.88-2.41-.88-4.33v0a.8.8,0,0,1,1.27-.12v0c.52,1.65,2.19,4,4.33,4a2.43,2.43,0,0,0,2.65-2.47c0-2-2-3.25-3.45-4-2.64-1.32-4-3.07-4-5.21,0-3.12,2.43-5.13,6.2-5.13a10.67,10.67,0,0,1,3,.42,6,6,0,0,0,.86.21h.07l0,.06a12.11,12.11,0,0,1,.5,3.8v0a.68.68,0,0,1-.67.37.85.85,0,0,1-.61-.23l0,0c-.5-1.51-1.63-3.12-3.28-3.12a2.25,2.25,0,0,0-2.49,2.25c0,1,.85,2.08,2.28,2.83l1.71.91c2.53,1.34,3.75,3.1,3.75,5.37C439.38,124.41,436.69,126.59,432.67,126.59Zm-4.36-1.21a9,9,0,0,0,4.36,1c3.87,0,6.46-2.08,6.46-5.18,0-2.17-1.18-3.86-3.62-5.15l-1.71-.91c-1.51-.79-2.41-1.93-2.41-3a2.48,2.48,0,0,1,2.74-2.5c1.77,0,3,1.68,3.51,3.27a.63.63,0,0,0,.41.13.49.49,0,0,0,.43-.19,12.11,12.11,0,0,0-.46-3.62,6.25,6.25,0,0,1-.83-.2,10.39,10.39,0,0,0-2.93-.41c-3.61,0-5.95,1.91-5.95,4.88,0,2,1.33,3.71,3.88,5,1.54.77,3.59,2,3.59,4.21a2.67,2.67,0,0,1-2.9,2.72c-2.25,0-4-2.41-4.56-4.14a.47.47,0,0,0-.37-.14.48.48,0,0,0-.44.22A8.37,8.37,0,0,0,428.31,125.38Z" transform="translate(-87.55 -56.61)"/><path class="cls-1" d="M450,109.85l.74-.13a.63.63,0,0,0,.17-.49.59.59,0,0,0-.19-.49c-1.43.06-2.71.08-3.92.08s-2.53,0-4-.07a.64.64,0,0,0-.17.48.61.61,0,0,0,.19.49l.73.13c1.17.21,1.32.38,1.32,2.8v9.57c0,2.43-.15,2.6-1.32,2.8l-.75.14a.64.64,0,0,0-.17.48.62.62,0,0,0,.19.49c1.43,0,2.72-.08,4-.08s2.47,0,3.89.08h0a.7.7,0,0,0,.18-.52.55.55,0,0,0-.17-.45L450,125c-1.17-.2-1.32-.37-1.32-2.8v-9.57C448.7,110.23,448.85,110.06,450,109.85Z" transform="translate(-87.55 -56.61)"/><path class="cls-1" d="M442.83,126.26l0,0a.72.72,0,0,1-.24-.59.74.74,0,0,1,.22-.58l.05,0,.74-.13c1.06-.19,1.22-.22,1.22-2.68v-9.57c0-2.46-.16-2.49-1.22-2.67l-.78-.15a.77.77,0,0,1-.23-.6.74.74,0,0,1,.22-.58l0,0h.05c1.54,0,2.8.07,4,.07s2.5,0,3.92-.08h0l0,0a.73.73,0,0,1,.25.59.81.81,0,0,1-.22.59l0,0L450,110c-1.05.18-1.22.21-1.22,2.67v9.57c0,2.46.17,2.49,1.22,2.68l.78.15a.63.63,0,0,1,.23.55.77.77,0,0,1-.24.62l0,0h-.06c-1.43-.06-2.7-.08-3.9-.08s-2.53,0-3.95.08Zm4-.33c1.19,0,2.45,0,3.86.08a.66.66,0,0,0,.12-.41.44.44,0,0,0-.11-.33l-.69-.13c-1.28-.22-1.43-.52-1.43-2.92v-9.57c0-2.4.15-2.7,1.43-2.92l.71-.13a.58.58,0,0,0,.1-.37.55.55,0,0,0-.11-.36c-1.41,0-2.68.08-3.88.08s-2.41,0-3.93-.07a.54.54,0,0,0-.09.35.59.59,0,0,0,.11.38l.7.12c1.28.22,1.42.52,1.42,2.92v9.57c0,2.4-.14,2.7-1.42,2.92l-.71.13a.61.61,0,0,0-.1.37.58.58,0,0,0,.11.37C444.31,126,445.59,125.93,446.82,125.93Z" transform="translate(-87.55 -56.61)"/><path class="cls-1" d="M470,108.17a.67.67,0,0,0-.38.1c-.22.53-.63.55-2.3.55h-9.67c-2,0-2-.11-2.17-.54a.63.63,0,0,0-.38-.11.62.62,0,0,0-.4.16c-.05.27-.09.58-.14.92a23.68,23.68,0,0,1-.72,3.52.65.65,0,0,0,.62.34.77.77,0,0,0,.41-.11c.77-1.86,1.29-2.91,3.19-2.91h1.61c.59,0,.59.09.59.72v11.46c0,2.41-.15,2.57-1.29,2.75l-1.19.14a.61.61,0,0,0-.17.48.59.59,0,0,0,.19.49c1.82,0,3.17-.08,4.42-.08s2.47,0,4.16.08h0a.72.72,0,0,0,.14-.48.68.68,0,0,0-.16-.49l-1-.13c-1.15-.18-1.3-.34-1.3-2.75V110.81c0-.65.06-.72.67-.72h1.56c2,0,2.29,1.26,2.72,2.87a.55.55,0,0,0,.42.15.72.72,0,0,0,.61-.25,18.77,18.77,0,0,1,.39-4.49A.6.6,0,0,0,470,108.17Z" transform="translate(-87.55 -56.61)"/><path class="cls-1" d="M457.72,126.26l0,0a.73.73,0,0,1-.25-.59.78.78,0,0,1,.22-.58l0,0,1.22-.14c1-.16,1.19-.19,1.19-2.63V110.81c0-.6,0-.6-.47-.6H458c-1.82,0-2.31,1-3.07,2.84l0,0,0,0a1,1,0,0,1-.47.13.77.77,0,0,1-.73-.42l0,0v0a23.21,23.21,0,0,0,.71-3.49c.05-.36.1-.67.15-.94v0l0,0a.76.76,0,0,1,.94-.06l0,0v0c.11.36.14.46,2.05.46h9.67c1.69,0,2,0,2.19-.48l0,0,0,0a.84.84,0,0,1,.44-.11.69.69,0,0,1,.52.25l0,0v.05a18.15,18.15,0,0,0-.38,4.46v0l0,0a.81.81,0,0,1-.72.31.61.61,0,0,1-.52-.21l0,0c-.43-1.61-.74-2.78-2.6-2.78h-1.56c-.52,0-.54,0-.54.6v11.46c0,2.44.15,2.47,1.19,2.63l1.07.13,0,0a.77.77,0,0,1,.22.59.83.83,0,0,1-.19.58l0,0h-.06c-1.78-.06-3.06-.08-4.17-.08s-2.49,0-4.41.08Zm4.46-.33c1.11,0,2.38,0,4.12.08a.65.65,0,0,0,.09-.37.61.61,0,0,0-.1-.37l-1-.13c-1.26-.19-1.4-.49-1.4-2.87V110.81c0-.72.11-.85.79-.85h1.56c2.05,0,2.42,1.37,2.84,3a.64.64,0,0,0,.3.06.7.7,0,0,0,.49-.15,19.33,19.33,0,0,1,.37-4.43.5.5,0,0,0-.28-.1.49.49,0,0,0-.28.06c-.27.59-.83.59-2.4.59h-9.67c-1.9,0-2.11-.09-2.27-.59a.52.52,0,0,0-.57,0c0,.25-.08.54-.13.86a23.93,23.93,0,0,1-.7,3.5.54.54,0,0,0,.48.23.74.74,0,0,0,.31-.07c.76-1.84,1.33-3,3.29-3h1.61c.69,0,.72.19.72.85v11.46c0,2.38-.15,2.68-1.4,2.87l-1.16.14a.57.57,0,0,0-.1.36.58.58,0,0,0,.11.37C459.71,126,461,125.93,462.18,125.93Z" transform="translate(-87.55 -56.61)"/><path class="cls-1" d="M489.08,108.74c-.77.06-1.58.08-2.54.08s-1.84,0-2.93-.07a.49.49,0,0,0-.21.44.63.63,0,0,0,.19.53l.6.11c.59.1.86.2.86.33a11.61,11.61,0,0,1-1.35,3c-.22.42-.45.85-.68,1.3l-1.19,2.33c-.09.15-.17.31-.26.45-.31-.65-.8-1.67-1.19-2.52l-1.22-2.78a7.28,7.28,0,0,1-.68-1.8,1.62,1.62,0,0,1,.6-.21l.91-.21a.76.76,0,0,0,.15-.61.46.46,0,0,0-.23-.37c-.88.05-2.19.08-3.8.08s-2.54,0-3.67-.08a.43.43,0,0,0-.27.32.7.7,0,0,0,.17.66l.88.16c.89.18,1.12.56,1.64,1.62l3.09,6.39a5.3,5.3,0,0,1,.7,3.08v1.3c0,2.41-.15,2.57-1.29,2.75l-.9.14a.61.61,0,0,0-.18.48.6.6,0,0,0,.2.49c1.58,0,2.87-.08,4.08-.08s2.52,0,4.21.08h0a.84.84,0,0,0,0-1l-1-.13c-1.15-.18-1.3-.34-1.3-2.75v-1.82a5.67,5.67,0,0,1,.93-3.33l1.64-3a29.91,29.91,0,0,1,2.28-3.68,2.11,2.11,0,0,1,1.23-.62l.69-.13a.72.72,0,0,0,.14-.63A.41.41,0,0,0,489.08,108.74Z" transform="translate(-87.55 -56.61)"/><path class="cls-1" d="M476.44,126.26l0,0a.7.7,0,0,1-.25-.59.74.74,0,0,1,.22-.58l.06,0,.9-.13c1-.16,1.19-.19,1.19-2.63V121a5.18,5.18,0,0,0-.69-3l-3.09-6.4c-.51-1-.71-1.38-1.55-1.55l-.92-.16,0,0a.83.83,0,0,1-.2-.79.53.53,0,0,1,.36-.41h0c1.13,0,2.09.08,3.67.08s2.92,0,3.79-.08H480a.56.56,0,0,1,.31.46.84.84,0,0,1-.19.72l-.06,0-.9.21a2.63,2.63,0,0,0-.49.16,9.67,9.67,0,0,0,.66,1.68l1.22,2.78c.39.86.85,1.82,1.08,2.3l.06-.1.08-.15,1.06-2,.15-.3c.22-.43.44-.86.66-1.27a15,15,0,0,0,1.33-2.94s-.09-.1-.75-.21l-.64-.12a.74.74,0,0,1-.25-.65.57.57,0,0,1,.28-.54l0,0h0c1.13,0,2,.08,2.92.08s1.76,0,2.54-.08h0a.57.57,0,0,1,.36.45.82.82,0,0,1-.18.74l0,0-.72.15a2,2,0,0,0-1.16.56,30.66,30.66,0,0,0-2.27,3.67l-1.64,3a5.56,5.56,0,0,0-.91,3.27v1.82c0,2.44.15,2.47,1.19,2.63l1.07.13,0,0a.77.77,0,0,1,.22.59.88.88,0,0,1-.19.58l0,0h-.06c-1.82-.06-3-.08-4.22-.08s-2.5,0-4.08.08Zm4.12-.33c1.17,0,2.38,0,4.17.08a.65.65,0,0,0,.09-.37.61.61,0,0,0-.1-.37l-1-.13c-1.26-.19-1.4-.49-1.4-2.87v-1.82a5.78,5.78,0,0,1,.94-3.39l1.64-3a28.15,28.15,0,0,1,2.3-3.7,2.23,2.23,0,0,1,1.29-.66l.66-.13a.64.64,0,0,0,.08-.48.3.3,0,0,0-.16-.25c-.78,0-1.58.08-2.53.08s-1.78,0-2.9-.08a.48.48,0,0,0-.11.32.6.6,0,0,0,.11.42l.57.1c.71.11,1,.23,1,.45s-.15.8-1.36,3c-.22.41-.44.84-.66,1.27l-.15.3-1.06,2.06-.09.15-.17.32-.12.2-.1-.21c-.17-.34-.73-1.51-1.19-2.53L479.05,112a6.6,6.6,0,0,1-.69-1.84v-.05l0,0a1.54,1.54,0,0,1,.68-.26l.86-.21a.58.58,0,0,0,.09-.47.34.34,0,0,0-.13-.26c-.87,0-2.17.08-3.77.08s-2.54,0-3.66-.08c-.1,0-.14.15-.16.22a.64.64,0,0,0,.1.52l.85.15c1,.19,1.22.63,1.73,1.68l3.09,6.4a5.33,5.33,0,0,1,.72,3.13v1.3c0,2.38-.15,2.68-1.4,2.87l-.87.13a.61.61,0,0,0-.1.37.58.58,0,0,0,.11.37C478.08,126,479.37,125.93,480.56,125.93Z" transform="translate(-87.55 -56.61)"/><path class="cls-1" d="M508.9,108.41a8.94,8.94,0,0,0-9.32,9.16c0,5.32,3.64,8.9,9.06,8.9,5.72,0,9.42-3.58,9.42-9.11C518.06,112.09,514.29,108.41,508.9,108.41Zm.23,16.79c-3.92,0-5.32-4.43-5.32-8.23,0-4.57,1.82-7.3,4.88-7.3s5.14,3.3,5.14,8C513.83,120.5,513.22,125.2,509.13,125.2Z" transform="translate(-87.55 -56.61)"/><path class="cls-1" d="M508.64,126.59c-5.5,0-9.19-3.62-9.19-9a9.07,9.07,0,0,1,9.45-9.29c5.47,0,9.28,3.73,9.28,9.08C518.18,123,514.44,126.59,508.64,126.59Zm.26-18.06a8.82,8.82,0,0,0-9.2,9c0,5.25,3.59,8.77,8.94,8.77,5.65,0,9.29-3.52,9.29-9C517.93,112.16,514.22,108.53,508.9,108.53Zm.23,16.8c-4,0-5.44-4.51-5.44-8.36,0-4.65,1.87-7.42,5-7.42S514,112.9,514,117.7C514,120.55,513.33,125.33,509.13,125.33Zm-.44-15.53c-3,0-4.75,2.68-4.75,7.17,0,3.74,1.36,8.11,5.19,8.11s4.57-4.63,4.57-7.38C513.7,113.05,511.64,109.8,508.69,109.8Z" transform="translate(-87.55 -56.61)"/><path class="cls-1" d="M561.47,108.17a.66.66,0,0,0-.37.1c-.23.53-.63.55-2.31.55h-9.67c-2,0-2-.11-2.16-.54a.67.67,0,0,0-.39-.11.6.6,0,0,0-.39.16c0,.27-.1.58-.15.92a23.51,23.51,0,0,1-.71,3.52.65.65,0,0,0,.62.34.77.77,0,0,0,.41-.11c.76-1.86,1.29-2.91,3.19-2.91h1.61c.59,0,.59.09.59.72v11.46c0,2.41-.15,2.57-1.29,2.75l-1.19.14a.61.61,0,0,0-.17.48.59.59,0,0,0,.19.49c1.82,0,3.17-.08,4.42-.08s2.47,0,4.16.08h0a.68.68,0,0,0,.15-.48.64.64,0,0,0-.17-.49l-1-.13c-1.15-.18-1.3-.34-1.3-2.75V110.81c0-.65.06-.72.67-.72h1.55c2,0,2.3,1.26,2.73,2.87.08.13.32.15.42.15a.72.72,0,0,0,.61-.25,19.36,19.36,0,0,1,.38-4.49A.58.58,0,0,0,561.47,108.17Z" transform="translate(-87.55 -56.61)"/><path class="cls-1" d="M549.24,126.26l0,0a.73.73,0,0,1-.25-.59.78.78,0,0,1,.22-.58l0,0,1.22-.14c1-.16,1.18-.19,1.18-2.63V110.81c0-.6,0-.6-.46-.6h-1.61c-1.83,0-2.31,1-3.08,2.84v0l0,0a1,1,0,0,1-.47.13.77.77,0,0,1-.73-.42l0,0v0a24.54,24.54,0,0,0,.71-3.49c.05-.36.09-.67.14-.94v0l0,0a.77.77,0,0,1,.95-.06l0,0v0c.11.36.14.46,2,.46h9.67c1.69,0,2,0,2.2-.48v0l0,0a.81.81,0,0,1,.43-.11.71.71,0,0,1,.53.25l0,0,0,.05a19.19,19.19,0,0,0-.38,4.46v.06a.81.81,0,0,1-.72.31.64.64,0,0,1-.53-.21v0c-.43-1.61-.74-2.78-2.61-2.78H556.2c-.53,0-.55,0-.55.6v11.46c0,2.44.16,2.47,1.19,2.63l1.08.13,0,0a.77.77,0,0,1,.22.59.85.85,0,0,1-.2.58l0,0h-.06c-1.78-.06-3.06-.08-4.17-.08s-2.49,0-4.42.08Zm4.46-.33c1.1,0,2.38,0,4.12.08a.75.75,0,0,0,.09-.37.61.61,0,0,0-.1-.37l-1-.13c-1.26-.19-1.41-.49-1.41-2.87V110.81c0-.72.12-.85.8-.85h1.55c2.06,0,2.43,1.37,2.85,3a.64.64,0,0,0,.3.06.65.65,0,0,0,.48-.15,20.53,20.53,0,0,1,.37-4.43.52.52,0,0,0-.55,0c-.28.59-.83.59-2.41.59h-9.67c-1.89,0-2.1-.09-2.27-.59a.51.51,0,0,0-.56,0c0,.25-.09.54-.13.86a24.1,24.1,0,0,1-.71,3.5.57.57,0,0,0,.49.23.78.78,0,0,0,.31-.07c.75-1.84,1.33-3,3.29-3h1.61c.68,0,.71.19.71.85v11.46c0,2.38-.14,2.68-1.4,2.87l-1.15.14a.57.57,0,0,0-.1.36.58.58,0,0,0,.11.37C551.22,126,552.54,125.93,553.7,125.93Z" transform="translate(-87.55 -56.61)"/><path class="cls-1" d="M573.31,108.41a8.94,8.94,0,0,0-9.32,9.16c0,5.32,3.64,8.9,9.06,8.9,5.72,0,9.42-3.58,9.42-9.11C582.47,112.09,578.7,108.41,573.31,108.41Zm.23,16.79c-3.93,0-5.32-4.43-5.32-8.23,0-4.57,1.82-7.3,4.88-7.3s5.14,3.3,5.14,8C578.24,120.5,577.62,125.2,573.54,125.2Z" transform="translate(-87.55 -56.61)"/><path class="cls-1" d="M573.05,126.59c-5.5,0-9.19-3.62-9.19-9a9.06,9.06,0,0,1,9.45-9.29c5.46,0,9.28,3.73,9.28,9.08C582.59,123,578.85,126.59,573.05,126.59Zm.26-18.06a8.82,8.82,0,0,0-9.2,9c0,5.25,3.59,8.77,8.94,8.77,5.64,0,9.29-3.52,9.29-9C582.34,112.16,578.63,108.53,573.31,108.53Zm.23,16.8c-4,0-5.45-4.51-5.45-8.36,0-4.65,1.87-7.42,5-7.42s5.26,3.35,5.26,8.15C578.36,120.55,577.73,125.33,573.54,125.33Zm-.44-15.53c-3,0-4.76,2.68-4.76,7.17,0,3.74,1.37,8.11,5.2,8.11,4,0,4.57-4.63,4.57-7.38C578.11,113.05,576.05,109.8,573.1,109.8Z" transform="translate(-87.55 -56.61)"/><path class="cls-1" d="M600.3,121.54a.5.5,0,0,0-.4.17c-1.5,3-2.19,3.07-4.6,3.07-1.87,0-2.34-.19-2.67-.63a4.12,4.12,0,0,1-.44-2.45v-9.1c0-2.4.15-2.57,1.3-2.77l.69-.11a.63.63,0,0,0,.17-.49.62.62,0,0,0-.19-.49c-1.31.05-2.6.08-3.85.08s-2.55,0-3.92-.07a.54.54,0,0,0-.26.48.53.53,0,0,0,.22.49l.76.11c1.14.2,1.29.37,1.29,2.77v9.67c0,2.41-.15,2.57-1.29,2.75l-1,.14a.52.52,0,0,0-.14.43.64.64,0,0,0,.24.54c1.61,0,2.91-.08,4.11-.08h3.48c2.39,0,4.75,0,6,.08h0v0a15.63,15.63,0,0,0,1.12-4.24A.78.78,0,0,0,600.3,121.54Z" transform="translate(-87.55 -56.61)"/><path class="cls-1" d="M586.17,126.26l0,0a.81.81,0,0,1-.31-.65.64.64,0,0,1,.2-.53l0,0,1-.14c1-.16,1.19-.19,1.19-2.63V112.6c0-2.44-.16-2.46-1.2-2.65l-.79-.12a.73.73,0,0,1,.05-1.19l0,0h0c1.41,0,2.72.08,3.91.08s2.54,0,3.84-.08h0l0,0a.76.76,0,0,1,.25.59.78.78,0,0,1-.23.59l0,0-.69.11c-1,.19-1.19.21-1.19,2.65v9.1a4.21,4.21,0,0,0,.4,2.37c.32.41.76.59,2.58.59,2.39,0,3-.11,4.49-3a.6.6,0,0,1,.51-.23.89.89,0,0,1,.76.38l0,0v0a16.12,16.12,0,0,1-1.13,4.29l0,.07-.09,0c-1.29-.05-3.65-.08-6-.08h-3.48c-1.16,0-2.42,0-4.1.08Zm0-1a.49.49,0,0,0-.08.3.66.66,0,0,0,.16.43c1.66-.06,2.92-.08,4.07-.08h3.48c2.35,0,4.67,0,6,.07a16.27,16.27,0,0,0,1.07-4.1.66.66,0,0,0-.52-.23.37.37,0,0,0-.3.12c-1.52,3-2.28,3.12-4.7,3.12-1.92,0-2.41-.21-2.77-.68a4.31,4.31,0,0,1-.46-2.53v-9.1c0-2.37.14-2.67,1.4-2.89l.65-.11a.54.54,0,0,0,.11-.37.61.61,0,0,0-.11-.36c-1.3,0-2.58.08-3.81.08s-2.49,0-3.88-.08a.43.43,0,0,0-.17.36.41.41,0,0,0,.14.37l.72.1c1.26.23,1.41.53,1.41,2.9v9.67c0,2.38-.15,2.68-1.4,2.87Z" transform="translate(-87.55 -56.61)"/><path class="cls-1" d="M617.49,121.6a.5.5,0,0,0-.43.19c-1.46,3-2.36,3-4.55,3-1.89,0-2.37-.21-2.7-.66a4.6,4.6,0,0,1-.41-2.44v-3.1c0-.77,0-.77.69-.77h1.8c1.34,0,1.61.2,1.89,1.43l.14.66a.62.62,0,0,0,.49.18.58.58,0,0,0,.53-.23c-.05-.83-.08-1.76-.08-2.75s0-1.92.08-2.78c-.08-.14-.32-.19-.51-.19a.68.68,0,0,0-.52.18l-.13.65c-.28,1.22-.53,1.4-1.89,1.4h-1.8c-.67,0-.69,0-.69-.74v-4.55c0-1,0-1,.82-1h2.08a3.46,3.46,0,0,1,2.53.79,6.33,6.33,0,0,1,1,2.06.7.7,0,0,0,.47.16.57.57,0,0,0,.55-.29c-.08-1.06-.18-2.15-.25-3a8.42,8.42,0,0,0-.13-1.12c-.31.05-1.67.08-3.48.08h-5.51c-1.26,0-2.52,0-3.76-.07a.58.58,0,0,0-.23.51.49.49,0,0,0,.19.46l.65.13c1.15.21,1.29.37,1.29,2.72v9.7c0,2.38-.14,2.54-1.29,2.7l-1.24.18a.56.56,0,0,0-.17.43.64.64,0,0,0,.19.55c1.95,0,3.22-.08,4.47-.08H611c2.39,0,4.74,0,6,.08h0v0a14.43,14.43,0,0,0,1.09-4.19A.61.61,0,0,0,617.49,121.6Z" transform="translate(-87.55 -56.61)"/><path class="cls-1" d="M603.06,126.26l0,0a.79.79,0,0,1-.25-.65.68.68,0,0,1,.23-.53l0,0,1.24-.19c1-.13,1.19-.15,1.19-2.57v-9.7c0-2.38-.16-2.41-1.2-2.59l-.69-.15a.65.65,0,0,1-.25-.58.73.73,0,0,1,.29-.61l0,0h0c1.29,0,2.56.08,3.76.08H613c1.8,0,3.16,0,3.46-.08l.11,0,0,.11a10.51,10.51,0,0,1,.14,1.13c.07.8.16,1.9.24,3v0a.69.69,0,0,1-.67.37.86.86,0,0,1-.56-.19l0,0v0a6.24,6.24,0,0,0-1-2,3.32,3.32,0,0,0-2.44-.76h-2.08c-.69,0-.69,0-.69.86v4.55c0,.62,0,.62.56.62h1.8c1.3,0,1.5-.15,1.77-1.31l.15-.7a.86.86,0,0,1,.62-.23c.11,0,.48,0,.62.26v.07c0,.88-.07,1.81-.07,2.77s0,1.91.08,2.74v0l0,0a.85.85,0,0,1-1.23.07l0,0-.13-.67c-.27-1.16-.49-1.32-1.77-1.32h-1.8c-.56,0-.56,0-.56.64v3.1a4.47,4.47,0,0,0,.39,2.37c.29.41.76.61,2.59.61,2.19,0,3,0,4.43-2.92a.64.64,0,0,1,.55-.26.72.72,0,0,1,.71.4v.05a14.53,14.53,0,0,1-1.11,4.24l0,.07-.09,0c-1.29-.05-3.65-.08-6-.08h-3.38c-1.27,0-2.6,0-4.47.08Zm.07-1a.59.59,0,0,0-.1.32.66.66,0,0,0,.11.42c1.85-.05,3.16-.08,4.43-.08H611c2.35,0,4.67,0,5.95.07a14.7,14.7,0,0,0,1.06-4.06.54.54,0,0,0-.47-.21.41.41,0,0,0-.33.13c-1.48,3-2.47,3-4.65,3-1.94,0-2.45-.23-2.8-.71a4.7,4.7,0,0,1-.43-2.52v-3.1c0-.83.06-.89.81-.89h1.8c1.4,0,1.72.24,2,1.52l.13.63a.57.57,0,0,0,.38.12.54.54,0,0,0,.4-.14c0-.83-.07-1.74-.07-2.72s0-1.87.07-2.74a.59.59,0,0,0-.38-.11.62.62,0,0,0-.41.12l-.12.61c-.29,1.28-.59,1.51-2,1.51h-1.8c-.74,0-.81-.08-.81-.87v-4.55c0-1,0-1.11.94-1.11h2.08a3.55,3.55,0,0,1,2.62.84,6.08,6.08,0,0,1,1,2.07.7.7,0,0,0,.37.1.48.48,0,0,0,.42-.18c-.08-1.05-.17-2.13-.24-2.92,0-.43-.07-.78-.11-1-.46,0-1.71.07-3.38.07h-5.51c-1.19,0-2.45,0-3.73-.08a.58.58,0,0,0-.14.39.43.43,0,0,0,.12.35l.62.12c1.25.22,1.4.52,1.4,2.84v9.7c0,2.36-.15,2.65-1.41,2.82Z" transform="translate(-87.55 -56.61)"/><path class="cls-1" d="M634.42,109.6a17.92,17.92,0,0,0-6.07-.86c-2.81,0-4.9.11-7,.24-.13,0-.23.12-.26.31s0,.58.2.67l.5.05c1.17.13,1.21.64,1.21,3.06v9.2c0,2.38-.14,2.55-1.29,2.75l-.82.13a.52.52,0,0,0-.17.43.64.64,0,0,0,.19.55c1.5,0,2.83-.08,4-.08.44,0,1,0,1.5.07s1.31.09,2,.09A14.45,14.45,0,0,0,635,125a8.35,8.35,0,0,0,4.68-7.8A8,8,0,0,0,634.42,109.6Zm-5,15.34a2.76,2.76,0,0,1-2.13-.74c-.47-.55-.51-1.55-.51-2.89v-9.49a3.14,3.14,0,0,1,.18-1.49,1.87,1.87,0,0,1,1.32-.32c4.6,0,7.14,2.64,7.14,7.43C635.46,121.07,633.89,124.94,629.46,124.94Z" transform="translate(-87.55 -56.61)"/><path class="cls-1" d="M628.45,126.33c-.66,0-1.32,0-2-.08s-1.06-.07-1.5-.07c-1.22,0-2.55,0-4,.08h0l0,0a.79.79,0,0,1-.25-.65.65.65,0,0,1,.23-.53l0,0,.82-.13c1-.19,1.19-.22,1.19-2.63v-9.2c0-2.46-.07-2.82-1.11-2.94l-.53-.06a.76.76,0,0,1-.28-.8.46.46,0,0,1,.38-.42c2.07-.12,4.15-.23,7-.23a17.86,17.86,0,0,1,6.11.87h0a8.07,8.07,0,0,1,5.38,7.69,8.46,8.46,0,0,1-4.74,7.91A14.58,14.58,0,0,1,628.45,126.33Zm-3.46-.4c.45,0,1,0,1.51.07s1.3.08,2,.08a14.37,14.37,0,0,0,6.54-1.21,8.23,8.23,0,0,0,4.6-7.69,7.83,7.83,0,0,0-5.21-7.46h0a18,18,0,0,0-6-.85c-2.82,0-4.9.11-7,.23-.09,0-.13.17-.14.22a.59.59,0,0,0,.12.52l.47,0c1.33.14,1.33.85,1.33,3.18v9.2c0,2.35-.15,2.65-1.4,2.87l-.79.13a.52.52,0,0,0-.1.32.61.61,0,0,0,.11.42C622.46,126,623.78,125.93,625,125.93Zm4.47-.86a2.87,2.87,0,0,1-2.22-.79c-.5-.58-.54-1.6-.54-3v-9.49a3.07,3.07,0,0,1,.2-1.56c.24-.33,1-.37,1.42-.37,4.69,0,7.27,2.68,7.27,7.55C635.59,121.13,634,125.07,629.46,125.07Zm-1.14-14.93c-.75,0-1.13.14-1.22.27a3.49,3.49,0,0,0-.15,1.41v9.49c0,1.32,0,2.29.48,2.81a2.62,2.62,0,0,0,2,.7c4.33,0,5.88-3.82,5.88-7.38C635.34,112.73,632.84,110.14,628.32,110.14Z" transform="translate(-87.55 -56.61)"/><path class="cls-1" d="M653.05,108.41a8.94,8.94,0,0,0-9.32,9.16c0,5.32,3.64,8.9,9.06,8.9,5.72,0,9.42-3.58,9.42-9.11C662.21,112.09,658.44,108.41,653.05,108.41Zm.23,16.79c-3.92,0-5.32-4.43-5.32-8.23,0-4.57,1.83-7.3,4.88-7.3s5.14,3.3,5.14,8C658,120.5,657.37,125.2,653.28,125.2Z" transform="translate(-87.55 -56.61)"/><path class="cls-1" d="M652.79,126.59c-5.5,0-9.19-3.62-9.19-9a9.07,9.07,0,0,1,9.45-9.29c5.47,0,9.29,3.73,9.29,9.08C662.34,123,658.59,126.59,652.79,126.59Zm.26-18.06a8.82,8.82,0,0,0-9.2,9c0,5.25,3.59,8.77,8.94,8.77,5.65,0,9.3-3.52,9.3-9C662.09,112.16,658.37,108.53,653.05,108.53Zm.23,16.8c-4,0-5.44-4.51-5.44-8.36,0-4.65,1.87-7.42,5-7.42s5.26,3.35,5.26,8.15C658.1,120.55,657.48,125.33,653.28,125.33Zm-.44-15.53c-3,0-4.75,2.68-4.75,7.17,0,3.74,1.36,8.11,5.19,8.11,4,0,4.57-4.63,4.57-7.38C657.85,113.05,655.79,109.8,652.84,109.8Z" transform="translate(-87.55 -56.61)"/><path class="cls-1" d="M319.31,151.12h22V159H329v6.34h11.54V173H329v15.29h-9.68Z" transform="translate(-87.55 -56.61)"/><path class="cls-1" d="M357.8,150.39c9.88,0,13.26,5.41,13.26,19.3S367.68,189,357.8,189s-13.27-5.41-13.27-19.29S347.91,150.39,357.8,150.39Zm0,32c3,0,3.27-2.71,3.27-12.74S360.76,157,357.8,157s-3.28,2.7-3.28,12.74S354.83,182.43,357.8,182.43Z" transform="translate(-87.55 -56.61)"/><path class="cls-1" d="M385.1,151.12V177.9c0,3.59,1.09,4.53,2.91,4.53s2.91-.94,2.91-4.53V151.12h9.67v24.34c0,10.4-4.47,13.52-12.58,13.52s-12.59-3.12-12.59-13.52V151.12Z" transform="translate(-87.55 -56.61)"/><path class="cls-1" d="M406.05,151.12h10.82L423.11,174h.1V151.12h9.05v37.13H421.65l-6.45-22.93h-.1v22.93h-9.05Z" transform="translate(-87.55 -56.61)"/><path class="cls-1" d="M438.14,151.12h14c11.18,0,11.75,8.84,11.75,18.57s-.57,18.56-11.75,18.56h-14Zm9.67,30.16h1.92c3.75,0,4.21-1.56,4.21-11.59s-.46-11.6-4.21-11.6h-1.92Z" transform="translate(-87.55 -56.61)"/><path class="cls-1" d="M474.43,151.12H486.6l9,37.13h-10.3l-1-6.5h-7.69l-1,6.5h-10.3Zm6.14,7.59h-.11l-2.65,15.76h5.41Z" transform="translate(-87.55 -56.61)"/><path class="cls-1" d="M500.59,159.34h-7.28v-8.22h24.23v8.22h-7.28v28.91h-9.67Z" transform="translate(-87.55 -56.61)"/><path class="cls-1" d="M520.66,151.12h9.67v37.13h-9.67Z" transform="translate(-87.55 -56.61)"/><path class="cls-1" d="M548,150.39c9.88,0,13.26,5.41,13.26,19.3S557.89,189,548,189s-13.26-5.41-13.26-19.29S538.13,150.39,548,150.39Zm0,32c3,0,3.28-2.71,3.28-12.74S551,157,548,157s-3.27,2.7-3.27,12.74S545.05,182.43,548,182.43Z" transform="translate(-87.55 -56.61)"/><path class="cls-1" d="M566.06,151.12h10.81L583.11,174h.11V151.12h9v37.13h-10.6l-6.45-22.93h-.11v22.93h-9Z" transform="translate(-87.55 -56.61)"/></g></svg>