<svg id="Layer_1" data-name="Layer 1" xmlns="http://www.w3.org/2000/svg" viewBox="0 0 289.19 94.73"><defs><style>.cls-1{fill:#fff;}</style></defs><path class="cls-1" d="M472.37,326.26a15.88,15.88,0,0,0,5.05-2.83,11.87,11.87,0,0,0,3.14-4.14,11.69,11.69,0,0,0,1.08-4.91,10.92,10.92,0,0,0-2.09-6.91,13.65,13.65,0,0,0-6-4.17l-5-1.93q-2.85-1-4.47-1.83a2.41,2.41,0,0,1-1.62-2.21,2.24,2.24,0,0,1,1.14-2.05,6.15,6.15,0,0,1,3.18-.69,11.59,11.59,0,0,1,4.22.75,19.88,19.88,0,0,1,4,2.18l5.46-6.72a17.64,17.64,0,0,0-6.51-4.11,21.25,21.25,0,0,0-7.2-1.3,18.66,18.66,0,0,0-6.2,1,15.49,15.49,0,0,0-4.85,2.71,12.49,12.49,0,0,0-3.18,4,10.71,10.71,0,0,0-1.14,4.88,11.23,11.23,0,0,0,.67,4,10.73,10.73,0,0,0,1.81,3.21,12.27,12.27,0,0,0,2.66,2.42,15,15,0,0,0,3.18,1.65l5.14,2.12c.89.33,1.67.63,2.35.9a12.5,12.5,0,0,1,1.75.84,4.08,4.08,0,0,1,1.11.93,2,2,0,0,1,.38,1.25,2.4,2.4,0,0,1-1.11,2.11,6.6,6.6,0,0,1-3.59.75,12.46,12.46,0,0,1-4.86-1.09,21.27,21.27,0,0,1-4.79-2.83l-6.22,7.34a21.75,21.75,0,0,0,7.52,4.39,25.36,25.36,0,0,0,8.1,1.39,20.58,20.58,0,0,0,6.85-1.05" transform="translate(-192.46 -232.58)"/><polygon class="cls-1" points="253.88 93.98 253.88 85.03 237.5 85.03 237.5 77.81 250.96 77.81 250.96 68.85 237.5 68.85 237.5 62.51 253.25 62.51 253.25 53.55 226.58 53.55 226.58 93.98 253.88 93.98"/><path class="cls-1" d="M406.4,310.89a12.71,12.71,0,0,0,4.86-4.48,15.41,15.41,0,0,0,.47-13.53,10.69,10.69,0,0,0-3.58-4,15,15,0,0,0-5.27-2.11,30.86,30.86,0,0,0-6.32-.63H380.94v40.44h10.92V313h4.19l7.11,13.56h12.19Zm-10.6-6.34h-3.94v-10h3.94a9.83,9.83,0,0,1,4.92,1,3.84,3.84,0,0,1,1.68,3.61C402.4,302.76,400.2,304.55,395.8,304.55Z" transform="translate(-192.46 -232.58)"/><path class="cls-1" d="M369.83,322.37q4.13-5,4.12-15.33V286.13H363.41v22.15c0,3.61-.51,6.15-1.55,7.62a5.48,5.48,0,0,1-4.8,2.21,5.32,5.32,0,0,1-4.73-2.21q-1.49-2.2-1.49-7.62V286.13H339.92V307q0,10.38,4.22,15.33t12.92,4.94q8.64,0,12.77-4.94" transform="translate(-192.46 -232.58)"/><polygon class="cls-1" points="132.61 93.98 132.61 62.51 143.53 62.51 143.53 53.55 110.76 53.55 110.76 62.51 121.69 62.51 121.69 93.98 132.61 93.98"/><path class="cls-1" d="M295.16,322.37q4.13-5,4.12-15.33V286.13H288.74v22.15q0,5.42-1.55,7.62a5.48,5.48,0,0,1-4.8,2.21,5.31,5.31,0,0,1-4.73-2.21q-1.49-2.2-1.49-7.62V286.13H265.25V307q0,10.38,4.22,15.33t12.92,4.94q8.64,0,12.77-4.94" transform="translate(-192.46 -232.58)"/><polygon class="cls-1" points="51.84 93.98 51.84 79.18 65.55 79.18 65.55 70.22 51.84 70.22 51.84 62.51 67.84 62.51 67.84 53.55 40.92 53.55 40.92 93.98 51.84 93.98"/><path class="cls-1" d="M472.37,326.26a15.88,15.88,0,0,0,5.05-2.83,11.87,11.87,0,0,0,3.14-4.14,11.69,11.69,0,0,0,1.08-4.91,10.92,10.92,0,0,0-2.09-6.91,13.65,13.65,0,0,0-6-4.17l-5-1.93q-2.85-1-4.47-1.83a2.41,2.41,0,0,1-1.62-2.21,2.24,2.24,0,0,1,1.14-2.05,6.15,6.15,0,0,1,3.18-.69,11.59,11.59,0,0,1,4.22.75,19.88,19.88,0,0,1,4,2.18l5.46-6.72a17.64,17.64,0,0,0-6.51-4.11,21.25,21.25,0,0,0-7.2-1.3,18.66,18.66,0,0,0-6.2,1,15.49,15.49,0,0,0-4.85,2.71,12.49,12.49,0,0,0-3.18,4,10.71,10.71,0,0,0-1.14,4.88,11.23,11.23,0,0,0,.67,4,10.73,10.73,0,0,0,1.81,3.21,12.27,12.27,0,0,0,2.66,2.42,15,15,0,0,0,3.18,1.65l5.14,2.12c.89.33,1.67.63,2.35.9a12.5,12.5,0,0,1,1.75.84,4.08,4.08,0,0,1,1.11.93,2,2,0,0,1,.38,1.25,2.4,2.4,0,0,1-1.11,2.11,6.6,6.6,0,0,1-3.59.75,12.46,12.46,0,0,1-4.86-1.09,21.27,21.27,0,0,1-4.79-2.83l-6.22,7.34a21.75,21.75,0,0,0,7.52,4.39,25.36,25.36,0,0,0,8.1,1.39A20.58,20.58,0,0,0,472.37,326.26Z" transform="translate(-192.46 -232.58)"/><polygon class="cls-1" points="253.88 93.98 253.88 85.03 237.5 85.03 237.5 77.81 250.96 77.81 250.96 68.85 237.5 68.85 237.5 62.51 253.25 62.51 253.25 53.55 226.58 53.55 226.58 93.98 253.88 93.98"/><path class="cls-1" d="M369.83,322.37q4.13-5,4.12-15.33V286.13H363.41v22.15c0,3.61-.51,6.15-1.55,7.62a5.48,5.48,0,0,1-4.8,2.21,5.32,5.32,0,0,1-4.73-2.21q-1.49-2.2-1.49-7.62V286.13H339.92V307q0,10.38,4.22,15.33t12.92,4.94Q365.7,327.31,369.83,322.37Z" transform="translate(-192.46 -232.58)"/><polygon class="cls-1" points="132.61 93.98 132.61 62.51 143.53 62.51 143.53 53.55 110.76 53.55 110.76 62.51 121.69 62.51 121.69 93.98 132.61 93.98"/><path class="cls-1" d="M295.16,322.37q4.13-5,4.12-15.33V286.13H288.74v22.15q0,5.42-1.55,7.62a5.48,5.48,0,0,1-4.8,2.21,5.31,5.31,0,0,1-4.73-2.21q-1.49-2.2-1.49-7.62V286.13H265.25V307q0,10.38,4.22,15.33t12.92,4.94Q291,327.31,295.16,322.37Z" transform="translate(-192.46 -232.58)"/><polygon class="cls-1" points="51.84 93.98 51.84 79.18 65.55 79.18 65.55 70.22 51.84 70.22 51.84 62.51 67.84 62.51 67.84 53.55 40.92 53.55 40.92 93.98 51.84 93.98"/><path class="cls-1" d="M204.72,266.73a17.2,17.2,0,0,1-7-1.37,16.75,16.75,0,0,1-5.22-3.58l1.65-1.6a14.75,14.75,0,0,0,10.61,4.45,10.69,10.69,0,0,0,6.6-1.82,5.72,5.72,0,0,0,2.42-4.78,5.57,5.57,0,0,0-1.92-4.47,8.65,8.65,0,0,0-2.07-1.33c-.78-.36-1.62-.73-2.5-1.1l-5.5-2.25c-.77-.3-1.59-.66-2.47-1.1a10.33,10.33,0,0,1-2.4-1.62,8.59,8.59,0,0,1-1.78-2.3,6.58,6.58,0,0,1-.72-3.18,6.77,6.77,0,0,1,.8-3.27,7.86,7.86,0,0,1,2.2-2.55,10.43,10.43,0,0,1,3.35-1.68,14.33,14.33,0,0,1,4.21-.6,13.81,13.81,0,0,1,5.86,1.18,15.08,15.08,0,0,1,4.21,2.77l-1.43,1.5a12.74,12.74,0,0,0-3.74-2.42,12.23,12.23,0,0,0-4.9-.93,9.75,9.75,0,0,0-5.83,1.6,5.07,5.07,0,0,0-2.2,4.3,4.57,4.57,0,0,0,.61,2.45,6.05,6.05,0,0,0,1.54,1.73,11.28,11.28,0,0,0,2,1.25c.73.35,1.43.66,2.09.92l5.5,2.2a25.21,25.21,0,0,1,2.92,1.35,11.81,11.81,0,0,1,2.42,1.75,7.8,7.8,0,0,1,1.67,2.38,8.26,8.26,0,0,1-.19,6.8,8.34,8.34,0,0,1-2.34,2.8,11.49,11.49,0,0,1-3.65,1.85A15.93,15.93,0,0,1,204.72,266.73Z" transform="translate(-192.46 -232.58)"/><path class="cls-1" d="M232.94,266.13V233.18h2.53v14.45h19.41V233.18h2.53v32.95h-2.53v-16.5H235.47v16.5Z" transform="translate(-192.46 -232.58)"/><path class="cls-1" d="M272.26,266.13,285,233.18h2.53l12.76,32.95h-2.64l-4.23-11.3H279.08l-4.29,11.3Zm9.9-19.4-2.31,6.15h12.87l-2.31-6.15c-.73-2-1.43-3.85-2.09-5.65s-1.3-3.71-1.92-5.75h-.22c-.63,2-1.27,3.95-1.93,5.75S282.89,244.77,282.16,246.73Z" transform="translate(-192.46 -232.58)"/><path class="cls-1" d="M315.16,266.13V233.18h9.13a28.91,28.91,0,0,1,5.53.48,11.36,11.36,0,0,1,4.12,1.57,7.61,7.61,0,0,1,2.59,2.85,9.33,9.33,0,0,1,.91,4.3q0,4.86-3.41,7.23T324.51,252h-6.82v14.15Zm2.53-16.1h6.22q5.55,0,8.25-1.8t2.69-5.85q0-4.14-2.78-5.7t-8.38-1.55h-6Z" transform="translate(-192.46 -232.58)"/><path class="cls-1" d="M354.38,266.13V233.18h2.53v32.95Z" transform="translate(-192.46 -232.58)"/><path class="cls-1" d="M376.65,266.13V233.18h2.64l15.29,23.25,4.07,6.55h.22c-.07-1.6-.15-3.2-.22-4.8s-.11-3.2-.11-4.8v-20.2H401v32.95h-2.64L383,242.88,379,236.33h-.22c.07,1.6.15,3.16.22,4.68s.11,3.07.11,4.67v20.45Z" transform="translate(-192.46 -232.58)"/><path class="cls-1" d="M434,266.73a16.34,16.34,0,0,1-6.38-1.2,13.81,13.81,0,0,1-4.9-3.42,15.66,15.66,0,0,1-3.16-5.4,21.25,21.25,0,0,1-1.13-7.13,20.36,20.36,0,0,1,1.16-7.05,15.55,15.55,0,0,1,3.24-5.37,13.74,13.74,0,0,1,5.06-3.4,17.55,17.55,0,0,1,6.55-1.18,15,15,0,0,1,3.33.35,13.35,13.35,0,0,1,2.72.93,13.62,13.62,0,0,1,2.17,1.27,16.81,16.81,0,0,1,1.68,1.4l-1.49,1.55a13.69,13.69,0,0,0-3.41-2.4,11,11,0,0,0-4.95-1,14.24,14.24,0,0,0-5.61,1,11.62,11.62,0,0,0-4.2,3,13.13,13.13,0,0,0-2.67,4.67,19.31,19.31,0,0,0-.94,6.2,20.79,20.79,0,0,0,.88,6.23,13.32,13.32,0,0,0,2.56,4.72,11.43,11.43,0,0,0,4.13,3,13.52,13.52,0,0,0,5.52,1.07,15.94,15.94,0,0,0,4.65-.65,8.84,8.84,0,0,0,3.49-1.85V251.88h-8.69v-1.95h11.11V263a12.94,12.94,0,0,1-4.42,2.7A17.48,17.48,0,0,1,434,266.73Z" transform="translate(-192.46 -232.58)"/></svg>